M48
; DRILL file {KiCad 8.0.8} date 2026-01-21T18:00:21+0000
; FORMAT={-:-/ absolute / metric / decimal}
; #@! TF.CreationDate,2026-01-21T18:00:21+00:00
; #@! TF.GenerationSoftware,Kicad,Pcbnew,8.0.8
; #@! TF.FileFunction,Plated,1,4,PTH
FMAT,2
METRIC
; #@! TA.AperFunction,Plated,PTH,ViaDrill
T1C0.200
; #@! TA.AperFunction,Plated,PTH,ViaDrill
T2C0.300
; #@! TA.AperFunction,Plated,PTH,ComponentDrill
T3C0.600
; #@! TA.AperFunction,Plated,PTH,ComponentDrill
T4C0.840
; #@! TA.AperFunction,Plated,PTH,ComponentDrill
T5C1.000
; #@! TA.AperFunction,Plated,PTH,ComponentDrill
T6C1.100
; #@! TA.AperFunction,Plated,PTH,ComponentDrill
T7C1.280
%
G90
G05
T1
X39.6Y-83.5
X41.5Y-69.7
X41.5Y-71.5
X41.5Y-72.6
X42.339Y-54.439
X44.32Y-80.65
X50.65Y-78.25
X51.746Y-57.534
X52.5Y-50.7
X54.0Y-59.8
X59.6Y-50.55
X60.6Y-62.7
X61.5Y-79.45
X63.3Y-52.9
X65.4Y-80.73
X65.8Y-69.375
X66.25Y-80.73
X66.425Y-72.325
X68.05Y-66.25
X68.3Y-80.63
X68.9Y-54.035
X68.925Y-72.325
X70.4Y-47.0
X71.9Y-48.5
X73.2Y-41.75
X73.95Y-89.1
X74.0Y-47.75
X75.25Y-93.65
X75.4Y-42.5
X75.4Y-82.825
X76.05Y-91.207
X76.3Y-85.02
X76.6Y-50.0
X77.5Y-86.1
X77.7Y-81.28
X77.9Y-43.25
X79.2Y-49.25
X79.2Y-76.8
X80.1Y-88.05
X80.5Y-72.4
X80.8Y-44.0
X81.2Y-76.8
X81.3Y-72.4
X81.3Y-73.3
X81.6Y-51.5
X81.6Y-71.6
X81.7Y-66.0
X82.1Y-72.4
X82.1Y-73.3
X82.5Y-92.0
X83.0Y-44.75
X83.0Y-66.0
X83.287Y-91.987
X83.8Y-61.75
X84.1Y-50.75
X84.1Y-64.9
X84.2Y-72.2
X84.3Y-73.3
X84.9Y-72.8
X85.5Y-87.0
X85.6Y-45.5
X85.6Y-73.5
X86.1Y-79.5
X86.3Y-92.085
X86.35Y-87.25
X87.8Y-76.9
X88.0Y-72.0
X88.75Y-59.25
X89.05Y-56.75
X89.2Y-82.7
X89.7Y-73.4
X90.2Y-90.65
X90.25Y-65.25
X90.3Y-82.7
X90.3Y-92.013
X90.9Y-84.3
T2
X59.6Y-46.25
X61.0Y-76.2
X62.0Y-73.7
X64.4Y-75.5
X65.6Y-75.5
X82.6Y-84.2
X84.1Y-84.2
T4
X58.97Y-92.88
X58.97Y-95.28
X61.47Y-92.88
X61.47Y-95.28
X63.97Y-92.88
X63.97Y-95.28
T5
X33.02Y-48.26
X33.02Y-50.8
X33.02Y-53.34
X33.02Y-55.88
X33.02Y-58.42
X33.02Y-60.96
X33.02Y-63.5
X33.02Y-66.04
X33.02Y-68.58
X33.02Y-71.12
X33.02Y-73.66
X33.02Y-76.2
X33.02Y-78.74
X33.02Y-81.28
X33.02Y-83.82
X33.02Y-86.36
X33.02Y-88.9
X33.02Y-91.44
X33.02Y-93.98
X33.02Y-96.52
X35.56Y-48.26
X35.56Y-50.8
X35.56Y-53.34
X35.56Y-55.88
X35.56Y-58.42
X35.56Y-60.96
X35.56Y-63.5
X35.56Y-66.04
X35.56Y-68.58
X35.56Y-71.12
X35.56Y-73.66
X35.56Y-76.2
X35.56Y-78.74
X35.56Y-81.28
X35.56Y-83.82
X35.56Y-86.36
X35.56Y-88.9
X35.56Y-91.44
X35.56Y-93.98
X35.56Y-96.52
X49.4Y-83.0
X49.4Y-86.8
X51.94Y-83.0
X51.94Y-86.8
X54.48Y-83.0
X54.48Y-86.8
X96.52Y-48.26
X96.52Y-50.8
X96.52Y-53.34
X96.52Y-55.88
X96.52Y-58.42
X96.52Y-60.96
X96.52Y-63.5
X96.52Y-66.04
X96.52Y-68.58
X96.52Y-71.12
X96.52Y-73.66
X96.52Y-76.2
X96.52Y-78.74
X96.52Y-81.28
X96.52Y-83.82
X96.52Y-86.36
X96.52Y-88.9
X96.52Y-91.44
X96.52Y-93.98
X96.52Y-96.52
X99.06Y-48.26
X99.06Y-50.8
X99.06Y-53.34
X99.06Y-55.88
X99.06Y-58.42
X99.06Y-60.96
X99.06Y-63.5
X99.06Y-66.04
X99.06Y-68.58
X99.06Y-71.12
X99.06Y-73.66
X99.06Y-76.2
X99.06Y-78.74
X99.06Y-81.28
X99.06Y-83.82
X99.06Y-86.36
X99.06Y-88.9
X99.06Y-91.44
X99.06Y-93.98
X99.06Y-96.52
T6
X47.45Y-94.9
X50.95Y-94.9
X70.21Y-55.4
X70.21Y-57.94
X70.21Y-60.48
X70.21Y-63.02
X70.21Y-65.56
X70.21Y-68.1
X72.75Y-52.86
X72.75Y-55.4
X72.75Y-57.94
X72.75Y-60.48
X72.75Y-63.02
X72.75Y-65.56
X72.75Y-68.1
X72.75Y-70.64
X75.29Y-52.86
X75.29Y-55.4
X75.29Y-68.1
X75.29Y-70.64
X77.83Y-52.86
X77.83Y-55.4
X77.83Y-68.1
X77.83Y-70.64
X80.37Y-52.86
X80.37Y-55.4
X80.37Y-68.1
X80.37Y-70.64
X82.91Y-52.86
X82.91Y-55.4
X82.91Y-68.1
X82.91Y-70.64
X85.45Y-52.86
X85.45Y-55.4
X85.45Y-57.94
X85.45Y-60.48
X85.45Y-63.02
X85.45Y-65.56
X85.45Y-68.1
X85.45Y-70.64
X87.99Y-55.4
X87.99Y-57.94
X87.99Y-60.48
X87.99Y-63.02
X87.99Y-65.56
X87.99Y-68.1
T7
X56.17Y-94.08
X66.77Y-94.08
T3
X81.18Y-93.485G85X81.18Y-94.585
G05
X81.18Y-97.815G85X81.18Y-98.615
G05
X89.82Y-93.485G85X89.82Y-94.585
G05
X89.82Y-97.815G85X89.82Y-98.615
G05
M30
