%TF.GenerationSoftware,KiCad,Pcbnew,8.0.8*%
%TF.CreationDate,2026-01-21T18:01:51+00:00*%
%TF.ProjectId,TestBench,54657374-4265-46e6-9368-2e6b69636164,rev?*%
%TF.SameCoordinates,Original*%
%TF.FileFunction,Drillmap*%
%TF.FilePolarity,Positive*%
%FSLAX45Y45*%
G04 Gerber Fmt 4.5, Leading zero omitted, Abs format (unit mm)*
G04 Created by KiCad (PCBNEW 8.0.8) date 2026-01-21 18:01:51*
%MOMM*%
%LPD*%
G01*
G04 APERTURE LIST*
%ADD10C,0.050000*%
%ADD11C,0.200000*%
%ADD12C,0.100000*%
%ADD13C,0.110000*%
%ADD14C,0.128000*%
G04 APERTURE END LIST*
D10*
X3000000Y-9700000D02*
X3000000Y-4400000D01*
X3300000Y-4100000D02*
X9900000Y-4100000D01*
X10200000Y-4400000D02*
X10200000Y-9700000D01*
X3300000Y-10000000D02*
X9900000Y-10000000D01*
X9900000Y-4100000D02*
G75*
G02*
X10200000Y-4400000I0J-300000D01*
G01*
X3300000Y-10000000D02*
G75*
G02*
X3000000Y-9700000I0J300000D01*
G01*
X10200000Y-9700000D02*
G75*
G02*
X9900000Y-10000000I-300000J0D01*
G01*
X3000000Y-4400000D02*
G75*
G02*
X3300000Y-4100000I300000J0D01*
G01*
D11*
D12*
X3950000Y-8340000D02*
X3970000Y-8360000D01*
X3970000Y-8340000D02*
X3950000Y-8360000D01*
X4140000Y-6960000D02*
X4160000Y-6980000D01*
X4160000Y-6960000D02*
X4140000Y-6980000D01*
X4140000Y-7140000D02*
X4160000Y-7160000D01*
X4160000Y-7140000D02*
X4140000Y-7160000D01*
X4140000Y-7250000D02*
X4160000Y-7270000D01*
X4160000Y-7250000D02*
X4140000Y-7270000D01*
X4223891Y-5433891D02*
X4243891Y-5453891D01*
X4243891Y-5433891D02*
X4223891Y-5453891D01*
X4422000Y-8055000D02*
X4442000Y-8075000D01*
X4442000Y-8055000D02*
X4422000Y-8075000D01*
X5055000Y-7815000D02*
X5075000Y-7835000D01*
X5075000Y-7815000D02*
X5055000Y-7835000D01*
X5164638Y-5743351D02*
X5184638Y-5763351D01*
X5184638Y-5743351D02*
X5164638Y-5763351D01*
X5240000Y-5060000D02*
X5260000Y-5080000D01*
X5260000Y-5060000D02*
X5240000Y-5080000D01*
X5390000Y-5970000D02*
X5410000Y-5990000D01*
X5410000Y-5970000D02*
X5390000Y-5990000D01*
X5950000Y-5045000D02*
X5970000Y-5065000D01*
X5970000Y-5045000D02*
X5950000Y-5065000D01*
X6050000Y-6260000D02*
X6070000Y-6280000D01*
X6070000Y-6260000D02*
X6050000Y-6280000D01*
X6140000Y-7935000D02*
X6160000Y-7955000D01*
X6160000Y-7935000D02*
X6140000Y-7955000D01*
X6320000Y-5280000D02*
X6340000Y-5300000D01*
X6340000Y-5280000D02*
X6320000Y-5300000D01*
X6530000Y-8063000D02*
X6550000Y-8083000D01*
X6550000Y-8063000D02*
X6530000Y-8083000D01*
X6570000Y-6927500D02*
X6590000Y-6947500D01*
X6590000Y-6927500D02*
X6570000Y-6947500D01*
X6615000Y-8063000D02*
X6635000Y-8083000D01*
X6635000Y-8063000D02*
X6615000Y-8083000D01*
X6632500Y-7222500D02*
X6652500Y-7242500D01*
X6652500Y-7222500D02*
X6632500Y-7242500D01*
X6795000Y-6615000D02*
X6815000Y-6635000D01*
X6815000Y-6615000D02*
X6795000Y-6635000D01*
X6820000Y-8053000D02*
X6840000Y-8073000D01*
X6840000Y-8053000D02*
X6820000Y-8073000D01*
X6880000Y-5393500D02*
X6900000Y-5413500D01*
X6900000Y-5393500D02*
X6880000Y-5413500D01*
X6882500Y-7222500D02*
X6902500Y-7242500D01*
X6902500Y-7222500D02*
X6882500Y-7242500D01*
X7030000Y-4690000D02*
X7050000Y-4710000D01*
X7050000Y-4690000D02*
X7030000Y-4710000D01*
X7180000Y-4840000D02*
X7200000Y-4860000D01*
X7200000Y-4840000D02*
X7180000Y-4860000D01*
X7310000Y-4165000D02*
X7330000Y-4185000D01*
X7330000Y-4165000D02*
X7310000Y-4185000D01*
X7385000Y-8900000D02*
X7405000Y-8920000D01*
X7405000Y-8900000D02*
X7385000Y-8920000D01*
X7390000Y-4765000D02*
X7410000Y-4785000D01*
X7410000Y-4765000D02*
X7390000Y-4785000D01*
X7515000Y-9355000D02*
X7535000Y-9375000D01*
X7535000Y-9355000D02*
X7515000Y-9375000D01*
X7530000Y-4240000D02*
X7550000Y-4260000D01*
X7550000Y-4240000D02*
X7530000Y-4260000D01*
X7530000Y-8272500D02*
X7550000Y-8292500D01*
X7550000Y-8272500D02*
X7530000Y-8292500D01*
X7595000Y-9110750D02*
X7615000Y-9130750D01*
X7615000Y-9110750D02*
X7595000Y-9130750D01*
X7620000Y-8492000D02*
X7640000Y-8512000D01*
X7640000Y-8492000D02*
X7620000Y-8512000D01*
X7650000Y-4990000D02*
X7670000Y-5010000D01*
X7670000Y-4990000D02*
X7650000Y-5010000D01*
X7740000Y-8600000D02*
X7760000Y-8620000D01*
X7760000Y-8600000D02*
X7740000Y-8620000D01*
X7760000Y-8118000D02*
X7780000Y-8138000D01*
X7780000Y-8118000D02*
X7760000Y-8138000D01*
X7780000Y-4315000D02*
X7800000Y-4335000D01*
X7800000Y-4315000D02*
X7780000Y-4335000D01*
X7910000Y-4915000D02*
X7930000Y-4935000D01*
X7930000Y-4915000D02*
X7910000Y-4935000D01*
X7910000Y-7670000D02*
X7930000Y-7690000D01*
X7930000Y-7670000D02*
X7910000Y-7690000D01*
X8000000Y-8795000D02*
X8020000Y-8815000D01*
X8020000Y-8795000D02*
X8000000Y-8815000D01*
X8040000Y-7230000D02*
X8060000Y-7250000D01*
X8060000Y-7230000D02*
X8040000Y-7250000D01*
X8070000Y-4390000D02*
X8090000Y-4410000D01*
X8090000Y-4390000D02*
X8070000Y-4410000D01*
X8110000Y-7670000D02*
X8130000Y-7690000D01*
X8130000Y-7670000D02*
X8110000Y-7690000D01*
X8120000Y-7230000D02*
X8140000Y-7250000D01*
X8140000Y-7230000D02*
X8120000Y-7250000D01*
X8120000Y-7320000D02*
X8140000Y-7340000D01*
X8140000Y-7320000D02*
X8120000Y-7340000D01*
X8150000Y-5140000D02*
X8170000Y-5160000D01*
X8170000Y-5140000D02*
X8150000Y-5160000D01*
X8150000Y-7150000D02*
X8170000Y-7170000D01*
X8170000Y-7150000D02*
X8150000Y-7170000D01*
X8160000Y-6590000D02*
X8180000Y-6610000D01*
X8180000Y-6590000D02*
X8160000Y-6610000D01*
X8200000Y-7230000D02*
X8220000Y-7250000D01*
X8220000Y-7230000D02*
X8200000Y-7250000D01*
X8200000Y-7320000D02*
X8220000Y-7340000D01*
X8220000Y-7320000D02*
X8200000Y-7340000D01*
X8240000Y-9190000D02*
X8260000Y-9210000D01*
X8260000Y-9190000D02*
X8240000Y-9210000D01*
X8290000Y-4465000D02*
X8310000Y-4485000D01*
X8310000Y-4465000D02*
X8290000Y-4485000D01*
X8290000Y-6590000D02*
X8310000Y-6610000D01*
X8310000Y-6590000D02*
X8290000Y-6610000D01*
X8318750Y-9188750D02*
X8338750Y-9208750D01*
X8338750Y-9188750D02*
X8318750Y-9208750D01*
X8370000Y-6165000D02*
X8390000Y-6185000D01*
X8390000Y-6165000D02*
X8370000Y-6185000D01*
X8400000Y-5065000D02*
X8420000Y-5085000D01*
X8420000Y-5065000D02*
X8400000Y-5085000D01*
X8400000Y-6480000D02*
X8420000Y-6500000D01*
X8420000Y-6480000D02*
X8400000Y-6500000D01*
X8410000Y-7210000D02*
X8430000Y-7230000D01*
X8430000Y-7210000D02*
X8410000Y-7230000D01*
X8420000Y-7320000D02*
X8440000Y-7340000D01*
X8440000Y-7320000D02*
X8420000Y-7340000D01*
X8480000Y-7270000D02*
X8500000Y-7290000D01*
X8500000Y-7270000D02*
X8480000Y-7290000D01*
X8540000Y-8690000D02*
X8560000Y-8710000D01*
X8560000Y-8690000D02*
X8540000Y-8710000D01*
X8550000Y-4540000D02*
X8570000Y-4560000D01*
X8570000Y-4540000D02*
X8550000Y-4560000D01*
X8550000Y-7340000D02*
X8570000Y-7360000D01*
X8570000Y-7340000D02*
X8550000Y-7360000D01*
X8600000Y-7940000D02*
X8620000Y-7960000D01*
X8620000Y-7940000D02*
X8600000Y-7960000D01*
X8620000Y-9198500D02*
X8640000Y-9218500D01*
X8640000Y-9198500D02*
X8620000Y-9218500D01*
X8625000Y-8715000D02*
X8645000Y-8735000D01*
X8645000Y-8715000D02*
X8625000Y-8735000D01*
X8770000Y-7680000D02*
X8790000Y-7700000D01*
X8790000Y-7680000D02*
X8770000Y-7700000D01*
X8790000Y-7190000D02*
X8810000Y-7210000D01*
X8810000Y-7190000D02*
X8790000Y-7210000D01*
X8865000Y-5915000D02*
X8885000Y-5935000D01*
X8885000Y-5915000D02*
X8865000Y-5935000D01*
X8895000Y-5665000D02*
X8915000Y-5685000D01*
X8915000Y-5665000D02*
X8895000Y-5685000D01*
X8910000Y-8260000D02*
X8930000Y-8280000D01*
X8930000Y-8260000D02*
X8910000Y-8280000D01*
X8960000Y-7330000D02*
X8980000Y-7350000D01*
X8980000Y-7330000D02*
X8960000Y-7350000D01*
X9010000Y-9055000D02*
X9030000Y-9075000D01*
X9030000Y-9055000D02*
X9010000Y-9075000D01*
X9015000Y-6515000D02*
X9035000Y-6535000D01*
X9035000Y-6515000D02*
X9015000Y-6535000D01*
X9020000Y-8260000D02*
X9040000Y-8280000D01*
X9040000Y-8260000D02*
X9020000Y-8280000D01*
X9020000Y-9191250D02*
X9040000Y-9211250D01*
X9040000Y-9191250D02*
X9020000Y-9211250D01*
X9080000Y-8420000D02*
X9100000Y-8440000D01*
X9100000Y-8420000D02*
X9080000Y-8440000D01*
X5975000Y-4625000D02*
G75*
G02*
X5945000Y-4625000I-15000J0D01*
G01*
X5945000Y-4625000D02*
G75*
G02*
X5975000Y-4625000I15000J0D01*
G01*
X6115000Y-7620000D02*
G75*
G02*
X6085000Y-7620000I-15000J0D01*
G01*
X6085000Y-7620000D02*
G75*
G02*
X6115000Y-7620000I15000J0D01*
G01*
X6215000Y-7370000D02*
G75*
G02*
X6185000Y-7370000I-15000J0D01*
G01*
X6185000Y-7370000D02*
G75*
G02*
X6215000Y-7370000I15000J0D01*
G01*
X6455000Y-7550000D02*
G75*
G02*
X6425000Y-7550000I-15000J0D01*
G01*
X6425000Y-7550000D02*
G75*
G02*
X6455000Y-7550000I15000J0D01*
G01*
X6575000Y-7550000D02*
G75*
G02*
X6545000Y-7550000I-15000J0D01*
G01*
X6545000Y-7550000D02*
G75*
G02*
X6575000Y-7550000I15000J0D01*
G01*
X8275000Y-8420000D02*
G75*
G02*
X8245000Y-8420000I-15000J0D01*
G01*
X8245000Y-8420000D02*
G75*
G02*
X8275000Y-8420000I15000J0D01*
G01*
X8425000Y-8420000D02*
G75*
G02*
X8395000Y-8420000I-15000J0D01*
G01*
X8395000Y-8420000D02*
G75*
G02*
X8425000Y-8420000I15000J0D01*
G01*
X8118000Y-9373500D02*
X8118000Y-9433500D01*
X8088000Y-9403500D02*
X8148000Y-9403500D01*
X8088000Y-9348500D02*
X8088000Y-9458500D01*
X8148000Y-9458500D02*
G75*
G02*
X8088000Y-9458500I-30000J0D01*
G01*
X8148000Y-9458500D02*
X8148000Y-9348500D01*
X8148000Y-9348500D02*
G75*
G03*
X8088000Y-9348500I-30000J0D01*
G01*
X8118000Y-9791500D02*
X8118000Y-9851500D01*
X8088000Y-9821500D02*
X8148000Y-9821500D01*
X8088000Y-9781500D02*
X8088000Y-9861500D01*
X8148000Y-9861500D02*
G75*
G02*
X8088000Y-9861500I-30000J0D01*
G01*
X8148000Y-9861500D02*
X8148000Y-9781500D01*
X8148000Y-9781500D02*
G75*
G03*
X8088000Y-9781500I-30000J0D01*
G01*
X8982000Y-9373500D02*
X8982000Y-9433500D01*
X8952000Y-9403500D02*
X9012000Y-9403500D01*
X8952000Y-9348500D02*
X8952000Y-9458500D01*
X9012000Y-9458500D02*
G75*
G02*
X8952000Y-9458500I-30000J0D01*
G01*
X9012000Y-9458500D02*
X9012000Y-9348500D01*
X9012000Y-9348500D02*
G75*
G03*
X8952000Y-9348500I-30000J0D01*
G01*
X8982000Y-9791500D02*
X8982000Y-9851500D01*
X8952000Y-9821500D02*
X9012000Y-9821500D01*
X8952000Y-9781500D02*
X8952000Y-9861500D01*
X9012000Y-9861500D02*
G75*
G02*
X8952000Y-9861500I-30000J0D01*
G01*
X9012000Y-9861500D02*
X9012000Y-9781500D01*
X9012000Y-9781500D02*
G75*
G03*
X8952000Y-9781500I-30000J0D01*
G01*
X5926699Y-9317699D02*
X5926699Y-9258301D01*
X5867301Y-9258301D01*
X5867301Y-9317699D01*
X5926699Y-9317699D01*
X5926699Y-9557699D02*
X5926699Y-9498301D01*
X5867301Y-9498301D01*
X5867301Y-9557699D01*
X5926699Y-9557699D01*
X6176699Y-9317699D02*
X6176699Y-9258301D01*
X6117301Y-9258301D01*
X6117301Y-9317699D01*
X6176699Y-9317699D01*
X6176699Y-9557699D02*
X6176699Y-9498301D01*
X6117301Y-9498301D01*
X6117301Y-9557699D01*
X6176699Y-9557699D01*
X6426699Y-9317699D02*
X6426699Y-9258301D01*
X6367301Y-9258301D01*
X6367301Y-9317699D01*
X6426699Y-9317699D01*
X6426699Y-9557699D02*
X6426699Y-9498301D01*
X6367301Y-9498301D01*
X6367301Y-9557699D01*
X6426699Y-9557699D01*
X3302000Y-4876000D02*
X3352000Y-4826000D01*
X3302000Y-4776000D01*
X3252000Y-4826000D01*
X3302000Y-4876000D01*
X3302000Y-5130000D02*
X3352000Y-5080000D01*
X3302000Y-5030000D01*
X3252000Y-5080000D01*
X3302000Y-5130000D01*
X3302000Y-5384000D02*
X3352000Y-5334000D01*
X3302000Y-5284000D01*
X3252000Y-5334000D01*
X3302000Y-5384000D01*
X3302000Y-5638000D02*
X3352000Y-5588000D01*
X3302000Y-5538000D01*
X3252000Y-5588000D01*
X3302000Y-5638000D01*
X3302000Y-5892000D02*
X3352000Y-5842000D01*
X3302000Y-5792000D01*
X3252000Y-5842000D01*
X3302000Y-5892000D01*
X3302000Y-6146000D02*
X3352000Y-6096000D01*
X3302000Y-6046000D01*
X3252000Y-6096000D01*
X3302000Y-6146000D01*
X3302000Y-6400000D02*
X3352000Y-6350000D01*
X3302000Y-6300000D01*
X3252000Y-6350000D01*
X3302000Y-6400000D01*
X3302000Y-6654000D02*
X3352000Y-6604000D01*
X3302000Y-6554000D01*
X3252000Y-6604000D01*
X3302000Y-6654000D01*
X3302000Y-6908000D02*
X3352000Y-6858000D01*
X3302000Y-6808000D01*
X3252000Y-6858000D01*
X3302000Y-6908000D01*
X3302000Y-7162000D02*
X3352000Y-7112000D01*
X3302000Y-7062000D01*
X3252000Y-7112000D01*
X3302000Y-7162000D01*
X3302000Y-7416000D02*
X3352000Y-7366000D01*
X3302000Y-7316000D01*
X3252000Y-7366000D01*
X3302000Y-7416000D01*
X3302000Y-7670000D02*
X3352000Y-7620000D01*
X3302000Y-7570000D01*
X3252000Y-7620000D01*
X3302000Y-7670000D01*
X3302000Y-7924000D02*
X3352000Y-7874000D01*
X3302000Y-7824000D01*
X3252000Y-7874000D01*
X3302000Y-7924000D01*
X3302000Y-8178000D02*
X3352000Y-8128000D01*
X3302000Y-8078000D01*
X3252000Y-8128000D01*
X3302000Y-8178000D01*
X3302000Y-8432000D02*
X3352000Y-8382000D01*
X3302000Y-8332000D01*
X3252000Y-8382000D01*
X3302000Y-8432000D01*
X3302000Y-8686000D02*
X3352000Y-8636000D01*
X3302000Y-8586000D01*
X3252000Y-8636000D01*
X3302000Y-8686000D01*
X3302000Y-8940000D02*
X3352000Y-8890000D01*
X3302000Y-8840000D01*
X3252000Y-8890000D01*
X3302000Y-8940000D01*
X3302000Y-9194000D02*
X3352000Y-9144000D01*
X3302000Y-9094000D01*
X3252000Y-9144000D01*
X3302000Y-9194000D01*
X3302000Y-9448000D02*
X3352000Y-9398000D01*
X3302000Y-9348000D01*
X3252000Y-9398000D01*
X3302000Y-9448000D01*
X3302000Y-9702000D02*
X3352000Y-9652000D01*
X3302000Y-9602000D01*
X3252000Y-9652000D01*
X3302000Y-9702000D01*
X3556000Y-4876000D02*
X3606000Y-4826000D01*
X3556000Y-4776000D01*
X3506000Y-4826000D01*
X3556000Y-4876000D01*
X3556000Y-5130000D02*
X3606000Y-5080000D01*
X3556000Y-5030000D01*
X3506000Y-5080000D01*
X3556000Y-5130000D01*
X3556000Y-5384000D02*
X3606000Y-5334000D01*
X3556000Y-5284000D01*
X3506000Y-5334000D01*
X3556000Y-5384000D01*
X3556000Y-5638000D02*
X3606000Y-5588000D01*
X3556000Y-5538000D01*
X3506000Y-5588000D01*
X3556000Y-5638000D01*
X3556000Y-5892000D02*
X3606000Y-5842000D01*
X3556000Y-5792000D01*
X3506000Y-5842000D01*
X3556000Y-5892000D01*
X3556000Y-6146000D02*
X3606000Y-6096000D01*
X3556000Y-6046000D01*
X3506000Y-6096000D01*
X3556000Y-6146000D01*
X3556000Y-6400000D02*
X3606000Y-6350000D01*
X3556000Y-6300000D01*
X3506000Y-6350000D01*
X3556000Y-6400000D01*
X3556000Y-6654000D02*
X3606000Y-6604000D01*
X3556000Y-6554000D01*
X3506000Y-6604000D01*
X3556000Y-6654000D01*
X3556000Y-6908000D02*
X3606000Y-6858000D01*
X3556000Y-6808000D01*
X3506000Y-6858000D01*
X3556000Y-6908000D01*
X3556000Y-7162000D02*
X3606000Y-7112000D01*
X3556000Y-7062000D01*
X3506000Y-7112000D01*
X3556000Y-7162000D01*
X3556000Y-7416000D02*
X3606000Y-7366000D01*
X3556000Y-7316000D01*
X3506000Y-7366000D01*
X3556000Y-7416000D01*
X3556000Y-7670000D02*
X3606000Y-7620000D01*
X3556000Y-7570000D01*
X3506000Y-7620000D01*
X3556000Y-7670000D01*
X3556000Y-7924000D02*
X3606000Y-7874000D01*
X3556000Y-7824000D01*
X3506000Y-7874000D01*
X3556000Y-7924000D01*
X3556000Y-8178000D02*
X3606000Y-8128000D01*
X3556000Y-8078000D01*
X3506000Y-8128000D01*
X3556000Y-8178000D01*
X3556000Y-8432000D02*
X3606000Y-8382000D01*
X3556000Y-8332000D01*
X3506000Y-8382000D01*
X3556000Y-8432000D01*
X3556000Y-8686000D02*
X3606000Y-8636000D01*
X3556000Y-8586000D01*
X3506000Y-8636000D01*
X3556000Y-8686000D01*
X3556000Y-8940000D02*
X3606000Y-8890000D01*
X3556000Y-8840000D01*
X3506000Y-8890000D01*
X3556000Y-8940000D01*
X3556000Y-9194000D02*
X3606000Y-9144000D01*
X3556000Y-9094000D01*
X3506000Y-9144000D01*
X3556000Y-9194000D01*
X3556000Y-9448000D02*
X3606000Y-9398000D01*
X3556000Y-9348000D01*
X3506000Y-9398000D01*
X3556000Y-9448000D01*
X3556000Y-9702000D02*
X3606000Y-9652000D01*
X3556000Y-9602000D01*
X3506000Y-9652000D01*
X3556000Y-9702000D01*
X4940000Y-8350000D02*
X4990000Y-8300000D01*
X4940000Y-8250000D01*
X4890000Y-8300000D01*
X4940000Y-8350000D01*
X4940000Y-8730000D02*
X4990000Y-8680000D01*
X4940000Y-8630000D01*
X4890000Y-8680000D01*
X4940000Y-8730000D01*
X5194000Y-8350000D02*
X5244000Y-8300000D01*
X5194000Y-8250000D01*
X5144000Y-8300000D01*
X5194000Y-8350000D01*
X5194000Y-8730000D02*
X5244000Y-8680000D01*
X5194000Y-8630000D01*
X5144000Y-8680000D01*
X5194000Y-8730000D01*
X5448000Y-8350000D02*
X5498000Y-8300000D01*
X5448000Y-8250000D01*
X5398000Y-8300000D01*
X5448000Y-8350000D01*
X5448000Y-8730000D02*
X5498000Y-8680000D01*
X5448000Y-8630000D01*
X5398000Y-8680000D01*
X5448000Y-8730000D01*
X9652000Y-4876000D02*
X9702000Y-4826000D01*
X9652000Y-4776000D01*
X9602000Y-4826000D01*
X9652000Y-4876000D01*
X9652000Y-5130000D02*
X9702000Y-5080000D01*
X9652000Y-5030000D01*
X9602000Y-5080000D01*
X9652000Y-5130000D01*
X9652000Y-5384000D02*
X9702000Y-5334000D01*
X9652000Y-5284000D01*
X9602000Y-5334000D01*
X9652000Y-5384000D01*
X9652000Y-5638000D02*
X9702000Y-5588000D01*
X9652000Y-5538000D01*
X9602000Y-5588000D01*
X9652000Y-5638000D01*
X9652000Y-5892000D02*
X9702000Y-5842000D01*
X9652000Y-5792000D01*
X9602000Y-5842000D01*
X9652000Y-5892000D01*
X9652000Y-6146000D02*
X9702000Y-6096000D01*
X9652000Y-6046000D01*
X9602000Y-6096000D01*
X9652000Y-6146000D01*
X9652000Y-6400000D02*
X9702000Y-6350000D01*
X9652000Y-6300000D01*
X9602000Y-6350000D01*
X9652000Y-6400000D01*
X9652000Y-6654000D02*
X9702000Y-6604000D01*
X9652000Y-6554000D01*
X9602000Y-6604000D01*
X9652000Y-6654000D01*
X9652000Y-6908000D02*
X9702000Y-6858000D01*
X9652000Y-6808000D01*
X9602000Y-6858000D01*
X9652000Y-6908000D01*
X9652000Y-7162000D02*
X9702000Y-7112000D01*
X9652000Y-7062000D01*
X9602000Y-7112000D01*
X9652000Y-7162000D01*
X9652000Y-7416000D02*
X9702000Y-7366000D01*
X9652000Y-7316000D01*
X9602000Y-7366000D01*
X9652000Y-7416000D01*
X9652000Y-7670000D02*
X9702000Y-7620000D01*
X9652000Y-7570000D01*
X9602000Y-7620000D01*
X9652000Y-7670000D01*
X9652000Y-7924000D02*
X9702000Y-7874000D01*
X9652000Y-7824000D01*
X9602000Y-7874000D01*
X9652000Y-7924000D01*
X9652000Y-8178000D02*
X9702000Y-8128000D01*
X9652000Y-8078000D01*
X9602000Y-8128000D01*
X9652000Y-8178000D01*
X9652000Y-8432000D02*
X9702000Y-8382000D01*
X9652000Y-8332000D01*
X9602000Y-8382000D01*
X9652000Y-8432000D01*
X9652000Y-8686000D02*
X9702000Y-8636000D01*
X9652000Y-8586000D01*
X9602000Y-8636000D01*
X9652000Y-8686000D01*
X9652000Y-8940000D02*
X9702000Y-8890000D01*
X9652000Y-8840000D01*
X9602000Y-8890000D01*
X9652000Y-8940000D01*
X9652000Y-9194000D02*
X9702000Y-9144000D01*
X9652000Y-9094000D01*
X9602000Y-9144000D01*
X9652000Y-9194000D01*
X9652000Y-9448000D02*
X9702000Y-9398000D01*
X9652000Y-9348000D01*
X9602000Y-9398000D01*
X9652000Y-9448000D01*
X9652000Y-9702000D02*
X9702000Y-9652000D01*
X9652000Y-9602000D01*
X9602000Y-9652000D01*
X9652000Y-9702000D01*
X9906000Y-4876000D02*
X9956000Y-4826000D01*
X9906000Y-4776000D01*
X9856000Y-4826000D01*
X9906000Y-4876000D01*
X9906000Y-5130000D02*
X9956000Y-5080000D01*
X9906000Y-5030000D01*
X9856000Y-5080000D01*
X9906000Y-5130000D01*
X9906000Y-5384000D02*
X9956000Y-5334000D01*
X9906000Y-5284000D01*
X9856000Y-5334000D01*
X9906000Y-5384000D01*
X9906000Y-5638000D02*
X9956000Y-5588000D01*
X9906000Y-5538000D01*
X9856000Y-5588000D01*
X9906000Y-5638000D01*
X9906000Y-5892000D02*
X9956000Y-5842000D01*
X9906000Y-5792000D01*
X9856000Y-5842000D01*
X9906000Y-5892000D01*
X9906000Y-6146000D02*
X9956000Y-6096000D01*
X9906000Y-6046000D01*
X9856000Y-6096000D01*
X9906000Y-6146000D01*
X9906000Y-6400000D02*
X9956000Y-6350000D01*
X9906000Y-6300000D01*
X9856000Y-6350000D01*
X9906000Y-6400000D01*
X9906000Y-6654000D02*
X9956000Y-6604000D01*
X9906000Y-6554000D01*
X9856000Y-6604000D01*
X9906000Y-6654000D01*
X9906000Y-6908000D02*
X9956000Y-6858000D01*
X9906000Y-6808000D01*
X9856000Y-6858000D01*
X9906000Y-6908000D01*
X9906000Y-7162000D02*
X9956000Y-7112000D01*
X9906000Y-7062000D01*
X9856000Y-7112000D01*
X9906000Y-7162000D01*
X9906000Y-7416000D02*
X9956000Y-7366000D01*
X9906000Y-7316000D01*
X9856000Y-7366000D01*
X9906000Y-7416000D01*
X9906000Y-7670000D02*
X9956000Y-7620000D01*
X9906000Y-7570000D01*
X9856000Y-7620000D01*
X9906000Y-7670000D01*
X9906000Y-7924000D02*
X9956000Y-7874000D01*
X9906000Y-7824000D01*
X9856000Y-7874000D01*
X9906000Y-7924000D01*
X9906000Y-8178000D02*
X9956000Y-8128000D01*
X9906000Y-8078000D01*
X9856000Y-8128000D01*
X9906000Y-8178000D01*
X9906000Y-8432000D02*
X9956000Y-8382000D01*
X9906000Y-8332000D01*
X9856000Y-8382000D01*
X9906000Y-8432000D01*
X9906000Y-8686000D02*
X9956000Y-8636000D01*
X9906000Y-8586000D01*
X9856000Y-8636000D01*
X9906000Y-8686000D01*
X9906000Y-8940000D02*
X9956000Y-8890000D01*
X9906000Y-8840000D01*
X9856000Y-8890000D01*
X9906000Y-8940000D01*
X9906000Y-9194000D02*
X9956000Y-9144000D01*
X9906000Y-9094000D01*
X9856000Y-9144000D01*
X9906000Y-9194000D01*
X9906000Y-9448000D02*
X9956000Y-9398000D01*
X9906000Y-9348000D01*
X9856000Y-9398000D01*
X9906000Y-9448000D01*
X9906000Y-9702000D02*
X9956000Y-9652000D01*
X9906000Y-9602000D01*
X9856000Y-9652000D01*
X9906000Y-9702000D01*
D13*
X4690000Y-9435000D02*
X4800000Y-9545000D01*
X4800000Y-9435000D02*
X4690000Y-9545000D01*
X4800000Y-9490000D02*
G75*
G02*
X4690000Y-9490000I-55000J0D01*
G01*
X4690000Y-9490000D02*
G75*
G02*
X4800000Y-9490000I55000J0D01*
G01*
X5040000Y-9435000D02*
X5150000Y-9545000D01*
X5150000Y-9435000D02*
X5040000Y-9545000D01*
X5150000Y-9490000D02*
G75*
G02*
X5040000Y-9490000I-55000J0D01*
G01*
X5040000Y-9490000D02*
G75*
G02*
X5150000Y-9490000I55000J0D01*
G01*
X6966000Y-5485000D02*
X7076000Y-5595000D01*
X7076000Y-5485000D02*
X6966000Y-5595000D01*
X7076000Y-5540000D02*
G75*
G02*
X6966000Y-5540000I-55000J0D01*
G01*
X6966000Y-5540000D02*
G75*
G02*
X7076000Y-5540000I55000J0D01*
G01*
X6966000Y-5739000D02*
X7076000Y-5849000D01*
X7076000Y-5739000D02*
X6966000Y-5849000D01*
X7076000Y-5794000D02*
G75*
G02*
X6966000Y-5794000I-55000J0D01*
G01*
X6966000Y-5794000D02*
G75*
G02*
X7076000Y-5794000I55000J0D01*
G01*
X6966000Y-5993000D02*
X7076000Y-6103000D01*
X7076000Y-5993000D02*
X6966000Y-6103000D01*
X7076000Y-6048000D02*
G75*
G02*
X6966000Y-6048000I-55000J0D01*
G01*
X6966000Y-6048000D02*
G75*
G02*
X7076000Y-6048000I55000J0D01*
G01*
X6966000Y-6247000D02*
X7076000Y-6357000D01*
X7076000Y-6247000D02*
X6966000Y-6357000D01*
X7076000Y-6302000D02*
G75*
G02*
X6966000Y-6302000I-55000J0D01*
G01*
X6966000Y-6302000D02*
G75*
G02*
X7076000Y-6302000I55000J0D01*
G01*
X6966000Y-6501000D02*
X7076000Y-6611000D01*
X7076000Y-6501000D02*
X6966000Y-6611000D01*
X7076000Y-6556000D02*
G75*
G02*
X6966000Y-6556000I-55000J0D01*
G01*
X6966000Y-6556000D02*
G75*
G02*
X7076000Y-6556000I55000J0D01*
G01*
X6966000Y-6755000D02*
X7076000Y-6865000D01*
X7076000Y-6755000D02*
X6966000Y-6865000D01*
X7076000Y-6810000D02*
G75*
G02*
X6966000Y-6810000I-55000J0D01*
G01*
X6966000Y-6810000D02*
G75*
G02*
X7076000Y-6810000I55000J0D01*
G01*
X7220000Y-5231000D02*
X7330000Y-5341000D01*
X7330000Y-5231000D02*
X7220000Y-5341000D01*
X7330000Y-5286000D02*
G75*
G02*
X7220000Y-5286000I-55000J0D01*
G01*
X7220000Y-5286000D02*
G75*
G02*
X7330000Y-5286000I55000J0D01*
G01*
X7220000Y-5485000D02*
X7330000Y-5595000D01*
X7330000Y-5485000D02*
X7220000Y-5595000D01*
X7330000Y-5540000D02*
G75*
G02*
X7220000Y-5540000I-55000J0D01*
G01*
X7220000Y-5540000D02*
G75*
G02*
X7330000Y-5540000I55000J0D01*
G01*
X7220000Y-5739000D02*
X7330000Y-5849000D01*
X7330000Y-5739000D02*
X7220000Y-5849000D01*
X7330000Y-5794000D02*
G75*
G02*
X7220000Y-5794000I-55000J0D01*
G01*
X7220000Y-5794000D02*
G75*
G02*
X7330000Y-5794000I55000J0D01*
G01*
X7220000Y-5993000D02*
X7330000Y-6103000D01*
X7330000Y-5993000D02*
X7220000Y-6103000D01*
X7330000Y-6048000D02*
G75*
G02*
X7220000Y-6048000I-55000J0D01*
G01*
X7220000Y-6048000D02*
G75*
G02*
X7330000Y-6048000I55000J0D01*
G01*
X7220000Y-6247000D02*
X7330000Y-6357000D01*
X7330000Y-6247000D02*
X7220000Y-6357000D01*
X7330000Y-6302000D02*
G75*
G02*
X7220000Y-6302000I-55000J0D01*
G01*
X7220000Y-6302000D02*
G75*
G02*
X7330000Y-6302000I55000J0D01*
G01*
X7220000Y-6501000D02*
X7330000Y-6611000D01*
X7330000Y-6501000D02*
X7220000Y-6611000D01*
X7330000Y-6556000D02*
G75*
G02*
X7220000Y-6556000I-55000J0D01*
G01*
X7220000Y-6556000D02*
G75*
G02*
X7330000Y-6556000I55000J0D01*
G01*
X7220000Y-6755000D02*
X7330000Y-6865000D01*
X7330000Y-6755000D02*
X7220000Y-6865000D01*
X7330000Y-6810000D02*
G75*
G02*
X7220000Y-6810000I-55000J0D01*
G01*
X7220000Y-6810000D02*
G75*
G02*
X7330000Y-6810000I55000J0D01*
G01*
X7220000Y-7009000D02*
X7330000Y-7119000D01*
X7330000Y-7009000D02*
X7220000Y-7119000D01*
X7330000Y-7064000D02*
G75*
G02*
X7220000Y-7064000I-55000J0D01*
G01*
X7220000Y-7064000D02*
G75*
G02*
X7330000Y-7064000I55000J0D01*
G01*
X7474000Y-5231000D02*
X7584000Y-5341000D01*
X7584000Y-5231000D02*
X7474000Y-5341000D01*
X7584000Y-5286000D02*
G75*
G02*
X7474000Y-5286000I-55000J0D01*
G01*
X7474000Y-5286000D02*
G75*
G02*
X7584000Y-5286000I55000J0D01*
G01*
X7474000Y-5485000D02*
X7584000Y-5595000D01*
X7584000Y-5485000D02*
X7474000Y-5595000D01*
X7584000Y-5540000D02*
G75*
G02*
X7474000Y-5540000I-55000J0D01*
G01*
X7474000Y-5540000D02*
G75*
G02*
X7584000Y-5540000I55000J0D01*
G01*
X7474000Y-6755000D02*
X7584000Y-6865000D01*
X7584000Y-6755000D02*
X7474000Y-6865000D01*
X7584000Y-6810000D02*
G75*
G02*
X7474000Y-6810000I-55000J0D01*
G01*
X7474000Y-6810000D02*
G75*
G02*
X7584000Y-6810000I55000J0D01*
G01*
X7474000Y-7009000D02*
X7584000Y-7119000D01*
X7584000Y-7009000D02*
X7474000Y-7119000D01*
X7584000Y-7064000D02*
G75*
G02*
X7474000Y-7064000I-55000J0D01*
G01*
X7474000Y-7064000D02*
G75*
G02*
X7584000Y-7064000I55000J0D01*
G01*
X7728000Y-5231000D02*
X7838000Y-5341000D01*
X7838000Y-5231000D02*
X7728000Y-5341000D01*
X7838000Y-5286000D02*
G75*
G02*
X7728000Y-5286000I-55000J0D01*
G01*
X7728000Y-5286000D02*
G75*
G02*
X7838000Y-5286000I55000J0D01*
G01*
X7728000Y-5485000D02*
X7838000Y-5595000D01*
X7838000Y-5485000D02*
X7728000Y-5595000D01*
X7838000Y-5540000D02*
G75*
G02*
X7728000Y-5540000I-55000J0D01*
G01*
X7728000Y-5540000D02*
G75*
G02*
X7838000Y-5540000I55000J0D01*
G01*
X7728000Y-6755000D02*
X7838000Y-6865000D01*
X7838000Y-6755000D02*
X7728000Y-6865000D01*
X7838000Y-6810000D02*
G75*
G02*
X7728000Y-6810000I-55000J0D01*
G01*
X7728000Y-6810000D02*
G75*
G02*
X7838000Y-6810000I55000J0D01*
G01*
X7728000Y-7009000D02*
X7838000Y-7119000D01*
X7838000Y-7009000D02*
X7728000Y-7119000D01*
X7838000Y-7064000D02*
G75*
G02*
X7728000Y-7064000I-55000J0D01*
G01*
X7728000Y-7064000D02*
G75*
G02*
X7838000Y-7064000I55000J0D01*
G01*
X7982000Y-5231000D02*
X8092000Y-5341000D01*
X8092000Y-5231000D02*
X7982000Y-5341000D01*
X8092000Y-5286000D02*
G75*
G02*
X7982000Y-5286000I-55000J0D01*
G01*
X7982000Y-5286000D02*
G75*
G02*
X8092000Y-5286000I55000J0D01*
G01*
X7982000Y-5485000D02*
X8092000Y-5595000D01*
X8092000Y-5485000D02*
X7982000Y-5595000D01*
X8092000Y-5540000D02*
G75*
G02*
X7982000Y-5540000I-55000J0D01*
G01*
X7982000Y-5540000D02*
G75*
G02*
X8092000Y-5540000I55000J0D01*
G01*
X7982000Y-6755000D02*
X8092000Y-6865000D01*
X8092000Y-6755000D02*
X7982000Y-6865000D01*
X8092000Y-6810000D02*
G75*
G02*
X7982000Y-6810000I-55000J0D01*
G01*
X7982000Y-6810000D02*
G75*
G02*
X8092000Y-6810000I55000J0D01*
G01*
X7982000Y-7009000D02*
X8092000Y-7119000D01*
X8092000Y-7009000D02*
X7982000Y-7119000D01*
X8092000Y-7064000D02*
G75*
G02*
X7982000Y-7064000I-55000J0D01*
G01*
X7982000Y-7064000D02*
G75*
G02*
X8092000Y-7064000I55000J0D01*
G01*
X8236000Y-5231000D02*
X8346000Y-5341000D01*
X8346000Y-5231000D02*
X8236000Y-5341000D01*
X8346000Y-5286000D02*
G75*
G02*
X8236000Y-5286000I-55000J0D01*
G01*
X8236000Y-5286000D02*
G75*
G02*
X8346000Y-5286000I55000J0D01*
G01*
X8236000Y-5485000D02*
X8346000Y-5595000D01*
X8346000Y-5485000D02*
X8236000Y-5595000D01*
X8346000Y-5540000D02*
G75*
G02*
X8236000Y-5540000I-55000J0D01*
G01*
X8236000Y-5540000D02*
G75*
G02*
X8346000Y-5540000I55000J0D01*
G01*
X8236000Y-6755000D02*
X8346000Y-6865000D01*
X8346000Y-6755000D02*
X8236000Y-6865000D01*
X8346000Y-6810000D02*
G75*
G02*
X8236000Y-6810000I-55000J0D01*
G01*
X8236000Y-6810000D02*
G75*
G02*
X8346000Y-6810000I55000J0D01*
G01*
X8236000Y-7009000D02*
X8346000Y-7119000D01*
X8346000Y-7009000D02*
X8236000Y-7119000D01*
X8346000Y-7064000D02*
G75*
G02*
X8236000Y-7064000I-55000J0D01*
G01*
X8236000Y-7064000D02*
G75*
G02*
X8346000Y-7064000I55000J0D01*
G01*
X8490000Y-5231000D02*
X8600000Y-5341000D01*
X8600000Y-5231000D02*
X8490000Y-5341000D01*
X8600000Y-5286000D02*
G75*
G02*
X8490000Y-5286000I-55000J0D01*
G01*
X8490000Y-5286000D02*
G75*
G02*
X8600000Y-5286000I55000J0D01*
G01*
X8490000Y-5485000D02*
X8600000Y-5595000D01*
X8600000Y-5485000D02*
X8490000Y-5595000D01*
X8600000Y-5540000D02*
G75*
G02*
X8490000Y-5540000I-55000J0D01*
G01*
X8490000Y-5540000D02*
G75*
G02*
X8600000Y-5540000I55000J0D01*
G01*
X8490000Y-5739000D02*
X8600000Y-5849000D01*
X8600000Y-5739000D02*
X8490000Y-5849000D01*
X8600000Y-5794000D02*
G75*
G02*
X8490000Y-5794000I-55000J0D01*
G01*
X8490000Y-5794000D02*
G75*
G02*
X8600000Y-5794000I55000J0D01*
G01*
X8490000Y-5993000D02*
X8600000Y-6103000D01*
X8600000Y-5993000D02*
X8490000Y-6103000D01*
X8600000Y-6048000D02*
G75*
G02*
X8490000Y-6048000I-55000J0D01*
G01*
X8490000Y-6048000D02*
G75*
G02*
X8600000Y-6048000I55000J0D01*
G01*
X8490000Y-6247000D02*
X8600000Y-6357000D01*
X8600000Y-6247000D02*
X8490000Y-6357000D01*
X8600000Y-6302000D02*
G75*
G02*
X8490000Y-6302000I-55000J0D01*
G01*
X8490000Y-6302000D02*
G75*
G02*
X8600000Y-6302000I55000J0D01*
G01*
X8490000Y-6501000D02*
X8600000Y-6611000D01*
X8600000Y-6501000D02*
X8490000Y-6611000D01*
X8600000Y-6556000D02*
G75*
G02*
X8490000Y-6556000I-55000J0D01*
G01*
X8490000Y-6556000D02*
G75*
G02*
X8600000Y-6556000I55000J0D01*
G01*
X8490000Y-6755000D02*
X8600000Y-6865000D01*
X8600000Y-6755000D02*
X8490000Y-6865000D01*
X8600000Y-6810000D02*
G75*
G02*
X8490000Y-6810000I-55000J0D01*
G01*
X8490000Y-6810000D02*
G75*
G02*
X8600000Y-6810000I55000J0D01*
G01*
X8490000Y-7009000D02*
X8600000Y-7119000D01*
X8600000Y-7009000D02*
X8490000Y-7119000D01*
X8600000Y-7064000D02*
G75*
G02*
X8490000Y-7064000I-55000J0D01*
G01*
X8490000Y-7064000D02*
G75*
G02*
X8600000Y-7064000I55000J0D01*
G01*
X8744000Y-5485000D02*
X8854000Y-5595000D01*
X8854000Y-5485000D02*
X8744000Y-5595000D01*
X8854000Y-5540000D02*
G75*
G02*
X8744000Y-5540000I-55000J0D01*
G01*
X8744000Y-5540000D02*
G75*
G02*
X8854000Y-5540000I55000J0D01*
G01*
X8744000Y-5739000D02*
X8854000Y-5849000D01*
X8854000Y-5739000D02*
X8744000Y-5849000D01*
X8854000Y-5794000D02*
G75*
G02*
X8744000Y-5794000I-55000J0D01*
G01*
X8744000Y-5794000D02*
G75*
G02*
X8854000Y-5794000I55000J0D01*
G01*
X8744000Y-5993000D02*
X8854000Y-6103000D01*
X8854000Y-5993000D02*
X8744000Y-6103000D01*
X8854000Y-6048000D02*
G75*
G02*
X8744000Y-6048000I-55000J0D01*
G01*
X8744000Y-6048000D02*
G75*
G02*
X8854000Y-6048000I55000J0D01*
G01*
X8744000Y-6247000D02*
X8854000Y-6357000D01*
X8854000Y-6247000D02*
X8744000Y-6357000D01*
X8854000Y-6302000D02*
G75*
G02*
X8744000Y-6302000I-55000J0D01*
G01*
X8744000Y-6302000D02*
G75*
G02*
X8854000Y-6302000I55000J0D01*
G01*
X8744000Y-6501000D02*
X8854000Y-6611000D01*
X8854000Y-6501000D02*
X8744000Y-6611000D01*
X8854000Y-6556000D02*
G75*
G02*
X8744000Y-6556000I-55000J0D01*
G01*
X8744000Y-6556000D02*
G75*
G02*
X8854000Y-6556000I55000J0D01*
G01*
X8744000Y-6755000D02*
X8854000Y-6865000D01*
X8854000Y-6755000D02*
X8744000Y-6865000D01*
X8854000Y-6810000D02*
G75*
G02*
X8744000Y-6810000I-55000J0D01*
G01*
X8744000Y-6810000D02*
G75*
G02*
X8854000Y-6810000I55000J0D01*
G01*
D14*
X5553000Y-9344000D02*
X5681000Y-9472000D01*
X5681000Y-9344000D02*
X5553000Y-9472000D01*
X5617000Y-9344000D02*
X5617000Y-9472000D01*
X5553000Y-9408000D02*
X5681000Y-9408000D01*
X6613000Y-9344000D02*
X6741000Y-9472000D01*
X6741000Y-9344000D02*
X6613000Y-9472000D01*
X6677000Y-9344000D02*
X6677000Y-9472000D01*
X6613000Y-9408000D02*
X6741000Y-9408000D01*
D11*
X3258277Y-10313984D02*
X3258277Y-10113984D01*
X3258277Y-10113984D02*
X3305896Y-10113984D01*
X3305896Y-10113984D02*
X3334467Y-10123508D01*
X3334467Y-10123508D02*
X3353515Y-10142555D01*
X3353515Y-10142555D02*
X3363039Y-10161603D01*
X3363039Y-10161603D02*
X3372562Y-10199698D01*
X3372562Y-10199698D02*
X3372562Y-10228270D01*
X3372562Y-10228270D02*
X3363039Y-10266365D01*
X3363039Y-10266365D02*
X3353515Y-10285412D01*
X3353515Y-10285412D02*
X3334467Y-10304460D01*
X3334467Y-10304460D02*
X3305896Y-10313984D01*
X3305896Y-10313984D02*
X3258277Y-10313984D01*
X3458277Y-10313984D02*
X3458277Y-10180650D01*
X3458277Y-10218746D02*
X3467801Y-10199698D01*
X3467801Y-10199698D02*
X3477324Y-10190174D01*
X3477324Y-10190174D02*
X3496372Y-10180650D01*
X3496372Y-10180650D02*
X3515420Y-10180650D01*
X3582086Y-10313984D02*
X3582086Y-10180650D01*
X3582086Y-10113984D02*
X3572562Y-10123508D01*
X3572562Y-10123508D02*
X3582086Y-10133031D01*
X3582086Y-10133031D02*
X3591610Y-10123508D01*
X3591610Y-10123508D02*
X3582086Y-10113984D01*
X3582086Y-10113984D02*
X3582086Y-10133031D01*
X3705896Y-10313984D02*
X3686848Y-10304460D01*
X3686848Y-10304460D02*
X3677324Y-10285412D01*
X3677324Y-10285412D02*
X3677324Y-10113984D01*
X3810658Y-10313984D02*
X3791610Y-10304460D01*
X3791610Y-10304460D02*
X3782086Y-10285412D01*
X3782086Y-10285412D02*
X3782086Y-10113984D01*
X4039229Y-10313984D02*
X4039229Y-10113984D01*
X4039229Y-10113984D02*
X4105896Y-10256841D01*
X4105896Y-10256841D02*
X4172562Y-10113984D01*
X4172562Y-10113984D02*
X4172562Y-10313984D01*
X4353515Y-10313984D02*
X4353515Y-10209222D01*
X4353515Y-10209222D02*
X4343991Y-10190174D01*
X4343991Y-10190174D02*
X4324944Y-10180650D01*
X4324944Y-10180650D02*
X4286848Y-10180650D01*
X4286848Y-10180650D02*
X4267801Y-10190174D01*
X4353515Y-10304460D02*
X4334467Y-10313984D01*
X4334467Y-10313984D02*
X4286848Y-10313984D01*
X4286848Y-10313984D02*
X4267801Y-10304460D01*
X4267801Y-10304460D02*
X4258277Y-10285412D01*
X4258277Y-10285412D02*
X4258277Y-10266365D01*
X4258277Y-10266365D02*
X4267801Y-10247317D01*
X4267801Y-10247317D02*
X4286848Y-10237793D01*
X4286848Y-10237793D02*
X4334467Y-10237793D01*
X4334467Y-10237793D02*
X4353515Y-10228270D01*
X4448753Y-10180650D02*
X4448753Y-10380650D01*
X4448753Y-10190174D02*
X4467801Y-10180650D01*
X4467801Y-10180650D02*
X4505896Y-10180650D01*
X4505896Y-10180650D02*
X4524944Y-10190174D01*
X4524944Y-10190174D02*
X4534467Y-10199698D01*
X4534467Y-10199698D02*
X4543991Y-10218746D01*
X4543991Y-10218746D02*
X4543991Y-10275889D01*
X4543991Y-10275889D02*
X4534467Y-10294936D01*
X4534467Y-10294936D02*
X4524944Y-10304460D01*
X4524944Y-10304460D02*
X4505896Y-10313984D01*
X4505896Y-10313984D02*
X4467801Y-10313984D01*
X4467801Y-10313984D02*
X4448753Y-10304460D01*
X4629705Y-10294936D02*
X4639229Y-10304460D01*
X4639229Y-10304460D02*
X4629705Y-10313984D01*
X4629705Y-10313984D02*
X4620182Y-10304460D01*
X4620182Y-10304460D02*
X4629705Y-10294936D01*
X4629705Y-10294936D02*
X4629705Y-10313984D01*
X4629705Y-10190174D02*
X4639229Y-10199698D01*
X4639229Y-10199698D02*
X4629705Y-10209222D01*
X4629705Y-10209222D02*
X4620182Y-10199698D01*
X4620182Y-10199698D02*
X4629705Y-10190174D01*
X4629705Y-10190174D02*
X4629705Y-10209222D01*
D12*
X2977500Y-10632500D02*
X2997500Y-10652500D01*
X2997500Y-10632500D02*
X2977500Y-10652500D01*
D11*
X3296372Y-10533984D02*
X3315420Y-10533984D01*
X3315420Y-10533984D02*
X3334467Y-10543508D01*
X3334467Y-10543508D02*
X3343991Y-10553031D01*
X3343991Y-10553031D02*
X3353515Y-10572079D01*
X3353515Y-10572079D02*
X3363039Y-10610174D01*
X3363039Y-10610174D02*
X3363039Y-10657793D01*
X3363039Y-10657793D02*
X3353515Y-10695889D01*
X3353515Y-10695889D02*
X3343991Y-10714936D01*
X3343991Y-10714936D02*
X3334467Y-10724460D01*
X3334467Y-10724460D02*
X3315420Y-10733984D01*
X3315420Y-10733984D02*
X3296372Y-10733984D01*
X3296372Y-10733984D02*
X3277324Y-10724460D01*
X3277324Y-10724460D02*
X3267801Y-10714936D01*
X3267801Y-10714936D02*
X3258277Y-10695889D01*
X3258277Y-10695889D02*
X3248753Y-10657793D01*
X3248753Y-10657793D02*
X3248753Y-10610174D01*
X3248753Y-10610174D02*
X3258277Y-10572079D01*
X3258277Y-10572079D02*
X3267801Y-10553031D01*
X3267801Y-10553031D02*
X3277324Y-10543508D01*
X3277324Y-10543508D02*
X3296372Y-10533984D01*
X3448753Y-10714936D02*
X3458277Y-10724460D01*
X3458277Y-10724460D02*
X3448753Y-10733984D01*
X3448753Y-10733984D02*
X3439229Y-10724460D01*
X3439229Y-10724460D02*
X3448753Y-10714936D01*
X3448753Y-10714936D02*
X3448753Y-10733984D01*
X3534467Y-10553031D02*
X3543991Y-10543508D01*
X3543991Y-10543508D02*
X3563039Y-10533984D01*
X3563039Y-10533984D02*
X3610658Y-10533984D01*
X3610658Y-10533984D02*
X3629705Y-10543508D01*
X3629705Y-10543508D02*
X3639229Y-10553031D01*
X3639229Y-10553031D02*
X3648753Y-10572079D01*
X3648753Y-10572079D02*
X3648753Y-10591127D01*
X3648753Y-10591127D02*
X3639229Y-10619698D01*
X3639229Y-10619698D02*
X3524943Y-10733984D01*
X3524943Y-10733984D02*
X3648753Y-10733984D01*
X3772562Y-10533984D02*
X3791610Y-10533984D01*
X3791610Y-10533984D02*
X3810658Y-10543508D01*
X3810658Y-10543508D02*
X3820182Y-10553031D01*
X3820182Y-10553031D02*
X3829705Y-10572079D01*
X3829705Y-10572079D02*
X3839229Y-10610174D01*
X3839229Y-10610174D02*
X3839229Y-10657793D01*
X3839229Y-10657793D02*
X3829705Y-10695889D01*
X3829705Y-10695889D02*
X3820182Y-10714936D01*
X3820182Y-10714936D02*
X3810658Y-10724460D01*
X3810658Y-10724460D02*
X3791610Y-10733984D01*
X3791610Y-10733984D02*
X3772562Y-10733984D01*
X3772562Y-10733984D02*
X3753515Y-10724460D01*
X3753515Y-10724460D02*
X3743991Y-10714936D01*
X3743991Y-10714936D02*
X3734467Y-10695889D01*
X3734467Y-10695889D02*
X3724943Y-10657793D01*
X3724943Y-10657793D02*
X3724943Y-10610174D01*
X3724943Y-10610174D02*
X3734467Y-10572079D01*
X3734467Y-10572079D02*
X3743991Y-10553031D01*
X3743991Y-10553031D02*
X3753515Y-10543508D01*
X3753515Y-10543508D02*
X3772562Y-10533984D01*
X3963039Y-10533984D02*
X3982086Y-10533984D01*
X3982086Y-10533984D02*
X4001134Y-10543508D01*
X4001134Y-10543508D02*
X4010658Y-10553031D01*
X4010658Y-10553031D02*
X4020182Y-10572079D01*
X4020182Y-10572079D02*
X4029705Y-10610174D01*
X4029705Y-10610174D02*
X4029705Y-10657793D01*
X4029705Y-10657793D02*
X4020182Y-10695889D01*
X4020182Y-10695889D02*
X4010658Y-10714936D01*
X4010658Y-10714936D02*
X4001134Y-10724460D01*
X4001134Y-10724460D02*
X3982086Y-10733984D01*
X3982086Y-10733984D02*
X3963039Y-10733984D01*
X3963039Y-10733984D02*
X3943991Y-10724460D01*
X3943991Y-10724460D02*
X3934467Y-10714936D01*
X3934467Y-10714936D02*
X3924943Y-10695889D01*
X3924943Y-10695889D02*
X3915420Y-10657793D01*
X3915420Y-10657793D02*
X3915420Y-10610174D01*
X3915420Y-10610174D02*
X3924943Y-10572079D01*
X3924943Y-10572079D02*
X3934467Y-10553031D01*
X3934467Y-10553031D02*
X3943991Y-10543508D01*
X3943991Y-10543508D02*
X3963039Y-10533984D01*
X4115420Y-10733984D02*
X4115420Y-10600650D01*
X4115420Y-10619698D02*
X4124943Y-10610174D01*
X4124943Y-10610174D02*
X4143991Y-10600650D01*
X4143991Y-10600650D02*
X4172563Y-10600650D01*
X4172563Y-10600650D02*
X4191610Y-10610174D01*
X4191610Y-10610174D02*
X4201134Y-10629222D01*
X4201134Y-10629222D02*
X4201134Y-10733984D01*
X4201134Y-10629222D02*
X4210658Y-10610174D01*
X4210658Y-10610174D02*
X4229705Y-10600650D01*
X4229705Y-10600650D02*
X4258277Y-10600650D01*
X4258277Y-10600650D02*
X4277325Y-10610174D01*
X4277325Y-10610174D02*
X4286848Y-10629222D01*
X4286848Y-10629222D02*
X4286848Y-10733984D01*
X4382086Y-10733984D02*
X4382086Y-10600650D01*
X4382086Y-10619698D02*
X4391610Y-10610174D01*
X4391610Y-10610174D02*
X4410658Y-10600650D01*
X4410658Y-10600650D02*
X4439229Y-10600650D01*
X4439229Y-10600650D02*
X4458277Y-10610174D01*
X4458277Y-10610174D02*
X4467801Y-10629222D01*
X4467801Y-10629222D02*
X4467801Y-10733984D01*
X4467801Y-10629222D02*
X4477325Y-10610174D01*
X4477325Y-10610174D02*
X4496372Y-10600650D01*
X4496372Y-10600650D02*
X4524944Y-10600650D01*
X4524944Y-10600650D02*
X4543991Y-10610174D01*
X4543991Y-10610174D02*
X4553515Y-10629222D01*
X4553515Y-10629222D02*
X4553515Y-10733984D01*
X4943991Y-10524460D02*
X4772563Y-10781603D01*
X5201134Y-10533984D02*
X5220182Y-10533984D01*
X5220182Y-10533984D02*
X5239229Y-10543508D01*
X5239229Y-10543508D02*
X5248753Y-10553031D01*
X5248753Y-10553031D02*
X5258277Y-10572079D01*
X5258277Y-10572079D02*
X5267801Y-10610174D01*
X5267801Y-10610174D02*
X5267801Y-10657793D01*
X5267801Y-10657793D02*
X5258277Y-10695889D01*
X5258277Y-10695889D02*
X5248753Y-10714936D01*
X5248753Y-10714936D02*
X5239229Y-10724460D01*
X5239229Y-10724460D02*
X5220182Y-10733984D01*
X5220182Y-10733984D02*
X5201134Y-10733984D01*
X5201134Y-10733984D02*
X5182087Y-10724460D01*
X5182087Y-10724460D02*
X5172563Y-10714936D01*
X5172563Y-10714936D02*
X5163039Y-10695889D01*
X5163039Y-10695889D02*
X5153515Y-10657793D01*
X5153515Y-10657793D02*
X5153515Y-10610174D01*
X5153515Y-10610174D02*
X5163039Y-10572079D01*
X5163039Y-10572079D02*
X5172563Y-10553031D01*
X5172563Y-10553031D02*
X5182087Y-10543508D01*
X5182087Y-10543508D02*
X5201134Y-10533984D01*
X5353515Y-10714936D02*
X5363039Y-10724460D01*
X5363039Y-10724460D02*
X5353515Y-10733984D01*
X5353515Y-10733984D02*
X5343991Y-10724460D01*
X5343991Y-10724460D02*
X5353515Y-10714936D01*
X5353515Y-10714936D02*
X5353515Y-10733984D01*
X5486848Y-10533984D02*
X5505896Y-10533984D01*
X5505896Y-10533984D02*
X5524944Y-10543508D01*
X5524944Y-10543508D02*
X5534468Y-10553031D01*
X5534468Y-10553031D02*
X5543991Y-10572079D01*
X5543991Y-10572079D02*
X5553515Y-10610174D01*
X5553515Y-10610174D02*
X5553515Y-10657793D01*
X5553515Y-10657793D02*
X5543991Y-10695889D01*
X5543991Y-10695889D02*
X5534468Y-10714936D01*
X5534468Y-10714936D02*
X5524944Y-10724460D01*
X5524944Y-10724460D02*
X5505896Y-10733984D01*
X5505896Y-10733984D02*
X5486848Y-10733984D01*
X5486848Y-10733984D02*
X5467801Y-10724460D01*
X5467801Y-10724460D02*
X5458277Y-10714936D01*
X5458277Y-10714936D02*
X5448753Y-10695889D01*
X5448753Y-10695889D02*
X5439229Y-10657793D01*
X5439229Y-10657793D02*
X5439229Y-10610174D01*
X5439229Y-10610174D02*
X5448753Y-10572079D01*
X5448753Y-10572079D02*
X5458277Y-10553031D01*
X5458277Y-10553031D02*
X5467801Y-10543508D01*
X5467801Y-10543508D02*
X5486848Y-10533984D01*
X5677325Y-10533984D02*
X5696372Y-10533984D01*
X5696372Y-10533984D02*
X5715420Y-10543508D01*
X5715420Y-10543508D02*
X5724944Y-10553031D01*
X5724944Y-10553031D02*
X5734467Y-10572079D01*
X5734467Y-10572079D02*
X5743991Y-10610174D01*
X5743991Y-10610174D02*
X5743991Y-10657793D01*
X5743991Y-10657793D02*
X5734467Y-10695889D01*
X5734467Y-10695889D02*
X5724944Y-10714936D01*
X5724944Y-10714936D02*
X5715420Y-10724460D01*
X5715420Y-10724460D02*
X5696372Y-10733984D01*
X5696372Y-10733984D02*
X5677325Y-10733984D01*
X5677325Y-10733984D02*
X5658277Y-10724460D01*
X5658277Y-10724460D02*
X5648753Y-10714936D01*
X5648753Y-10714936D02*
X5639229Y-10695889D01*
X5639229Y-10695889D02*
X5629706Y-10657793D01*
X5629706Y-10657793D02*
X5629706Y-10610174D01*
X5629706Y-10610174D02*
X5639229Y-10572079D01*
X5639229Y-10572079D02*
X5648753Y-10553031D01*
X5648753Y-10553031D02*
X5658277Y-10543508D01*
X5658277Y-10543508D02*
X5677325Y-10533984D01*
X5810658Y-10533984D02*
X5943991Y-10533984D01*
X5943991Y-10533984D02*
X5858277Y-10733984D01*
X6029706Y-10733984D02*
X6067801Y-10733984D01*
X6067801Y-10733984D02*
X6086848Y-10724460D01*
X6086848Y-10724460D02*
X6096372Y-10714936D01*
X6096372Y-10714936D02*
X6115420Y-10686365D01*
X6115420Y-10686365D02*
X6124944Y-10648270D01*
X6124944Y-10648270D02*
X6124944Y-10572079D01*
X6124944Y-10572079D02*
X6115420Y-10553031D01*
X6115420Y-10553031D02*
X6105896Y-10543508D01*
X6105896Y-10543508D02*
X6086848Y-10533984D01*
X6086848Y-10533984D02*
X6048753Y-10533984D01*
X6048753Y-10533984D02*
X6029706Y-10543508D01*
X6029706Y-10543508D02*
X6020182Y-10553031D01*
X6020182Y-10553031D02*
X6010658Y-10572079D01*
X6010658Y-10572079D02*
X6010658Y-10619698D01*
X6010658Y-10619698D02*
X6020182Y-10638746D01*
X6020182Y-10638746D02*
X6029706Y-10648270D01*
X6029706Y-10648270D02*
X6048753Y-10657793D01*
X6048753Y-10657793D02*
X6086848Y-10657793D01*
X6086848Y-10657793D02*
X6105896Y-10648270D01*
X6105896Y-10648270D02*
X6115420Y-10638746D01*
X6115420Y-10638746D02*
X6124944Y-10619698D01*
X6201134Y-10533984D02*
X6201134Y-10572079D01*
X6277325Y-10533984D02*
X6277325Y-10572079D01*
X6572563Y-10810174D02*
X6563039Y-10800650D01*
X6563039Y-10800650D02*
X6543991Y-10772079D01*
X6543991Y-10772079D02*
X6534468Y-10753031D01*
X6534468Y-10753031D02*
X6524944Y-10724460D01*
X6524944Y-10724460D02*
X6515420Y-10676841D01*
X6515420Y-10676841D02*
X6515420Y-10638746D01*
X6515420Y-10638746D02*
X6524944Y-10591127D01*
X6524944Y-10591127D02*
X6534468Y-10562555D01*
X6534468Y-10562555D02*
X6543991Y-10543508D01*
X6543991Y-10543508D02*
X6563039Y-10514936D01*
X6563039Y-10514936D02*
X6572563Y-10505412D01*
X6629706Y-10533984D02*
X6763039Y-10533984D01*
X6763039Y-10533984D02*
X6677325Y-10733984D01*
X6924944Y-10533984D02*
X6886848Y-10533984D01*
X6886848Y-10533984D02*
X6867801Y-10543508D01*
X6867801Y-10543508D02*
X6858277Y-10553031D01*
X6858277Y-10553031D02*
X6839229Y-10581603D01*
X6839229Y-10581603D02*
X6829706Y-10619698D01*
X6829706Y-10619698D02*
X6829706Y-10695889D01*
X6829706Y-10695889D02*
X6839229Y-10714936D01*
X6839229Y-10714936D02*
X6848753Y-10724460D01*
X6848753Y-10724460D02*
X6867801Y-10733984D01*
X6867801Y-10733984D02*
X6905896Y-10733984D01*
X6905896Y-10733984D02*
X6924944Y-10724460D01*
X6924944Y-10724460D02*
X6934468Y-10714936D01*
X6934468Y-10714936D02*
X6943991Y-10695889D01*
X6943991Y-10695889D02*
X6943991Y-10648270D01*
X6943991Y-10648270D02*
X6934468Y-10629222D01*
X6934468Y-10629222D02*
X6924944Y-10619698D01*
X6924944Y-10619698D02*
X6905896Y-10610174D01*
X6905896Y-10610174D02*
X6867801Y-10610174D01*
X6867801Y-10610174D02*
X6848753Y-10619698D01*
X6848753Y-10619698D02*
X6839229Y-10629222D01*
X6839229Y-10629222D02*
X6829706Y-10648270D01*
X7182087Y-10733984D02*
X7182087Y-10533984D01*
X7267801Y-10733984D02*
X7267801Y-10629222D01*
X7267801Y-10629222D02*
X7258277Y-10610174D01*
X7258277Y-10610174D02*
X7239230Y-10600650D01*
X7239230Y-10600650D02*
X7210658Y-10600650D01*
X7210658Y-10600650D02*
X7191610Y-10610174D01*
X7191610Y-10610174D02*
X7182087Y-10619698D01*
X7391610Y-10733984D02*
X7372563Y-10724460D01*
X7372563Y-10724460D02*
X7363039Y-10714936D01*
X7363039Y-10714936D02*
X7353515Y-10695889D01*
X7353515Y-10695889D02*
X7353515Y-10638746D01*
X7353515Y-10638746D02*
X7363039Y-10619698D01*
X7363039Y-10619698D02*
X7372563Y-10610174D01*
X7372563Y-10610174D02*
X7391610Y-10600650D01*
X7391610Y-10600650D02*
X7420182Y-10600650D01*
X7420182Y-10600650D02*
X7439230Y-10610174D01*
X7439230Y-10610174D02*
X7448753Y-10619698D01*
X7448753Y-10619698D02*
X7458277Y-10638746D01*
X7458277Y-10638746D02*
X7458277Y-10695889D01*
X7458277Y-10695889D02*
X7448753Y-10714936D01*
X7448753Y-10714936D02*
X7439230Y-10724460D01*
X7439230Y-10724460D02*
X7420182Y-10733984D01*
X7420182Y-10733984D02*
X7391610Y-10733984D01*
X7572563Y-10733984D02*
X7553515Y-10724460D01*
X7553515Y-10724460D02*
X7543991Y-10705412D01*
X7543991Y-10705412D02*
X7543991Y-10533984D01*
X7724944Y-10724460D02*
X7705896Y-10733984D01*
X7705896Y-10733984D02*
X7667801Y-10733984D01*
X7667801Y-10733984D02*
X7648753Y-10724460D01*
X7648753Y-10724460D02*
X7639230Y-10705412D01*
X7639230Y-10705412D02*
X7639230Y-10629222D01*
X7639230Y-10629222D02*
X7648753Y-10610174D01*
X7648753Y-10610174D02*
X7667801Y-10600650D01*
X7667801Y-10600650D02*
X7705896Y-10600650D01*
X7705896Y-10600650D02*
X7724944Y-10610174D01*
X7724944Y-10610174D02*
X7734468Y-10629222D01*
X7734468Y-10629222D02*
X7734468Y-10648270D01*
X7734468Y-10648270D02*
X7639230Y-10667317D01*
X7810658Y-10724460D02*
X7829706Y-10733984D01*
X7829706Y-10733984D02*
X7867801Y-10733984D01*
X7867801Y-10733984D02*
X7886849Y-10724460D01*
X7886849Y-10724460D02*
X7896372Y-10705412D01*
X7896372Y-10705412D02*
X7896372Y-10695889D01*
X7896372Y-10695889D02*
X7886849Y-10676841D01*
X7886849Y-10676841D02*
X7867801Y-10667317D01*
X7867801Y-10667317D02*
X7839230Y-10667317D01*
X7839230Y-10667317D02*
X7820182Y-10657793D01*
X7820182Y-10657793D02*
X7810658Y-10638746D01*
X7810658Y-10638746D02*
X7810658Y-10629222D01*
X7810658Y-10629222D02*
X7820182Y-10610174D01*
X7820182Y-10610174D02*
X7839230Y-10600650D01*
X7839230Y-10600650D02*
X7867801Y-10600650D01*
X7867801Y-10600650D02*
X7886849Y-10610174D01*
X7963039Y-10810174D02*
X7972563Y-10800650D01*
X7972563Y-10800650D02*
X7991611Y-10772079D01*
X7991611Y-10772079D02*
X8001134Y-10753031D01*
X8001134Y-10753031D02*
X8010658Y-10724460D01*
X8010658Y-10724460D02*
X8020182Y-10676841D01*
X8020182Y-10676841D02*
X8020182Y-10638746D01*
X8020182Y-10638746D02*
X8010658Y-10591127D01*
X8010658Y-10591127D02*
X8001134Y-10562555D01*
X8001134Y-10562555D02*
X7991611Y-10543508D01*
X7991611Y-10543508D02*
X7972563Y-10514936D01*
X7972563Y-10514936D02*
X7963039Y-10505412D01*
D12*
X2997500Y-10906500D02*
G75*
G02*
X2967500Y-10906500I-15000J0D01*
G01*
X2967500Y-10906500D02*
G75*
G02*
X2997500Y-10906500I15000J0D01*
G01*
D11*
X3296372Y-10797984D02*
X3315420Y-10797984D01*
X3315420Y-10797984D02*
X3334467Y-10807508D01*
X3334467Y-10807508D02*
X3343991Y-10817031D01*
X3343991Y-10817031D02*
X3353515Y-10836079D01*
X3353515Y-10836079D02*
X3363039Y-10874174D01*
X3363039Y-10874174D02*
X3363039Y-10921793D01*
X3363039Y-10921793D02*
X3353515Y-10959889D01*
X3353515Y-10959889D02*
X3343991Y-10978936D01*
X3343991Y-10978936D02*
X3334467Y-10988460D01*
X3334467Y-10988460D02*
X3315420Y-10997984D01*
X3315420Y-10997984D02*
X3296372Y-10997984D01*
X3296372Y-10997984D02*
X3277324Y-10988460D01*
X3277324Y-10988460D02*
X3267801Y-10978936D01*
X3267801Y-10978936D02*
X3258277Y-10959889D01*
X3258277Y-10959889D02*
X3248753Y-10921793D01*
X3248753Y-10921793D02*
X3248753Y-10874174D01*
X3248753Y-10874174D02*
X3258277Y-10836079D01*
X3258277Y-10836079D02*
X3267801Y-10817031D01*
X3267801Y-10817031D02*
X3277324Y-10807508D01*
X3277324Y-10807508D02*
X3296372Y-10797984D01*
X3448753Y-10978936D02*
X3458277Y-10988460D01*
X3458277Y-10988460D02*
X3448753Y-10997984D01*
X3448753Y-10997984D02*
X3439229Y-10988460D01*
X3439229Y-10988460D02*
X3448753Y-10978936D01*
X3448753Y-10978936D02*
X3448753Y-10997984D01*
X3524943Y-10797984D02*
X3648753Y-10797984D01*
X3648753Y-10797984D02*
X3582086Y-10874174D01*
X3582086Y-10874174D02*
X3610658Y-10874174D01*
X3610658Y-10874174D02*
X3629705Y-10883698D01*
X3629705Y-10883698D02*
X3639229Y-10893222D01*
X3639229Y-10893222D02*
X3648753Y-10912270D01*
X3648753Y-10912270D02*
X3648753Y-10959889D01*
X3648753Y-10959889D02*
X3639229Y-10978936D01*
X3639229Y-10978936D02*
X3629705Y-10988460D01*
X3629705Y-10988460D02*
X3610658Y-10997984D01*
X3610658Y-10997984D02*
X3553515Y-10997984D01*
X3553515Y-10997984D02*
X3534467Y-10988460D01*
X3534467Y-10988460D02*
X3524943Y-10978936D01*
X3772562Y-10797984D02*
X3791610Y-10797984D01*
X3791610Y-10797984D02*
X3810658Y-10807508D01*
X3810658Y-10807508D02*
X3820182Y-10817031D01*
X3820182Y-10817031D02*
X3829705Y-10836079D01*
X3829705Y-10836079D02*
X3839229Y-10874174D01*
X3839229Y-10874174D02*
X3839229Y-10921793D01*
X3839229Y-10921793D02*
X3829705Y-10959889D01*
X3829705Y-10959889D02*
X3820182Y-10978936D01*
X3820182Y-10978936D02*
X3810658Y-10988460D01*
X3810658Y-10988460D02*
X3791610Y-10997984D01*
X3791610Y-10997984D02*
X3772562Y-10997984D01*
X3772562Y-10997984D02*
X3753515Y-10988460D01*
X3753515Y-10988460D02*
X3743991Y-10978936D01*
X3743991Y-10978936D02*
X3734467Y-10959889D01*
X3734467Y-10959889D02*
X3724943Y-10921793D01*
X3724943Y-10921793D02*
X3724943Y-10874174D01*
X3724943Y-10874174D02*
X3734467Y-10836079D01*
X3734467Y-10836079D02*
X3743991Y-10817031D01*
X3743991Y-10817031D02*
X3753515Y-10807508D01*
X3753515Y-10807508D02*
X3772562Y-10797984D01*
X3963039Y-10797984D02*
X3982086Y-10797984D01*
X3982086Y-10797984D02*
X4001134Y-10807508D01*
X4001134Y-10807508D02*
X4010658Y-10817031D01*
X4010658Y-10817031D02*
X4020182Y-10836079D01*
X4020182Y-10836079D02*
X4029705Y-10874174D01*
X4029705Y-10874174D02*
X4029705Y-10921793D01*
X4029705Y-10921793D02*
X4020182Y-10959889D01*
X4020182Y-10959889D02*
X4010658Y-10978936D01*
X4010658Y-10978936D02*
X4001134Y-10988460D01*
X4001134Y-10988460D02*
X3982086Y-10997984D01*
X3982086Y-10997984D02*
X3963039Y-10997984D01*
X3963039Y-10997984D02*
X3943991Y-10988460D01*
X3943991Y-10988460D02*
X3934467Y-10978936D01*
X3934467Y-10978936D02*
X3924943Y-10959889D01*
X3924943Y-10959889D02*
X3915420Y-10921793D01*
X3915420Y-10921793D02*
X3915420Y-10874174D01*
X3915420Y-10874174D02*
X3924943Y-10836079D01*
X3924943Y-10836079D02*
X3934467Y-10817031D01*
X3934467Y-10817031D02*
X3943991Y-10807508D01*
X3943991Y-10807508D02*
X3963039Y-10797984D01*
X4115420Y-10997984D02*
X4115420Y-10864650D01*
X4115420Y-10883698D02*
X4124943Y-10874174D01*
X4124943Y-10874174D02*
X4143991Y-10864650D01*
X4143991Y-10864650D02*
X4172563Y-10864650D01*
X4172563Y-10864650D02*
X4191610Y-10874174D01*
X4191610Y-10874174D02*
X4201134Y-10893222D01*
X4201134Y-10893222D02*
X4201134Y-10997984D01*
X4201134Y-10893222D02*
X4210658Y-10874174D01*
X4210658Y-10874174D02*
X4229705Y-10864650D01*
X4229705Y-10864650D02*
X4258277Y-10864650D01*
X4258277Y-10864650D02*
X4277325Y-10874174D01*
X4277325Y-10874174D02*
X4286848Y-10893222D01*
X4286848Y-10893222D02*
X4286848Y-10997984D01*
X4382086Y-10997984D02*
X4382086Y-10864650D01*
X4382086Y-10883698D02*
X4391610Y-10874174D01*
X4391610Y-10874174D02*
X4410658Y-10864650D01*
X4410658Y-10864650D02*
X4439229Y-10864650D01*
X4439229Y-10864650D02*
X4458277Y-10874174D01*
X4458277Y-10874174D02*
X4467801Y-10893222D01*
X4467801Y-10893222D02*
X4467801Y-10997984D01*
X4467801Y-10893222D02*
X4477325Y-10874174D01*
X4477325Y-10874174D02*
X4496372Y-10864650D01*
X4496372Y-10864650D02*
X4524944Y-10864650D01*
X4524944Y-10864650D02*
X4543991Y-10874174D01*
X4543991Y-10874174D02*
X4553515Y-10893222D01*
X4553515Y-10893222D02*
X4553515Y-10997984D01*
X4943991Y-10788460D02*
X4772563Y-11045603D01*
X5201134Y-10797984D02*
X5220182Y-10797984D01*
X5220182Y-10797984D02*
X5239229Y-10807508D01*
X5239229Y-10807508D02*
X5248753Y-10817031D01*
X5248753Y-10817031D02*
X5258277Y-10836079D01*
X5258277Y-10836079D02*
X5267801Y-10874174D01*
X5267801Y-10874174D02*
X5267801Y-10921793D01*
X5267801Y-10921793D02*
X5258277Y-10959889D01*
X5258277Y-10959889D02*
X5248753Y-10978936D01*
X5248753Y-10978936D02*
X5239229Y-10988460D01*
X5239229Y-10988460D02*
X5220182Y-10997984D01*
X5220182Y-10997984D02*
X5201134Y-10997984D01*
X5201134Y-10997984D02*
X5182087Y-10988460D01*
X5182087Y-10988460D02*
X5172563Y-10978936D01*
X5172563Y-10978936D02*
X5163039Y-10959889D01*
X5163039Y-10959889D02*
X5153515Y-10921793D01*
X5153515Y-10921793D02*
X5153515Y-10874174D01*
X5153515Y-10874174D02*
X5163039Y-10836079D01*
X5163039Y-10836079D02*
X5172563Y-10817031D01*
X5172563Y-10817031D02*
X5182087Y-10807508D01*
X5182087Y-10807508D02*
X5201134Y-10797984D01*
X5353515Y-10978936D02*
X5363039Y-10988460D01*
X5363039Y-10988460D02*
X5353515Y-10997984D01*
X5353515Y-10997984D02*
X5343991Y-10988460D01*
X5343991Y-10988460D02*
X5353515Y-10978936D01*
X5353515Y-10978936D02*
X5353515Y-10997984D01*
X5486848Y-10797984D02*
X5505896Y-10797984D01*
X5505896Y-10797984D02*
X5524944Y-10807508D01*
X5524944Y-10807508D02*
X5534468Y-10817031D01*
X5534468Y-10817031D02*
X5543991Y-10836079D01*
X5543991Y-10836079D02*
X5553515Y-10874174D01*
X5553515Y-10874174D02*
X5553515Y-10921793D01*
X5553515Y-10921793D02*
X5543991Y-10959889D01*
X5543991Y-10959889D02*
X5534468Y-10978936D01*
X5534468Y-10978936D02*
X5524944Y-10988460D01*
X5524944Y-10988460D02*
X5505896Y-10997984D01*
X5505896Y-10997984D02*
X5486848Y-10997984D01*
X5486848Y-10997984D02*
X5467801Y-10988460D01*
X5467801Y-10988460D02*
X5458277Y-10978936D01*
X5458277Y-10978936D02*
X5448753Y-10959889D01*
X5448753Y-10959889D02*
X5439229Y-10921793D01*
X5439229Y-10921793D02*
X5439229Y-10874174D01*
X5439229Y-10874174D02*
X5448753Y-10836079D01*
X5448753Y-10836079D02*
X5458277Y-10817031D01*
X5458277Y-10817031D02*
X5467801Y-10807508D01*
X5467801Y-10807508D02*
X5486848Y-10797984D01*
X5743991Y-10997984D02*
X5629706Y-10997984D01*
X5686848Y-10997984D02*
X5686848Y-10797984D01*
X5686848Y-10797984D02*
X5667801Y-10826555D01*
X5667801Y-10826555D02*
X5648753Y-10845603D01*
X5648753Y-10845603D02*
X5629706Y-10855127D01*
X5934467Y-10997984D02*
X5820182Y-10997984D01*
X5877325Y-10997984D02*
X5877325Y-10797984D01*
X5877325Y-10797984D02*
X5858277Y-10826555D01*
X5858277Y-10826555D02*
X5839229Y-10845603D01*
X5839229Y-10845603D02*
X5820182Y-10855127D01*
X6048753Y-10883698D02*
X6029706Y-10874174D01*
X6029706Y-10874174D02*
X6020182Y-10864650D01*
X6020182Y-10864650D02*
X6010658Y-10845603D01*
X6010658Y-10845603D02*
X6010658Y-10836079D01*
X6010658Y-10836079D02*
X6020182Y-10817031D01*
X6020182Y-10817031D02*
X6029706Y-10807508D01*
X6029706Y-10807508D02*
X6048753Y-10797984D01*
X6048753Y-10797984D02*
X6086848Y-10797984D01*
X6086848Y-10797984D02*
X6105896Y-10807508D01*
X6105896Y-10807508D02*
X6115420Y-10817031D01*
X6115420Y-10817031D02*
X6124944Y-10836079D01*
X6124944Y-10836079D02*
X6124944Y-10845603D01*
X6124944Y-10845603D02*
X6115420Y-10864650D01*
X6115420Y-10864650D02*
X6105896Y-10874174D01*
X6105896Y-10874174D02*
X6086848Y-10883698D01*
X6086848Y-10883698D02*
X6048753Y-10883698D01*
X6048753Y-10883698D02*
X6029706Y-10893222D01*
X6029706Y-10893222D02*
X6020182Y-10902746D01*
X6020182Y-10902746D02*
X6010658Y-10921793D01*
X6010658Y-10921793D02*
X6010658Y-10959889D01*
X6010658Y-10959889D02*
X6020182Y-10978936D01*
X6020182Y-10978936D02*
X6029706Y-10988460D01*
X6029706Y-10988460D02*
X6048753Y-10997984D01*
X6048753Y-10997984D02*
X6086848Y-10997984D01*
X6086848Y-10997984D02*
X6105896Y-10988460D01*
X6105896Y-10988460D02*
X6115420Y-10978936D01*
X6115420Y-10978936D02*
X6124944Y-10959889D01*
X6124944Y-10959889D02*
X6124944Y-10921793D01*
X6124944Y-10921793D02*
X6115420Y-10902746D01*
X6115420Y-10902746D02*
X6105896Y-10893222D01*
X6105896Y-10893222D02*
X6086848Y-10883698D01*
X6201134Y-10797984D02*
X6201134Y-10836079D01*
X6277325Y-10797984D02*
X6277325Y-10836079D01*
X6572563Y-11074174D02*
X6563039Y-11064650D01*
X6563039Y-11064650D02*
X6543991Y-11036079D01*
X6543991Y-11036079D02*
X6534468Y-11017031D01*
X6534468Y-11017031D02*
X6524944Y-10988460D01*
X6524944Y-10988460D02*
X6515420Y-10940841D01*
X6515420Y-10940841D02*
X6515420Y-10902746D01*
X6515420Y-10902746D02*
X6524944Y-10855127D01*
X6524944Y-10855127D02*
X6534468Y-10826555D01*
X6534468Y-10826555D02*
X6543991Y-10807508D01*
X6543991Y-10807508D02*
X6563039Y-10778936D01*
X6563039Y-10778936D02*
X6572563Y-10769412D01*
X6629706Y-10797984D02*
X6763039Y-10797984D01*
X6763039Y-10797984D02*
X6677325Y-10997984D01*
X6991610Y-10997984D02*
X6991610Y-10797984D01*
X7077325Y-10997984D02*
X7077325Y-10893222D01*
X7077325Y-10893222D02*
X7067801Y-10874174D01*
X7067801Y-10874174D02*
X7048753Y-10864650D01*
X7048753Y-10864650D02*
X7020182Y-10864650D01*
X7020182Y-10864650D02*
X7001134Y-10874174D01*
X7001134Y-10874174D02*
X6991610Y-10883698D01*
X7201134Y-10997984D02*
X7182087Y-10988460D01*
X7182087Y-10988460D02*
X7172563Y-10978936D01*
X7172563Y-10978936D02*
X7163039Y-10959889D01*
X7163039Y-10959889D02*
X7163039Y-10902746D01*
X7163039Y-10902746D02*
X7172563Y-10883698D01*
X7172563Y-10883698D02*
X7182087Y-10874174D01*
X7182087Y-10874174D02*
X7201134Y-10864650D01*
X7201134Y-10864650D02*
X7229706Y-10864650D01*
X7229706Y-10864650D02*
X7248753Y-10874174D01*
X7248753Y-10874174D02*
X7258277Y-10883698D01*
X7258277Y-10883698D02*
X7267801Y-10902746D01*
X7267801Y-10902746D02*
X7267801Y-10959889D01*
X7267801Y-10959889D02*
X7258277Y-10978936D01*
X7258277Y-10978936D02*
X7248753Y-10988460D01*
X7248753Y-10988460D02*
X7229706Y-10997984D01*
X7229706Y-10997984D02*
X7201134Y-10997984D01*
X7382087Y-10997984D02*
X7363039Y-10988460D01*
X7363039Y-10988460D02*
X7353515Y-10969412D01*
X7353515Y-10969412D02*
X7353515Y-10797984D01*
X7534468Y-10988460D02*
X7515420Y-10997984D01*
X7515420Y-10997984D02*
X7477325Y-10997984D01*
X7477325Y-10997984D02*
X7458277Y-10988460D01*
X7458277Y-10988460D02*
X7448753Y-10969412D01*
X7448753Y-10969412D02*
X7448753Y-10893222D01*
X7448753Y-10893222D02*
X7458277Y-10874174D01*
X7458277Y-10874174D02*
X7477325Y-10864650D01*
X7477325Y-10864650D02*
X7515420Y-10864650D01*
X7515420Y-10864650D02*
X7534468Y-10874174D01*
X7534468Y-10874174D02*
X7543991Y-10893222D01*
X7543991Y-10893222D02*
X7543991Y-10912270D01*
X7543991Y-10912270D02*
X7448753Y-10931317D01*
X7620182Y-10988460D02*
X7639230Y-10997984D01*
X7639230Y-10997984D02*
X7677325Y-10997984D01*
X7677325Y-10997984D02*
X7696372Y-10988460D01*
X7696372Y-10988460D02*
X7705896Y-10969412D01*
X7705896Y-10969412D02*
X7705896Y-10959889D01*
X7705896Y-10959889D02*
X7696372Y-10940841D01*
X7696372Y-10940841D02*
X7677325Y-10931317D01*
X7677325Y-10931317D02*
X7648753Y-10931317D01*
X7648753Y-10931317D02*
X7629706Y-10921793D01*
X7629706Y-10921793D02*
X7620182Y-10902746D01*
X7620182Y-10902746D02*
X7620182Y-10893222D01*
X7620182Y-10893222D02*
X7629706Y-10874174D01*
X7629706Y-10874174D02*
X7648753Y-10864650D01*
X7648753Y-10864650D02*
X7677325Y-10864650D01*
X7677325Y-10864650D02*
X7696372Y-10874174D01*
X7772563Y-11074174D02*
X7782087Y-11064650D01*
X7782087Y-11064650D02*
X7801134Y-11036079D01*
X7801134Y-11036079D02*
X7810658Y-11017031D01*
X7810658Y-11017031D02*
X7820182Y-10988460D01*
X7820182Y-10988460D02*
X7829706Y-10940841D01*
X7829706Y-10940841D02*
X7829706Y-10902746D01*
X7829706Y-10902746D02*
X7820182Y-10855127D01*
X7820182Y-10855127D02*
X7810658Y-10826555D01*
X7810658Y-10826555D02*
X7801134Y-10807508D01*
X7801134Y-10807508D02*
X7782087Y-10778936D01*
X7782087Y-10778936D02*
X7772563Y-10769412D01*
D12*
X2967500Y-11140500D02*
X2967500Y-11200500D01*
X2937500Y-11170500D02*
X2997500Y-11170500D01*
D11*
X3296372Y-11061984D02*
X3315420Y-11061984D01*
X3315420Y-11061984D02*
X3334467Y-11071508D01*
X3334467Y-11071508D02*
X3343991Y-11081031D01*
X3343991Y-11081031D02*
X3353515Y-11100079D01*
X3353515Y-11100079D02*
X3363039Y-11138174D01*
X3363039Y-11138174D02*
X3363039Y-11185793D01*
X3363039Y-11185793D02*
X3353515Y-11223888D01*
X3353515Y-11223888D02*
X3343991Y-11242936D01*
X3343991Y-11242936D02*
X3334467Y-11252460D01*
X3334467Y-11252460D02*
X3315420Y-11261984D01*
X3315420Y-11261984D02*
X3296372Y-11261984D01*
X3296372Y-11261984D02*
X3277324Y-11252460D01*
X3277324Y-11252460D02*
X3267801Y-11242936D01*
X3267801Y-11242936D02*
X3258277Y-11223888D01*
X3258277Y-11223888D02*
X3248753Y-11185793D01*
X3248753Y-11185793D02*
X3248753Y-11138174D01*
X3248753Y-11138174D02*
X3258277Y-11100079D01*
X3258277Y-11100079D02*
X3267801Y-11081031D01*
X3267801Y-11081031D02*
X3277324Y-11071508D01*
X3277324Y-11071508D02*
X3296372Y-11061984D01*
X3448753Y-11242936D02*
X3458277Y-11252460D01*
X3458277Y-11252460D02*
X3448753Y-11261984D01*
X3448753Y-11261984D02*
X3439229Y-11252460D01*
X3439229Y-11252460D02*
X3448753Y-11242936D01*
X3448753Y-11242936D02*
X3448753Y-11261984D01*
X3629705Y-11061984D02*
X3591610Y-11061984D01*
X3591610Y-11061984D02*
X3572562Y-11071508D01*
X3572562Y-11071508D02*
X3563039Y-11081031D01*
X3563039Y-11081031D02*
X3543991Y-11109603D01*
X3543991Y-11109603D02*
X3534467Y-11147698D01*
X3534467Y-11147698D02*
X3534467Y-11223888D01*
X3534467Y-11223888D02*
X3543991Y-11242936D01*
X3543991Y-11242936D02*
X3553515Y-11252460D01*
X3553515Y-11252460D02*
X3572562Y-11261984D01*
X3572562Y-11261984D02*
X3610658Y-11261984D01*
X3610658Y-11261984D02*
X3629705Y-11252460D01*
X3629705Y-11252460D02*
X3639229Y-11242936D01*
X3639229Y-11242936D02*
X3648753Y-11223888D01*
X3648753Y-11223888D02*
X3648753Y-11176270D01*
X3648753Y-11176270D02*
X3639229Y-11157222D01*
X3639229Y-11157222D02*
X3629705Y-11147698D01*
X3629705Y-11147698D02*
X3610658Y-11138174D01*
X3610658Y-11138174D02*
X3572562Y-11138174D01*
X3572562Y-11138174D02*
X3553515Y-11147698D01*
X3553515Y-11147698D02*
X3543991Y-11157222D01*
X3543991Y-11157222D02*
X3534467Y-11176270D01*
X3772562Y-11061984D02*
X3791610Y-11061984D01*
X3791610Y-11061984D02*
X3810658Y-11071508D01*
X3810658Y-11071508D02*
X3820182Y-11081031D01*
X3820182Y-11081031D02*
X3829705Y-11100079D01*
X3829705Y-11100079D02*
X3839229Y-11138174D01*
X3839229Y-11138174D02*
X3839229Y-11185793D01*
X3839229Y-11185793D02*
X3829705Y-11223888D01*
X3829705Y-11223888D02*
X3820182Y-11242936D01*
X3820182Y-11242936D02*
X3810658Y-11252460D01*
X3810658Y-11252460D02*
X3791610Y-11261984D01*
X3791610Y-11261984D02*
X3772562Y-11261984D01*
X3772562Y-11261984D02*
X3753515Y-11252460D01*
X3753515Y-11252460D02*
X3743991Y-11242936D01*
X3743991Y-11242936D02*
X3734467Y-11223888D01*
X3734467Y-11223888D02*
X3724943Y-11185793D01*
X3724943Y-11185793D02*
X3724943Y-11138174D01*
X3724943Y-11138174D02*
X3734467Y-11100079D01*
X3734467Y-11100079D02*
X3743991Y-11081031D01*
X3743991Y-11081031D02*
X3753515Y-11071508D01*
X3753515Y-11071508D02*
X3772562Y-11061984D01*
X3963039Y-11061984D02*
X3982086Y-11061984D01*
X3982086Y-11061984D02*
X4001134Y-11071508D01*
X4001134Y-11071508D02*
X4010658Y-11081031D01*
X4010658Y-11081031D02*
X4020182Y-11100079D01*
X4020182Y-11100079D02*
X4029705Y-11138174D01*
X4029705Y-11138174D02*
X4029705Y-11185793D01*
X4029705Y-11185793D02*
X4020182Y-11223888D01*
X4020182Y-11223888D02*
X4010658Y-11242936D01*
X4010658Y-11242936D02*
X4001134Y-11252460D01*
X4001134Y-11252460D02*
X3982086Y-11261984D01*
X3982086Y-11261984D02*
X3963039Y-11261984D01*
X3963039Y-11261984D02*
X3943991Y-11252460D01*
X3943991Y-11252460D02*
X3934467Y-11242936D01*
X3934467Y-11242936D02*
X3924943Y-11223888D01*
X3924943Y-11223888D02*
X3915420Y-11185793D01*
X3915420Y-11185793D02*
X3915420Y-11138174D01*
X3915420Y-11138174D02*
X3924943Y-11100079D01*
X3924943Y-11100079D02*
X3934467Y-11081031D01*
X3934467Y-11081031D02*
X3943991Y-11071508D01*
X3943991Y-11071508D02*
X3963039Y-11061984D01*
X4115420Y-11261984D02*
X4115420Y-11128650D01*
X4115420Y-11147698D02*
X4124943Y-11138174D01*
X4124943Y-11138174D02*
X4143991Y-11128650D01*
X4143991Y-11128650D02*
X4172563Y-11128650D01*
X4172563Y-11128650D02*
X4191610Y-11138174D01*
X4191610Y-11138174D02*
X4201134Y-11157222D01*
X4201134Y-11157222D02*
X4201134Y-11261984D01*
X4201134Y-11157222D02*
X4210658Y-11138174D01*
X4210658Y-11138174D02*
X4229705Y-11128650D01*
X4229705Y-11128650D02*
X4258277Y-11128650D01*
X4258277Y-11128650D02*
X4277325Y-11138174D01*
X4277325Y-11138174D02*
X4286848Y-11157222D01*
X4286848Y-11157222D02*
X4286848Y-11261984D01*
X4382086Y-11261984D02*
X4382086Y-11128650D01*
X4382086Y-11147698D02*
X4391610Y-11138174D01*
X4391610Y-11138174D02*
X4410658Y-11128650D01*
X4410658Y-11128650D02*
X4439229Y-11128650D01*
X4439229Y-11128650D02*
X4458277Y-11138174D01*
X4458277Y-11138174D02*
X4467801Y-11157222D01*
X4467801Y-11157222D02*
X4467801Y-11261984D01*
X4467801Y-11157222D02*
X4477325Y-11138174D01*
X4477325Y-11138174D02*
X4496372Y-11128650D01*
X4496372Y-11128650D02*
X4524944Y-11128650D01*
X4524944Y-11128650D02*
X4543991Y-11138174D01*
X4543991Y-11138174D02*
X4553515Y-11157222D01*
X4553515Y-11157222D02*
X4553515Y-11261984D01*
X4943991Y-11052460D02*
X4772563Y-11309603D01*
X5201134Y-11061984D02*
X5220182Y-11061984D01*
X5220182Y-11061984D02*
X5239229Y-11071508D01*
X5239229Y-11071508D02*
X5248753Y-11081031D01*
X5248753Y-11081031D02*
X5258277Y-11100079D01*
X5258277Y-11100079D02*
X5267801Y-11138174D01*
X5267801Y-11138174D02*
X5267801Y-11185793D01*
X5267801Y-11185793D02*
X5258277Y-11223888D01*
X5258277Y-11223888D02*
X5248753Y-11242936D01*
X5248753Y-11242936D02*
X5239229Y-11252460D01*
X5239229Y-11252460D02*
X5220182Y-11261984D01*
X5220182Y-11261984D02*
X5201134Y-11261984D01*
X5201134Y-11261984D02*
X5182087Y-11252460D01*
X5182087Y-11252460D02*
X5172563Y-11242936D01*
X5172563Y-11242936D02*
X5163039Y-11223888D01*
X5163039Y-11223888D02*
X5153515Y-11185793D01*
X5153515Y-11185793D02*
X5153515Y-11138174D01*
X5153515Y-11138174D02*
X5163039Y-11100079D01*
X5163039Y-11100079D02*
X5172563Y-11081031D01*
X5172563Y-11081031D02*
X5182087Y-11071508D01*
X5182087Y-11071508D02*
X5201134Y-11061984D01*
X5353515Y-11242936D02*
X5363039Y-11252460D01*
X5363039Y-11252460D02*
X5353515Y-11261984D01*
X5353515Y-11261984D02*
X5343991Y-11252460D01*
X5343991Y-11252460D02*
X5353515Y-11242936D01*
X5353515Y-11242936D02*
X5353515Y-11261984D01*
X5486848Y-11061984D02*
X5505896Y-11061984D01*
X5505896Y-11061984D02*
X5524944Y-11071508D01*
X5524944Y-11071508D02*
X5534468Y-11081031D01*
X5534468Y-11081031D02*
X5543991Y-11100079D01*
X5543991Y-11100079D02*
X5553515Y-11138174D01*
X5553515Y-11138174D02*
X5553515Y-11185793D01*
X5553515Y-11185793D02*
X5543991Y-11223888D01*
X5543991Y-11223888D02*
X5534468Y-11242936D01*
X5534468Y-11242936D02*
X5524944Y-11252460D01*
X5524944Y-11252460D02*
X5505896Y-11261984D01*
X5505896Y-11261984D02*
X5486848Y-11261984D01*
X5486848Y-11261984D02*
X5467801Y-11252460D01*
X5467801Y-11252460D02*
X5458277Y-11242936D01*
X5458277Y-11242936D02*
X5448753Y-11223888D01*
X5448753Y-11223888D02*
X5439229Y-11185793D01*
X5439229Y-11185793D02*
X5439229Y-11138174D01*
X5439229Y-11138174D02*
X5448753Y-11100079D01*
X5448753Y-11100079D02*
X5458277Y-11081031D01*
X5458277Y-11081031D02*
X5467801Y-11071508D01*
X5467801Y-11071508D02*
X5486848Y-11061984D01*
X5629706Y-11081031D02*
X5639229Y-11071508D01*
X5639229Y-11071508D02*
X5658277Y-11061984D01*
X5658277Y-11061984D02*
X5705896Y-11061984D01*
X5705896Y-11061984D02*
X5724944Y-11071508D01*
X5724944Y-11071508D02*
X5734467Y-11081031D01*
X5734467Y-11081031D02*
X5743991Y-11100079D01*
X5743991Y-11100079D02*
X5743991Y-11119127D01*
X5743991Y-11119127D02*
X5734467Y-11147698D01*
X5734467Y-11147698D02*
X5620182Y-11261984D01*
X5620182Y-11261984D02*
X5743991Y-11261984D01*
X5810658Y-11061984D02*
X5934467Y-11061984D01*
X5934467Y-11061984D02*
X5867801Y-11138174D01*
X5867801Y-11138174D02*
X5896372Y-11138174D01*
X5896372Y-11138174D02*
X5915420Y-11147698D01*
X5915420Y-11147698D02*
X5924944Y-11157222D01*
X5924944Y-11157222D02*
X5934467Y-11176270D01*
X5934467Y-11176270D02*
X5934467Y-11223888D01*
X5934467Y-11223888D02*
X5924944Y-11242936D01*
X5924944Y-11242936D02*
X5915420Y-11252460D01*
X5915420Y-11252460D02*
X5896372Y-11261984D01*
X5896372Y-11261984D02*
X5839229Y-11261984D01*
X5839229Y-11261984D02*
X5820182Y-11252460D01*
X5820182Y-11252460D02*
X5810658Y-11242936D01*
X6105896Y-11061984D02*
X6067801Y-11061984D01*
X6067801Y-11061984D02*
X6048753Y-11071508D01*
X6048753Y-11071508D02*
X6039229Y-11081031D01*
X6039229Y-11081031D02*
X6020182Y-11109603D01*
X6020182Y-11109603D02*
X6010658Y-11147698D01*
X6010658Y-11147698D02*
X6010658Y-11223888D01*
X6010658Y-11223888D02*
X6020182Y-11242936D01*
X6020182Y-11242936D02*
X6029706Y-11252460D01*
X6029706Y-11252460D02*
X6048753Y-11261984D01*
X6048753Y-11261984D02*
X6086848Y-11261984D01*
X6086848Y-11261984D02*
X6105896Y-11252460D01*
X6105896Y-11252460D02*
X6115420Y-11242936D01*
X6115420Y-11242936D02*
X6124944Y-11223888D01*
X6124944Y-11223888D02*
X6124944Y-11176270D01*
X6124944Y-11176270D02*
X6115420Y-11157222D01*
X6115420Y-11157222D02*
X6105896Y-11147698D01*
X6105896Y-11147698D02*
X6086848Y-11138174D01*
X6086848Y-11138174D02*
X6048753Y-11138174D01*
X6048753Y-11138174D02*
X6029706Y-11147698D01*
X6029706Y-11147698D02*
X6020182Y-11157222D01*
X6020182Y-11157222D02*
X6010658Y-11176270D01*
X6201134Y-11061984D02*
X6201134Y-11100079D01*
X6277325Y-11061984D02*
X6277325Y-11100079D01*
X6572563Y-11338174D02*
X6563039Y-11328650D01*
X6563039Y-11328650D02*
X6543991Y-11300079D01*
X6543991Y-11300079D02*
X6534468Y-11281031D01*
X6534468Y-11281031D02*
X6524944Y-11252460D01*
X6524944Y-11252460D02*
X6515420Y-11204841D01*
X6515420Y-11204841D02*
X6515420Y-11166746D01*
X6515420Y-11166746D02*
X6524944Y-11119127D01*
X6524944Y-11119127D02*
X6534468Y-11090555D01*
X6534468Y-11090555D02*
X6543991Y-11071508D01*
X6543991Y-11071508D02*
X6563039Y-11042936D01*
X6563039Y-11042936D02*
X6572563Y-11033412D01*
X6686848Y-11061984D02*
X6705896Y-11061984D01*
X6705896Y-11061984D02*
X6724944Y-11071508D01*
X6724944Y-11071508D02*
X6734468Y-11081031D01*
X6734468Y-11081031D02*
X6743991Y-11100079D01*
X6743991Y-11100079D02*
X6753515Y-11138174D01*
X6753515Y-11138174D02*
X6753515Y-11185793D01*
X6753515Y-11185793D02*
X6743991Y-11223888D01*
X6743991Y-11223888D02*
X6734468Y-11242936D01*
X6734468Y-11242936D02*
X6724944Y-11252460D01*
X6724944Y-11252460D02*
X6705896Y-11261984D01*
X6705896Y-11261984D02*
X6686848Y-11261984D01*
X6686848Y-11261984D02*
X6667801Y-11252460D01*
X6667801Y-11252460D02*
X6658277Y-11242936D01*
X6658277Y-11242936D02*
X6648753Y-11223888D01*
X6648753Y-11223888D02*
X6639229Y-11185793D01*
X6639229Y-11185793D02*
X6639229Y-11138174D01*
X6639229Y-11138174D02*
X6648753Y-11100079D01*
X6648753Y-11100079D02*
X6658277Y-11081031D01*
X6658277Y-11081031D02*
X6667801Y-11071508D01*
X6667801Y-11071508D02*
X6686848Y-11061984D01*
X6991610Y-11261984D02*
X6991610Y-11061984D01*
X7077325Y-11261984D02*
X7077325Y-11157222D01*
X7077325Y-11157222D02*
X7067801Y-11138174D01*
X7067801Y-11138174D02*
X7048753Y-11128650D01*
X7048753Y-11128650D02*
X7020182Y-11128650D01*
X7020182Y-11128650D02*
X7001134Y-11138174D01*
X7001134Y-11138174D02*
X6991610Y-11147698D01*
X7201134Y-11261984D02*
X7182087Y-11252460D01*
X7182087Y-11252460D02*
X7172563Y-11242936D01*
X7172563Y-11242936D02*
X7163039Y-11223888D01*
X7163039Y-11223888D02*
X7163039Y-11166746D01*
X7163039Y-11166746D02*
X7172563Y-11147698D01*
X7172563Y-11147698D02*
X7182087Y-11138174D01*
X7182087Y-11138174D02*
X7201134Y-11128650D01*
X7201134Y-11128650D02*
X7229706Y-11128650D01*
X7229706Y-11128650D02*
X7248753Y-11138174D01*
X7248753Y-11138174D02*
X7258277Y-11147698D01*
X7258277Y-11147698D02*
X7267801Y-11166746D01*
X7267801Y-11166746D02*
X7267801Y-11223888D01*
X7267801Y-11223888D02*
X7258277Y-11242936D01*
X7258277Y-11242936D02*
X7248753Y-11252460D01*
X7248753Y-11252460D02*
X7229706Y-11261984D01*
X7229706Y-11261984D02*
X7201134Y-11261984D01*
X7382087Y-11261984D02*
X7363039Y-11252460D01*
X7363039Y-11252460D02*
X7353515Y-11233412D01*
X7353515Y-11233412D02*
X7353515Y-11061984D01*
X7534468Y-11252460D02*
X7515420Y-11261984D01*
X7515420Y-11261984D02*
X7477325Y-11261984D01*
X7477325Y-11261984D02*
X7458277Y-11252460D01*
X7458277Y-11252460D02*
X7448753Y-11233412D01*
X7448753Y-11233412D02*
X7448753Y-11157222D01*
X7448753Y-11157222D02*
X7458277Y-11138174D01*
X7458277Y-11138174D02*
X7477325Y-11128650D01*
X7477325Y-11128650D02*
X7515420Y-11128650D01*
X7515420Y-11128650D02*
X7534468Y-11138174D01*
X7534468Y-11138174D02*
X7543991Y-11157222D01*
X7543991Y-11157222D02*
X7543991Y-11176270D01*
X7543991Y-11176270D02*
X7448753Y-11195317D01*
X7620182Y-11252460D02*
X7639230Y-11261984D01*
X7639230Y-11261984D02*
X7677325Y-11261984D01*
X7677325Y-11261984D02*
X7696372Y-11252460D01*
X7696372Y-11252460D02*
X7705896Y-11233412D01*
X7705896Y-11233412D02*
X7705896Y-11223888D01*
X7705896Y-11223888D02*
X7696372Y-11204841D01*
X7696372Y-11204841D02*
X7677325Y-11195317D01*
X7677325Y-11195317D02*
X7648753Y-11195317D01*
X7648753Y-11195317D02*
X7629706Y-11185793D01*
X7629706Y-11185793D02*
X7620182Y-11166746D01*
X7620182Y-11166746D02*
X7620182Y-11157222D01*
X7620182Y-11157222D02*
X7629706Y-11138174D01*
X7629706Y-11138174D02*
X7648753Y-11128650D01*
X7648753Y-11128650D02*
X7677325Y-11128650D01*
X7677325Y-11128650D02*
X7696372Y-11138174D01*
X7943992Y-11185793D02*
X8096373Y-11185793D01*
X8020182Y-11261984D02*
X8020182Y-11109603D01*
X8429706Y-11128650D02*
X8429706Y-11261984D01*
X8382087Y-11052460D02*
X8334468Y-11195317D01*
X8334468Y-11195317D02*
X8458277Y-11195317D01*
X8677325Y-11252460D02*
X8696373Y-11261984D01*
X8696373Y-11261984D02*
X8734468Y-11261984D01*
X8734468Y-11261984D02*
X8753516Y-11252460D01*
X8753516Y-11252460D02*
X8763039Y-11233412D01*
X8763039Y-11233412D02*
X8763039Y-11223888D01*
X8763039Y-11223888D02*
X8753516Y-11204841D01*
X8753516Y-11204841D02*
X8734468Y-11195317D01*
X8734468Y-11195317D02*
X8705896Y-11195317D01*
X8705896Y-11195317D02*
X8686849Y-11185793D01*
X8686849Y-11185793D02*
X8677325Y-11166746D01*
X8677325Y-11166746D02*
X8677325Y-11157222D01*
X8677325Y-11157222D02*
X8686849Y-11138174D01*
X8686849Y-11138174D02*
X8705896Y-11128650D01*
X8705896Y-11128650D02*
X8734468Y-11128650D01*
X8734468Y-11128650D02*
X8753516Y-11138174D01*
X8877325Y-11261984D02*
X8858277Y-11252460D01*
X8858277Y-11252460D02*
X8848754Y-11233412D01*
X8848754Y-11233412D02*
X8848754Y-11061984D01*
X8982087Y-11261984D02*
X8963039Y-11252460D01*
X8963039Y-11252460D02*
X8953516Y-11242936D01*
X8953516Y-11242936D02*
X8943992Y-11223888D01*
X8943992Y-11223888D02*
X8943992Y-11166746D01*
X8943992Y-11166746D02*
X8953516Y-11147698D01*
X8953516Y-11147698D02*
X8963039Y-11138174D01*
X8963039Y-11138174D02*
X8982087Y-11128650D01*
X8982087Y-11128650D02*
X9010658Y-11128650D01*
X9010658Y-11128650D02*
X9029706Y-11138174D01*
X9029706Y-11138174D02*
X9039230Y-11147698D01*
X9039230Y-11147698D02*
X9048754Y-11166746D01*
X9048754Y-11166746D02*
X9048754Y-11223888D01*
X9048754Y-11223888D02*
X9039230Y-11242936D01*
X9039230Y-11242936D02*
X9029706Y-11252460D01*
X9029706Y-11252460D02*
X9010658Y-11261984D01*
X9010658Y-11261984D02*
X8982087Y-11261984D01*
X9105897Y-11128650D02*
X9182087Y-11128650D01*
X9134468Y-11061984D02*
X9134468Y-11233412D01*
X9134468Y-11233412D02*
X9143992Y-11252460D01*
X9143992Y-11252460D02*
X9163039Y-11261984D01*
X9163039Y-11261984D02*
X9182087Y-11261984D01*
X9239230Y-11252460D02*
X9258277Y-11261984D01*
X9258277Y-11261984D02*
X9296373Y-11261984D01*
X9296373Y-11261984D02*
X9315420Y-11252460D01*
X9315420Y-11252460D02*
X9324944Y-11233412D01*
X9324944Y-11233412D02*
X9324944Y-11223888D01*
X9324944Y-11223888D02*
X9315420Y-11204841D01*
X9315420Y-11204841D02*
X9296373Y-11195317D01*
X9296373Y-11195317D02*
X9267801Y-11195317D01*
X9267801Y-11195317D02*
X9248754Y-11185793D01*
X9248754Y-11185793D02*
X9239230Y-11166746D01*
X9239230Y-11166746D02*
X9239230Y-11157222D01*
X9239230Y-11157222D02*
X9248754Y-11138174D01*
X9248754Y-11138174D02*
X9267801Y-11128650D01*
X9267801Y-11128650D02*
X9296373Y-11128650D01*
X9296373Y-11128650D02*
X9315420Y-11138174D01*
X9391611Y-11338174D02*
X9401135Y-11328650D01*
X9401135Y-11328650D02*
X9420182Y-11300079D01*
X9420182Y-11300079D02*
X9429706Y-11281031D01*
X9429706Y-11281031D02*
X9439230Y-11252460D01*
X9439230Y-11252460D02*
X9448754Y-11204841D01*
X9448754Y-11204841D02*
X9448754Y-11166746D01*
X9448754Y-11166746D02*
X9439230Y-11119127D01*
X9439230Y-11119127D02*
X9429706Y-11090555D01*
X9429706Y-11090555D02*
X9420182Y-11071508D01*
X9420182Y-11071508D02*
X9401135Y-11042936D01*
X9401135Y-11042936D02*
X9391611Y-11033412D01*
D12*
X2985199Y-11464199D02*
X2985199Y-11404801D01*
X2925801Y-11404801D01*
X2925801Y-11464199D01*
X2985199Y-11464199D01*
D11*
X3296372Y-11325984D02*
X3315420Y-11325984D01*
X3315420Y-11325984D02*
X3334467Y-11335508D01*
X3334467Y-11335508D02*
X3343991Y-11345031D01*
X3343991Y-11345031D02*
X3353515Y-11364079D01*
X3353515Y-11364079D02*
X3363039Y-11402174D01*
X3363039Y-11402174D02*
X3363039Y-11449793D01*
X3363039Y-11449793D02*
X3353515Y-11487888D01*
X3353515Y-11487888D02*
X3343991Y-11506936D01*
X3343991Y-11506936D02*
X3334467Y-11516460D01*
X3334467Y-11516460D02*
X3315420Y-11525984D01*
X3315420Y-11525984D02*
X3296372Y-11525984D01*
X3296372Y-11525984D02*
X3277324Y-11516460D01*
X3277324Y-11516460D02*
X3267801Y-11506936D01*
X3267801Y-11506936D02*
X3258277Y-11487888D01*
X3258277Y-11487888D02*
X3248753Y-11449793D01*
X3248753Y-11449793D02*
X3248753Y-11402174D01*
X3248753Y-11402174D02*
X3258277Y-11364079D01*
X3258277Y-11364079D02*
X3267801Y-11345031D01*
X3267801Y-11345031D02*
X3277324Y-11335508D01*
X3277324Y-11335508D02*
X3296372Y-11325984D01*
X3448753Y-11506936D02*
X3458277Y-11516460D01*
X3458277Y-11516460D02*
X3448753Y-11525984D01*
X3448753Y-11525984D02*
X3439229Y-11516460D01*
X3439229Y-11516460D02*
X3448753Y-11506936D01*
X3448753Y-11506936D02*
X3448753Y-11525984D01*
X3572562Y-11411698D02*
X3553515Y-11402174D01*
X3553515Y-11402174D02*
X3543991Y-11392650D01*
X3543991Y-11392650D02*
X3534467Y-11373603D01*
X3534467Y-11373603D02*
X3534467Y-11364079D01*
X3534467Y-11364079D02*
X3543991Y-11345031D01*
X3543991Y-11345031D02*
X3553515Y-11335508D01*
X3553515Y-11335508D02*
X3572562Y-11325984D01*
X3572562Y-11325984D02*
X3610658Y-11325984D01*
X3610658Y-11325984D02*
X3629705Y-11335508D01*
X3629705Y-11335508D02*
X3639229Y-11345031D01*
X3639229Y-11345031D02*
X3648753Y-11364079D01*
X3648753Y-11364079D02*
X3648753Y-11373603D01*
X3648753Y-11373603D02*
X3639229Y-11392650D01*
X3639229Y-11392650D02*
X3629705Y-11402174D01*
X3629705Y-11402174D02*
X3610658Y-11411698D01*
X3610658Y-11411698D02*
X3572562Y-11411698D01*
X3572562Y-11411698D02*
X3553515Y-11421222D01*
X3553515Y-11421222D02*
X3543991Y-11430746D01*
X3543991Y-11430746D02*
X3534467Y-11449793D01*
X3534467Y-11449793D02*
X3534467Y-11487888D01*
X3534467Y-11487888D02*
X3543991Y-11506936D01*
X3543991Y-11506936D02*
X3553515Y-11516460D01*
X3553515Y-11516460D02*
X3572562Y-11525984D01*
X3572562Y-11525984D02*
X3610658Y-11525984D01*
X3610658Y-11525984D02*
X3629705Y-11516460D01*
X3629705Y-11516460D02*
X3639229Y-11506936D01*
X3639229Y-11506936D02*
X3648753Y-11487888D01*
X3648753Y-11487888D02*
X3648753Y-11449793D01*
X3648753Y-11449793D02*
X3639229Y-11430746D01*
X3639229Y-11430746D02*
X3629705Y-11421222D01*
X3629705Y-11421222D02*
X3610658Y-11411698D01*
X3820182Y-11392650D02*
X3820182Y-11525984D01*
X3772562Y-11316460D02*
X3724943Y-11459317D01*
X3724943Y-11459317D02*
X3848753Y-11459317D01*
X3963039Y-11325984D02*
X3982086Y-11325984D01*
X3982086Y-11325984D02*
X4001134Y-11335508D01*
X4001134Y-11335508D02*
X4010658Y-11345031D01*
X4010658Y-11345031D02*
X4020182Y-11364079D01*
X4020182Y-11364079D02*
X4029705Y-11402174D01*
X4029705Y-11402174D02*
X4029705Y-11449793D01*
X4029705Y-11449793D02*
X4020182Y-11487888D01*
X4020182Y-11487888D02*
X4010658Y-11506936D01*
X4010658Y-11506936D02*
X4001134Y-11516460D01*
X4001134Y-11516460D02*
X3982086Y-11525984D01*
X3982086Y-11525984D02*
X3963039Y-11525984D01*
X3963039Y-11525984D02*
X3943991Y-11516460D01*
X3943991Y-11516460D02*
X3934467Y-11506936D01*
X3934467Y-11506936D02*
X3924943Y-11487888D01*
X3924943Y-11487888D02*
X3915420Y-11449793D01*
X3915420Y-11449793D02*
X3915420Y-11402174D01*
X3915420Y-11402174D02*
X3924943Y-11364079D01*
X3924943Y-11364079D02*
X3934467Y-11345031D01*
X3934467Y-11345031D02*
X3943991Y-11335508D01*
X3943991Y-11335508D02*
X3963039Y-11325984D01*
X4115420Y-11525984D02*
X4115420Y-11392650D01*
X4115420Y-11411698D02*
X4124943Y-11402174D01*
X4124943Y-11402174D02*
X4143991Y-11392650D01*
X4143991Y-11392650D02*
X4172563Y-11392650D01*
X4172563Y-11392650D02*
X4191610Y-11402174D01*
X4191610Y-11402174D02*
X4201134Y-11421222D01*
X4201134Y-11421222D02*
X4201134Y-11525984D01*
X4201134Y-11421222D02*
X4210658Y-11402174D01*
X4210658Y-11402174D02*
X4229705Y-11392650D01*
X4229705Y-11392650D02*
X4258277Y-11392650D01*
X4258277Y-11392650D02*
X4277325Y-11402174D01*
X4277325Y-11402174D02*
X4286848Y-11421222D01*
X4286848Y-11421222D02*
X4286848Y-11525984D01*
X4382086Y-11525984D02*
X4382086Y-11392650D01*
X4382086Y-11411698D02*
X4391610Y-11402174D01*
X4391610Y-11402174D02*
X4410658Y-11392650D01*
X4410658Y-11392650D02*
X4439229Y-11392650D01*
X4439229Y-11392650D02*
X4458277Y-11402174D01*
X4458277Y-11402174D02*
X4467801Y-11421222D01*
X4467801Y-11421222D02*
X4467801Y-11525984D01*
X4467801Y-11421222D02*
X4477325Y-11402174D01*
X4477325Y-11402174D02*
X4496372Y-11392650D01*
X4496372Y-11392650D02*
X4524944Y-11392650D01*
X4524944Y-11392650D02*
X4543991Y-11402174D01*
X4543991Y-11402174D02*
X4553515Y-11421222D01*
X4553515Y-11421222D02*
X4553515Y-11525984D01*
X4943991Y-11316460D02*
X4772563Y-11573603D01*
X5201134Y-11325984D02*
X5220182Y-11325984D01*
X5220182Y-11325984D02*
X5239229Y-11335508D01*
X5239229Y-11335508D02*
X5248753Y-11345031D01*
X5248753Y-11345031D02*
X5258277Y-11364079D01*
X5258277Y-11364079D02*
X5267801Y-11402174D01*
X5267801Y-11402174D02*
X5267801Y-11449793D01*
X5267801Y-11449793D02*
X5258277Y-11487888D01*
X5258277Y-11487888D02*
X5248753Y-11506936D01*
X5248753Y-11506936D02*
X5239229Y-11516460D01*
X5239229Y-11516460D02*
X5220182Y-11525984D01*
X5220182Y-11525984D02*
X5201134Y-11525984D01*
X5201134Y-11525984D02*
X5182087Y-11516460D01*
X5182087Y-11516460D02*
X5172563Y-11506936D01*
X5172563Y-11506936D02*
X5163039Y-11487888D01*
X5163039Y-11487888D02*
X5153515Y-11449793D01*
X5153515Y-11449793D02*
X5153515Y-11402174D01*
X5153515Y-11402174D02*
X5163039Y-11364079D01*
X5163039Y-11364079D02*
X5172563Y-11345031D01*
X5172563Y-11345031D02*
X5182087Y-11335508D01*
X5182087Y-11335508D02*
X5201134Y-11325984D01*
X5353515Y-11506936D02*
X5363039Y-11516460D01*
X5363039Y-11516460D02*
X5353515Y-11525984D01*
X5353515Y-11525984D02*
X5343991Y-11516460D01*
X5343991Y-11516460D02*
X5353515Y-11506936D01*
X5353515Y-11506936D02*
X5353515Y-11525984D01*
X5486848Y-11325984D02*
X5505896Y-11325984D01*
X5505896Y-11325984D02*
X5524944Y-11335508D01*
X5524944Y-11335508D02*
X5534468Y-11345031D01*
X5534468Y-11345031D02*
X5543991Y-11364079D01*
X5543991Y-11364079D02*
X5553515Y-11402174D01*
X5553515Y-11402174D02*
X5553515Y-11449793D01*
X5553515Y-11449793D02*
X5543991Y-11487888D01*
X5543991Y-11487888D02*
X5534468Y-11506936D01*
X5534468Y-11506936D02*
X5524944Y-11516460D01*
X5524944Y-11516460D02*
X5505896Y-11525984D01*
X5505896Y-11525984D02*
X5486848Y-11525984D01*
X5486848Y-11525984D02*
X5467801Y-11516460D01*
X5467801Y-11516460D02*
X5458277Y-11506936D01*
X5458277Y-11506936D02*
X5448753Y-11487888D01*
X5448753Y-11487888D02*
X5439229Y-11449793D01*
X5439229Y-11449793D02*
X5439229Y-11402174D01*
X5439229Y-11402174D02*
X5448753Y-11364079D01*
X5448753Y-11364079D02*
X5458277Y-11345031D01*
X5458277Y-11345031D02*
X5467801Y-11335508D01*
X5467801Y-11335508D02*
X5486848Y-11325984D01*
X5620182Y-11325984D02*
X5743991Y-11325984D01*
X5743991Y-11325984D02*
X5677325Y-11402174D01*
X5677325Y-11402174D02*
X5705896Y-11402174D01*
X5705896Y-11402174D02*
X5724944Y-11411698D01*
X5724944Y-11411698D02*
X5734467Y-11421222D01*
X5734467Y-11421222D02*
X5743991Y-11440269D01*
X5743991Y-11440269D02*
X5743991Y-11487888D01*
X5743991Y-11487888D02*
X5734467Y-11506936D01*
X5734467Y-11506936D02*
X5724944Y-11516460D01*
X5724944Y-11516460D02*
X5705896Y-11525984D01*
X5705896Y-11525984D02*
X5648753Y-11525984D01*
X5648753Y-11525984D02*
X5629706Y-11516460D01*
X5629706Y-11516460D02*
X5620182Y-11506936D01*
X5810658Y-11325984D02*
X5934467Y-11325984D01*
X5934467Y-11325984D02*
X5867801Y-11402174D01*
X5867801Y-11402174D02*
X5896372Y-11402174D01*
X5896372Y-11402174D02*
X5915420Y-11411698D01*
X5915420Y-11411698D02*
X5924944Y-11421222D01*
X5924944Y-11421222D02*
X5934467Y-11440269D01*
X5934467Y-11440269D02*
X5934467Y-11487888D01*
X5934467Y-11487888D02*
X5924944Y-11506936D01*
X5924944Y-11506936D02*
X5915420Y-11516460D01*
X5915420Y-11516460D02*
X5896372Y-11525984D01*
X5896372Y-11525984D02*
X5839229Y-11525984D01*
X5839229Y-11525984D02*
X5820182Y-11516460D01*
X5820182Y-11516460D02*
X5810658Y-11506936D01*
X6124944Y-11525984D02*
X6010658Y-11525984D01*
X6067801Y-11525984D02*
X6067801Y-11325984D01*
X6067801Y-11325984D02*
X6048753Y-11354555D01*
X6048753Y-11354555D02*
X6029706Y-11373603D01*
X6029706Y-11373603D02*
X6010658Y-11383127D01*
X6201134Y-11325984D02*
X6201134Y-11364079D01*
X6277325Y-11325984D02*
X6277325Y-11364079D01*
X6572563Y-11602174D02*
X6563039Y-11592650D01*
X6563039Y-11592650D02*
X6543991Y-11564079D01*
X6543991Y-11564079D02*
X6534468Y-11545031D01*
X6534468Y-11545031D02*
X6524944Y-11516460D01*
X6524944Y-11516460D02*
X6515420Y-11468841D01*
X6515420Y-11468841D02*
X6515420Y-11430746D01*
X6515420Y-11430746D02*
X6524944Y-11383127D01*
X6524944Y-11383127D02*
X6534468Y-11354555D01*
X6534468Y-11354555D02*
X6543991Y-11335508D01*
X6543991Y-11335508D02*
X6563039Y-11306936D01*
X6563039Y-11306936D02*
X6572563Y-11297412D01*
X6734468Y-11325984D02*
X6696372Y-11325984D01*
X6696372Y-11325984D02*
X6677325Y-11335508D01*
X6677325Y-11335508D02*
X6667801Y-11345031D01*
X6667801Y-11345031D02*
X6648753Y-11373603D01*
X6648753Y-11373603D02*
X6639229Y-11411698D01*
X6639229Y-11411698D02*
X6639229Y-11487888D01*
X6639229Y-11487888D02*
X6648753Y-11506936D01*
X6648753Y-11506936D02*
X6658277Y-11516460D01*
X6658277Y-11516460D02*
X6677325Y-11525984D01*
X6677325Y-11525984D02*
X6715420Y-11525984D01*
X6715420Y-11525984D02*
X6734468Y-11516460D01*
X6734468Y-11516460D02*
X6743991Y-11506936D01*
X6743991Y-11506936D02*
X6753515Y-11487888D01*
X6753515Y-11487888D02*
X6753515Y-11440269D01*
X6753515Y-11440269D02*
X6743991Y-11421222D01*
X6743991Y-11421222D02*
X6734468Y-11411698D01*
X6734468Y-11411698D02*
X6715420Y-11402174D01*
X6715420Y-11402174D02*
X6677325Y-11402174D01*
X6677325Y-11402174D02*
X6658277Y-11411698D01*
X6658277Y-11411698D02*
X6648753Y-11421222D01*
X6648753Y-11421222D02*
X6639229Y-11440269D01*
X6991610Y-11525984D02*
X6991610Y-11325984D01*
X7077325Y-11525984D02*
X7077325Y-11421222D01*
X7077325Y-11421222D02*
X7067801Y-11402174D01*
X7067801Y-11402174D02*
X7048753Y-11392650D01*
X7048753Y-11392650D02*
X7020182Y-11392650D01*
X7020182Y-11392650D02*
X7001134Y-11402174D01*
X7001134Y-11402174D02*
X6991610Y-11411698D01*
X7201134Y-11525984D02*
X7182087Y-11516460D01*
X7182087Y-11516460D02*
X7172563Y-11506936D01*
X7172563Y-11506936D02*
X7163039Y-11487888D01*
X7163039Y-11487888D02*
X7163039Y-11430746D01*
X7163039Y-11430746D02*
X7172563Y-11411698D01*
X7172563Y-11411698D02*
X7182087Y-11402174D01*
X7182087Y-11402174D02*
X7201134Y-11392650D01*
X7201134Y-11392650D02*
X7229706Y-11392650D01*
X7229706Y-11392650D02*
X7248753Y-11402174D01*
X7248753Y-11402174D02*
X7258277Y-11411698D01*
X7258277Y-11411698D02*
X7267801Y-11430746D01*
X7267801Y-11430746D02*
X7267801Y-11487888D01*
X7267801Y-11487888D02*
X7258277Y-11506936D01*
X7258277Y-11506936D02*
X7248753Y-11516460D01*
X7248753Y-11516460D02*
X7229706Y-11525984D01*
X7229706Y-11525984D02*
X7201134Y-11525984D01*
X7382087Y-11525984D02*
X7363039Y-11516460D01*
X7363039Y-11516460D02*
X7353515Y-11497412D01*
X7353515Y-11497412D02*
X7353515Y-11325984D01*
X7534468Y-11516460D02*
X7515420Y-11525984D01*
X7515420Y-11525984D02*
X7477325Y-11525984D01*
X7477325Y-11525984D02*
X7458277Y-11516460D01*
X7458277Y-11516460D02*
X7448753Y-11497412D01*
X7448753Y-11497412D02*
X7448753Y-11421222D01*
X7448753Y-11421222D02*
X7458277Y-11402174D01*
X7458277Y-11402174D02*
X7477325Y-11392650D01*
X7477325Y-11392650D02*
X7515420Y-11392650D01*
X7515420Y-11392650D02*
X7534468Y-11402174D01*
X7534468Y-11402174D02*
X7543991Y-11421222D01*
X7543991Y-11421222D02*
X7543991Y-11440269D01*
X7543991Y-11440269D02*
X7448753Y-11459317D01*
X7620182Y-11516460D02*
X7639230Y-11525984D01*
X7639230Y-11525984D02*
X7677325Y-11525984D01*
X7677325Y-11525984D02*
X7696372Y-11516460D01*
X7696372Y-11516460D02*
X7705896Y-11497412D01*
X7705896Y-11497412D02*
X7705896Y-11487888D01*
X7705896Y-11487888D02*
X7696372Y-11468841D01*
X7696372Y-11468841D02*
X7677325Y-11459317D01*
X7677325Y-11459317D02*
X7648753Y-11459317D01*
X7648753Y-11459317D02*
X7629706Y-11449793D01*
X7629706Y-11449793D02*
X7620182Y-11430746D01*
X7620182Y-11430746D02*
X7620182Y-11421222D01*
X7620182Y-11421222D02*
X7629706Y-11402174D01*
X7629706Y-11402174D02*
X7648753Y-11392650D01*
X7648753Y-11392650D02*
X7677325Y-11392650D01*
X7677325Y-11392650D02*
X7696372Y-11402174D01*
X7772563Y-11602174D02*
X7782087Y-11592650D01*
X7782087Y-11592650D02*
X7801134Y-11564079D01*
X7801134Y-11564079D02*
X7810658Y-11545031D01*
X7810658Y-11545031D02*
X7820182Y-11516460D01*
X7820182Y-11516460D02*
X7829706Y-11468841D01*
X7829706Y-11468841D02*
X7829706Y-11430746D01*
X7829706Y-11430746D02*
X7820182Y-11383127D01*
X7820182Y-11383127D02*
X7810658Y-11354555D01*
X7810658Y-11354555D02*
X7801134Y-11335508D01*
X7801134Y-11335508D02*
X7782087Y-11306936D01*
X7782087Y-11306936D02*
X7772563Y-11297412D01*
D12*
X2947500Y-11748500D02*
X2997500Y-11698500D01*
X2947500Y-11648500D01*
X2897500Y-11698500D01*
X2947500Y-11748500D01*
D11*
X3363039Y-11789984D02*
X3248753Y-11789984D01*
X3305896Y-11789984D02*
X3305896Y-11589984D01*
X3305896Y-11589984D02*
X3286848Y-11618555D01*
X3286848Y-11618555D02*
X3267801Y-11637603D01*
X3267801Y-11637603D02*
X3248753Y-11647127D01*
X3448753Y-11770936D02*
X3458277Y-11780460D01*
X3458277Y-11780460D02*
X3448753Y-11789984D01*
X3448753Y-11789984D02*
X3439229Y-11780460D01*
X3439229Y-11780460D02*
X3448753Y-11770936D01*
X3448753Y-11770936D02*
X3448753Y-11789984D01*
X3582086Y-11589984D02*
X3601134Y-11589984D01*
X3601134Y-11589984D02*
X3620182Y-11599508D01*
X3620182Y-11599508D02*
X3629705Y-11609031D01*
X3629705Y-11609031D02*
X3639229Y-11628079D01*
X3639229Y-11628079D02*
X3648753Y-11666174D01*
X3648753Y-11666174D02*
X3648753Y-11713793D01*
X3648753Y-11713793D02*
X3639229Y-11751888D01*
X3639229Y-11751888D02*
X3629705Y-11770936D01*
X3629705Y-11770936D02*
X3620182Y-11780460D01*
X3620182Y-11780460D02*
X3601134Y-11789984D01*
X3601134Y-11789984D02*
X3582086Y-11789984D01*
X3582086Y-11789984D02*
X3563039Y-11780460D01*
X3563039Y-11780460D02*
X3553515Y-11770936D01*
X3553515Y-11770936D02*
X3543991Y-11751888D01*
X3543991Y-11751888D02*
X3534467Y-11713793D01*
X3534467Y-11713793D02*
X3534467Y-11666174D01*
X3534467Y-11666174D02*
X3543991Y-11628079D01*
X3543991Y-11628079D02*
X3553515Y-11609031D01*
X3553515Y-11609031D02*
X3563039Y-11599508D01*
X3563039Y-11599508D02*
X3582086Y-11589984D01*
X3772562Y-11589984D02*
X3791610Y-11589984D01*
X3791610Y-11589984D02*
X3810658Y-11599508D01*
X3810658Y-11599508D02*
X3820182Y-11609031D01*
X3820182Y-11609031D02*
X3829705Y-11628079D01*
X3829705Y-11628079D02*
X3839229Y-11666174D01*
X3839229Y-11666174D02*
X3839229Y-11713793D01*
X3839229Y-11713793D02*
X3829705Y-11751888D01*
X3829705Y-11751888D02*
X3820182Y-11770936D01*
X3820182Y-11770936D02*
X3810658Y-11780460D01*
X3810658Y-11780460D02*
X3791610Y-11789984D01*
X3791610Y-11789984D02*
X3772562Y-11789984D01*
X3772562Y-11789984D02*
X3753515Y-11780460D01*
X3753515Y-11780460D02*
X3743991Y-11770936D01*
X3743991Y-11770936D02*
X3734467Y-11751888D01*
X3734467Y-11751888D02*
X3724943Y-11713793D01*
X3724943Y-11713793D02*
X3724943Y-11666174D01*
X3724943Y-11666174D02*
X3734467Y-11628079D01*
X3734467Y-11628079D02*
X3743991Y-11609031D01*
X3743991Y-11609031D02*
X3753515Y-11599508D01*
X3753515Y-11599508D02*
X3772562Y-11589984D01*
X3963039Y-11589984D02*
X3982086Y-11589984D01*
X3982086Y-11589984D02*
X4001134Y-11599508D01*
X4001134Y-11599508D02*
X4010658Y-11609031D01*
X4010658Y-11609031D02*
X4020182Y-11628079D01*
X4020182Y-11628079D02*
X4029705Y-11666174D01*
X4029705Y-11666174D02*
X4029705Y-11713793D01*
X4029705Y-11713793D02*
X4020182Y-11751888D01*
X4020182Y-11751888D02*
X4010658Y-11770936D01*
X4010658Y-11770936D02*
X4001134Y-11780460D01*
X4001134Y-11780460D02*
X3982086Y-11789984D01*
X3982086Y-11789984D02*
X3963039Y-11789984D01*
X3963039Y-11789984D02*
X3943991Y-11780460D01*
X3943991Y-11780460D02*
X3934467Y-11770936D01*
X3934467Y-11770936D02*
X3924943Y-11751888D01*
X3924943Y-11751888D02*
X3915420Y-11713793D01*
X3915420Y-11713793D02*
X3915420Y-11666174D01*
X3915420Y-11666174D02*
X3924943Y-11628079D01*
X3924943Y-11628079D02*
X3934467Y-11609031D01*
X3934467Y-11609031D02*
X3943991Y-11599508D01*
X3943991Y-11599508D02*
X3963039Y-11589984D01*
X4115420Y-11789984D02*
X4115420Y-11656650D01*
X4115420Y-11675698D02*
X4124943Y-11666174D01*
X4124943Y-11666174D02*
X4143991Y-11656650D01*
X4143991Y-11656650D02*
X4172563Y-11656650D01*
X4172563Y-11656650D02*
X4191610Y-11666174D01*
X4191610Y-11666174D02*
X4201134Y-11685222D01*
X4201134Y-11685222D02*
X4201134Y-11789984D01*
X4201134Y-11685222D02*
X4210658Y-11666174D01*
X4210658Y-11666174D02*
X4229705Y-11656650D01*
X4229705Y-11656650D02*
X4258277Y-11656650D01*
X4258277Y-11656650D02*
X4277325Y-11666174D01*
X4277325Y-11666174D02*
X4286848Y-11685222D01*
X4286848Y-11685222D02*
X4286848Y-11789984D01*
X4382086Y-11789984D02*
X4382086Y-11656650D01*
X4382086Y-11675698D02*
X4391610Y-11666174D01*
X4391610Y-11666174D02*
X4410658Y-11656650D01*
X4410658Y-11656650D02*
X4439229Y-11656650D01*
X4439229Y-11656650D02*
X4458277Y-11666174D01*
X4458277Y-11666174D02*
X4467801Y-11685222D01*
X4467801Y-11685222D02*
X4467801Y-11789984D01*
X4467801Y-11685222D02*
X4477325Y-11666174D01*
X4477325Y-11666174D02*
X4496372Y-11656650D01*
X4496372Y-11656650D02*
X4524944Y-11656650D01*
X4524944Y-11656650D02*
X4543991Y-11666174D01*
X4543991Y-11666174D02*
X4553515Y-11685222D01*
X4553515Y-11685222D02*
X4553515Y-11789984D01*
X4943991Y-11580460D02*
X4772563Y-11837603D01*
X5201134Y-11589984D02*
X5220182Y-11589984D01*
X5220182Y-11589984D02*
X5239229Y-11599508D01*
X5239229Y-11599508D02*
X5248753Y-11609031D01*
X5248753Y-11609031D02*
X5258277Y-11628079D01*
X5258277Y-11628079D02*
X5267801Y-11666174D01*
X5267801Y-11666174D02*
X5267801Y-11713793D01*
X5267801Y-11713793D02*
X5258277Y-11751888D01*
X5258277Y-11751888D02*
X5248753Y-11770936D01*
X5248753Y-11770936D02*
X5239229Y-11780460D01*
X5239229Y-11780460D02*
X5220182Y-11789984D01*
X5220182Y-11789984D02*
X5201134Y-11789984D01*
X5201134Y-11789984D02*
X5182087Y-11780460D01*
X5182087Y-11780460D02*
X5172563Y-11770936D01*
X5172563Y-11770936D02*
X5163039Y-11751888D01*
X5163039Y-11751888D02*
X5153515Y-11713793D01*
X5153515Y-11713793D02*
X5153515Y-11666174D01*
X5153515Y-11666174D02*
X5163039Y-11628079D01*
X5163039Y-11628079D02*
X5172563Y-11609031D01*
X5172563Y-11609031D02*
X5182087Y-11599508D01*
X5182087Y-11599508D02*
X5201134Y-11589984D01*
X5353515Y-11770936D02*
X5363039Y-11780460D01*
X5363039Y-11780460D02*
X5353515Y-11789984D01*
X5353515Y-11789984D02*
X5343991Y-11780460D01*
X5343991Y-11780460D02*
X5353515Y-11770936D01*
X5353515Y-11770936D02*
X5353515Y-11789984D01*
X5486848Y-11589984D02*
X5505896Y-11589984D01*
X5505896Y-11589984D02*
X5524944Y-11599508D01*
X5524944Y-11599508D02*
X5534468Y-11609031D01*
X5534468Y-11609031D02*
X5543991Y-11628079D01*
X5543991Y-11628079D02*
X5553515Y-11666174D01*
X5553515Y-11666174D02*
X5553515Y-11713793D01*
X5553515Y-11713793D02*
X5543991Y-11751888D01*
X5543991Y-11751888D02*
X5534468Y-11770936D01*
X5534468Y-11770936D02*
X5524944Y-11780460D01*
X5524944Y-11780460D02*
X5505896Y-11789984D01*
X5505896Y-11789984D02*
X5486848Y-11789984D01*
X5486848Y-11789984D02*
X5467801Y-11780460D01*
X5467801Y-11780460D02*
X5458277Y-11770936D01*
X5458277Y-11770936D02*
X5448753Y-11751888D01*
X5448753Y-11751888D02*
X5439229Y-11713793D01*
X5439229Y-11713793D02*
X5439229Y-11666174D01*
X5439229Y-11666174D02*
X5448753Y-11628079D01*
X5448753Y-11628079D02*
X5458277Y-11609031D01*
X5458277Y-11609031D02*
X5467801Y-11599508D01*
X5467801Y-11599508D02*
X5486848Y-11589984D01*
X5620182Y-11589984D02*
X5743991Y-11589984D01*
X5743991Y-11589984D02*
X5677325Y-11666174D01*
X5677325Y-11666174D02*
X5705896Y-11666174D01*
X5705896Y-11666174D02*
X5724944Y-11675698D01*
X5724944Y-11675698D02*
X5734467Y-11685222D01*
X5734467Y-11685222D02*
X5743991Y-11704269D01*
X5743991Y-11704269D02*
X5743991Y-11751888D01*
X5743991Y-11751888D02*
X5734467Y-11770936D01*
X5734467Y-11770936D02*
X5724944Y-11780460D01*
X5724944Y-11780460D02*
X5705896Y-11789984D01*
X5705896Y-11789984D02*
X5648753Y-11789984D01*
X5648753Y-11789984D02*
X5629706Y-11780460D01*
X5629706Y-11780460D02*
X5620182Y-11770936D01*
X5839229Y-11789984D02*
X5877325Y-11789984D01*
X5877325Y-11789984D02*
X5896372Y-11780460D01*
X5896372Y-11780460D02*
X5905896Y-11770936D01*
X5905896Y-11770936D02*
X5924944Y-11742365D01*
X5924944Y-11742365D02*
X5934467Y-11704269D01*
X5934467Y-11704269D02*
X5934467Y-11628079D01*
X5934467Y-11628079D02*
X5924944Y-11609031D01*
X5924944Y-11609031D02*
X5915420Y-11599508D01*
X5915420Y-11599508D02*
X5896372Y-11589984D01*
X5896372Y-11589984D02*
X5858277Y-11589984D01*
X5858277Y-11589984D02*
X5839229Y-11599508D01*
X5839229Y-11599508D02*
X5829706Y-11609031D01*
X5829706Y-11609031D02*
X5820182Y-11628079D01*
X5820182Y-11628079D02*
X5820182Y-11675698D01*
X5820182Y-11675698D02*
X5829706Y-11694746D01*
X5829706Y-11694746D02*
X5839229Y-11704269D01*
X5839229Y-11704269D02*
X5858277Y-11713793D01*
X5858277Y-11713793D02*
X5896372Y-11713793D01*
X5896372Y-11713793D02*
X5915420Y-11704269D01*
X5915420Y-11704269D02*
X5924944Y-11694746D01*
X5924944Y-11694746D02*
X5934467Y-11675698D01*
X6105896Y-11656650D02*
X6105896Y-11789984D01*
X6058277Y-11580460D02*
X6010658Y-11723317D01*
X6010658Y-11723317D02*
X6134467Y-11723317D01*
X6201134Y-11589984D02*
X6201134Y-11628079D01*
X6277325Y-11589984D02*
X6277325Y-11628079D01*
X6572563Y-11866174D02*
X6563039Y-11856650D01*
X6563039Y-11856650D02*
X6543991Y-11828079D01*
X6543991Y-11828079D02*
X6534468Y-11809031D01*
X6534468Y-11809031D02*
X6524944Y-11780460D01*
X6524944Y-11780460D02*
X6515420Y-11732841D01*
X6515420Y-11732841D02*
X6515420Y-11694746D01*
X6515420Y-11694746D02*
X6524944Y-11647127D01*
X6524944Y-11647127D02*
X6534468Y-11618555D01*
X6534468Y-11618555D02*
X6543991Y-11599508D01*
X6543991Y-11599508D02*
X6563039Y-11570936D01*
X6563039Y-11570936D02*
X6572563Y-11561412D01*
X6677325Y-11675698D02*
X6658277Y-11666174D01*
X6658277Y-11666174D02*
X6648753Y-11656650D01*
X6648753Y-11656650D02*
X6639229Y-11637603D01*
X6639229Y-11637603D02*
X6639229Y-11628079D01*
X6639229Y-11628079D02*
X6648753Y-11609031D01*
X6648753Y-11609031D02*
X6658277Y-11599508D01*
X6658277Y-11599508D02*
X6677325Y-11589984D01*
X6677325Y-11589984D02*
X6715420Y-11589984D01*
X6715420Y-11589984D02*
X6734468Y-11599508D01*
X6734468Y-11599508D02*
X6743991Y-11609031D01*
X6743991Y-11609031D02*
X6753515Y-11628079D01*
X6753515Y-11628079D02*
X6753515Y-11637603D01*
X6753515Y-11637603D02*
X6743991Y-11656650D01*
X6743991Y-11656650D02*
X6734468Y-11666174D01*
X6734468Y-11666174D02*
X6715420Y-11675698D01*
X6715420Y-11675698D02*
X6677325Y-11675698D01*
X6677325Y-11675698D02*
X6658277Y-11685222D01*
X6658277Y-11685222D02*
X6648753Y-11694746D01*
X6648753Y-11694746D02*
X6639229Y-11713793D01*
X6639229Y-11713793D02*
X6639229Y-11751888D01*
X6639229Y-11751888D02*
X6648753Y-11770936D01*
X6648753Y-11770936D02*
X6658277Y-11780460D01*
X6658277Y-11780460D02*
X6677325Y-11789984D01*
X6677325Y-11789984D02*
X6715420Y-11789984D01*
X6715420Y-11789984D02*
X6734468Y-11780460D01*
X6734468Y-11780460D02*
X6743991Y-11770936D01*
X6743991Y-11770936D02*
X6753515Y-11751888D01*
X6753515Y-11751888D02*
X6753515Y-11713793D01*
X6753515Y-11713793D02*
X6743991Y-11694746D01*
X6743991Y-11694746D02*
X6734468Y-11685222D01*
X6734468Y-11685222D02*
X6715420Y-11675698D01*
X6924944Y-11589984D02*
X6886848Y-11589984D01*
X6886848Y-11589984D02*
X6867801Y-11599508D01*
X6867801Y-11599508D02*
X6858277Y-11609031D01*
X6858277Y-11609031D02*
X6839229Y-11637603D01*
X6839229Y-11637603D02*
X6829706Y-11675698D01*
X6829706Y-11675698D02*
X6829706Y-11751888D01*
X6829706Y-11751888D02*
X6839229Y-11770936D01*
X6839229Y-11770936D02*
X6848753Y-11780460D01*
X6848753Y-11780460D02*
X6867801Y-11789984D01*
X6867801Y-11789984D02*
X6905896Y-11789984D01*
X6905896Y-11789984D02*
X6924944Y-11780460D01*
X6924944Y-11780460D02*
X6934468Y-11770936D01*
X6934468Y-11770936D02*
X6943991Y-11751888D01*
X6943991Y-11751888D02*
X6943991Y-11704269D01*
X6943991Y-11704269D02*
X6934468Y-11685222D01*
X6934468Y-11685222D02*
X6924944Y-11675698D01*
X6924944Y-11675698D02*
X6905896Y-11666174D01*
X6905896Y-11666174D02*
X6867801Y-11666174D01*
X6867801Y-11666174D02*
X6848753Y-11675698D01*
X6848753Y-11675698D02*
X6839229Y-11685222D01*
X6839229Y-11685222D02*
X6829706Y-11704269D01*
X7182087Y-11789984D02*
X7182087Y-11589984D01*
X7267801Y-11789984D02*
X7267801Y-11685222D01*
X7267801Y-11685222D02*
X7258277Y-11666174D01*
X7258277Y-11666174D02*
X7239230Y-11656650D01*
X7239230Y-11656650D02*
X7210658Y-11656650D01*
X7210658Y-11656650D02*
X7191610Y-11666174D01*
X7191610Y-11666174D02*
X7182087Y-11675698D01*
X7391610Y-11789984D02*
X7372563Y-11780460D01*
X7372563Y-11780460D02*
X7363039Y-11770936D01*
X7363039Y-11770936D02*
X7353515Y-11751888D01*
X7353515Y-11751888D02*
X7353515Y-11694746D01*
X7353515Y-11694746D02*
X7363039Y-11675698D01*
X7363039Y-11675698D02*
X7372563Y-11666174D01*
X7372563Y-11666174D02*
X7391610Y-11656650D01*
X7391610Y-11656650D02*
X7420182Y-11656650D01*
X7420182Y-11656650D02*
X7439230Y-11666174D01*
X7439230Y-11666174D02*
X7448753Y-11675698D01*
X7448753Y-11675698D02*
X7458277Y-11694746D01*
X7458277Y-11694746D02*
X7458277Y-11751888D01*
X7458277Y-11751888D02*
X7448753Y-11770936D01*
X7448753Y-11770936D02*
X7439230Y-11780460D01*
X7439230Y-11780460D02*
X7420182Y-11789984D01*
X7420182Y-11789984D02*
X7391610Y-11789984D01*
X7572563Y-11789984D02*
X7553515Y-11780460D01*
X7553515Y-11780460D02*
X7543991Y-11761412D01*
X7543991Y-11761412D02*
X7543991Y-11589984D01*
X7724944Y-11780460D02*
X7705896Y-11789984D01*
X7705896Y-11789984D02*
X7667801Y-11789984D01*
X7667801Y-11789984D02*
X7648753Y-11780460D01*
X7648753Y-11780460D02*
X7639230Y-11761412D01*
X7639230Y-11761412D02*
X7639230Y-11685222D01*
X7639230Y-11685222D02*
X7648753Y-11666174D01*
X7648753Y-11666174D02*
X7667801Y-11656650D01*
X7667801Y-11656650D02*
X7705896Y-11656650D01*
X7705896Y-11656650D02*
X7724944Y-11666174D01*
X7724944Y-11666174D02*
X7734468Y-11685222D01*
X7734468Y-11685222D02*
X7734468Y-11704269D01*
X7734468Y-11704269D02*
X7639230Y-11723317D01*
X7810658Y-11780460D02*
X7829706Y-11789984D01*
X7829706Y-11789984D02*
X7867801Y-11789984D01*
X7867801Y-11789984D02*
X7886849Y-11780460D01*
X7886849Y-11780460D02*
X7896372Y-11761412D01*
X7896372Y-11761412D02*
X7896372Y-11751888D01*
X7896372Y-11751888D02*
X7886849Y-11732841D01*
X7886849Y-11732841D02*
X7867801Y-11723317D01*
X7867801Y-11723317D02*
X7839230Y-11723317D01*
X7839230Y-11723317D02*
X7820182Y-11713793D01*
X7820182Y-11713793D02*
X7810658Y-11694746D01*
X7810658Y-11694746D02*
X7810658Y-11685222D01*
X7810658Y-11685222D02*
X7820182Y-11666174D01*
X7820182Y-11666174D02*
X7839230Y-11656650D01*
X7839230Y-11656650D02*
X7867801Y-11656650D01*
X7867801Y-11656650D02*
X7886849Y-11666174D01*
X7963039Y-11866174D02*
X7972563Y-11856650D01*
X7972563Y-11856650D02*
X7991611Y-11828079D01*
X7991611Y-11828079D02*
X8001134Y-11809031D01*
X8001134Y-11809031D02*
X8010658Y-11780460D01*
X8010658Y-11780460D02*
X8020182Y-11732841D01*
X8020182Y-11732841D02*
X8020182Y-11694746D01*
X8020182Y-11694746D02*
X8010658Y-11647127D01*
X8010658Y-11647127D02*
X8001134Y-11618555D01*
X8001134Y-11618555D02*
X7991611Y-11599508D01*
X7991611Y-11599508D02*
X7972563Y-11570936D01*
X7972563Y-11570936D02*
X7963039Y-11561412D01*
D13*
X2887500Y-11907500D02*
X2997500Y-12017500D01*
X2997500Y-11907500D02*
X2887500Y-12017500D01*
X2997500Y-11962500D02*
G75*
G02*
X2887500Y-11962500I-55000J0D01*
G01*
X2887500Y-11962500D02*
G75*
G02*
X2997500Y-11962500I55000J0D01*
G01*
D11*
X3363039Y-12053984D02*
X3248753Y-12053984D01*
X3305896Y-12053984D02*
X3305896Y-11853984D01*
X3305896Y-11853984D02*
X3286848Y-11882555D01*
X3286848Y-11882555D02*
X3267801Y-11901603D01*
X3267801Y-11901603D02*
X3248753Y-11911127D01*
X3448753Y-12034936D02*
X3458277Y-12044460D01*
X3458277Y-12044460D02*
X3448753Y-12053984D01*
X3448753Y-12053984D02*
X3439229Y-12044460D01*
X3439229Y-12044460D02*
X3448753Y-12034936D01*
X3448753Y-12034936D02*
X3448753Y-12053984D01*
X3648753Y-12053984D02*
X3534467Y-12053984D01*
X3591610Y-12053984D02*
X3591610Y-11853984D01*
X3591610Y-11853984D02*
X3572562Y-11882555D01*
X3572562Y-11882555D02*
X3553515Y-11901603D01*
X3553515Y-11901603D02*
X3534467Y-11911127D01*
X3772562Y-11853984D02*
X3791610Y-11853984D01*
X3791610Y-11853984D02*
X3810658Y-11863508D01*
X3810658Y-11863508D02*
X3820182Y-11873031D01*
X3820182Y-11873031D02*
X3829705Y-11892079D01*
X3829705Y-11892079D02*
X3839229Y-11930174D01*
X3839229Y-11930174D02*
X3839229Y-11977793D01*
X3839229Y-11977793D02*
X3829705Y-12015888D01*
X3829705Y-12015888D02*
X3820182Y-12034936D01*
X3820182Y-12034936D02*
X3810658Y-12044460D01*
X3810658Y-12044460D02*
X3791610Y-12053984D01*
X3791610Y-12053984D02*
X3772562Y-12053984D01*
X3772562Y-12053984D02*
X3753515Y-12044460D01*
X3753515Y-12044460D02*
X3743991Y-12034936D01*
X3743991Y-12034936D02*
X3734467Y-12015888D01*
X3734467Y-12015888D02*
X3724943Y-11977793D01*
X3724943Y-11977793D02*
X3724943Y-11930174D01*
X3724943Y-11930174D02*
X3734467Y-11892079D01*
X3734467Y-11892079D02*
X3743991Y-11873031D01*
X3743991Y-11873031D02*
X3753515Y-11863508D01*
X3753515Y-11863508D02*
X3772562Y-11853984D01*
X3963039Y-11853984D02*
X3982086Y-11853984D01*
X3982086Y-11853984D02*
X4001134Y-11863508D01*
X4001134Y-11863508D02*
X4010658Y-11873031D01*
X4010658Y-11873031D02*
X4020182Y-11892079D01*
X4020182Y-11892079D02*
X4029705Y-11930174D01*
X4029705Y-11930174D02*
X4029705Y-11977793D01*
X4029705Y-11977793D02*
X4020182Y-12015888D01*
X4020182Y-12015888D02*
X4010658Y-12034936D01*
X4010658Y-12034936D02*
X4001134Y-12044460D01*
X4001134Y-12044460D02*
X3982086Y-12053984D01*
X3982086Y-12053984D02*
X3963039Y-12053984D01*
X3963039Y-12053984D02*
X3943991Y-12044460D01*
X3943991Y-12044460D02*
X3934467Y-12034936D01*
X3934467Y-12034936D02*
X3924943Y-12015888D01*
X3924943Y-12015888D02*
X3915420Y-11977793D01*
X3915420Y-11977793D02*
X3915420Y-11930174D01*
X3915420Y-11930174D02*
X3924943Y-11892079D01*
X3924943Y-11892079D02*
X3934467Y-11873031D01*
X3934467Y-11873031D02*
X3943991Y-11863508D01*
X3943991Y-11863508D02*
X3963039Y-11853984D01*
X4115420Y-12053984D02*
X4115420Y-11920650D01*
X4115420Y-11939698D02*
X4124943Y-11930174D01*
X4124943Y-11930174D02*
X4143991Y-11920650D01*
X4143991Y-11920650D02*
X4172563Y-11920650D01*
X4172563Y-11920650D02*
X4191610Y-11930174D01*
X4191610Y-11930174D02*
X4201134Y-11949222D01*
X4201134Y-11949222D02*
X4201134Y-12053984D01*
X4201134Y-11949222D02*
X4210658Y-11930174D01*
X4210658Y-11930174D02*
X4229705Y-11920650D01*
X4229705Y-11920650D02*
X4258277Y-11920650D01*
X4258277Y-11920650D02*
X4277325Y-11930174D01*
X4277325Y-11930174D02*
X4286848Y-11949222D01*
X4286848Y-11949222D02*
X4286848Y-12053984D01*
X4382086Y-12053984D02*
X4382086Y-11920650D01*
X4382086Y-11939698D02*
X4391610Y-11930174D01*
X4391610Y-11930174D02*
X4410658Y-11920650D01*
X4410658Y-11920650D02*
X4439229Y-11920650D01*
X4439229Y-11920650D02*
X4458277Y-11930174D01*
X4458277Y-11930174D02*
X4467801Y-11949222D01*
X4467801Y-11949222D02*
X4467801Y-12053984D01*
X4467801Y-11949222D02*
X4477325Y-11930174D01*
X4477325Y-11930174D02*
X4496372Y-11920650D01*
X4496372Y-11920650D02*
X4524944Y-11920650D01*
X4524944Y-11920650D02*
X4543991Y-11930174D01*
X4543991Y-11930174D02*
X4553515Y-11949222D01*
X4553515Y-11949222D02*
X4553515Y-12053984D01*
X4943991Y-11844460D02*
X4772563Y-12101603D01*
X5201134Y-11853984D02*
X5220182Y-11853984D01*
X5220182Y-11853984D02*
X5239229Y-11863508D01*
X5239229Y-11863508D02*
X5248753Y-11873031D01*
X5248753Y-11873031D02*
X5258277Y-11892079D01*
X5258277Y-11892079D02*
X5267801Y-11930174D01*
X5267801Y-11930174D02*
X5267801Y-11977793D01*
X5267801Y-11977793D02*
X5258277Y-12015888D01*
X5258277Y-12015888D02*
X5248753Y-12034936D01*
X5248753Y-12034936D02*
X5239229Y-12044460D01*
X5239229Y-12044460D02*
X5220182Y-12053984D01*
X5220182Y-12053984D02*
X5201134Y-12053984D01*
X5201134Y-12053984D02*
X5182087Y-12044460D01*
X5182087Y-12044460D02*
X5172563Y-12034936D01*
X5172563Y-12034936D02*
X5163039Y-12015888D01*
X5163039Y-12015888D02*
X5153515Y-11977793D01*
X5153515Y-11977793D02*
X5153515Y-11930174D01*
X5153515Y-11930174D02*
X5163039Y-11892079D01*
X5163039Y-11892079D02*
X5172563Y-11873031D01*
X5172563Y-11873031D02*
X5182087Y-11863508D01*
X5182087Y-11863508D02*
X5201134Y-11853984D01*
X5353515Y-12034936D02*
X5363039Y-12044460D01*
X5363039Y-12044460D02*
X5353515Y-12053984D01*
X5353515Y-12053984D02*
X5343991Y-12044460D01*
X5343991Y-12044460D02*
X5353515Y-12034936D01*
X5353515Y-12034936D02*
X5353515Y-12053984D01*
X5486848Y-11853984D02*
X5505896Y-11853984D01*
X5505896Y-11853984D02*
X5524944Y-11863508D01*
X5524944Y-11863508D02*
X5534468Y-11873031D01*
X5534468Y-11873031D02*
X5543991Y-11892079D01*
X5543991Y-11892079D02*
X5553515Y-11930174D01*
X5553515Y-11930174D02*
X5553515Y-11977793D01*
X5553515Y-11977793D02*
X5543991Y-12015888D01*
X5543991Y-12015888D02*
X5534468Y-12034936D01*
X5534468Y-12034936D02*
X5524944Y-12044460D01*
X5524944Y-12044460D02*
X5505896Y-12053984D01*
X5505896Y-12053984D02*
X5486848Y-12053984D01*
X5486848Y-12053984D02*
X5467801Y-12044460D01*
X5467801Y-12044460D02*
X5458277Y-12034936D01*
X5458277Y-12034936D02*
X5448753Y-12015888D01*
X5448753Y-12015888D02*
X5439229Y-11977793D01*
X5439229Y-11977793D02*
X5439229Y-11930174D01*
X5439229Y-11930174D02*
X5448753Y-11892079D01*
X5448753Y-11892079D02*
X5458277Y-11873031D01*
X5458277Y-11873031D02*
X5467801Y-11863508D01*
X5467801Y-11863508D02*
X5486848Y-11853984D01*
X5724944Y-11920650D02*
X5724944Y-12053984D01*
X5677325Y-11844460D02*
X5629706Y-11987317D01*
X5629706Y-11987317D02*
X5753515Y-11987317D01*
X5810658Y-11853984D02*
X5934467Y-11853984D01*
X5934467Y-11853984D02*
X5867801Y-11930174D01*
X5867801Y-11930174D02*
X5896372Y-11930174D01*
X5896372Y-11930174D02*
X5915420Y-11939698D01*
X5915420Y-11939698D02*
X5924944Y-11949222D01*
X5924944Y-11949222D02*
X5934467Y-11968269D01*
X5934467Y-11968269D02*
X5934467Y-12015888D01*
X5934467Y-12015888D02*
X5924944Y-12034936D01*
X5924944Y-12034936D02*
X5915420Y-12044460D01*
X5915420Y-12044460D02*
X5896372Y-12053984D01*
X5896372Y-12053984D02*
X5839229Y-12053984D01*
X5839229Y-12053984D02*
X5820182Y-12044460D01*
X5820182Y-12044460D02*
X5810658Y-12034936D01*
X6001134Y-11853984D02*
X6124944Y-11853984D01*
X6124944Y-11853984D02*
X6058277Y-11930174D01*
X6058277Y-11930174D02*
X6086848Y-11930174D01*
X6086848Y-11930174D02*
X6105896Y-11939698D01*
X6105896Y-11939698D02*
X6115420Y-11949222D01*
X6115420Y-11949222D02*
X6124944Y-11968269D01*
X6124944Y-11968269D02*
X6124944Y-12015888D01*
X6124944Y-12015888D02*
X6115420Y-12034936D01*
X6115420Y-12034936D02*
X6105896Y-12044460D01*
X6105896Y-12044460D02*
X6086848Y-12053984D01*
X6086848Y-12053984D02*
X6029706Y-12053984D01*
X6029706Y-12053984D02*
X6010658Y-12044460D01*
X6010658Y-12044460D02*
X6001134Y-12034936D01*
X6201134Y-11853984D02*
X6201134Y-11892079D01*
X6277325Y-11853984D02*
X6277325Y-11892079D01*
X6572563Y-12130174D02*
X6563039Y-12120650D01*
X6563039Y-12120650D02*
X6543991Y-12092079D01*
X6543991Y-12092079D02*
X6534468Y-12073031D01*
X6534468Y-12073031D02*
X6524944Y-12044460D01*
X6524944Y-12044460D02*
X6515420Y-11996841D01*
X6515420Y-11996841D02*
X6515420Y-11958746D01*
X6515420Y-11958746D02*
X6524944Y-11911127D01*
X6524944Y-11911127D02*
X6534468Y-11882555D01*
X6534468Y-11882555D02*
X6543991Y-11863508D01*
X6543991Y-11863508D02*
X6563039Y-11834936D01*
X6563039Y-11834936D02*
X6572563Y-11825412D01*
X6734468Y-11920650D02*
X6734468Y-12053984D01*
X6686848Y-11844460D02*
X6639229Y-11987317D01*
X6639229Y-11987317D02*
X6763039Y-11987317D01*
X6924944Y-11853984D02*
X6886848Y-11853984D01*
X6886848Y-11853984D02*
X6867801Y-11863508D01*
X6867801Y-11863508D02*
X6858277Y-11873031D01*
X6858277Y-11873031D02*
X6839229Y-11901603D01*
X6839229Y-11901603D02*
X6829706Y-11939698D01*
X6829706Y-11939698D02*
X6829706Y-12015888D01*
X6829706Y-12015888D02*
X6839229Y-12034936D01*
X6839229Y-12034936D02*
X6848753Y-12044460D01*
X6848753Y-12044460D02*
X6867801Y-12053984D01*
X6867801Y-12053984D02*
X6905896Y-12053984D01*
X6905896Y-12053984D02*
X6924944Y-12044460D01*
X6924944Y-12044460D02*
X6934468Y-12034936D01*
X6934468Y-12034936D02*
X6943991Y-12015888D01*
X6943991Y-12015888D02*
X6943991Y-11968269D01*
X6943991Y-11968269D02*
X6934468Y-11949222D01*
X6934468Y-11949222D02*
X6924944Y-11939698D01*
X6924944Y-11939698D02*
X6905896Y-11930174D01*
X6905896Y-11930174D02*
X6867801Y-11930174D01*
X6867801Y-11930174D02*
X6848753Y-11939698D01*
X6848753Y-11939698D02*
X6839229Y-11949222D01*
X6839229Y-11949222D02*
X6829706Y-11968269D01*
X7182087Y-12053984D02*
X7182087Y-11853984D01*
X7267801Y-12053984D02*
X7267801Y-11949222D01*
X7267801Y-11949222D02*
X7258277Y-11930174D01*
X7258277Y-11930174D02*
X7239230Y-11920650D01*
X7239230Y-11920650D02*
X7210658Y-11920650D01*
X7210658Y-11920650D02*
X7191610Y-11930174D01*
X7191610Y-11930174D02*
X7182087Y-11939698D01*
X7391610Y-12053984D02*
X7372563Y-12044460D01*
X7372563Y-12044460D02*
X7363039Y-12034936D01*
X7363039Y-12034936D02*
X7353515Y-12015888D01*
X7353515Y-12015888D02*
X7353515Y-11958746D01*
X7353515Y-11958746D02*
X7363039Y-11939698D01*
X7363039Y-11939698D02*
X7372563Y-11930174D01*
X7372563Y-11930174D02*
X7391610Y-11920650D01*
X7391610Y-11920650D02*
X7420182Y-11920650D01*
X7420182Y-11920650D02*
X7439230Y-11930174D01*
X7439230Y-11930174D02*
X7448753Y-11939698D01*
X7448753Y-11939698D02*
X7458277Y-11958746D01*
X7458277Y-11958746D02*
X7458277Y-12015888D01*
X7458277Y-12015888D02*
X7448753Y-12034936D01*
X7448753Y-12034936D02*
X7439230Y-12044460D01*
X7439230Y-12044460D02*
X7420182Y-12053984D01*
X7420182Y-12053984D02*
X7391610Y-12053984D01*
X7572563Y-12053984D02*
X7553515Y-12044460D01*
X7553515Y-12044460D02*
X7543991Y-12025412D01*
X7543991Y-12025412D02*
X7543991Y-11853984D01*
X7724944Y-12044460D02*
X7705896Y-12053984D01*
X7705896Y-12053984D02*
X7667801Y-12053984D01*
X7667801Y-12053984D02*
X7648753Y-12044460D01*
X7648753Y-12044460D02*
X7639230Y-12025412D01*
X7639230Y-12025412D02*
X7639230Y-11949222D01*
X7639230Y-11949222D02*
X7648753Y-11930174D01*
X7648753Y-11930174D02*
X7667801Y-11920650D01*
X7667801Y-11920650D02*
X7705896Y-11920650D01*
X7705896Y-11920650D02*
X7724944Y-11930174D01*
X7724944Y-11930174D02*
X7734468Y-11949222D01*
X7734468Y-11949222D02*
X7734468Y-11968269D01*
X7734468Y-11968269D02*
X7639230Y-11987317D01*
X7810658Y-12044460D02*
X7829706Y-12053984D01*
X7829706Y-12053984D02*
X7867801Y-12053984D01*
X7867801Y-12053984D02*
X7886849Y-12044460D01*
X7886849Y-12044460D02*
X7896372Y-12025412D01*
X7896372Y-12025412D02*
X7896372Y-12015888D01*
X7896372Y-12015888D02*
X7886849Y-11996841D01*
X7886849Y-11996841D02*
X7867801Y-11987317D01*
X7867801Y-11987317D02*
X7839230Y-11987317D01*
X7839230Y-11987317D02*
X7820182Y-11977793D01*
X7820182Y-11977793D02*
X7810658Y-11958746D01*
X7810658Y-11958746D02*
X7810658Y-11949222D01*
X7810658Y-11949222D02*
X7820182Y-11930174D01*
X7820182Y-11930174D02*
X7839230Y-11920650D01*
X7839230Y-11920650D02*
X7867801Y-11920650D01*
X7867801Y-11920650D02*
X7886849Y-11930174D01*
X7963039Y-12130174D02*
X7972563Y-12120650D01*
X7972563Y-12120650D02*
X7991611Y-12092079D01*
X7991611Y-12092079D02*
X8001134Y-12073031D01*
X8001134Y-12073031D02*
X8010658Y-12044460D01*
X8010658Y-12044460D02*
X8020182Y-11996841D01*
X8020182Y-11996841D02*
X8020182Y-11958746D01*
X8020182Y-11958746D02*
X8010658Y-11911127D01*
X8010658Y-11911127D02*
X8001134Y-11882555D01*
X8001134Y-11882555D02*
X7991611Y-11863508D01*
X7991611Y-11863508D02*
X7972563Y-11834936D01*
X7972563Y-11834936D02*
X7963039Y-11825412D01*
D14*
X2869500Y-12162500D02*
X2997500Y-12290500D01*
X2997500Y-12162500D02*
X2869500Y-12290500D01*
X2933500Y-12162500D02*
X2933500Y-12290500D01*
X2869500Y-12226500D02*
X2997500Y-12226500D01*
D11*
X3363039Y-12317984D02*
X3248753Y-12317984D01*
X3305896Y-12317984D02*
X3305896Y-12117984D01*
X3305896Y-12117984D02*
X3286848Y-12146555D01*
X3286848Y-12146555D02*
X3267801Y-12165603D01*
X3267801Y-12165603D02*
X3248753Y-12175127D01*
X3448753Y-12298936D02*
X3458277Y-12308460D01*
X3458277Y-12308460D02*
X3448753Y-12317984D01*
X3448753Y-12317984D02*
X3439229Y-12308460D01*
X3439229Y-12308460D02*
X3448753Y-12298936D01*
X3448753Y-12298936D02*
X3448753Y-12317984D01*
X3534467Y-12137031D02*
X3543991Y-12127508D01*
X3543991Y-12127508D02*
X3563039Y-12117984D01*
X3563039Y-12117984D02*
X3610658Y-12117984D01*
X3610658Y-12117984D02*
X3629705Y-12127508D01*
X3629705Y-12127508D02*
X3639229Y-12137031D01*
X3639229Y-12137031D02*
X3648753Y-12156079D01*
X3648753Y-12156079D02*
X3648753Y-12175127D01*
X3648753Y-12175127D02*
X3639229Y-12203698D01*
X3639229Y-12203698D02*
X3524943Y-12317984D01*
X3524943Y-12317984D02*
X3648753Y-12317984D01*
X3763039Y-12203698D02*
X3743991Y-12194174D01*
X3743991Y-12194174D02*
X3734467Y-12184650D01*
X3734467Y-12184650D02*
X3724943Y-12165603D01*
X3724943Y-12165603D02*
X3724943Y-12156079D01*
X3724943Y-12156079D02*
X3734467Y-12137031D01*
X3734467Y-12137031D02*
X3743991Y-12127508D01*
X3743991Y-12127508D02*
X3763039Y-12117984D01*
X3763039Y-12117984D02*
X3801134Y-12117984D01*
X3801134Y-12117984D02*
X3820182Y-12127508D01*
X3820182Y-12127508D02*
X3829705Y-12137031D01*
X3829705Y-12137031D02*
X3839229Y-12156079D01*
X3839229Y-12156079D02*
X3839229Y-12165603D01*
X3839229Y-12165603D02*
X3829705Y-12184650D01*
X3829705Y-12184650D02*
X3820182Y-12194174D01*
X3820182Y-12194174D02*
X3801134Y-12203698D01*
X3801134Y-12203698D02*
X3763039Y-12203698D01*
X3763039Y-12203698D02*
X3743991Y-12213222D01*
X3743991Y-12213222D02*
X3734467Y-12222746D01*
X3734467Y-12222746D02*
X3724943Y-12241793D01*
X3724943Y-12241793D02*
X3724943Y-12279888D01*
X3724943Y-12279888D02*
X3734467Y-12298936D01*
X3734467Y-12298936D02*
X3743991Y-12308460D01*
X3743991Y-12308460D02*
X3763039Y-12317984D01*
X3763039Y-12317984D02*
X3801134Y-12317984D01*
X3801134Y-12317984D02*
X3820182Y-12308460D01*
X3820182Y-12308460D02*
X3829705Y-12298936D01*
X3829705Y-12298936D02*
X3839229Y-12279888D01*
X3839229Y-12279888D02*
X3839229Y-12241793D01*
X3839229Y-12241793D02*
X3829705Y-12222746D01*
X3829705Y-12222746D02*
X3820182Y-12213222D01*
X3820182Y-12213222D02*
X3801134Y-12203698D01*
X3963039Y-12117984D02*
X3982086Y-12117984D01*
X3982086Y-12117984D02*
X4001134Y-12127508D01*
X4001134Y-12127508D02*
X4010658Y-12137031D01*
X4010658Y-12137031D02*
X4020182Y-12156079D01*
X4020182Y-12156079D02*
X4029705Y-12194174D01*
X4029705Y-12194174D02*
X4029705Y-12241793D01*
X4029705Y-12241793D02*
X4020182Y-12279888D01*
X4020182Y-12279888D02*
X4010658Y-12298936D01*
X4010658Y-12298936D02*
X4001134Y-12308460D01*
X4001134Y-12308460D02*
X3982086Y-12317984D01*
X3982086Y-12317984D02*
X3963039Y-12317984D01*
X3963039Y-12317984D02*
X3943991Y-12308460D01*
X3943991Y-12308460D02*
X3934467Y-12298936D01*
X3934467Y-12298936D02*
X3924943Y-12279888D01*
X3924943Y-12279888D02*
X3915420Y-12241793D01*
X3915420Y-12241793D02*
X3915420Y-12194174D01*
X3915420Y-12194174D02*
X3924943Y-12156079D01*
X3924943Y-12156079D02*
X3934467Y-12137031D01*
X3934467Y-12137031D02*
X3943991Y-12127508D01*
X3943991Y-12127508D02*
X3963039Y-12117984D01*
X4115420Y-12317984D02*
X4115420Y-12184650D01*
X4115420Y-12203698D02*
X4124943Y-12194174D01*
X4124943Y-12194174D02*
X4143991Y-12184650D01*
X4143991Y-12184650D02*
X4172563Y-12184650D01*
X4172563Y-12184650D02*
X4191610Y-12194174D01*
X4191610Y-12194174D02*
X4201134Y-12213222D01*
X4201134Y-12213222D02*
X4201134Y-12317984D01*
X4201134Y-12213222D02*
X4210658Y-12194174D01*
X4210658Y-12194174D02*
X4229705Y-12184650D01*
X4229705Y-12184650D02*
X4258277Y-12184650D01*
X4258277Y-12184650D02*
X4277325Y-12194174D01*
X4277325Y-12194174D02*
X4286848Y-12213222D01*
X4286848Y-12213222D02*
X4286848Y-12317984D01*
X4382086Y-12317984D02*
X4382086Y-12184650D01*
X4382086Y-12203698D02*
X4391610Y-12194174D01*
X4391610Y-12194174D02*
X4410658Y-12184650D01*
X4410658Y-12184650D02*
X4439229Y-12184650D01*
X4439229Y-12184650D02*
X4458277Y-12194174D01*
X4458277Y-12194174D02*
X4467801Y-12213222D01*
X4467801Y-12213222D02*
X4467801Y-12317984D01*
X4467801Y-12213222D02*
X4477325Y-12194174D01*
X4477325Y-12194174D02*
X4496372Y-12184650D01*
X4496372Y-12184650D02*
X4524944Y-12184650D01*
X4524944Y-12184650D02*
X4543991Y-12194174D01*
X4543991Y-12194174D02*
X4553515Y-12213222D01*
X4553515Y-12213222D02*
X4553515Y-12317984D01*
X4943991Y-12108460D02*
X4772563Y-12365603D01*
X5201134Y-12117984D02*
X5220182Y-12117984D01*
X5220182Y-12117984D02*
X5239229Y-12127508D01*
X5239229Y-12127508D02*
X5248753Y-12137031D01*
X5248753Y-12137031D02*
X5258277Y-12156079D01*
X5258277Y-12156079D02*
X5267801Y-12194174D01*
X5267801Y-12194174D02*
X5267801Y-12241793D01*
X5267801Y-12241793D02*
X5258277Y-12279888D01*
X5258277Y-12279888D02*
X5248753Y-12298936D01*
X5248753Y-12298936D02*
X5239229Y-12308460D01*
X5239229Y-12308460D02*
X5220182Y-12317984D01*
X5220182Y-12317984D02*
X5201134Y-12317984D01*
X5201134Y-12317984D02*
X5182087Y-12308460D01*
X5182087Y-12308460D02*
X5172563Y-12298936D01*
X5172563Y-12298936D02*
X5163039Y-12279888D01*
X5163039Y-12279888D02*
X5153515Y-12241793D01*
X5153515Y-12241793D02*
X5153515Y-12194174D01*
X5153515Y-12194174D02*
X5163039Y-12156079D01*
X5163039Y-12156079D02*
X5172563Y-12137031D01*
X5172563Y-12137031D02*
X5182087Y-12127508D01*
X5182087Y-12127508D02*
X5201134Y-12117984D01*
X5353515Y-12298936D02*
X5363039Y-12308460D01*
X5363039Y-12308460D02*
X5353515Y-12317984D01*
X5353515Y-12317984D02*
X5343991Y-12308460D01*
X5343991Y-12308460D02*
X5353515Y-12298936D01*
X5353515Y-12298936D02*
X5353515Y-12317984D01*
X5486848Y-12117984D02*
X5505896Y-12117984D01*
X5505896Y-12117984D02*
X5524944Y-12127508D01*
X5524944Y-12127508D02*
X5534468Y-12137031D01*
X5534468Y-12137031D02*
X5543991Y-12156079D01*
X5543991Y-12156079D02*
X5553515Y-12194174D01*
X5553515Y-12194174D02*
X5553515Y-12241793D01*
X5553515Y-12241793D02*
X5543991Y-12279888D01*
X5543991Y-12279888D02*
X5534468Y-12298936D01*
X5534468Y-12298936D02*
X5524944Y-12308460D01*
X5524944Y-12308460D02*
X5505896Y-12317984D01*
X5505896Y-12317984D02*
X5486848Y-12317984D01*
X5486848Y-12317984D02*
X5467801Y-12308460D01*
X5467801Y-12308460D02*
X5458277Y-12298936D01*
X5458277Y-12298936D02*
X5448753Y-12279888D01*
X5448753Y-12279888D02*
X5439229Y-12241793D01*
X5439229Y-12241793D02*
X5439229Y-12194174D01*
X5439229Y-12194174D02*
X5448753Y-12156079D01*
X5448753Y-12156079D02*
X5458277Y-12137031D01*
X5458277Y-12137031D02*
X5467801Y-12127508D01*
X5467801Y-12127508D02*
X5486848Y-12117984D01*
X5734467Y-12117984D02*
X5639229Y-12117984D01*
X5639229Y-12117984D02*
X5629706Y-12213222D01*
X5629706Y-12213222D02*
X5639229Y-12203698D01*
X5639229Y-12203698D02*
X5658277Y-12194174D01*
X5658277Y-12194174D02*
X5705896Y-12194174D01*
X5705896Y-12194174D02*
X5724944Y-12203698D01*
X5724944Y-12203698D02*
X5734467Y-12213222D01*
X5734467Y-12213222D02*
X5743991Y-12232269D01*
X5743991Y-12232269D02*
X5743991Y-12279888D01*
X5743991Y-12279888D02*
X5734467Y-12298936D01*
X5734467Y-12298936D02*
X5724944Y-12308460D01*
X5724944Y-12308460D02*
X5705896Y-12317984D01*
X5705896Y-12317984D02*
X5658277Y-12317984D01*
X5658277Y-12317984D02*
X5639229Y-12308460D01*
X5639229Y-12308460D02*
X5629706Y-12298936D01*
X5867801Y-12117984D02*
X5886848Y-12117984D01*
X5886848Y-12117984D02*
X5905896Y-12127508D01*
X5905896Y-12127508D02*
X5915420Y-12137031D01*
X5915420Y-12137031D02*
X5924944Y-12156079D01*
X5924944Y-12156079D02*
X5934467Y-12194174D01*
X5934467Y-12194174D02*
X5934467Y-12241793D01*
X5934467Y-12241793D02*
X5924944Y-12279888D01*
X5924944Y-12279888D02*
X5915420Y-12298936D01*
X5915420Y-12298936D02*
X5905896Y-12308460D01*
X5905896Y-12308460D02*
X5886848Y-12317984D01*
X5886848Y-12317984D02*
X5867801Y-12317984D01*
X5867801Y-12317984D02*
X5848753Y-12308460D01*
X5848753Y-12308460D02*
X5839229Y-12298936D01*
X5839229Y-12298936D02*
X5829706Y-12279888D01*
X5829706Y-12279888D02*
X5820182Y-12241793D01*
X5820182Y-12241793D02*
X5820182Y-12194174D01*
X5820182Y-12194174D02*
X5829706Y-12156079D01*
X5829706Y-12156079D02*
X5839229Y-12137031D01*
X5839229Y-12137031D02*
X5848753Y-12127508D01*
X5848753Y-12127508D02*
X5867801Y-12117984D01*
X6105896Y-12184650D02*
X6105896Y-12317984D01*
X6058277Y-12108460D02*
X6010658Y-12251317D01*
X6010658Y-12251317D02*
X6134467Y-12251317D01*
X6201134Y-12117984D02*
X6201134Y-12156079D01*
X6277325Y-12117984D02*
X6277325Y-12156079D01*
X6572563Y-12394174D02*
X6563039Y-12384650D01*
X6563039Y-12384650D02*
X6543991Y-12356079D01*
X6543991Y-12356079D02*
X6534468Y-12337031D01*
X6534468Y-12337031D02*
X6524944Y-12308460D01*
X6524944Y-12308460D02*
X6515420Y-12260841D01*
X6515420Y-12260841D02*
X6515420Y-12222746D01*
X6515420Y-12222746D02*
X6524944Y-12175127D01*
X6524944Y-12175127D02*
X6534468Y-12146555D01*
X6534468Y-12146555D02*
X6543991Y-12127508D01*
X6543991Y-12127508D02*
X6563039Y-12098936D01*
X6563039Y-12098936D02*
X6572563Y-12089412D01*
X6639229Y-12137031D02*
X6648753Y-12127508D01*
X6648753Y-12127508D02*
X6667801Y-12117984D01*
X6667801Y-12117984D02*
X6715420Y-12117984D01*
X6715420Y-12117984D02*
X6734468Y-12127508D01*
X6734468Y-12127508D02*
X6743991Y-12137031D01*
X6743991Y-12137031D02*
X6753515Y-12156079D01*
X6753515Y-12156079D02*
X6753515Y-12175127D01*
X6753515Y-12175127D02*
X6743991Y-12203698D01*
X6743991Y-12203698D02*
X6629706Y-12317984D01*
X6629706Y-12317984D02*
X6753515Y-12317984D01*
X6991610Y-12317984D02*
X6991610Y-12117984D01*
X7077325Y-12317984D02*
X7077325Y-12213222D01*
X7077325Y-12213222D02*
X7067801Y-12194174D01*
X7067801Y-12194174D02*
X7048753Y-12184650D01*
X7048753Y-12184650D02*
X7020182Y-12184650D01*
X7020182Y-12184650D02*
X7001134Y-12194174D01*
X7001134Y-12194174D02*
X6991610Y-12203698D01*
X7201134Y-12317984D02*
X7182087Y-12308460D01*
X7182087Y-12308460D02*
X7172563Y-12298936D01*
X7172563Y-12298936D02*
X7163039Y-12279888D01*
X7163039Y-12279888D02*
X7163039Y-12222746D01*
X7163039Y-12222746D02*
X7172563Y-12203698D01*
X7172563Y-12203698D02*
X7182087Y-12194174D01*
X7182087Y-12194174D02*
X7201134Y-12184650D01*
X7201134Y-12184650D02*
X7229706Y-12184650D01*
X7229706Y-12184650D02*
X7248753Y-12194174D01*
X7248753Y-12194174D02*
X7258277Y-12203698D01*
X7258277Y-12203698D02*
X7267801Y-12222746D01*
X7267801Y-12222746D02*
X7267801Y-12279888D01*
X7267801Y-12279888D02*
X7258277Y-12298936D01*
X7258277Y-12298936D02*
X7248753Y-12308460D01*
X7248753Y-12308460D02*
X7229706Y-12317984D01*
X7229706Y-12317984D02*
X7201134Y-12317984D01*
X7382087Y-12317984D02*
X7363039Y-12308460D01*
X7363039Y-12308460D02*
X7353515Y-12289412D01*
X7353515Y-12289412D02*
X7353515Y-12117984D01*
X7534468Y-12308460D02*
X7515420Y-12317984D01*
X7515420Y-12317984D02*
X7477325Y-12317984D01*
X7477325Y-12317984D02*
X7458277Y-12308460D01*
X7458277Y-12308460D02*
X7448753Y-12289412D01*
X7448753Y-12289412D02*
X7448753Y-12213222D01*
X7448753Y-12213222D02*
X7458277Y-12194174D01*
X7458277Y-12194174D02*
X7477325Y-12184650D01*
X7477325Y-12184650D02*
X7515420Y-12184650D01*
X7515420Y-12184650D02*
X7534468Y-12194174D01*
X7534468Y-12194174D02*
X7543991Y-12213222D01*
X7543991Y-12213222D02*
X7543991Y-12232269D01*
X7543991Y-12232269D02*
X7448753Y-12251317D01*
X7620182Y-12308460D02*
X7639230Y-12317984D01*
X7639230Y-12317984D02*
X7677325Y-12317984D01*
X7677325Y-12317984D02*
X7696372Y-12308460D01*
X7696372Y-12308460D02*
X7705896Y-12289412D01*
X7705896Y-12289412D02*
X7705896Y-12279888D01*
X7705896Y-12279888D02*
X7696372Y-12260841D01*
X7696372Y-12260841D02*
X7677325Y-12251317D01*
X7677325Y-12251317D02*
X7648753Y-12251317D01*
X7648753Y-12251317D02*
X7629706Y-12241793D01*
X7629706Y-12241793D02*
X7620182Y-12222746D01*
X7620182Y-12222746D02*
X7620182Y-12213222D01*
X7620182Y-12213222D02*
X7629706Y-12194174D01*
X7629706Y-12194174D02*
X7648753Y-12184650D01*
X7648753Y-12184650D02*
X7677325Y-12184650D01*
X7677325Y-12184650D02*
X7696372Y-12194174D01*
X7772563Y-12394174D02*
X7782087Y-12384650D01*
X7782087Y-12384650D02*
X7801134Y-12356079D01*
X7801134Y-12356079D02*
X7810658Y-12337031D01*
X7810658Y-12337031D02*
X7820182Y-12308460D01*
X7820182Y-12308460D02*
X7829706Y-12260841D01*
X7829706Y-12260841D02*
X7829706Y-12222746D01*
X7829706Y-12222746D02*
X7820182Y-12175127D01*
X7820182Y-12175127D02*
X7810658Y-12146555D01*
X7810658Y-12146555D02*
X7801134Y-12127508D01*
X7801134Y-12127508D02*
X7782087Y-12098936D01*
X7782087Y-12098936D02*
X7772563Y-12089412D01*
M02*
