G04 #@! TF.GenerationSoftware,KiCad,Pcbnew,8.0.8*
G04 #@! TF.CreationDate,2026-01-21T17:59:11+00:00*
G04 #@! TF.ProjectId,TestBench,54657374-4265-46e6-9368-2e6b69636164,rev?*
G04 #@! TF.SameCoordinates,Original*
G04 #@! TF.FileFunction,Copper,L1,Top*
G04 #@! TF.FilePolarity,Positive*
%FSLAX46Y46*%
G04 Gerber Fmt 4.6, Leading zero omitted, Abs format (unit mm)*
G04 Created by KiCad (PCBNEW 8.0.8) date 2026-01-21 17:59:11*
%MOMM*%
%LPD*%
G01*
G04 APERTURE LIST*
G04 Aperture macros list*
%AMRoundRect*
0 Rectangle with rounded corners*
0 $1 Rounding radius*
0 $2 $3 $4 $5 $6 $7 $8 $9 X,Y pos of 4 corners*
0 Add a 4 corners polygon primitive as box body*
4,1,4,$2,$3,$4,$5,$6,$7,$8,$9,$2,$3,0*
0 Add four circle primitives for the rounded corners*
1,1,$1+$1,$2,$3*
1,1,$1+$1,$4,$5*
1,1,$1+$1,$6,$7*
1,1,$1+$1,$8,$9*
0 Add four rect primitives between the rounded corners*
20,1,$1+$1,$2,$3,$4,$5,0*
20,1,$1+$1,$4,$5,$6,$7,0*
20,1,$1+$1,$6,$7,$8,$9,0*
20,1,$1+$1,$8,$9,$2,$3,0*%
%AMFreePoly0*
4,1,19,0.550000,-0.750000,0.000000,-0.750000,0.000000,-0.744911,-0.071157,-0.744911,-0.207708,-0.704816,-0.327430,-0.627875,-0.420627,-0.520320,-0.479746,-0.390866,-0.500000,-0.250000,-0.500000,0.250000,-0.479746,0.390866,-0.420627,0.520320,-0.327430,0.627875,-0.207708,0.704816,-0.071157,0.744911,0.000000,0.744911,0.000000,0.750000,0.550000,0.750000,0.550000,-0.750000,0.550000,-0.750000,
$1*%
%AMFreePoly1*
4,1,19,0.000000,0.744911,0.071157,0.744911,0.207708,0.704816,0.327430,0.627875,0.420627,0.520320,0.479746,0.390866,0.500000,0.250000,0.500000,-0.250000,0.479746,-0.390866,0.420627,-0.520320,0.327430,-0.627875,0.207708,-0.704816,0.071157,-0.744911,0.000000,-0.744911,0.000000,-0.750000,-0.550000,-0.750000,-0.550000,0.750000,0.000000,0.750000,0.000000,0.744911,0.000000,0.744911,
$1*%
G04 Aperture macros list end*
G04 #@! TA.AperFunction,SMDPad,CuDef*
%ADD10RoundRect,0.250000X-0.450000X0.350000X-0.450000X-0.350000X0.450000X-0.350000X0.450000X0.350000X0*%
G04 #@! TD*
G04 #@! TA.AperFunction,SMDPad,CuDef*
%ADD11RoundRect,0.250000X0.350000X0.450000X-0.350000X0.450000X-0.350000X-0.450000X0.350000X-0.450000X0*%
G04 #@! TD*
G04 #@! TA.AperFunction,SMDPad,CuDef*
%ADD12RoundRect,0.100000X0.100000X-0.225000X0.100000X0.225000X-0.100000X0.225000X-0.100000X-0.225000X0*%
G04 #@! TD*
G04 #@! TA.AperFunction,SMDPad,CuDef*
%ADD13C,1.000000*%
G04 #@! TD*
G04 #@! TA.AperFunction,SMDPad,CuDef*
%ADD14RoundRect,0.250000X0.450000X-0.350000X0.450000X0.350000X-0.450000X0.350000X-0.450000X-0.350000X0*%
G04 #@! TD*
G04 #@! TA.AperFunction,SMDPad,CuDef*
%ADD15RoundRect,0.250000X0.450000X-0.325000X0.450000X0.325000X-0.450000X0.325000X-0.450000X-0.325000X0*%
G04 #@! TD*
G04 #@! TA.AperFunction,SMDPad,CuDef*
%ADD16RoundRect,0.250000X-0.350000X-0.450000X0.350000X-0.450000X0.350000X0.450000X-0.350000X0.450000X0*%
G04 #@! TD*
G04 #@! TA.AperFunction,SMDPad,CuDef*
%ADD17RoundRect,0.250000X0.475000X-0.337500X0.475000X0.337500X-0.475000X0.337500X-0.475000X-0.337500X0*%
G04 #@! TD*
G04 #@! TA.AperFunction,SMDPad,CuDef*
%ADD18R,1.400000X1.200000*%
G04 #@! TD*
G04 #@! TA.AperFunction,SMDPad,CuDef*
%ADD19R,2.100000X1.400000*%
G04 #@! TD*
G04 #@! TA.AperFunction,SMDPad,CuDef*
%ADD20RoundRect,0.250000X-0.325000X-0.450000X0.325000X-0.450000X0.325000X0.450000X-0.325000X0.450000X0*%
G04 #@! TD*
G04 #@! TA.AperFunction,SMDPad,CuDef*
%ADD21RoundRect,0.062500X0.062500X-0.350000X0.062500X0.350000X-0.062500X0.350000X-0.062500X-0.350000X0*%
G04 #@! TD*
G04 #@! TA.AperFunction,SMDPad,CuDef*
%ADD22RoundRect,0.062500X0.350000X-0.062500X0.350000X0.062500X-0.350000X0.062500X-0.350000X-0.062500X0*%
G04 #@! TD*
G04 #@! TA.AperFunction,HeatsinkPad*
%ADD23R,2.600000X2.600000*%
G04 #@! TD*
G04 #@! TA.AperFunction,SMDPad,CuDef*
%ADD24RoundRect,0.250000X-0.475000X0.337500X-0.475000X-0.337500X0.475000X-0.337500X0.475000X0.337500X0*%
G04 #@! TD*
G04 #@! TA.AperFunction,SMDPad,CuDef*
%ADD25RoundRect,0.250000X0.337500X0.475000X-0.337500X0.475000X-0.337500X-0.475000X0.337500X-0.475000X0*%
G04 #@! TD*
G04 #@! TA.AperFunction,SMDPad,CuDef*
%ADD26RoundRect,0.100000X0.225000X0.100000X-0.225000X0.100000X-0.225000X-0.100000X0.225000X-0.100000X0*%
G04 #@! TD*
G04 #@! TA.AperFunction,SMDPad,CuDef*
%ADD27RoundRect,0.250000X-0.337500X-0.475000X0.337500X-0.475000X0.337500X0.475000X-0.337500X0.475000X0*%
G04 #@! TD*
G04 #@! TA.AperFunction,ComponentPad*
%ADD28R,1.700000X1.700000*%
G04 #@! TD*
G04 #@! TA.AperFunction,ComponentPad*
%ADD29O,1.700000X1.700000*%
G04 #@! TD*
G04 #@! TA.AperFunction,ComponentPad*
%ADD30C,1.650000*%
G04 #@! TD*
G04 #@! TA.AperFunction,ComponentPad*
%ADD31R,1.365000X1.365000*%
G04 #@! TD*
G04 #@! TA.AperFunction,ComponentPad*
%ADD32C,1.365000*%
G04 #@! TD*
G04 #@! TA.AperFunction,ComponentPad*
%ADD33C,1.920000*%
G04 #@! TD*
G04 #@! TA.AperFunction,SMDPad,CuDef*
%ADD34FreePoly0,90.000000*%
G04 #@! TD*
G04 #@! TA.AperFunction,SMDPad,CuDef*
%ADD35R,1.500000X1.000000*%
G04 #@! TD*
G04 #@! TA.AperFunction,SMDPad,CuDef*
%ADD36FreePoly1,90.000000*%
G04 #@! TD*
G04 #@! TA.AperFunction,ComponentPad*
%ADD37R,1.650000X1.650000*%
G04 #@! TD*
G04 #@! TA.AperFunction,SMDPad,CuDef*
%ADD38RoundRect,0.150000X-0.512500X-0.150000X0.512500X-0.150000X0.512500X0.150000X-0.512500X0.150000X0*%
G04 #@! TD*
G04 #@! TA.AperFunction,SMDPad,CuDef*
%ADD39RoundRect,0.150000X0.150000X-0.512500X0.150000X0.512500X-0.150000X0.512500X-0.150000X-0.512500X0*%
G04 #@! TD*
G04 #@! TA.AperFunction,SMDPad,CuDef*
%ADD40RoundRect,0.150000X-0.150000X-0.425000X0.150000X-0.425000X0.150000X0.425000X-0.150000X0.425000X0*%
G04 #@! TD*
G04 #@! TA.AperFunction,SMDPad,CuDef*
%ADD41RoundRect,0.075000X-0.075000X-0.500000X0.075000X-0.500000X0.075000X0.500000X-0.075000X0.500000X0*%
G04 #@! TD*
G04 #@! TA.AperFunction,HeatsinkPad*
%ADD42O,1.000000X2.100000*%
G04 #@! TD*
G04 #@! TA.AperFunction,HeatsinkPad*
%ADD43O,1.000000X1.800000*%
G04 #@! TD*
G04 #@! TA.AperFunction,SMDPad,CuDef*
%ADD44R,1.520000X2.160000*%
G04 #@! TD*
G04 #@! TA.AperFunction,ViaPad*
%ADD45C,0.600000*%
G04 #@! TD*
G04 #@! TA.AperFunction,ViaPad*
%ADD46C,0.400000*%
G04 #@! TD*
G04 #@! TA.AperFunction,Conductor*
%ADD47C,0.300000*%
G04 #@! TD*
G04 #@! TA.AperFunction,Conductor*
%ADD48C,0.400000*%
G04 #@! TD*
G04 #@! TA.AperFunction,Conductor*
%ADD49C,0.800000*%
G04 #@! TD*
G04 #@! TA.AperFunction,Conductor*
%ADD50C,1.000000*%
G04 #@! TD*
G04 #@! TA.AperFunction,Conductor*
%ADD51C,0.250000*%
G04 #@! TD*
G04 #@! TA.AperFunction,Conductor*
%ADD52C,0.600000*%
G04 #@! TD*
G04 #@! TA.AperFunction,Conductor*
%ADD53C,0.500000*%
G04 #@! TD*
G04 #@! TA.AperFunction,Conductor*
%ADD54C,1.500000*%
G04 #@! TD*
G04 #@! TA.AperFunction,Conductor*
%ADD55C,0.200000*%
G04 #@! TD*
G04 APERTURE END LIST*
D10*
X92050000Y-95900000D03*
X92050000Y-97900000D03*
D11*
X89200000Y-82700000D03*
X87200000Y-82700000D03*
D12*
X73187500Y-82625000D03*
X73837500Y-82625000D03*
X74487500Y-82625000D03*
X74487500Y-80725000D03*
X73187500Y-80725000D03*
D11*
X61045000Y-74975000D03*
X59045000Y-74975000D03*
D13*
X70500000Y-76650000D03*
D14*
X79050000Y-95650000D03*
X79050000Y-93650000D03*
D15*
X73800000Y-95625000D03*
X73800000Y-93575000D03*
D16*
X84050000Y-75400000D03*
X86050000Y-75400000D03*
D17*
X61550000Y-64787500D03*
X61550000Y-62712500D03*
D18*
X65950000Y-62900000D03*
X63750000Y-62900000D03*
X63750000Y-64600000D03*
X65950000Y-64600000D03*
D19*
X39450000Y-49950000D03*
X39450000Y-54450000D03*
X48550000Y-49950000D03*
X48550000Y-54450000D03*
D20*
X79975000Y-80600000D03*
X82025000Y-80600000D03*
D11*
X64500000Y-68475000D03*
X62500000Y-68475000D03*
D14*
X48220000Y-59530000D03*
X48220000Y-57530000D03*
D13*
X60300000Y-77700000D03*
X60650000Y-68500000D03*
D11*
X65800000Y-66550000D03*
X63800000Y-66550000D03*
D13*
X70500000Y-78850000D03*
D21*
X63750000Y-77687500D03*
X64250000Y-77687500D03*
X64750000Y-77687500D03*
X65250000Y-77687500D03*
X65750000Y-77687500D03*
X66250000Y-77687500D03*
D22*
X66937500Y-77000000D03*
X66937500Y-76500000D03*
X66937500Y-76000000D03*
X66937500Y-75500000D03*
X66937500Y-75000000D03*
X66937500Y-74500000D03*
D21*
X66250000Y-73812500D03*
X65750000Y-73812500D03*
X65250000Y-73812500D03*
X64750000Y-73812500D03*
X64250000Y-73812500D03*
X63750000Y-73812500D03*
D22*
X63062500Y-74500000D03*
X63062500Y-75000000D03*
X63062500Y-75500000D03*
X63062500Y-76000000D03*
X63062500Y-76500000D03*
X63062500Y-77000000D03*
D23*
X65000000Y-75750000D03*
D16*
X84150000Y-78050000D03*
X86150000Y-78050000D03*
D24*
X92000000Y-92012500D03*
X92000000Y-94087500D03*
D25*
X89337500Y-90350000D03*
X87262500Y-90350000D03*
D14*
X59600000Y-53200000D03*
X59600000Y-51200000D03*
D26*
X65600000Y-71487500D03*
X65600000Y-70837500D03*
X65600000Y-70187500D03*
X63700000Y-70187500D03*
X63700000Y-71487500D03*
D27*
X40881250Y-80650000D03*
X42956250Y-80650000D03*
D14*
X50710000Y-59530000D03*
X50710000Y-57530000D03*
X92000000Y-90250000D03*
X92000000Y-88250000D03*
D25*
X42938750Y-83510000D03*
X40863750Y-83510000D03*
D28*
X49400000Y-86800000D03*
D29*
X51940000Y-86800000D03*
X54480000Y-86800000D03*
D14*
X73950000Y-86375000D03*
X73950000Y-84375000D03*
D16*
X84150000Y-80600000D03*
X86150000Y-80600000D03*
D28*
X49400000Y-83000000D03*
D29*
X51940000Y-83000000D03*
X54480000Y-83000000D03*
D30*
X77830000Y-68100000D03*
X77830000Y-70640000D03*
X80370000Y-68100000D03*
X80370000Y-70640000D03*
X82910000Y-68100000D03*
X82910000Y-70640000D03*
X85450000Y-68100000D03*
X85450000Y-70640000D03*
X87990000Y-68100000D03*
X85450000Y-65560000D03*
X87990000Y-65560000D03*
X85450000Y-63020000D03*
X87990000Y-63020000D03*
X85450000Y-60480000D03*
X87990000Y-60480000D03*
X85450000Y-57940000D03*
X87990000Y-57940000D03*
X85450000Y-55400000D03*
X87990000Y-55400000D03*
X85450000Y-52860000D03*
X82910000Y-55400000D03*
X82910000Y-52860000D03*
X80370000Y-55400000D03*
X80370000Y-52860000D03*
X77830000Y-55400000D03*
X77830000Y-52860000D03*
X75290000Y-55400000D03*
X75290000Y-52860000D03*
X72750000Y-55400000D03*
X72750000Y-52860000D03*
X70210000Y-55400000D03*
X72750000Y-57940000D03*
X70210000Y-57940000D03*
X72750000Y-60480000D03*
X70210000Y-60480000D03*
X72750000Y-63020000D03*
X70210000Y-63020000D03*
X72750000Y-65560000D03*
X70210000Y-65560000D03*
X72750000Y-68100000D03*
X70210000Y-68100000D03*
X72750000Y-70640000D03*
X75290000Y-68100000D03*
X75290000Y-70640000D03*
D27*
X40863750Y-89110000D03*
X42938750Y-89110000D03*
D11*
X82050000Y-75450000D03*
X80050000Y-75450000D03*
D25*
X65887500Y-60800000D03*
X63812500Y-60800000D03*
D14*
X43110000Y-59530000D03*
X43110000Y-57530000D03*
D20*
X79925000Y-78000000D03*
X81975000Y-78000000D03*
D27*
X57562500Y-49300000D03*
X59637500Y-49300000D03*
D10*
X76900000Y-93600000D03*
X76900000Y-95600000D03*
D14*
X57700000Y-53200000D03*
X57700000Y-51200000D03*
D16*
X87200000Y-85050000D03*
X89200000Y-85050000D03*
D28*
X99060000Y-96520000D03*
D29*
X96520000Y-96520000D03*
X99060000Y-93980000D03*
X96520000Y-93980000D03*
X99060000Y-91440000D03*
X96520000Y-91440000D03*
X99060000Y-88900000D03*
X96520000Y-88900000D03*
X99060000Y-86360000D03*
X96520000Y-86360000D03*
X99060000Y-83820000D03*
X96520000Y-83820000D03*
X99060000Y-81280000D03*
X96520000Y-81280000D03*
X99060000Y-78740000D03*
X96520000Y-78740000D03*
X99060000Y-76200000D03*
X96520000Y-76200000D03*
X99060000Y-73660000D03*
X96520000Y-73660000D03*
X99060000Y-71120000D03*
X96520000Y-71120000D03*
X99060000Y-68580000D03*
X96520000Y-68580000D03*
X99060000Y-66040000D03*
X96520000Y-66040000D03*
X99060000Y-63500000D03*
X96520000Y-63500000D03*
X99060000Y-60960000D03*
X96520000Y-60960000D03*
X99060000Y-58420000D03*
X96520000Y-58420000D03*
X99060000Y-55880000D03*
X96520000Y-55880000D03*
X99060000Y-53340000D03*
X96520000Y-53340000D03*
X99060000Y-50800000D03*
X96520000Y-50800000D03*
X99060000Y-48260000D03*
X96520000Y-48260000D03*
D17*
X92000000Y-86437500D03*
X92000000Y-84362500D03*
D16*
X54600000Y-57900000D03*
X56600000Y-57900000D03*
D25*
X42956250Y-75050000D03*
X40881250Y-75050000D03*
D31*
X58970000Y-95280000D03*
D32*
X61470000Y-95280000D03*
X63970000Y-95280000D03*
X58970000Y-92880000D03*
X61470000Y-92880000D03*
X63970000Y-92880000D03*
D33*
X56170000Y-94080000D03*
X66770000Y-94080000D03*
D25*
X68325000Y-79350000D03*
X66250000Y-79350000D03*
D11*
X61065000Y-72800000D03*
X59065000Y-72800000D03*
D34*
X52500000Y-53300000D03*
D35*
X52500000Y-52000000D03*
D36*
X52500000Y-50700000D03*
D21*
X82150000Y-87037500D03*
X82650000Y-87037500D03*
X83150000Y-87037500D03*
X83650000Y-87037500D03*
X84150000Y-87037500D03*
X84650000Y-87037500D03*
D22*
X85337500Y-86350000D03*
X85337500Y-85850000D03*
X85337500Y-85350000D03*
X85337500Y-84850000D03*
X85337500Y-84350000D03*
X85337500Y-83850000D03*
D21*
X84650000Y-83162500D03*
X84150000Y-83162500D03*
X83650000Y-83162500D03*
X83150000Y-83162500D03*
X82650000Y-83162500D03*
X82150000Y-83162500D03*
D22*
X81462500Y-83850000D03*
X81462500Y-84350000D03*
X81462500Y-84850000D03*
X81462500Y-85350000D03*
X81462500Y-85850000D03*
X81462500Y-86350000D03*
D23*
X83400000Y-85100000D03*
D27*
X62462500Y-79350000D03*
X64537500Y-79350000D03*
D37*
X50950000Y-94900000D03*
D30*
X47450000Y-94900000D03*
D14*
X45620000Y-59530000D03*
X45620000Y-57530000D03*
D25*
X89337500Y-88350000D03*
X87262500Y-88350000D03*
D38*
X40948750Y-85420000D03*
X40948750Y-86370000D03*
X40948750Y-87320000D03*
X43223750Y-87320000D03*
X43223750Y-85420000D03*
D13*
X78450000Y-86800000D03*
D39*
X83287500Y-91210000D03*
X84237500Y-91210000D03*
X85187500Y-91210000D03*
X85187500Y-88935000D03*
X84237500Y-88935000D03*
X83287500Y-88935000D03*
D40*
X82300000Y-93460000D03*
X83100000Y-93460000D03*
D41*
X84250000Y-93460000D03*
X85250000Y-93460000D03*
X85750000Y-93460000D03*
X86750000Y-93460000D03*
D40*
X87900000Y-93460000D03*
X88700000Y-93460000D03*
X88700000Y-93460000D03*
X87900000Y-93460000D03*
D41*
X87250000Y-93460000D03*
X86250000Y-93460000D03*
X84750000Y-93460000D03*
X83750000Y-93460000D03*
D40*
X83100000Y-93460000D03*
X82300000Y-93460000D03*
D42*
X81180000Y-94035000D03*
D43*
X81180000Y-98215000D03*
D42*
X89820000Y-94035000D03*
D43*
X89820000Y-98215000D03*
D16*
X57600000Y-47300000D03*
X59600000Y-47300000D03*
D11*
X52600000Y-79450000D03*
X50600000Y-79450000D03*
D13*
X59275000Y-70600000D03*
X78350000Y-83750000D03*
D28*
X33020000Y-48260000D03*
D29*
X35560000Y-48260000D03*
X33020000Y-50800000D03*
X35560000Y-50800000D03*
X33020000Y-53340000D03*
X35560000Y-53340000D03*
X33020000Y-55880000D03*
X35560000Y-55880000D03*
X33020000Y-58420000D03*
X35560000Y-58420000D03*
X33020000Y-60960000D03*
X35560000Y-60960000D03*
X33020000Y-63500000D03*
X35560000Y-63500000D03*
X33020000Y-66040000D03*
X35560000Y-66040000D03*
X33020000Y-68580000D03*
X35560000Y-68580000D03*
X33020000Y-71120000D03*
X35560000Y-71120000D03*
X33020000Y-73660000D03*
X35560000Y-73660000D03*
X33020000Y-76200000D03*
X35560000Y-76200000D03*
X33020000Y-78740000D03*
X35560000Y-78740000D03*
X33020000Y-81280000D03*
X35560000Y-81280000D03*
X33020000Y-83820000D03*
X35560000Y-83820000D03*
X33020000Y-86360000D03*
X35560000Y-86360000D03*
X33020000Y-88900000D03*
X35560000Y-88900000D03*
X33020000Y-91440000D03*
X35560000Y-91440000D03*
X33020000Y-93980000D03*
X35560000Y-93980000D03*
X33020000Y-96520000D03*
X35560000Y-96520000D03*
D34*
X55400000Y-53300000D03*
D35*
X55400000Y-52000000D03*
D36*
X55400000Y-50700000D03*
D44*
X43100000Y-70860000D03*
X45640000Y-70860000D03*
X48180000Y-70860000D03*
X50720000Y-70860000D03*
X43100000Y-62600000D03*
X45640000Y-62600000D03*
X48180000Y-62600000D03*
X50720000Y-62600000D03*
D38*
X40943750Y-76950000D03*
X40943750Y-77900000D03*
X40943750Y-78850000D03*
X43218750Y-78850000D03*
X43218750Y-76950000D03*
D45*
X82600000Y-84200000D03*
D46*
X61500000Y-79450000D03*
X79200000Y-76800000D03*
X68300000Y-80630000D03*
X52500000Y-50700000D03*
D45*
X64400000Y-75500000D03*
D46*
X59600000Y-50550000D03*
X88000000Y-72000000D03*
X90200000Y-90650000D03*
X60600000Y-62700000D03*
X44320000Y-80650000D03*
X75400000Y-82825000D03*
D45*
X65600000Y-75500000D03*
D46*
X90900000Y-84300000D03*
D45*
X84100000Y-84200000D03*
D46*
X51746376Y-57533515D03*
X65800000Y-69375000D03*
X39600000Y-83500000D03*
X89200000Y-82700000D03*
X84300000Y-73300000D03*
X85500000Y-87000000D03*
X75250000Y-93650000D03*
X41500000Y-71500000D03*
X41500000Y-69700000D03*
X90300000Y-82700000D03*
X54000000Y-59800000D03*
X85600000Y-73500000D03*
X42338909Y-54438909D03*
X86100000Y-79500000D03*
X41500000Y-72600000D03*
X84200000Y-72200000D03*
X84100000Y-64900000D03*
X86350000Y-87250000D03*
X84900000Y-72800000D03*
X63300000Y-52900000D03*
X68050000Y-66250000D03*
X66425000Y-72325000D03*
X68925000Y-72325000D03*
X83000000Y-66000000D03*
X82100000Y-73300000D03*
X81300000Y-73300000D03*
X65400000Y-80730000D03*
X81300000Y-72400000D03*
X80500000Y-72400000D03*
X66250000Y-80730000D03*
X81700000Y-66000000D03*
X82100000Y-72400000D03*
X81600000Y-71600000D03*
D45*
X59600000Y-46250000D03*
X61000000Y-76200000D03*
D46*
X50650000Y-78250000D03*
X76300000Y-85020000D03*
X76050000Y-91207500D03*
X80100000Y-88050000D03*
X81200000Y-76800000D03*
X87800000Y-76900000D03*
X83287500Y-91987500D03*
X86300000Y-92085000D03*
X77700000Y-81280000D03*
X77500000Y-86100000D03*
X90300000Y-92012500D03*
X82500000Y-92000000D03*
X89050000Y-56750000D03*
X83000000Y-44750000D03*
X70400000Y-47000000D03*
X81600000Y-51500000D03*
X80800000Y-44000000D03*
X88750000Y-59250000D03*
X83800000Y-61750000D03*
X79200000Y-49250000D03*
X76600000Y-50000000D03*
X68900000Y-54035000D03*
X89700000Y-73400000D03*
X90250000Y-65250000D03*
X85600000Y-45500000D03*
X73200000Y-41750000D03*
X75400000Y-42500000D03*
X74000000Y-47750000D03*
X71900000Y-48500000D03*
X84100000Y-50750000D03*
X77900000Y-43250000D03*
D45*
X62000000Y-73700000D03*
D46*
X73950000Y-89100000D03*
D47*
X84685001Y-90100000D02*
X85451262Y-90100000D01*
D48*
X42006250Y-76175000D02*
X40881250Y-75050000D01*
D49*
X89337500Y-88350000D02*
X89337500Y-90350000D01*
X63562500Y-62712500D02*
X63750000Y-62900000D01*
D47*
X88187500Y-91500000D02*
X89337500Y-90350000D01*
D50*
X42956250Y-80650000D02*
X44320000Y-80650000D01*
D48*
X42000000Y-81606250D02*
X42956250Y-80650000D01*
D51*
X66937500Y-76000000D02*
X65250000Y-76000000D01*
D47*
X84237500Y-90547501D02*
X84685001Y-90100000D01*
X74487500Y-82625000D02*
X75200000Y-82625000D01*
D49*
X92050000Y-97900000D02*
X90135000Y-97900000D01*
D47*
X65600000Y-69575000D02*
X65800000Y-69375000D01*
D49*
X81180000Y-94035000D02*
X81725000Y-94035000D01*
D48*
X65200000Y-64600000D02*
X64850000Y-64250000D01*
D52*
X80050000Y-75450000D02*
X80050000Y-75950000D01*
D48*
X42000000Y-82600000D02*
X42000000Y-81606250D01*
D51*
X65300000Y-75750000D02*
X65000000Y-75750000D01*
X64750000Y-76000000D02*
X65000000Y-75750000D01*
D47*
X86300000Y-91055456D02*
X86744544Y-91500000D01*
D49*
X92000000Y-84362500D02*
X89887500Y-84362500D01*
X82200000Y-93560000D02*
X82200000Y-93460000D01*
D53*
X62462500Y-79350000D02*
X61600000Y-79350000D01*
D48*
X64850000Y-64250000D02*
X64850000Y-63600000D01*
D49*
X92000000Y-94087500D02*
X89872500Y-94087500D01*
D47*
X82650000Y-85850000D02*
X83400000Y-85100000D01*
D51*
X64750000Y-75500000D02*
X65000000Y-75750000D01*
D48*
X42006250Y-77499999D02*
X42006250Y-76175000D01*
D49*
X63812500Y-62837500D02*
X63750000Y-62900000D01*
D48*
X40948750Y-86370000D02*
X41611249Y-86370000D01*
X42161250Y-87088026D02*
X42161250Y-88332500D01*
D47*
X75200000Y-82625000D02*
X75400000Y-82825000D01*
D49*
X61550000Y-62712500D02*
X60612500Y-62712500D01*
X89337500Y-90350000D02*
X89900000Y-90350000D01*
X59600000Y-50550000D02*
X59600000Y-51200000D01*
D51*
X66550000Y-74500000D02*
X65300000Y-75750000D01*
D47*
X84237500Y-91210000D02*
X84237500Y-90547501D01*
D49*
X60612500Y-62712500D02*
X60600000Y-62700000D01*
D48*
X41090000Y-83510000D02*
X42000000Y-82600000D01*
X40948750Y-86370000D02*
X41443224Y-86370000D01*
X42956250Y-80650000D02*
X42156250Y-79850000D01*
D49*
X89872500Y-94087500D02*
X89820000Y-94035000D01*
D51*
X64250000Y-75350000D02*
X64250000Y-73812500D01*
D52*
X88000000Y-73450000D02*
X88000000Y-72000000D01*
D48*
X42011250Y-84657500D02*
X40863750Y-83510000D01*
X42011250Y-85969999D02*
X42011250Y-84657500D01*
X65950000Y-64600000D02*
X65200000Y-64600000D01*
X64150000Y-62900000D02*
X63750000Y-62900000D01*
D49*
X39610000Y-83510000D02*
X39600000Y-83500000D01*
X81725000Y-94035000D02*
X82200000Y-93560000D01*
D51*
X63062500Y-76000000D02*
X64750000Y-76000000D01*
X64400000Y-75500000D02*
X64250000Y-75350000D01*
X66100000Y-75000000D02*
X66937500Y-75000000D01*
D50*
X50710000Y-57530000D02*
X43110000Y-57530000D01*
D48*
X40943750Y-77900000D02*
X41606249Y-77900000D01*
D50*
X50710000Y-57530000D02*
X51742861Y-57530000D01*
D49*
X88800000Y-93560000D02*
X88800000Y-93460000D01*
D53*
X68300000Y-79375000D02*
X68325000Y-79350000D01*
D48*
X41600000Y-77900000D02*
X40943750Y-77900000D01*
D49*
X89820000Y-94035000D02*
X89275000Y-94035000D01*
X89887500Y-84362500D02*
X89200000Y-85050000D01*
X59637500Y-49300000D02*
X59637500Y-50512500D01*
X59637500Y-50512500D02*
X59600000Y-50550000D01*
D48*
X42161250Y-88332500D02*
X42938750Y-89110000D01*
X41443224Y-86370000D02*
X42161250Y-87088026D01*
D49*
X89275000Y-94035000D02*
X88800000Y-93560000D01*
D48*
X40863750Y-83510000D02*
X41090000Y-83510000D01*
D47*
X86300000Y-90948738D02*
X86300000Y-91055456D01*
X82650000Y-87037500D02*
X82650000Y-85850000D01*
D51*
X65600000Y-75500000D02*
X66937500Y-75500000D01*
D49*
X89900000Y-90350000D02*
X90200000Y-90650000D01*
D48*
X42156250Y-79850000D02*
X42156250Y-78456250D01*
D53*
X61600000Y-79350000D02*
X61500000Y-79450000D01*
D51*
X66937500Y-74500000D02*
X66550000Y-74500000D01*
D47*
X85451262Y-90100000D02*
X86300000Y-90948738D01*
D51*
X65600000Y-75500000D02*
X66100000Y-75000000D01*
D49*
X80745000Y-93600000D02*
X81180000Y-94035000D01*
D47*
X65600000Y-70187500D02*
X65600000Y-69575000D01*
D48*
X64850000Y-63600000D02*
X64150000Y-62900000D01*
D51*
X63062500Y-75500000D02*
X64750000Y-75500000D01*
X65250000Y-76000000D02*
X65000000Y-75750000D01*
D48*
X41606249Y-77900000D02*
X42006250Y-77499999D01*
X42156250Y-78456250D02*
X41600000Y-77900000D01*
X41611249Y-86370000D02*
X42011250Y-85969999D01*
D49*
X40863750Y-83510000D02*
X39610000Y-83510000D01*
D52*
X86050000Y-75400000D02*
X88000000Y-73450000D01*
D47*
X86744544Y-91500000D02*
X88187500Y-91500000D01*
D50*
X51742861Y-57530000D02*
X51746376Y-57533515D01*
D49*
X61550000Y-62712500D02*
X63562500Y-62712500D01*
X90135000Y-97900000D02*
X89820000Y-98215000D01*
X76900000Y-93600000D02*
X80745000Y-93600000D01*
X63812500Y-60800000D02*
X63812500Y-62837500D01*
D52*
X80050000Y-75950000D02*
X79200000Y-76800000D01*
D53*
X68300000Y-80630000D02*
X68300000Y-79375000D01*
X39401250Y-86810000D02*
X39401250Y-85910000D01*
X39911250Y-87320000D02*
X39401250Y-86810000D01*
X39401250Y-85910000D02*
X39891250Y-85420000D01*
X40863750Y-87405000D02*
X40948750Y-87320000D01*
X40863750Y-89110000D02*
X40863750Y-87405000D01*
X40948750Y-87320000D02*
X39911250Y-87320000D01*
X39891250Y-85420000D02*
X40948750Y-85420000D01*
X40881250Y-80650000D02*
X40881250Y-78912500D01*
X39518750Y-78550000D02*
X39818750Y-78850000D01*
X40943750Y-76950000D02*
X39818750Y-76950000D01*
X39518750Y-77910000D02*
X39518750Y-78550000D01*
X39818750Y-76950000D02*
X39518750Y-77250000D01*
X40881250Y-78912500D02*
X40943750Y-78850000D01*
X39518750Y-77250000D02*
X39518750Y-77910000D01*
X39818750Y-78850000D02*
X40943750Y-78850000D01*
D54*
X38700000Y-76300000D02*
X38700000Y-62200000D01*
D52*
X42938750Y-85135000D02*
X43223750Y-85420000D01*
X42938750Y-83510000D02*
X42938750Y-85135000D01*
D54*
X46800000Y-84200000D02*
X45500000Y-84200000D01*
X49400000Y-86800000D02*
X46800000Y-84200000D01*
D52*
X42938750Y-83510000D02*
X42938750Y-83495000D01*
D47*
X85337500Y-86962500D02*
X85300000Y-87000000D01*
D49*
X89200000Y-82700000D02*
X90300000Y-82700000D01*
D52*
X52450000Y-53250000D02*
X43527818Y-53250000D01*
X54600000Y-57900000D02*
X54600000Y-59200000D01*
X54600000Y-59200000D02*
X54000000Y-59800000D01*
D50*
X63200430Y-80775000D02*
X61481498Y-80775000D01*
D49*
X59065000Y-74955000D02*
X59045000Y-74975000D01*
D51*
X64250000Y-79337500D02*
X64237500Y-79350000D01*
D49*
X59065000Y-72800000D02*
X56950000Y-72800000D01*
D50*
X59045000Y-78338502D02*
X59045000Y-74975000D01*
D47*
X85262500Y-87037500D02*
X85300000Y-87000000D01*
X84150000Y-87037500D02*
X85262500Y-87037500D01*
D49*
X56950000Y-72800000D02*
X53600000Y-72800000D01*
X73800000Y-93575000D02*
X75175000Y-93575000D01*
D52*
X43527818Y-53250000D02*
X42338909Y-54438909D01*
D49*
X87800000Y-80600000D02*
X89200000Y-82000000D01*
X86150000Y-80600000D02*
X86150000Y-78050000D01*
D51*
X64250000Y-77687500D02*
X64250000Y-79337500D01*
D49*
X86100000Y-87000000D02*
X85500000Y-87000000D01*
X87262500Y-90350000D02*
X87262500Y-88350000D01*
X89200000Y-82000000D02*
X89200000Y-82700000D01*
D48*
X61837500Y-71487500D02*
X63700000Y-71487500D01*
D49*
X87262500Y-88162500D02*
X86350000Y-87250000D01*
D50*
X61481498Y-80775000D02*
X59045000Y-78338502D01*
D47*
X85337500Y-86350000D02*
X85337500Y-86962500D01*
D48*
X56950000Y-72800000D02*
X56950000Y-70450000D01*
D47*
X72432500Y-81480000D02*
X63905430Y-81480000D01*
D49*
X85500000Y-87000000D02*
X85300000Y-87000000D01*
D52*
X52500000Y-53300000D02*
X52450000Y-53250000D01*
D47*
X73187500Y-80725000D02*
X72432500Y-81480000D01*
D48*
X59950000Y-69600000D02*
X61837500Y-71487500D01*
D49*
X86150000Y-80600000D02*
X87800000Y-80600000D01*
D50*
X64537500Y-79437930D02*
X63200430Y-80775000D01*
D48*
X56950000Y-70450000D02*
X57800000Y-69600000D01*
D53*
X49800000Y-82820000D02*
X49520000Y-83100000D01*
D49*
X86350000Y-87250000D02*
X86100000Y-87000000D01*
X87262500Y-88350000D02*
X87262500Y-88162500D01*
X53600000Y-72800000D02*
X52200000Y-72800000D01*
D48*
X57800000Y-69600000D02*
X59950000Y-69600000D01*
D50*
X64537500Y-79350000D02*
X64537500Y-79727500D01*
D49*
X59065000Y-72800000D02*
X59065000Y-74955000D01*
X75175000Y-93575000D02*
X75250000Y-93650000D01*
D50*
X64537500Y-79350000D02*
X64537500Y-79437930D01*
D47*
X63905430Y-81480000D02*
X63200430Y-80775000D01*
D54*
X50950000Y-94900000D02*
X54480000Y-91370000D01*
X54480000Y-91370000D02*
X54480000Y-86800000D01*
D47*
X62000000Y-59400000D02*
X67468299Y-59400000D01*
X43100000Y-62600000D02*
X45700000Y-65200000D01*
D49*
X43110000Y-59530000D02*
X43110000Y-62590000D01*
D47*
X43100000Y-62600000D02*
X43100000Y-62920000D01*
X45700000Y-65200000D02*
X56200000Y-65200000D01*
X67468299Y-59400000D02*
X69868299Y-61800000D01*
X56200000Y-65200000D02*
X62000000Y-59400000D01*
X71530000Y-61800000D02*
X72750000Y-63020000D01*
X69868299Y-61800000D02*
X71530000Y-61800000D01*
X47740000Y-64700000D02*
X55700000Y-64700000D01*
D49*
X45620000Y-59530000D02*
X45620000Y-62580000D01*
D47*
X45640000Y-62600000D02*
X45640000Y-62900000D01*
X55700000Y-64700000D02*
X61900000Y-58500000D01*
X45640000Y-62600000D02*
X47740000Y-64700000D01*
X61900000Y-58500000D02*
X68230000Y-58500000D01*
X68230000Y-58500000D02*
X70210000Y-60480000D01*
X48180000Y-62600000D02*
X48180000Y-62980000D01*
X68408299Y-57800000D02*
X69723299Y-59115000D01*
X69723299Y-59115000D02*
X71385000Y-59115000D01*
X48180000Y-62980000D02*
X49400000Y-64200000D01*
X55000000Y-64200000D02*
X61400000Y-57800000D01*
D49*
X48220000Y-59530000D02*
X48220000Y-62560000D01*
D47*
X49400000Y-64200000D02*
X55000000Y-64200000D01*
X71385000Y-59115000D02*
X72750000Y-60480000D01*
X61400000Y-57800000D02*
X68408299Y-57800000D01*
X69270000Y-57000000D02*
X70210000Y-57940000D01*
X50720000Y-62600000D02*
X51620000Y-63500000D01*
X50720000Y-62600000D02*
X50730000Y-62610000D01*
X50730000Y-62610000D02*
X50730000Y-63160000D01*
D49*
X50710000Y-59530000D02*
X50710000Y-62590000D01*
D47*
X60900000Y-57000000D02*
X69270000Y-57000000D01*
X51620000Y-63500000D02*
X54400000Y-63500000D01*
X54400000Y-63500000D02*
X60900000Y-57000000D01*
X50720000Y-62600000D02*
X50720000Y-62940000D01*
D49*
X73800000Y-95625000D02*
X76875000Y-95625000D01*
X76875000Y-95625000D02*
X76900000Y-95600000D01*
D54*
X70200000Y-96000000D02*
X70200000Y-92900000D01*
X61470000Y-95280000D02*
X61470000Y-96600000D01*
D53*
X43218750Y-76950000D02*
X43218750Y-75412500D01*
D54*
X62470000Y-97600000D02*
X68600000Y-97600000D01*
X61470000Y-96600000D02*
X62470000Y-97600000D01*
X70200000Y-92900000D02*
X56600000Y-79300000D01*
X68600000Y-97600000D02*
X70200000Y-96000000D01*
D53*
X43218750Y-75412500D02*
X42856250Y-75050000D01*
D54*
X56600000Y-79300000D02*
X56600000Y-77800000D01*
X54450000Y-75650000D02*
X45650000Y-75650000D01*
X56600000Y-77800000D02*
X54450000Y-75650000D01*
D47*
X58650000Y-52150000D02*
X57700000Y-51200000D01*
X57700000Y-51200000D02*
X57700000Y-47400000D01*
X62550000Y-52150000D02*
X58650000Y-52150000D01*
X57700000Y-47400000D02*
X57600000Y-47300000D01*
X63300000Y-52900000D02*
X62550000Y-52150000D01*
X70400000Y-76550000D02*
X70400000Y-72050000D01*
X72750000Y-68800000D02*
X72750000Y-68100000D01*
X68242722Y-71600000D02*
X68450000Y-71600000D01*
X66250000Y-73250000D02*
X66350000Y-73250000D01*
X70500000Y-76650000D02*
X70400000Y-76550000D01*
X66742548Y-72857452D02*
X66985270Y-72857452D01*
X66985270Y-72857452D02*
X68242722Y-71600000D01*
X69950000Y-71600000D02*
X72425000Y-69125000D01*
X68450000Y-71600000D02*
X69950000Y-71600000D01*
X66350000Y-73250000D02*
X66742548Y-72857452D01*
X72425000Y-69125000D02*
X72750000Y-68800000D01*
X70400000Y-72050000D02*
X69950000Y-71600000D01*
X66250000Y-73812500D02*
X66250000Y-73250000D01*
X65750000Y-73000000D02*
X65750000Y-73812500D01*
X68871701Y-71100000D02*
X67650000Y-71100000D01*
X71385000Y-66735000D02*
X71385000Y-68586701D01*
X70210000Y-65560000D02*
X71385000Y-66735000D01*
X68925000Y-77275000D02*
X70500000Y-78850000D01*
X68925000Y-72325000D02*
X68925000Y-77275000D01*
X71385000Y-68586701D02*
X68871701Y-71100000D01*
X67650000Y-71100000D02*
X65750000Y-73000000D01*
D51*
X66250000Y-79350000D02*
X66260000Y-79350000D01*
X66260000Y-79350000D02*
X67800000Y-77810000D01*
D49*
X66250000Y-80730000D02*
X65400000Y-80730000D01*
X66250000Y-79350000D02*
X66250000Y-80730000D01*
D51*
X67800000Y-77810000D02*
X67800000Y-76810000D01*
X67800000Y-76810000D02*
X67490000Y-76500000D01*
X67490000Y-76500000D02*
X66937500Y-76500000D01*
D53*
X52600000Y-79450000D02*
X52600000Y-82340000D01*
X52600000Y-82340000D02*
X51940000Y-83000000D01*
D47*
X59600000Y-47300000D02*
X59600000Y-46250000D01*
D55*
X61000000Y-76200000D02*
X61000000Y-75020000D01*
X62700000Y-75000000D02*
X62675000Y-74975000D01*
X61000000Y-75020000D02*
X61045000Y-74975000D01*
X63062500Y-75000000D02*
X62700000Y-75000000D01*
D47*
X60300000Y-77700000D02*
X60300000Y-76900000D01*
X60300000Y-76900000D02*
X61000000Y-76200000D01*
D55*
X62675000Y-74975000D02*
X61045000Y-74975000D01*
D47*
X63800000Y-64650000D02*
X63750000Y-64600000D01*
X61737500Y-64600000D02*
X61550000Y-64787500D01*
X63800000Y-66550000D02*
X63800000Y-64650000D01*
X63750000Y-64600000D02*
X61737500Y-64600000D01*
X65950000Y-62900000D02*
X70090000Y-62900000D01*
X65887500Y-62837500D02*
X65950000Y-62900000D01*
X70090000Y-62900000D02*
X70210000Y-63020000D01*
X65887500Y-60800000D02*
X65887500Y-62837500D01*
D49*
X87200000Y-85750000D02*
X87200000Y-85050000D01*
D47*
X86300000Y-85850000D02*
X86400000Y-85850000D01*
D49*
X92000000Y-86437500D02*
X87887500Y-86437500D01*
D47*
X85337500Y-85850000D02*
X86300000Y-85850000D01*
D49*
X87887500Y-86437500D02*
X87200000Y-85750000D01*
D47*
X87100000Y-85850000D02*
X87200000Y-85750000D01*
X86300000Y-85850000D02*
X87100000Y-85850000D01*
D49*
X92000000Y-86437500D02*
X92000000Y-88250000D01*
D47*
X86400000Y-85850000D02*
X87200000Y-85050000D01*
X83885096Y-82400000D02*
X79700000Y-82400000D01*
X79700000Y-82400000D02*
X79050000Y-81750000D01*
X84150000Y-83162500D02*
X84150000Y-82664904D01*
X79050000Y-81750000D02*
X79050000Y-78875000D01*
X79050000Y-78875000D02*
X79925000Y-78000000D01*
X84150000Y-82664904D02*
X83885096Y-82400000D01*
D49*
X81975000Y-78000000D02*
X84100000Y-78000000D01*
X84100000Y-78000000D02*
X84150000Y-78050000D01*
D47*
X79975000Y-80600000D02*
X81275000Y-81900000D01*
X81275000Y-81900000D02*
X84092202Y-81900000D01*
X84650000Y-82457798D02*
X84650000Y-83162500D01*
X84092202Y-81900000D02*
X84650000Y-82457798D01*
D49*
X82025000Y-80600000D02*
X84150000Y-80600000D01*
D48*
X50600000Y-78300000D02*
X50650000Y-78250000D01*
D55*
X50650000Y-79400000D02*
X50600000Y-79450000D01*
D48*
X50600000Y-79450000D02*
X50600000Y-78300000D01*
D47*
X76655000Y-69275000D02*
X77830000Y-68100000D01*
X76655000Y-80565000D02*
X76655000Y-69275000D01*
X76300000Y-80920000D02*
X76655000Y-80565000D01*
X76300000Y-85020000D02*
X76300000Y-80920000D01*
X77830000Y-80372182D02*
X77830000Y-70640000D01*
X76925000Y-81277182D02*
X77830000Y-80372182D01*
X76050000Y-91207500D02*
X76925000Y-90332500D01*
X76925000Y-90332500D02*
X76925000Y-81277182D01*
D51*
X69978248Y-68100000D02*
X67240748Y-70837500D01*
X70210000Y-68100000D02*
X69978248Y-68100000D01*
X67240748Y-70837500D02*
X65600000Y-70837500D01*
D47*
X74115000Y-80352500D02*
X74115000Y-69275000D01*
X74115000Y-69275000D02*
X75290000Y-68100000D01*
X74487500Y-80725000D02*
X74115000Y-80352500D01*
X81705456Y-75450000D02*
X80655456Y-74400000D01*
X80200000Y-74400000D02*
X79100000Y-73300000D01*
X82050000Y-75950000D02*
X81200000Y-76800000D01*
X79100000Y-73300000D02*
X79100000Y-69370000D01*
X79100000Y-69370000D02*
X80370000Y-68100000D01*
X80655456Y-74400000D02*
X80200000Y-74400000D01*
X82050000Y-75450000D02*
X82050000Y-75950000D01*
X82050000Y-75450000D02*
X81705456Y-75450000D01*
X65800000Y-66550000D02*
X67965000Y-64385000D01*
X67965000Y-64385000D02*
X71575000Y-64385000D01*
X71575000Y-64385000D02*
X72750000Y-65560000D01*
X84050000Y-75400000D02*
X82750000Y-74100000D01*
X79900000Y-71110000D02*
X80370000Y-70640000D01*
X81100000Y-74100000D02*
X79900000Y-72900000D01*
X82750000Y-74100000D02*
X81100000Y-74100000D01*
X79900000Y-72900000D02*
X79900000Y-71110000D01*
X85550000Y-76900000D02*
X84050000Y-75400000D01*
X87800000Y-76900000D02*
X85550000Y-76900000D01*
X85503120Y-94385000D02*
X85750000Y-94138120D01*
X84750000Y-93460000D02*
X84750000Y-94138120D01*
X85750000Y-93460000D02*
X85750000Y-91772500D01*
X84996880Y-94385000D02*
X85503120Y-94385000D01*
X84750000Y-94138120D02*
X84996880Y-94385000D01*
X85750000Y-91772500D02*
X85187500Y-91210000D01*
X85750000Y-94138120D02*
X85750000Y-93460000D01*
X88729695Y-95900000D02*
X92050000Y-95900000D01*
X87250000Y-94420305D02*
X88729695Y-95900000D01*
X87250000Y-93460000D02*
X87250000Y-94420305D01*
X83522500Y-92222500D02*
X83287500Y-91987500D01*
X86250000Y-93460000D02*
X86250000Y-92135000D01*
X83287500Y-91987500D02*
X83287500Y-91210000D01*
X86250000Y-92135000D02*
X86300000Y-92085000D01*
X85250000Y-93460000D02*
X85250000Y-92781880D01*
X85250000Y-92781880D02*
X84690620Y-92222500D01*
X84690620Y-92222500D02*
X83522500Y-92222500D01*
X84250000Y-94138120D02*
X82738120Y-95650000D01*
X82738120Y-95650000D02*
X79050000Y-95650000D01*
X84250000Y-93460000D02*
X84250000Y-94138120D01*
X85835096Y-85350000D02*
X86250000Y-84935096D01*
X86250000Y-83650000D02*
X87200000Y-82700000D01*
X86250000Y-84935096D02*
X86250000Y-83650000D01*
X85337500Y-85350000D02*
X85835096Y-85350000D01*
X78350000Y-81930000D02*
X77700000Y-81280000D01*
X78350000Y-83750000D02*
X78350000Y-81930000D01*
X78950000Y-84350000D02*
X78350000Y-83750000D01*
X81462500Y-84350000D02*
X78950000Y-84350000D01*
X77500000Y-86100000D02*
X78600000Y-86100000D01*
X78450000Y-86250000D02*
X78450000Y-86800000D01*
X78600000Y-86100000D02*
X78450000Y-86250000D01*
X81462500Y-84850000D02*
X79850000Y-84850000D01*
X79850000Y-84850000D02*
X78600000Y-86100000D01*
X85187500Y-88272501D02*
X84714999Y-87800000D01*
X84714999Y-87800000D02*
X83914904Y-87800000D01*
X83914904Y-87800000D02*
X83650000Y-87535096D01*
X85187500Y-88935000D02*
X85187500Y-88272501D01*
X83650000Y-87535096D02*
X83650000Y-87037500D01*
X83287500Y-88935000D02*
X83150000Y-88797500D01*
X83150000Y-88797500D02*
X83150000Y-87037500D01*
D49*
X92000000Y-90250000D02*
X92000000Y-92012500D01*
D53*
X84237500Y-88935000D02*
X84237500Y-89500184D01*
X82500000Y-90400000D02*
X82500000Y-92232316D01*
X82500000Y-92232316D02*
X83100000Y-92832316D01*
X88719816Y-92012500D02*
X90300000Y-92012500D01*
X82852500Y-90047500D02*
X82500000Y-90400000D01*
X90300000Y-92012500D02*
X92000000Y-92012500D01*
X83690184Y-90047500D02*
X82852500Y-90047500D01*
X84237500Y-89500184D02*
X83690184Y-90047500D01*
X87900000Y-93460000D02*
X87900000Y-92832316D01*
X83100000Y-92832316D02*
X83100000Y-93460000D01*
X87900000Y-92832316D02*
X88719816Y-92012500D01*
D47*
X87990000Y-55690000D02*
X89050000Y-56750000D01*
X87990000Y-55400000D02*
X87990000Y-55690000D01*
X82910000Y-44840000D02*
X83000000Y-44750000D01*
X82910000Y-52860000D02*
X82910000Y-44840000D01*
X70210000Y-55400000D02*
X70210000Y-47190000D01*
X70210000Y-47190000D02*
X70400000Y-47000000D01*
X81600000Y-54090000D02*
X81600000Y-51500000D01*
X82910000Y-55400000D02*
X81600000Y-54090000D01*
X80370000Y-52860000D02*
X80370000Y-44430000D01*
X80370000Y-44430000D02*
X80800000Y-44000000D01*
X87990000Y-58490000D02*
X88750000Y-59250000D01*
X87990000Y-57940000D02*
X87990000Y-58490000D01*
X83800000Y-59590000D02*
X83800000Y-61750000D01*
X85450000Y-57940000D02*
X83800000Y-59590000D01*
X79195000Y-49255000D02*
X79200000Y-49250000D01*
X80370000Y-55400000D02*
X79195000Y-54225000D01*
X79195000Y-54225000D02*
X79195000Y-49255000D01*
X77830000Y-55400000D02*
X76655000Y-54225000D01*
X76655000Y-54225000D02*
X76655000Y-50055000D01*
X76655000Y-50055000D02*
X76600000Y-50000000D01*
X68900000Y-55800000D02*
X68900000Y-54035000D01*
X71575000Y-56765000D02*
X69865000Y-56765000D01*
X69865000Y-56765000D02*
X68900000Y-55800000D01*
X72750000Y-57940000D02*
X71575000Y-56765000D01*
X86815000Y-61845000D02*
X85450000Y-60480000D01*
X88476701Y-61845000D02*
X86815000Y-61845000D01*
X89700000Y-73400000D02*
X89600000Y-73300000D01*
X89600000Y-73300000D02*
X89600000Y-62968299D01*
X89600000Y-62968299D02*
X88476701Y-61845000D01*
X90250000Y-65250000D02*
X90250000Y-62740000D01*
X90250000Y-62740000D02*
X87990000Y-60480000D01*
X85450000Y-52860000D02*
X85450000Y-45650000D01*
X85450000Y-45650000D02*
X85600000Y-45500000D01*
X72750000Y-52860000D02*
X72750000Y-42250000D01*
X73200000Y-41800000D02*
X73200000Y-41750000D01*
X72750000Y-42250000D02*
X73200000Y-41800000D01*
X75290000Y-52860000D02*
X75290000Y-42610000D01*
X75290000Y-42610000D02*
X75400000Y-42500000D01*
X74000000Y-54110000D02*
X74000000Y-47750000D01*
X75290000Y-55400000D02*
X74000000Y-54110000D01*
X71575000Y-48825000D02*
X71900000Y-48500000D01*
X72750000Y-55400000D02*
X71575000Y-54225000D01*
X71575000Y-54225000D02*
X71575000Y-48825000D01*
X84100000Y-54050000D02*
X84100000Y-50750000D01*
X85450000Y-55400000D02*
X84100000Y-54050000D01*
X77830000Y-43320000D02*
X77900000Y-43250000D01*
X77830000Y-52860000D02*
X77830000Y-43320000D01*
X39450000Y-49950000D02*
X41500000Y-52000000D01*
X41500000Y-52000000D02*
X52500000Y-52000000D01*
X56505000Y-50340411D02*
X56505000Y-51895000D01*
X56505000Y-51895000D02*
X56400000Y-52000000D01*
X48550000Y-54450000D02*
X52814589Y-54450000D01*
X53700000Y-50935411D02*
X54795502Y-49839909D01*
X55400000Y-52000000D02*
X56400000Y-52000000D01*
X52814589Y-54450000D02*
X53700000Y-53564589D01*
X53700000Y-53564589D02*
X53700000Y-50935411D01*
X56400000Y-52000000D02*
X56500000Y-52000000D01*
X56004498Y-49839909D02*
X56505000Y-50340411D01*
X56500000Y-52000000D02*
X57700000Y-53200000D01*
X54795502Y-49839909D02*
X56004498Y-49839909D01*
X54645000Y-50700000D02*
X54295000Y-51050000D01*
X55400000Y-50700000D02*
X54645000Y-50700000D01*
X54295000Y-51050000D02*
X54295000Y-55595000D01*
X54295000Y-55595000D02*
X56600000Y-57900000D01*
X58650000Y-54150000D02*
X59600000Y-53200000D01*
X55400000Y-53300000D02*
X56250000Y-54150000D01*
X56250000Y-54150000D02*
X58650000Y-54150000D01*
D55*
X63062500Y-74500000D02*
X62500000Y-74500000D01*
D47*
X61965000Y-73700000D02*
X61065000Y-72800000D01*
X61065000Y-72390000D02*
X61065000Y-72800000D01*
X59275000Y-70600000D02*
X61065000Y-72390000D01*
D51*
X61535000Y-73535000D02*
X61065000Y-73065000D01*
D55*
X62500000Y-74500000D02*
X61065000Y-73065000D01*
D47*
X62000000Y-73700000D02*
X61965000Y-73700000D01*
X62200000Y-68425000D02*
X62250000Y-68475000D01*
X60550000Y-68475000D02*
X60525000Y-68450000D01*
X62375000Y-68475000D02*
X60550000Y-68475000D01*
X64375000Y-68475000D02*
X64250000Y-68475000D01*
X63737500Y-69975000D02*
X63737500Y-69112500D01*
X63737500Y-69112500D02*
X64375000Y-68475000D01*
X73950000Y-84375000D02*
X73837500Y-84262500D01*
X73837500Y-84262500D02*
X73837500Y-82625000D01*
X73950000Y-86375000D02*
X73950000Y-89100000D01*
G04 #@! TA.AperFunction,Conductor*
G36*
X45390505Y-81949685D02*
G01*
X45418415Y-81974246D01*
X46670949Y-83465414D01*
X46698994Y-83529408D01*
X46700000Y-83545168D01*
X46700000Y-84858126D01*
X46680315Y-84925165D01*
X46674616Y-84933299D01*
X45418470Y-86581173D01*
X45362173Y-86622555D01*
X45319854Y-86630000D01*
X43874204Y-86630000D01*
X43859420Y-86629115D01*
X43819831Y-86624361D01*
X43779353Y-86619500D01*
X43779352Y-86619500D01*
X42705250Y-86619500D01*
X42638211Y-86599815D01*
X42592456Y-86547011D01*
X42581250Y-86495500D01*
X42581250Y-86344000D01*
X42600935Y-86276961D01*
X42653739Y-86231206D01*
X42705250Y-86220000D01*
X42973750Y-86220000D01*
X43473750Y-86220000D01*
X43801884Y-86220000D01*
X43801899Y-86219999D01*
X43838739Y-86217100D01*
X43838745Y-86217099D01*
X43996443Y-86171283D01*
X43996446Y-86171282D01*
X44137802Y-86087685D01*
X44137811Y-86087678D01*
X44253928Y-85971561D01*
X44253935Y-85971552D01*
X44337531Y-85830198D01*
X44383350Y-85672486D01*
X44383545Y-85670001D01*
X44383545Y-85670000D01*
X43473750Y-85670000D01*
X43473750Y-86220000D01*
X42973750Y-86220000D01*
X42973750Y-85544000D01*
X42993435Y-85476961D01*
X43046239Y-85431206D01*
X43097750Y-85420000D01*
X43223750Y-85420000D01*
X43223750Y-85294000D01*
X43243435Y-85226961D01*
X43296239Y-85181206D01*
X43347750Y-85170000D01*
X44383545Y-85170000D01*
X44383545Y-85169998D01*
X44383350Y-85167513D01*
X44337531Y-85009801D01*
X44253935Y-84868447D01*
X44253928Y-84868438D01*
X44137811Y-84752321D01*
X44137802Y-84752314D01*
X43996446Y-84668717D01*
X43996445Y-84668716D01*
X43930953Y-84649689D01*
X43872068Y-84612082D01*
X43842862Y-84548610D01*
X43852608Y-84479423D01*
X43868290Y-84453693D01*
X43868568Y-84453341D01*
X43960606Y-84304124D01*
X43960608Y-84304119D01*
X44015755Y-84137697D01*
X44015756Y-84137690D01*
X44026249Y-84034986D01*
X44026250Y-84034973D01*
X44026250Y-83760000D01*
X43062750Y-83760000D01*
X42995711Y-83740315D01*
X42949956Y-83687511D01*
X42938750Y-83636000D01*
X42938750Y-83510000D01*
X42812750Y-83510000D01*
X42745711Y-83490315D01*
X42699956Y-83437511D01*
X42688750Y-83386000D01*
X42688750Y-83260000D01*
X43188750Y-83260000D01*
X44026249Y-83260000D01*
X44026249Y-82985028D01*
X44026248Y-82985013D01*
X44015755Y-82882302D01*
X43960608Y-82715880D01*
X43960606Y-82715875D01*
X43868565Y-82566654D01*
X43744595Y-82442684D01*
X43595374Y-82350643D01*
X43595369Y-82350641D01*
X43428947Y-82295494D01*
X43428940Y-82295493D01*
X43326236Y-82285000D01*
X43188750Y-82285000D01*
X43188750Y-83260000D01*
X42688750Y-83260000D01*
X42688750Y-82285000D01*
X42673888Y-82270138D01*
X42657461Y-82265315D01*
X42611706Y-82212511D01*
X42600500Y-82161000D01*
X42600500Y-82054000D01*
X42620185Y-81986961D01*
X42672989Y-81941206D01*
X42724500Y-81930000D01*
X45323466Y-81930000D01*
X45390505Y-81949685D01*
G37*
G04 #@! TD.AperFunction*
G04 #@! TA.AperFunction,Conductor*
G36*
X37722673Y-59518907D02*
G01*
X37727417Y-59522579D01*
X37820214Y-59599000D01*
X39363935Y-60870299D01*
X39396835Y-60921886D01*
X39400000Y-60946720D01*
X39400000Y-62601000D01*
X39381093Y-62659191D01*
X39331593Y-62695155D01*
X39301000Y-62700000D01*
X38033000Y-62700000D01*
X37974809Y-62681093D01*
X37973600Y-62680200D01*
X37600001Y-62400001D01*
X37600000Y-62400000D01*
X37599998Y-62400000D01*
X31799000Y-62400000D01*
X31740809Y-62381093D01*
X31704845Y-62331593D01*
X31700000Y-62301000D01*
X31700000Y-60959996D01*
X34504417Y-60959996D01*
X34504417Y-60960003D01*
X34524698Y-61165929D01*
X34524699Y-61165934D01*
X34584768Y-61363954D01*
X34682316Y-61546452D01*
X34813585Y-61706404D01*
X34813590Y-61706410D01*
X34813595Y-61706414D01*
X34973547Y-61837683D01*
X34973548Y-61837683D01*
X34973550Y-61837685D01*
X35156046Y-61935232D01*
X35293997Y-61977078D01*
X35354065Y-61995300D01*
X35354070Y-61995301D01*
X35559997Y-62015583D01*
X35560000Y-62015583D01*
X35560003Y-62015583D01*
X35765929Y-61995301D01*
X35765934Y-61995300D01*
X35963954Y-61935232D01*
X36146450Y-61837685D01*
X36306410Y-61706410D01*
X36437685Y-61546450D01*
X36535232Y-61363954D01*
X36595300Y-61165934D01*
X36595301Y-61165929D01*
X36615583Y-60960003D01*
X36615583Y-60959996D01*
X36595301Y-60754070D01*
X36595300Y-60754065D01*
X36577078Y-60693997D01*
X36535232Y-60556046D01*
X36437685Y-60373550D01*
X36306410Y-60213590D01*
X36306404Y-60213585D01*
X36146452Y-60082316D01*
X35963954Y-59984768D01*
X35765934Y-59924699D01*
X35765929Y-59924698D01*
X35560003Y-59904417D01*
X35559997Y-59904417D01*
X35354070Y-59924698D01*
X35354065Y-59924699D01*
X35156045Y-59984768D01*
X34973547Y-60082316D01*
X34813595Y-60213585D01*
X34813585Y-60213595D01*
X34682316Y-60373547D01*
X34584768Y-60556045D01*
X34524699Y-60754065D01*
X34524698Y-60754070D01*
X34504417Y-60959996D01*
X31700000Y-60959996D01*
X31700000Y-59599000D01*
X31718907Y-59540809D01*
X31768407Y-59504845D01*
X31799000Y-59500000D01*
X37664482Y-59500000D01*
X37722673Y-59518907D01*
G37*
G04 #@! TD.AperFunction*
G04 #@! TA.AperFunction,Conductor*
G36*
X32777681Y-82304263D02*
G01*
X32814065Y-82315300D01*
X32814070Y-82315301D01*
X33019997Y-82335583D01*
X33020000Y-82335583D01*
X33020003Y-82335583D01*
X33225929Y-82315301D01*
X33225934Y-82315300D01*
X33262319Y-82304263D01*
X33291057Y-82300000D01*
X35288943Y-82300000D01*
X35317681Y-82304263D01*
X35354065Y-82315300D01*
X35354070Y-82315301D01*
X35559997Y-82335583D01*
X35560000Y-82335583D01*
X35560003Y-82335583D01*
X35765929Y-82315301D01*
X35765934Y-82315300D01*
X35802319Y-82304263D01*
X35831057Y-82300000D01*
X37758992Y-82300000D01*
X37817183Y-82318907D01*
X37828996Y-82328996D01*
X38271004Y-82771004D01*
X38298781Y-82825521D01*
X38300000Y-82841008D01*
X38300000Y-83700000D01*
X39200000Y-84700000D01*
X39200000Y-88000000D01*
X36800000Y-85300000D01*
X31799000Y-85300000D01*
X31740809Y-85281093D01*
X31704845Y-85231593D01*
X31700000Y-85201000D01*
X31700000Y-83819996D01*
X34504417Y-83819996D01*
X34504417Y-83820003D01*
X34524698Y-84025929D01*
X34524699Y-84025934D01*
X34584768Y-84223954D01*
X34682316Y-84406452D01*
X34813585Y-84566404D01*
X34813590Y-84566410D01*
X34813595Y-84566414D01*
X34973547Y-84697683D01*
X34973548Y-84697683D01*
X34973550Y-84697685D01*
X35156046Y-84795232D01*
X35293997Y-84837078D01*
X35354065Y-84855300D01*
X35354070Y-84855301D01*
X35559997Y-84875583D01*
X35560000Y-84875583D01*
X35560003Y-84875583D01*
X35765929Y-84855301D01*
X35765934Y-84855300D01*
X35963954Y-84795232D01*
X36146450Y-84697685D01*
X36306410Y-84566410D01*
X36437685Y-84406450D01*
X36535232Y-84223954D01*
X36595300Y-84025934D01*
X36595301Y-84025929D01*
X36615583Y-83820003D01*
X36615583Y-83819996D01*
X36595301Y-83614070D01*
X36595300Y-83614065D01*
X36577078Y-83553997D01*
X36535232Y-83416046D01*
X36437685Y-83233550D01*
X36306410Y-83073590D01*
X36306404Y-83073585D01*
X36146452Y-82942316D01*
X35963954Y-82844768D01*
X35765934Y-82784699D01*
X35765929Y-82784698D01*
X35560003Y-82764417D01*
X35559997Y-82764417D01*
X35354070Y-82784698D01*
X35354065Y-82784699D01*
X35156045Y-82844768D01*
X34973547Y-82942316D01*
X34813595Y-83073585D01*
X34813585Y-83073595D01*
X34682316Y-83233547D01*
X34584768Y-83416045D01*
X34524699Y-83614065D01*
X34524698Y-83614070D01*
X34504417Y-83819996D01*
X31700000Y-83819996D01*
X31700000Y-82399000D01*
X31718907Y-82340809D01*
X31768407Y-82304845D01*
X31799000Y-82300000D01*
X32748943Y-82300000D01*
X32777681Y-82304263D01*
G37*
G04 #@! TD.AperFunction*
G04 #@! TA.AperFunction,Conductor*
G36*
X40114480Y-76019685D02*
G01*
X40135122Y-76036319D01*
X40137484Y-76038681D01*
X40170969Y-76100004D01*
X40165985Y-76169696D01*
X40124113Y-76225629D01*
X40112925Y-76233094D01*
X40029694Y-76282317D01*
X40029688Y-76282321D01*
X39913571Y-76398438D01*
X39913564Y-76398447D01*
X39829968Y-76539801D01*
X39784149Y-76697513D01*
X39783954Y-76699998D01*
X39783955Y-76700000D01*
X40819750Y-76700000D01*
X40886789Y-76719685D01*
X40932544Y-76772489D01*
X40943750Y-76824000D01*
X40943750Y-77075500D01*
X40924065Y-77142539D01*
X40871261Y-77188294D01*
X40819750Y-77199500D01*
X40388147Y-77199500D01*
X40384456Y-77199721D01*
X40384444Y-77199529D01*
X40376569Y-77200000D01*
X39783955Y-77200000D01*
X39783954Y-77200001D01*
X39784149Y-77202486D01*
X39829968Y-77360198D01*
X39897035Y-77473602D01*
X39914218Y-77541326D01*
X39905658Y-77582213D01*
X39891372Y-77618438D01*
X39885438Y-77667853D01*
X39880750Y-77706898D01*
X39880750Y-78093102D01*
X39885395Y-78131785D01*
X39891372Y-78181563D01*
X39905657Y-78217785D01*
X39911939Y-78287372D01*
X39897035Y-78326397D01*
X39829968Y-78439801D01*
X39784149Y-78597513D01*
X39783954Y-78599998D01*
X39783955Y-78600000D01*
X40376569Y-78600000D01*
X40384444Y-78600470D01*
X40384456Y-78600279D01*
X40388147Y-78600500D01*
X40388148Y-78600500D01*
X40819750Y-78600500D01*
X40886789Y-78620185D01*
X40932544Y-78672989D01*
X40943750Y-78724500D01*
X40943750Y-78850000D01*
X41069750Y-78850000D01*
X41136789Y-78869685D01*
X41182544Y-78922489D01*
X41193750Y-78974000D01*
X41193750Y-79666138D01*
X41174065Y-79733177D01*
X41157431Y-79753819D01*
X41131250Y-79780000D01*
X41131250Y-81874999D01*
X41268714Y-81874999D01*
X41269164Y-81874976D01*
X41269260Y-81874999D01*
X41271884Y-81874999D01*
X41271884Y-81875625D01*
X41337122Y-81891209D01*
X41385515Y-81941607D01*
X41399500Y-81998814D01*
X41399500Y-82260789D01*
X41379815Y-82327828D01*
X41327011Y-82373583D01*
X41269413Y-82383781D01*
X41269382Y-82384596D01*
X41266951Y-82384500D01*
X41266944Y-82384500D01*
X40460556Y-82384500D01*
X40460548Y-82384500D01*
X40423682Y-82387401D01*
X40423676Y-82387402D01*
X40265856Y-82433254D01*
X40265853Y-82433255D01*
X40224228Y-82457871D01*
X40182191Y-82482732D01*
X40119072Y-82500000D01*
X39251362Y-82500000D01*
X39184323Y-82480315D01*
X39163681Y-82463681D01*
X38035931Y-81335931D01*
X38002446Y-81274608D01*
X37999616Y-81249186D01*
X37999056Y-81174986D01*
X39793751Y-81174986D01*
X39804244Y-81277697D01*
X39859391Y-81444119D01*
X39859393Y-81444124D01*
X39951434Y-81593345D01*
X40075404Y-81717315D01*
X40224625Y-81809356D01*
X40224630Y-81809358D01*
X40391052Y-81864505D01*
X40391059Y-81864506D01*
X40493769Y-81874999D01*
X40631249Y-81874999D01*
X40631250Y-81874998D01*
X40631250Y-80900000D01*
X39793751Y-80900000D01*
X39793751Y-81174986D01*
X37999056Y-81174986D01*
X37993207Y-80400000D01*
X37983396Y-79100001D01*
X39783954Y-79100001D01*
X39784149Y-79102486D01*
X39829968Y-79260198D01*
X39913564Y-79401552D01*
X39913571Y-79401561D01*
X39997368Y-79485358D01*
X40030853Y-79546681D01*
X40025869Y-79616373D01*
X39997369Y-79660719D01*
X39951434Y-79706654D01*
X39859393Y-79855875D01*
X39859391Y-79855880D01*
X39804244Y-80022302D01*
X39804243Y-80022309D01*
X39793750Y-80125013D01*
X39793750Y-80400000D01*
X40631250Y-80400000D01*
X40631250Y-79408862D01*
X40650935Y-79341823D01*
X40667569Y-79321181D01*
X40693750Y-79295000D01*
X40693750Y-79100000D01*
X39783955Y-79100000D01*
X39783954Y-79100001D01*
X37983396Y-79100001D01*
X37960943Y-76124936D01*
X37980121Y-76057750D01*
X38032578Y-76011598D01*
X38084939Y-76000000D01*
X40047441Y-76000000D01*
X40114480Y-76019685D01*
G37*
G04 #@! TD.AperFunction*
G04 #@! TA.AperFunction,Conductor*
G36*
X52543039Y-68619685D02*
G01*
X52588794Y-68672489D01*
X52600000Y-68724000D01*
X52600000Y-73056000D01*
X52580315Y-73123039D01*
X52527511Y-73168794D01*
X52476000Y-73180000D01*
X45355586Y-73180000D01*
X45302468Y-73168047D01*
X45223503Y-73130611D01*
X45156463Y-73110926D01*
X45156455Y-73110924D01*
X45042216Y-73094500D01*
X42424000Y-73094500D01*
X42423991Y-73094500D01*
X42337802Y-73103767D01*
X42286293Y-73114973D01*
X42286290Y-73114974D01*
X42214640Y-73137690D01*
X42214637Y-73137691D01*
X42214633Y-73137693D01*
X42176783Y-73161262D01*
X42111240Y-73180000D01*
X41124000Y-73180000D01*
X41056961Y-73160315D01*
X41011206Y-73107511D01*
X41000000Y-73056000D01*
X41000000Y-71987844D01*
X41840000Y-71987844D01*
X41846401Y-72047372D01*
X41846403Y-72047379D01*
X41896645Y-72182086D01*
X41896649Y-72182093D01*
X41982809Y-72297187D01*
X41982812Y-72297190D01*
X42097906Y-72383350D01*
X42097913Y-72383354D01*
X42232620Y-72433596D01*
X42232627Y-72433598D01*
X42292155Y-72439999D01*
X42292172Y-72440000D01*
X42850000Y-72440000D01*
X43350000Y-72440000D01*
X43907828Y-72440000D01*
X43907844Y-72439999D01*
X43967372Y-72433598D01*
X43967379Y-72433596D01*
X44102086Y-72383354D01*
X44102093Y-72383350D01*
X44217187Y-72297190D01*
X44217190Y-72297187D01*
X44270734Y-72225663D01*
X44326667Y-72183792D01*
X44396359Y-72178808D01*
X44457682Y-72212294D01*
X44469266Y-72225663D01*
X44522809Y-72297187D01*
X44522812Y-72297190D01*
X44637906Y-72383350D01*
X44637913Y-72383354D01*
X44772620Y-72433596D01*
X44772627Y-72433598D01*
X44832155Y-72439999D01*
X44832172Y-72440000D01*
X45390000Y-72440000D01*
X45890000Y-72440000D01*
X46447828Y-72440000D01*
X46447844Y-72439999D01*
X46507372Y-72433598D01*
X46507379Y-72433596D01*
X46642086Y-72383354D01*
X46642093Y-72383350D01*
X46757187Y-72297190D01*
X46757190Y-72297187D01*
X46810734Y-72225663D01*
X46866667Y-72183792D01*
X46936359Y-72178808D01*
X46997682Y-72212294D01*
X47009266Y-72225663D01*
X47062809Y-72297187D01*
X47062812Y-72297190D01*
X47177906Y-72383350D01*
X47177913Y-72383354D01*
X47312620Y-72433596D01*
X47312627Y-72433598D01*
X47372155Y-72439999D01*
X47372172Y-72440000D01*
X47930000Y-72440000D01*
X48430000Y-72440000D01*
X48987828Y-72440000D01*
X48987844Y-72439999D01*
X49047372Y-72433598D01*
X49047379Y-72433596D01*
X49182086Y-72383354D01*
X49182093Y-72383350D01*
X49297187Y-72297190D01*
X49297190Y-72297187D01*
X49350734Y-72225663D01*
X49406667Y-72183792D01*
X49476359Y-72178808D01*
X49537682Y-72212294D01*
X49549266Y-72225663D01*
X49602809Y-72297187D01*
X49602812Y-72297190D01*
X49717906Y-72383350D01*
X49717913Y-72383354D01*
X49852620Y-72433596D01*
X49852627Y-72433598D01*
X49912155Y-72439999D01*
X49912172Y-72440000D01*
X50470000Y-72440000D01*
X50970000Y-72440000D01*
X51527828Y-72440000D01*
X51527844Y-72439999D01*
X51587372Y-72433598D01*
X51587379Y-72433596D01*
X51722086Y-72383354D01*
X51722093Y-72383350D01*
X51837187Y-72297190D01*
X51837190Y-72297187D01*
X51923350Y-72182093D01*
X51923354Y-72182086D01*
X51973596Y-72047379D01*
X51973598Y-72047372D01*
X51979999Y-71987844D01*
X51980000Y-71987827D01*
X51980000Y-71110000D01*
X50970000Y-71110000D01*
X50970000Y-72440000D01*
X50470000Y-72440000D01*
X50470000Y-71110000D01*
X48430000Y-71110000D01*
X48430000Y-72440000D01*
X47930000Y-72440000D01*
X47930000Y-71110000D01*
X45890000Y-71110000D01*
X45890000Y-72440000D01*
X45390000Y-72440000D01*
X45390000Y-71110000D01*
X43350000Y-71110000D01*
X43350000Y-72440000D01*
X42850000Y-72440000D01*
X42850000Y-71110000D01*
X41840000Y-71110000D01*
X41840000Y-71987844D01*
X41000000Y-71987844D01*
X41000000Y-69732155D01*
X41840000Y-69732155D01*
X41840000Y-70610000D01*
X42850000Y-70610000D01*
X43350000Y-70610000D01*
X45390000Y-70610000D01*
X45890000Y-70610000D01*
X47930000Y-70610000D01*
X48430000Y-70610000D01*
X50470000Y-70610000D01*
X50970000Y-70610000D01*
X51980000Y-70610000D01*
X51980000Y-69732172D01*
X51979999Y-69732155D01*
X51973598Y-69672627D01*
X51973596Y-69672620D01*
X51923354Y-69537913D01*
X51923350Y-69537906D01*
X51837190Y-69422812D01*
X51837187Y-69422809D01*
X51722093Y-69336649D01*
X51722086Y-69336645D01*
X51587379Y-69286403D01*
X51587372Y-69286401D01*
X51527844Y-69280000D01*
X50970000Y-69280000D01*
X50970000Y-70610000D01*
X50470000Y-70610000D01*
X50470000Y-69280000D01*
X49912155Y-69280000D01*
X49852627Y-69286401D01*
X49852620Y-69286403D01*
X49717913Y-69336645D01*
X49717906Y-69336649D01*
X49602812Y-69422809D01*
X49549266Y-69494337D01*
X49493332Y-69536207D01*
X49423640Y-69541191D01*
X49362317Y-69507705D01*
X49350734Y-69494337D01*
X49297187Y-69422809D01*
X49182093Y-69336649D01*
X49182086Y-69336645D01*
X49047379Y-69286403D01*
X49047372Y-69286401D01*
X48987844Y-69280000D01*
X48430000Y-69280000D01*
X48430000Y-70610000D01*
X47930000Y-70610000D01*
X47930000Y-69280000D01*
X47372155Y-69280000D01*
X47312627Y-69286401D01*
X47312620Y-69286403D01*
X47177913Y-69336645D01*
X47177906Y-69336649D01*
X47062812Y-69422809D01*
X47009266Y-69494337D01*
X46953332Y-69536207D01*
X46883640Y-69541191D01*
X46822317Y-69507705D01*
X46810734Y-69494337D01*
X46757187Y-69422809D01*
X46642093Y-69336649D01*
X46642086Y-69336645D01*
X46507379Y-69286403D01*
X46507372Y-69286401D01*
X46447844Y-69280000D01*
X45890000Y-69280000D01*
X45890000Y-70610000D01*
X45390000Y-70610000D01*
X45390000Y-69280000D01*
X44832155Y-69280000D01*
X44772627Y-69286401D01*
X44772620Y-69286403D01*
X44637913Y-69336645D01*
X44637906Y-69336649D01*
X44522812Y-69422809D01*
X44469266Y-69494337D01*
X44413332Y-69536207D01*
X44343640Y-69541191D01*
X44282317Y-69507705D01*
X44270734Y-69494337D01*
X44217187Y-69422809D01*
X44102093Y-69336649D01*
X44102086Y-69336645D01*
X43967379Y-69286403D01*
X43967372Y-69286401D01*
X43907844Y-69280000D01*
X43350000Y-69280000D01*
X43350000Y-70610000D01*
X42850000Y-70610000D01*
X42850000Y-69280000D01*
X42292155Y-69280000D01*
X42232627Y-69286401D01*
X42232620Y-69286403D01*
X42097913Y-69336645D01*
X42097906Y-69336649D01*
X41982812Y-69422809D01*
X41982809Y-69422812D01*
X41896649Y-69537906D01*
X41896645Y-69537913D01*
X41846403Y-69672620D01*
X41846401Y-69672627D01*
X41840000Y-69732155D01*
X41000000Y-69732155D01*
X41000000Y-68724000D01*
X41019685Y-68656961D01*
X41072489Y-68611206D01*
X41124000Y-68600000D01*
X52476000Y-68600000D01*
X52543039Y-68619685D01*
G37*
G04 #@! TD.AperFunction*
G04 #@! TA.AperFunction,Conductor*
G36*
X39867828Y-84719685D02*
G01*
X39913583Y-84772489D01*
X39923527Y-84841647D01*
X39907521Y-84887121D01*
X39834968Y-85009801D01*
X39789149Y-85167513D01*
X39788954Y-85169998D01*
X39788955Y-85170000D01*
X40824750Y-85170000D01*
X40891789Y-85189685D01*
X40937544Y-85242489D01*
X40948750Y-85294000D01*
X40948750Y-85545500D01*
X40929065Y-85612539D01*
X40876261Y-85658294D01*
X40824750Y-85669500D01*
X40393147Y-85669500D01*
X40389456Y-85669721D01*
X40389444Y-85669529D01*
X40381569Y-85670000D01*
X39788955Y-85670000D01*
X39788954Y-85670001D01*
X39789149Y-85672486D01*
X39834968Y-85830198D01*
X39902035Y-85943602D01*
X39919218Y-86011326D01*
X39910658Y-86052213D01*
X39896372Y-86088438D01*
X39890438Y-86137853D01*
X39885750Y-86176898D01*
X39885750Y-86563102D01*
X39890532Y-86602923D01*
X39896372Y-86651563D01*
X39910657Y-86687785D01*
X39916939Y-86757372D01*
X39902035Y-86796397D01*
X39834968Y-86909801D01*
X39789149Y-87067513D01*
X39788954Y-87069998D01*
X39788955Y-87070000D01*
X40381569Y-87070000D01*
X40389444Y-87070470D01*
X40389456Y-87070279D01*
X40393147Y-87070500D01*
X40393148Y-87070500D01*
X40824750Y-87070500D01*
X40891789Y-87090185D01*
X40937544Y-87142989D01*
X40948750Y-87194500D01*
X40948750Y-87320000D01*
X41074750Y-87320000D01*
X41141789Y-87339685D01*
X41187544Y-87392489D01*
X41198750Y-87444000D01*
X41198750Y-88126000D01*
X41179065Y-88193039D01*
X41126261Y-88238794D01*
X41124593Y-88239156D01*
X41113750Y-88250000D01*
X41113750Y-90334999D01*
X41251222Y-90334999D01*
X41251236Y-90334998D01*
X41360681Y-90323818D01*
X41360920Y-90326158D01*
X41419703Y-90330551D01*
X41475503Y-90372600D01*
X41499712Y-90438141D01*
X41500000Y-90446594D01*
X41500000Y-90876000D01*
X41480315Y-90943039D01*
X41427511Y-90988794D01*
X41376000Y-91000000D01*
X38124000Y-91000000D01*
X38056961Y-90980315D01*
X38011206Y-90927511D01*
X38000000Y-90876000D01*
X38000000Y-89634986D01*
X39776251Y-89634986D01*
X39786744Y-89737697D01*
X39841891Y-89904119D01*
X39841893Y-89904124D01*
X39933934Y-90053345D01*
X40057904Y-90177315D01*
X40207125Y-90269356D01*
X40207130Y-90269358D01*
X40373552Y-90324505D01*
X40373559Y-90324506D01*
X40476269Y-90334999D01*
X40613749Y-90334999D01*
X40613750Y-90334998D01*
X40613750Y-89360000D01*
X39776251Y-89360000D01*
X39776251Y-89634986D01*
X38000000Y-89634986D01*
X38000000Y-88585013D01*
X39776250Y-88585013D01*
X39776250Y-88860000D01*
X40613750Y-88860000D01*
X40613750Y-87879000D01*
X40633435Y-87811961D01*
X40686239Y-87766206D01*
X40687906Y-87765843D01*
X40698750Y-87755000D01*
X40698750Y-87570000D01*
X39788955Y-87570000D01*
X39788954Y-87570001D01*
X39789149Y-87572486D01*
X39834968Y-87730198D01*
X39918564Y-87871552D01*
X39918571Y-87871561D01*
X39986118Y-87939108D01*
X40019603Y-88000431D01*
X40014619Y-88070123D01*
X39986119Y-88114469D01*
X39933934Y-88166654D01*
X39841893Y-88315875D01*
X39841891Y-88315880D01*
X39786744Y-88482302D01*
X39786743Y-88482309D01*
X39776250Y-88585013D01*
X38000000Y-88585013D01*
X38000000Y-86650000D01*
X39200000Y-88000000D01*
X39200000Y-84700000D01*
X39200001Y-84700000D01*
X39800789Y-84700000D01*
X39867828Y-84719685D01*
G37*
G04 #@! TD.AperFunction*
G04 #@! TA.AperFunction,Conductor*
G36*
X45109255Y-73519685D02*
G01*
X45137165Y-73544246D01*
X46389699Y-75035414D01*
X46417744Y-75099408D01*
X46418750Y-75115168D01*
X46418750Y-76428126D01*
X46399065Y-76495165D01*
X46393366Y-76503299D01*
X45137220Y-78151173D01*
X45080923Y-78192555D01*
X45038604Y-78200000D01*
X43987500Y-78200000D01*
X43942010Y-78191354D01*
X43913445Y-78180089D01*
X43862813Y-78160122D01*
X43810228Y-78153808D01*
X43774352Y-78149500D01*
X43774347Y-78149500D01*
X42744138Y-78149500D01*
X42677099Y-78129815D01*
X42642420Y-78093447D01*
X42641720Y-78093985D01*
X42636771Y-78087536D01*
X42636770Y-78087534D01*
X42528859Y-77979623D01*
X42495375Y-77918300D01*
X42500359Y-77848608D01*
X42509147Y-77829954D01*
X42519897Y-77811335D01*
X42570460Y-77763121D01*
X42637010Y-77749717D01*
X42640597Y-77749999D01*
X42640616Y-77750000D01*
X42968750Y-77750000D01*
X43468750Y-77750000D01*
X43796884Y-77750000D01*
X43796899Y-77749999D01*
X43833739Y-77747100D01*
X43833745Y-77747099D01*
X43991443Y-77701283D01*
X43991446Y-77701282D01*
X44132802Y-77617685D01*
X44132811Y-77617678D01*
X44248928Y-77501561D01*
X44248935Y-77501552D01*
X44332531Y-77360198D01*
X44378350Y-77202486D01*
X44378545Y-77200001D01*
X44378545Y-77200000D01*
X43468750Y-77200000D01*
X43468750Y-77750000D01*
X42968750Y-77750000D01*
X42968750Y-77074000D01*
X42988435Y-77006961D01*
X43041239Y-76961206D01*
X43092750Y-76950000D01*
X43218750Y-76950000D01*
X43218750Y-76824000D01*
X43238435Y-76756961D01*
X43291239Y-76711206D01*
X43342750Y-76700000D01*
X44378545Y-76700000D01*
X44378545Y-76699998D01*
X44378350Y-76697513D01*
X44332531Y-76539801D01*
X44248935Y-76398447D01*
X44248928Y-76398438D01*
X44132811Y-76282321D01*
X44132802Y-76282314D01*
X43991446Y-76198717D01*
X43991445Y-76198716D01*
X43950680Y-76186873D01*
X43891795Y-76149266D01*
X43862589Y-76085793D01*
X43872335Y-76016607D01*
X43882632Y-75999711D01*
X43882275Y-75999491D01*
X43978106Y-75844124D01*
X43978108Y-75844119D01*
X44033255Y-75677697D01*
X44033256Y-75677690D01*
X44043749Y-75574986D01*
X44043750Y-75574973D01*
X44043750Y-75300000D01*
X43080250Y-75300000D01*
X43013211Y-75280315D01*
X42967456Y-75227511D01*
X42956250Y-75176000D01*
X42956250Y-75050000D01*
X42830250Y-75050000D01*
X42763211Y-75030315D01*
X42717456Y-74977511D01*
X42706250Y-74926000D01*
X42706250Y-74800000D01*
X43206250Y-74800000D01*
X44043749Y-74800000D01*
X44043749Y-74525028D01*
X44043748Y-74525013D01*
X44033255Y-74422302D01*
X43978108Y-74255880D01*
X43978106Y-74255875D01*
X43886065Y-74106654D01*
X43762095Y-73982684D01*
X43612874Y-73890643D01*
X43612869Y-73890641D01*
X43446447Y-73835494D01*
X43446440Y-73835493D01*
X43343736Y-73825000D01*
X43206250Y-73825000D01*
X43206250Y-74800000D01*
X42706250Y-74800000D01*
X42706250Y-73825000D01*
X42568777Y-73825000D01*
X42568762Y-73825001D01*
X42466050Y-73835494D01*
X42463000Y-73836505D01*
X42461007Y-73836573D01*
X42459431Y-73836911D01*
X42459370Y-73836629D01*
X42393171Y-73838905D01*
X42333131Y-73803171D01*
X42301941Y-73740649D01*
X42300000Y-73718798D01*
X42300000Y-73624000D01*
X42319685Y-73556961D01*
X42372489Y-73511206D01*
X42424000Y-73500000D01*
X45042216Y-73500000D01*
X45109255Y-73519685D01*
G37*
G04 #@! TD.AperFunction*
G04 #@! TA.AperFunction,Conductor*
G36*
X83442133Y-65618097D02*
G01*
X83484198Y-65666643D01*
X83494500Y-65714000D01*
X83494500Y-66841975D01*
X83476403Y-66903608D01*
X83427857Y-66945673D01*
X83364276Y-66954815D01*
X83335262Y-66946170D01*
X83335258Y-66946184D01*
X83335033Y-66946102D01*
X83332324Y-66945295D01*
X83330578Y-66944481D01*
X83330576Y-66944480D01*
X83123535Y-66889003D01*
X83123539Y-66889003D01*
X82910001Y-66870321D01*
X82909999Y-66870321D01*
X82696463Y-66889003D01*
X82489422Y-66944480D01*
X82295162Y-67035066D01*
X82295152Y-67035072D01*
X82238378Y-67074824D01*
X82238378Y-67074825D01*
X82739765Y-67576212D01*
X82697708Y-67587482D01*
X82572292Y-67659890D01*
X82469890Y-67762292D01*
X82397482Y-67887708D01*
X82386212Y-67929765D01*
X81884825Y-67428378D01*
X81884824Y-67428378D01*
X81845072Y-67485152D01*
X81845066Y-67485162D01*
X81754480Y-67679422D01*
X81699003Y-67886463D01*
X81680321Y-68099998D01*
X81680321Y-68100001D01*
X81699003Y-68313536D01*
X81754480Y-68520576D01*
X81754480Y-68520578D01*
X81845061Y-68714828D01*
X81845068Y-68714840D01*
X81884825Y-68771620D01*
X82386212Y-68270233D01*
X82397482Y-68312292D01*
X82469890Y-68437708D01*
X82572292Y-68540110D01*
X82697708Y-68612518D01*
X82739764Y-68623787D01*
X82238378Y-69125173D01*
X82295159Y-69164931D01*
X82295171Y-69164938D01*
X82489422Y-69255519D01*
X82696464Y-69310996D01*
X82696460Y-69310996D01*
X82909999Y-69329679D01*
X82910001Y-69329679D01*
X83123536Y-69310996D01*
X83330576Y-69255519D01*
X83332317Y-69254708D01*
X83333159Y-69254579D01*
X83335262Y-69253815D01*
X83335415Y-69254237D01*
X83395824Y-69245060D01*
X83454465Y-69271277D01*
X83489623Y-69325036D01*
X83494500Y-69358025D01*
X83494500Y-69599421D01*
X83476403Y-69661054D01*
X83427857Y-69703119D01*
X83364276Y-69712261D01*
X83326763Y-69699961D01*
X83304342Y-69687977D01*
X83304332Y-69687973D01*
X83111037Y-69629339D01*
X83111033Y-69629338D01*
X82910000Y-69609538D01*
X82708966Y-69629338D01*
X82708962Y-69629339D01*
X82515667Y-69687973D01*
X82515658Y-69687977D01*
X82337504Y-69783202D01*
X82181353Y-69911353D01*
X82053202Y-70067504D01*
X81957977Y-70245658D01*
X81957973Y-70245667D01*
X81899339Y-70438962D01*
X81899338Y-70438966D01*
X81879538Y-70639999D01*
X81879538Y-70640000D01*
X81899338Y-70841033D01*
X81899339Y-70841037D01*
X81957973Y-71034332D01*
X81957977Y-71034341D01*
X82053202Y-71212495D01*
X82091405Y-71259045D01*
X82181353Y-71368647D01*
X82252686Y-71427188D01*
X82337504Y-71496797D01*
X82337506Y-71496798D01*
X82515659Y-71592023D01*
X82515662Y-71592024D01*
X82515667Y-71592026D01*
X82620544Y-71623839D01*
X82708967Y-71650662D01*
X82910000Y-71670462D01*
X83111033Y-71650662D01*
X83254953Y-71607004D01*
X83304332Y-71592026D01*
X83304333Y-71592025D01*
X83304341Y-71592023D01*
X83326762Y-71580038D01*
X83389646Y-71566945D01*
X83449629Y-71589929D01*
X83487663Y-71641693D01*
X83494500Y-71680578D01*
X83494500Y-72282922D01*
X83476403Y-72344555D01*
X83467526Y-72356559D01*
X82534153Y-73459637D01*
X82480527Y-73494998D01*
X82447127Y-73500000D01*
X81042901Y-73500000D01*
X80981268Y-73481903D01*
X80962291Y-73466610D01*
X80694805Y-73199123D01*
X80669014Y-73159437D01*
X80324698Y-72264215D01*
X80319463Y-72200193D01*
X80345304Y-72148223D01*
X80877710Y-71539759D01*
X80909758Y-71514295D01*
X80942494Y-71496798D01*
X81098647Y-71368647D01*
X81226798Y-71212494D01*
X81322023Y-71034341D01*
X81329501Y-71009691D01*
X81345995Y-70955314D01*
X81380662Y-70841033D01*
X81400462Y-70640000D01*
X81380662Y-70438967D01*
X81338678Y-70300562D01*
X81322026Y-70245667D01*
X81322024Y-70245662D01*
X81322023Y-70245659D01*
X81226798Y-70067506D01*
X81226797Y-70067504D01*
X81158524Y-69984314D01*
X81098647Y-69911353D01*
X81041677Y-69864599D01*
X81005517Y-69811510D01*
X81000000Y-69776477D01*
X81000000Y-68963522D01*
X81018097Y-68901889D01*
X81041679Y-68875399D01*
X81098647Y-68828647D01*
X81226798Y-68672494D01*
X81322023Y-68494341D01*
X81329501Y-68469691D01*
X81345995Y-68415314D01*
X81380662Y-68301033D01*
X81400462Y-68100000D01*
X81380662Y-67898967D01*
X81345994Y-67784682D01*
X81322026Y-67705667D01*
X81322024Y-67705662D01*
X81322023Y-67705659D01*
X81226798Y-67527506D01*
X81226797Y-67527504D01*
X81158524Y-67444314D01*
X81098647Y-67371353D01*
X81041677Y-67324599D01*
X81005517Y-67271510D01*
X81000000Y-67236477D01*
X81000000Y-65714000D01*
X81018097Y-65652367D01*
X81066643Y-65610302D01*
X81114000Y-65600000D01*
X83380500Y-65600000D01*
X83442133Y-65618097D01*
G37*
G04 #@! TD.AperFunction*
G04 #@! TA.AperFunction,Conductor*
G36*
X84740611Y-64500742D02*
G01*
X84752473Y-64510301D01*
X84756341Y-64512787D01*
X84759588Y-64516035D01*
X85279766Y-65036212D01*
X85237708Y-65047482D01*
X85112292Y-65119890D01*
X85009890Y-65222292D01*
X84937482Y-65347708D01*
X84926212Y-65389765D01*
X84424825Y-64888378D01*
X84424824Y-64888378D01*
X84385072Y-64945152D01*
X84385066Y-64945162D01*
X84294480Y-65139422D01*
X84239003Y-65346463D01*
X84220321Y-65559998D01*
X84220321Y-65560001D01*
X84239003Y-65773536D01*
X84294480Y-65980576D01*
X84294480Y-65980578D01*
X84385061Y-66174828D01*
X84385068Y-66174840D01*
X84424825Y-66231620D01*
X84926212Y-65730233D01*
X84937482Y-65772292D01*
X85009890Y-65897708D01*
X85112292Y-66000110D01*
X85237708Y-66072518D01*
X85279765Y-66083787D01*
X84778378Y-66585173D01*
X84835159Y-66624931D01*
X84835171Y-66624938D01*
X85029422Y-66715519D01*
X85236464Y-66770996D01*
X85236460Y-66770996D01*
X85449999Y-66789679D01*
X85450001Y-66789679D01*
X85663536Y-66770996D01*
X85870576Y-66715519D01*
X85870578Y-66715519D01*
X86064829Y-66624938D01*
X86064843Y-66624931D01*
X86121620Y-66585174D01*
X86121620Y-66585173D01*
X85620234Y-66083787D01*
X85662292Y-66072518D01*
X85787708Y-66000110D01*
X85890110Y-65897708D01*
X85962518Y-65772292D01*
X85973787Y-65730233D01*
X86497224Y-66253671D01*
X86500000Y-66258754D01*
X86500000Y-66412117D01*
X86500000Y-67444314D01*
X86481903Y-67505947D01*
X86433357Y-67548012D01*
X86369776Y-67557154D01*
X86311346Y-67530469D01*
X86297877Y-67516635D01*
X86217354Y-67418518D01*
X86178647Y-67371353D01*
X86100570Y-67307277D01*
X86022495Y-67243202D01*
X85844341Y-67147977D01*
X85844332Y-67147973D01*
X85651037Y-67089339D01*
X85651033Y-67089338D01*
X85450000Y-67069538D01*
X85248966Y-67089338D01*
X85248962Y-67089339D01*
X85055667Y-67147973D01*
X85055658Y-67147977D01*
X84877504Y-67243202D01*
X84721353Y-67371353D01*
X84593202Y-67527504D01*
X84497977Y-67705658D01*
X84497973Y-67705667D01*
X84439339Y-67898962D01*
X84439338Y-67898966D01*
X84419538Y-68099999D01*
X84419538Y-68100000D01*
X84439338Y-68301033D01*
X84439339Y-68301037D01*
X84497973Y-68494332D01*
X84497977Y-68494341D01*
X84593202Y-68672495D01*
X84642894Y-68733044D01*
X84721353Y-68828647D01*
X84816488Y-68906722D01*
X84877504Y-68956797D01*
X84877506Y-68956798D01*
X85055659Y-69052023D01*
X85055662Y-69052024D01*
X85055667Y-69052026D01*
X85160544Y-69083839D01*
X85248967Y-69110662D01*
X85450000Y-69130462D01*
X85651033Y-69110662D01*
X85794953Y-69067004D01*
X85844332Y-69052026D01*
X85844333Y-69052025D01*
X85844341Y-69052023D01*
X86022494Y-68956798D01*
X86178647Y-68828647D01*
X86297877Y-68683363D01*
X86350965Y-68647202D01*
X86415177Y-68645482D01*
X86470126Y-68678751D01*
X86498365Y-68736446D01*
X86500000Y-68755685D01*
X86500000Y-69984314D01*
X86481903Y-70045947D01*
X86433357Y-70088012D01*
X86369776Y-70097154D01*
X86311346Y-70070469D01*
X86297877Y-70056635D01*
X86217354Y-69958518D01*
X86178647Y-69911353D01*
X86100570Y-69847277D01*
X86022495Y-69783202D01*
X85844341Y-69687977D01*
X85844332Y-69687973D01*
X85651037Y-69629339D01*
X85651033Y-69629338D01*
X85450000Y-69609538D01*
X85248966Y-69629338D01*
X85248962Y-69629339D01*
X85055667Y-69687973D01*
X85055658Y-69687977D01*
X84877504Y-69783202D01*
X84721353Y-69911353D01*
X84593202Y-70067504D01*
X84497977Y-70245658D01*
X84497973Y-70245667D01*
X84439339Y-70438962D01*
X84439338Y-70438966D01*
X84419538Y-70639999D01*
X84419538Y-70640000D01*
X84439338Y-70841033D01*
X84439339Y-70841037D01*
X84497973Y-71034332D01*
X84497977Y-71034341D01*
X84593202Y-71212495D01*
X84642894Y-71273044D01*
X84721353Y-71368647D01*
X84816488Y-71446722D01*
X84877504Y-71496797D01*
X84877506Y-71496798D01*
X85055659Y-71592023D01*
X85055662Y-71592024D01*
X85055667Y-71592026D01*
X85160544Y-71623839D01*
X85248967Y-71650662D01*
X85450000Y-71670462D01*
X85651033Y-71650662D01*
X85794953Y-71607004D01*
X85844332Y-71592026D01*
X85844333Y-71592025D01*
X85844341Y-71592023D01*
X86022494Y-71496798D01*
X86178647Y-71368647D01*
X86297877Y-71223363D01*
X86350965Y-71187202D01*
X86415177Y-71185482D01*
X86470126Y-71218751D01*
X86498365Y-71276446D01*
X86500000Y-71295685D01*
X86500000Y-73786000D01*
X86481903Y-73847633D01*
X86433357Y-73889698D01*
X86386000Y-73900000D01*
X84451730Y-73900000D01*
X84390097Y-73881903D01*
X84365936Y-73861069D01*
X83728206Y-73132234D01*
X83701240Y-73073934D01*
X83700000Y-73057165D01*
X83700000Y-71334677D01*
X83718097Y-71273044D01*
X83725877Y-71262356D01*
X83757877Y-71223364D01*
X83766798Y-71212494D01*
X83862023Y-71034341D01*
X83920662Y-70841033D01*
X83940462Y-70640000D01*
X83920662Y-70438967D01*
X83893839Y-70350544D01*
X83862026Y-70245667D01*
X83862024Y-70245662D01*
X83862023Y-70245659D01*
X83766798Y-70067506D01*
X83725876Y-70017642D01*
X83700766Y-69958518D01*
X83700000Y-69945322D01*
X83700000Y-68794677D01*
X83718097Y-68733044D01*
X83725877Y-68722356D01*
X83757877Y-68683364D01*
X83766798Y-68672494D01*
X83862023Y-68494341D01*
X83920662Y-68301033D01*
X83940462Y-68100000D01*
X83920662Y-67898967D01*
X83893839Y-67810544D01*
X83862026Y-67705667D01*
X83862024Y-67705662D01*
X83862023Y-67705659D01*
X83766798Y-67527506D01*
X83725876Y-67477642D01*
X83700766Y-67418518D01*
X83700000Y-67405322D01*
X83700000Y-64614000D01*
X83718097Y-64552367D01*
X83766643Y-64510302D01*
X83814000Y-64500000D01*
X84607883Y-64500000D01*
X84738084Y-64500000D01*
X84740611Y-64500742D01*
G37*
G04 #@! TD.AperFunction*
M02*
