G04 #@! TF.GenerationSoftware,KiCad,Pcbnew,8.0.8*
G04 #@! TF.CreationDate,2026-01-21T17:59:11+00:00*
G04 #@! TF.ProjectId,TestBench,54657374-4265-46e6-9368-2e6b69636164,rev?*
G04 #@! TF.SameCoordinates,Original*
G04 #@! TF.FileFunction,Legend,Bot*
G04 #@! TF.FilePolarity,Positive*
%FSLAX46Y46*%
G04 Gerber Fmt 4.6, Leading zero omitted, Abs format (unit mm)*
G04 Created by KiCad (PCBNEW 8.0.8) date 2026-01-21 17:59:11*
%MOMM*%
%LPD*%
G01*
G04 APERTURE LIST*
%ADD10C,0.150000*%
%ADD11C,3.200000*%
%ADD12R,1.700000X1.700000*%
%ADD13O,1.700000X1.700000*%
%ADD14C,1.650000*%
%ADD15R,1.365000X1.365000*%
%ADD16C,1.365000*%
%ADD17C,1.920000*%
%ADD18R,1.650000X1.650000*%
%ADD19C,0.650000*%
%ADD20O,1.000000X2.100000*%
%ADD21O,1.000000X1.800000*%
G04 APERTURE END LIST*
D10*
X98953696Y-44306340D02*
X99220363Y-43925387D01*
X99410839Y-44306340D02*
X99410839Y-43506340D01*
X99410839Y-43506340D02*
X99106077Y-43506340D01*
X99106077Y-43506340D02*
X99029887Y-43544435D01*
X99029887Y-43544435D02*
X98991792Y-43582530D01*
X98991792Y-43582530D02*
X98953696Y-43658721D01*
X98953696Y-43658721D02*
X98953696Y-43773006D01*
X98953696Y-43773006D02*
X98991792Y-43849197D01*
X98991792Y-43849197D02*
X99029887Y-43887292D01*
X99029887Y-43887292D02*
X99106077Y-43925387D01*
X99106077Y-43925387D02*
X99410839Y-43925387D01*
X98306077Y-44268245D02*
X98382268Y-44306340D01*
X98382268Y-44306340D02*
X98534649Y-44306340D01*
X98534649Y-44306340D02*
X98610839Y-44268245D01*
X98610839Y-44268245D02*
X98648935Y-44192054D01*
X98648935Y-44192054D02*
X98648935Y-43887292D01*
X98648935Y-43887292D02*
X98610839Y-43811102D01*
X98610839Y-43811102D02*
X98534649Y-43773006D01*
X98534649Y-43773006D02*
X98382268Y-43773006D01*
X98382268Y-43773006D02*
X98306077Y-43811102D01*
X98306077Y-43811102D02*
X98267982Y-43887292D01*
X98267982Y-43887292D02*
X98267982Y-43963483D01*
X98267982Y-43963483D02*
X98648935Y-44039673D01*
X98001316Y-43773006D02*
X97810840Y-44306340D01*
X97810840Y-44306340D02*
X97620363Y-43773006D01*
X97315601Y-44306340D02*
X97315601Y-43773006D01*
X97315601Y-43506340D02*
X97353697Y-43544435D01*
X97353697Y-43544435D02*
X97315601Y-43582530D01*
X97315601Y-43582530D02*
X97277506Y-43544435D01*
X97277506Y-43544435D02*
X97315601Y-43506340D01*
X97315601Y-43506340D02*
X97315601Y-43582530D01*
X96972745Y-44268245D02*
X96896554Y-44306340D01*
X96896554Y-44306340D02*
X96744173Y-44306340D01*
X96744173Y-44306340D02*
X96667983Y-44268245D01*
X96667983Y-44268245D02*
X96629887Y-44192054D01*
X96629887Y-44192054D02*
X96629887Y-44153959D01*
X96629887Y-44153959D02*
X96667983Y-44077768D01*
X96667983Y-44077768D02*
X96744173Y-44039673D01*
X96744173Y-44039673D02*
X96858459Y-44039673D01*
X96858459Y-44039673D02*
X96934649Y-44001578D01*
X96934649Y-44001578D02*
X96972745Y-43925387D01*
X96972745Y-43925387D02*
X96972745Y-43887292D01*
X96972745Y-43887292D02*
X96934649Y-43811102D01*
X96934649Y-43811102D02*
X96858459Y-43773006D01*
X96858459Y-43773006D02*
X96744173Y-43773006D01*
X96744173Y-43773006D02*
X96667983Y-43811102D01*
X96287030Y-44306340D02*
X96287030Y-43773006D01*
X96287030Y-43506340D02*
X96325126Y-43544435D01*
X96325126Y-43544435D02*
X96287030Y-43582530D01*
X96287030Y-43582530D02*
X96248935Y-43544435D01*
X96248935Y-43544435D02*
X96287030Y-43506340D01*
X96287030Y-43506340D02*
X96287030Y-43582530D01*
X95791793Y-44306340D02*
X95867983Y-44268245D01*
X95867983Y-44268245D02*
X95906078Y-44230149D01*
X95906078Y-44230149D02*
X95944174Y-44153959D01*
X95944174Y-44153959D02*
X95944174Y-43925387D01*
X95944174Y-43925387D02*
X95906078Y-43849197D01*
X95906078Y-43849197D02*
X95867983Y-43811102D01*
X95867983Y-43811102D02*
X95791793Y-43773006D01*
X95791793Y-43773006D02*
X95677507Y-43773006D01*
X95677507Y-43773006D02*
X95601316Y-43811102D01*
X95601316Y-43811102D02*
X95563221Y-43849197D01*
X95563221Y-43849197D02*
X95525126Y-43925387D01*
X95525126Y-43925387D02*
X95525126Y-44153959D01*
X95525126Y-44153959D02*
X95563221Y-44230149D01*
X95563221Y-44230149D02*
X95601316Y-44268245D01*
X95601316Y-44268245D02*
X95677507Y-44306340D01*
X95677507Y-44306340D02*
X95791793Y-44306340D01*
X95182268Y-43773006D02*
X95182268Y-44306340D01*
X95182268Y-43849197D02*
X95144173Y-43811102D01*
X95144173Y-43811102D02*
X95067983Y-43773006D01*
X95067983Y-43773006D02*
X94953697Y-43773006D01*
X94953697Y-43773006D02*
X94877506Y-43811102D01*
X94877506Y-43811102D02*
X94839411Y-43887292D01*
X94839411Y-43887292D02*
X94839411Y-44306340D01*
X93848934Y-44306340D02*
X93848934Y-43506340D01*
X93848934Y-43506340D02*
X93658458Y-43506340D01*
X93658458Y-43506340D02*
X93544172Y-43544435D01*
X93544172Y-43544435D02*
X93467982Y-43620625D01*
X93467982Y-43620625D02*
X93429887Y-43696816D01*
X93429887Y-43696816D02*
X93391791Y-43849197D01*
X93391791Y-43849197D02*
X93391791Y-43963483D01*
X93391791Y-43963483D02*
X93429887Y-44115864D01*
X93429887Y-44115864D02*
X93467982Y-44192054D01*
X93467982Y-44192054D02*
X93544172Y-44268245D01*
X93544172Y-44268245D02*
X93658458Y-44306340D01*
X93658458Y-44306340D02*
X93848934Y-44306340D01*
X92706077Y-44306340D02*
X92706077Y-43887292D01*
X92706077Y-43887292D02*
X92744172Y-43811102D01*
X92744172Y-43811102D02*
X92820363Y-43773006D01*
X92820363Y-43773006D02*
X92972744Y-43773006D01*
X92972744Y-43773006D02*
X93048934Y-43811102D01*
X92706077Y-44268245D02*
X92782268Y-44306340D01*
X92782268Y-44306340D02*
X92972744Y-44306340D01*
X92972744Y-44306340D02*
X93048934Y-44268245D01*
X93048934Y-44268245D02*
X93087030Y-44192054D01*
X93087030Y-44192054D02*
X93087030Y-44115864D01*
X93087030Y-44115864D02*
X93048934Y-44039673D01*
X93048934Y-44039673D02*
X92972744Y-44001578D01*
X92972744Y-44001578D02*
X92782268Y-44001578D01*
X92782268Y-44001578D02*
X92706077Y-43963483D01*
X92439410Y-43773006D02*
X92134648Y-43773006D01*
X92325124Y-43506340D02*
X92325124Y-44192054D01*
X92325124Y-44192054D02*
X92287029Y-44268245D01*
X92287029Y-44268245D02*
X92210839Y-44306340D01*
X92210839Y-44306340D02*
X92134648Y-44306340D01*
X91563219Y-44268245D02*
X91639410Y-44306340D01*
X91639410Y-44306340D02*
X91791791Y-44306340D01*
X91791791Y-44306340D02*
X91867981Y-44268245D01*
X91867981Y-44268245D02*
X91906077Y-44192054D01*
X91906077Y-44192054D02*
X91906077Y-43887292D01*
X91906077Y-43887292D02*
X91867981Y-43811102D01*
X91867981Y-43811102D02*
X91791791Y-43773006D01*
X91791791Y-43773006D02*
X91639410Y-43773006D01*
X91639410Y-43773006D02*
X91563219Y-43811102D01*
X91563219Y-43811102D02*
X91525124Y-43887292D01*
X91525124Y-43887292D02*
X91525124Y-43963483D01*
X91525124Y-43963483D02*
X91906077Y-44039673D01*
X91182267Y-44230149D02*
X91144172Y-44268245D01*
X91144172Y-44268245D02*
X91182267Y-44306340D01*
X91182267Y-44306340D02*
X91220363Y-44268245D01*
X91220363Y-44268245D02*
X91182267Y-44230149D01*
X91182267Y-44230149D02*
X91182267Y-44306340D01*
X91182267Y-43811102D02*
X91144172Y-43849197D01*
X91144172Y-43849197D02*
X91182267Y-43887292D01*
X91182267Y-43887292D02*
X91220363Y-43849197D01*
X91220363Y-43849197D02*
X91182267Y-43811102D01*
X91182267Y-43811102D02*
X91182267Y-43887292D01*
X90229887Y-43582530D02*
X90191791Y-43544435D01*
X90191791Y-43544435D02*
X90115601Y-43506340D01*
X90115601Y-43506340D02*
X89925125Y-43506340D01*
X89925125Y-43506340D02*
X89848934Y-43544435D01*
X89848934Y-43544435D02*
X89810839Y-43582530D01*
X89810839Y-43582530D02*
X89772744Y-43658721D01*
X89772744Y-43658721D02*
X89772744Y-43734911D01*
X89772744Y-43734911D02*
X89810839Y-43849197D01*
X89810839Y-43849197D02*
X90267982Y-44306340D01*
X90267982Y-44306340D02*
X89772744Y-44306340D01*
X89010839Y-44306340D02*
X89467982Y-44306340D01*
X89239410Y-44306340D02*
X89239410Y-43506340D01*
X89239410Y-43506340D02*
X89315601Y-43620625D01*
X89315601Y-43620625D02*
X89391791Y-43696816D01*
X89391791Y-43696816D02*
X89467982Y-43734911D01*
X88096553Y-43468245D02*
X88782267Y-44496816D01*
X87677505Y-43506340D02*
X87601315Y-43506340D01*
X87601315Y-43506340D02*
X87525124Y-43544435D01*
X87525124Y-43544435D02*
X87487029Y-43582530D01*
X87487029Y-43582530D02*
X87448934Y-43658721D01*
X87448934Y-43658721D02*
X87410839Y-43811102D01*
X87410839Y-43811102D02*
X87410839Y-44001578D01*
X87410839Y-44001578D02*
X87448934Y-44153959D01*
X87448934Y-44153959D02*
X87487029Y-44230149D01*
X87487029Y-44230149D02*
X87525124Y-44268245D01*
X87525124Y-44268245D02*
X87601315Y-44306340D01*
X87601315Y-44306340D02*
X87677505Y-44306340D01*
X87677505Y-44306340D02*
X87753696Y-44268245D01*
X87753696Y-44268245D02*
X87791791Y-44230149D01*
X87791791Y-44230149D02*
X87829886Y-44153959D01*
X87829886Y-44153959D02*
X87867982Y-44001578D01*
X87867982Y-44001578D02*
X87867982Y-43811102D01*
X87867982Y-43811102D02*
X87829886Y-43658721D01*
X87829886Y-43658721D02*
X87791791Y-43582530D01*
X87791791Y-43582530D02*
X87753696Y-43544435D01*
X87753696Y-43544435D02*
X87677505Y-43506340D01*
X86648934Y-44306340D02*
X87106077Y-44306340D01*
X86877505Y-44306340D02*
X86877505Y-43506340D01*
X86877505Y-43506340D02*
X86953696Y-43620625D01*
X86953696Y-43620625D02*
X87029886Y-43696816D01*
X87029886Y-43696816D02*
X87106077Y-43734911D01*
X85734648Y-43468245D02*
X86420362Y-44496816D01*
X85506077Y-43582530D02*
X85467981Y-43544435D01*
X85467981Y-43544435D02*
X85391791Y-43506340D01*
X85391791Y-43506340D02*
X85201315Y-43506340D01*
X85201315Y-43506340D02*
X85125124Y-43544435D01*
X85125124Y-43544435D02*
X85087029Y-43582530D01*
X85087029Y-43582530D02*
X85048934Y-43658721D01*
X85048934Y-43658721D02*
X85048934Y-43734911D01*
X85048934Y-43734911D02*
X85087029Y-43849197D01*
X85087029Y-43849197D02*
X85544172Y-44306340D01*
X85544172Y-44306340D02*
X85048934Y-44306340D01*
X84553695Y-43506340D02*
X84477505Y-43506340D01*
X84477505Y-43506340D02*
X84401314Y-43544435D01*
X84401314Y-43544435D02*
X84363219Y-43582530D01*
X84363219Y-43582530D02*
X84325124Y-43658721D01*
X84325124Y-43658721D02*
X84287029Y-43811102D01*
X84287029Y-43811102D02*
X84287029Y-44001578D01*
X84287029Y-44001578D02*
X84325124Y-44153959D01*
X84325124Y-44153959D02*
X84363219Y-44230149D01*
X84363219Y-44230149D02*
X84401314Y-44268245D01*
X84401314Y-44268245D02*
X84477505Y-44306340D01*
X84477505Y-44306340D02*
X84553695Y-44306340D01*
X84553695Y-44306340D02*
X84629886Y-44268245D01*
X84629886Y-44268245D02*
X84667981Y-44230149D01*
X84667981Y-44230149D02*
X84706076Y-44153959D01*
X84706076Y-44153959D02*
X84744172Y-44001578D01*
X84744172Y-44001578D02*
X84744172Y-43811102D01*
X84744172Y-43811102D02*
X84706076Y-43658721D01*
X84706076Y-43658721D02*
X84667981Y-43582530D01*
X84667981Y-43582530D02*
X84629886Y-43544435D01*
X84629886Y-43544435D02*
X84553695Y-43506340D01*
X83982267Y-43582530D02*
X83944171Y-43544435D01*
X83944171Y-43544435D02*
X83867981Y-43506340D01*
X83867981Y-43506340D02*
X83677505Y-43506340D01*
X83677505Y-43506340D02*
X83601314Y-43544435D01*
X83601314Y-43544435D02*
X83563219Y-43582530D01*
X83563219Y-43582530D02*
X83525124Y-43658721D01*
X83525124Y-43658721D02*
X83525124Y-43734911D01*
X83525124Y-43734911D02*
X83563219Y-43849197D01*
X83563219Y-43849197D02*
X84020362Y-44306340D01*
X84020362Y-44306340D02*
X83525124Y-44306340D01*
X82839409Y-43506340D02*
X82991790Y-43506340D01*
X82991790Y-43506340D02*
X83067981Y-43544435D01*
X83067981Y-43544435D02*
X83106076Y-43582530D01*
X83106076Y-43582530D02*
X83182266Y-43696816D01*
X83182266Y-43696816D02*
X83220362Y-43849197D01*
X83220362Y-43849197D02*
X83220362Y-44153959D01*
X83220362Y-44153959D02*
X83182266Y-44230149D01*
X83182266Y-44230149D02*
X83144171Y-44268245D01*
X83144171Y-44268245D02*
X83067981Y-44306340D01*
X83067981Y-44306340D02*
X82915600Y-44306340D01*
X82915600Y-44306340D02*
X82839409Y-44268245D01*
X82839409Y-44268245D02*
X82801314Y-44230149D01*
X82801314Y-44230149D02*
X82763219Y-44153959D01*
X82763219Y-44153959D02*
X82763219Y-43963483D01*
X82763219Y-43963483D02*
X82801314Y-43887292D01*
X82801314Y-43887292D02*
X82839409Y-43849197D01*
X82839409Y-43849197D02*
X82915600Y-43811102D01*
X82915600Y-43811102D02*
X83067981Y-43811102D01*
X83067981Y-43811102D02*
X83144171Y-43849197D01*
X83144171Y-43849197D02*
X83182266Y-43887292D01*
X83182266Y-43887292D02*
X83220362Y-43963483D01*
X99525125Y-44794295D02*
X99258458Y-45594295D01*
X99258458Y-45594295D02*
X98991792Y-44794295D01*
X98420363Y-45556200D02*
X98496554Y-45594295D01*
X98496554Y-45594295D02*
X98648935Y-45594295D01*
X98648935Y-45594295D02*
X98725125Y-45556200D01*
X98725125Y-45556200D02*
X98763221Y-45480009D01*
X98763221Y-45480009D02*
X98763221Y-45175247D01*
X98763221Y-45175247D02*
X98725125Y-45099057D01*
X98725125Y-45099057D02*
X98648935Y-45060961D01*
X98648935Y-45060961D02*
X98496554Y-45060961D01*
X98496554Y-45060961D02*
X98420363Y-45099057D01*
X98420363Y-45099057D02*
X98382268Y-45175247D01*
X98382268Y-45175247D02*
X98382268Y-45251438D01*
X98382268Y-45251438D02*
X98763221Y-45327628D01*
X98039411Y-45594295D02*
X98039411Y-45060961D01*
X98039411Y-45213342D02*
X98001316Y-45137152D01*
X98001316Y-45137152D02*
X97963221Y-45099057D01*
X97963221Y-45099057D02*
X97887030Y-45060961D01*
X97887030Y-45060961D02*
X97810840Y-45060961D01*
X97582269Y-45556200D02*
X97506078Y-45594295D01*
X97506078Y-45594295D02*
X97353697Y-45594295D01*
X97353697Y-45594295D02*
X97277507Y-45556200D01*
X97277507Y-45556200D02*
X97239411Y-45480009D01*
X97239411Y-45480009D02*
X97239411Y-45441914D01*
X97239411Y-45441914D02*
X97277507Y-45365723D01*
X97277507Y-45365723D02*
X97353697Y-45327628D01*
X97353697Y-45327628D02*
X97467983Y-45327628D01*
X97467983Y-45327628D02*
X97544173Y-45289533D01*
X97544173Y-45289533D02*
X97582269Y-45213342D01*
X97582269Y-45213342D02*
X97582269Y-45175247D01*
X97582269Y-45175247D02*
X97544173Y-45099057D01*
X97544173Y-45099057D02*
X97467983Y-45060961D01*
X97467983Y-45060961D02*
X97353697Y-45060961D01*
X97353697Y-45060961D02*
X97277507Y-45099057D01*
X96896554Y-45594295D02*
X96896554Y-45060961D01*
X96896554Y-44794295D02*
X96934650Y-44832390D01*
X96934650Y-44832390D02*
X96896554Y-44870485D01*
X96896554Y-44870485D02*
X96858459Y-44832390D01*
X96858459Y-44832390D02*
X96896554Y-44794295D01*
X96896554Y-44794295D02*
X96896554Y-44870485D01*
X96401317Y-45594295D02*
X96477507Y-45556200D01*
X96477507Y-45556200D02*
X96515602Y-45518104D01*
X96515602Y-45518104D02*
X96553698Y-45441914D01*
X96553698Y-45441914D02*
X96553698Y-45213342D01*
X96553698Y-45213342D02*
X96515602Y-45137152D01*
X96515602Y-45137152D02*
X96477507Y-45099057D01*
X96477507Y-45099057D02*
X96401317Y-45060961D01*
X96401317Y-45060961D02*
X96287031Y-45060961D01*
X96287031Y-45060961D02*
X96210840Y-45099057D01*
X96210840Y-45099057D02*
X96172745Y-45137152D01*
X96172745Y-45137152D02*
X96134650Y-45213342D01*
X96134650Y-45213342D02*
X96134650Y-45441914D01*
X96134650Y-45441914D02*
X96172745Y-45518104D01*
X96172745Y-45518104D02*
X96210840Y-45556200D01*
X96210840Y-45556200D02*
X96287031Y-45594295D01*
X96287031Y-45594295D02*
X96401317Y-45594295D01*
X95791792Y-45060961D02*
X95791792Y-45594295D01*
X95791792Y-45137152D02*
X95753697Y-45099057D01*
X95753697Y-45099057D02*
X95677507Y-45060961D01*
X95677507Y-45060961D02*
X95563221Y-45060961D01*
X95563221Y-45060961D02*
X95487030Y-45099057D01*
X95487030Y-45099057D02*
X95448935Y-45175247D01*
X95448935Y-45175247D02*
X95448935Y-45594295D01*
X95067982Y-45518104D02*
X95029887Y-45556200D01*
X95029887Y-45556200D02*
X95067982Y-45594295D01*
X95067982Y-45594295D02*
X95106078Y-45556200D01*
X95106078Y-45556200D02*
X95067982Y-45518104D01*
X95067982Y-45518104D02*
X95067982Y-45594295D01*
X95067982Y-45099057D02*
X95029887Y-45137152D01*
X95029887Y-45137152D02*
X95067982Y-45175247D01*
X95067982Y-45175247D02*
X95106078Y-45137152D01*
X95106078Y-45137152D02*
X95067982Y-45099057D01*
X95067982Y-45099057D02*
X95067982Y-45175247D01*
X94115602Y-44870485D02*
X94077506Y-44832390D01*
X94077506Y-44832390D02*
X94001316Y-44794295D01*
X94001316Y-44794295D02*
X93810840Y-44794295D01*
X93810840Y-44794295D02*
X93734649Y-44832390D01*
X93734649Y-44832390D02*
X93696554Y-44870485D01*
X93696554Y-44870485D02*
X93658459Y-44946676D01*
X93658459Y-44946676D02*
X93658459Y-45022866D01*
X93658459Y-45022866D02*
X93696554Y-45137152D01*
X93696554Y-45137152D02*
X94153697Y-45594295D01*
X94153697Y-45594295D02*
X93658459Y-45594295D01*
X93315601Y-45518104D02*
X93277506Y-45556200D01*
X93277506Y-45556200D02*
X93315601Y-45594295D01*
X93315601Y-45594295D02*
X93353697Y-45556200D01*
X93353697Y-45556200D02*
X93315601Y-45518104D01*
X93315601Y-45518104D02*
X93315601Y-45594295D01*
X92782268Y-44794295D02*
X92706078Y-44794295D01*
X92706078Y-44794295D02*
X92629887Y-44832390D01*
X92629887Y-44832390D02*
X92591792Y-44870485D01*
X92591792Y-44870485D02*
X92553697Y-44946676D01*
X92553697Y-44946676D02*
X92515602Y-45099057D01*
X92515602Y-45099057D02*
X92515602Y-45289533D01*
X92515602Y-45289533D02*
X92553697Y-45441914D01*
X92553697Y-45441914D02*
X92591792Y-45518104D01*
X92591792Y-45518104D02*
X92629887Y-45556200D01*
X92629887Y-45556200D02*
X92706078Y-45594295D01*
X92706078Y-45594295D02*
X92782268Y-45594295D01*
X92782268Y-45594295D02*
X92858459Y-45556200D01*
X92858459Y-45556200D02*
X92896554Y-45518104D01*
X92896554Y-45518104D02*
X92934649Y-45441914D01*
X92934649Y-45441914D02*
X92972745Y-45289533D01*
X92972745Y-45289533D02*
X92972745Y-45099057D01*
X92972745Y-45099057D02*
X92934649Y-44946676D01*
X92934649Y-44946676D02*
X92896554Y-44870485D01*
X92896554Y-44870485D02*
X92858459Y-44832390D01*
X92858459Y-44832390D02*
X92782268Y-44794295D01*
%LPC*%
D11*
X90750000Y-76850000D03*
D12*
X49400000Y-86800000D03*
D13*
X51940000Y-86800000D03*
X54480000Y-86800000D03*
D12*
X49400000Y-83000000D03*
D13*
X51940000Y-83000000D03*
X54480000Y-83000000D03*
D14*
X77830000Y-68100000D03*
X77830000Y-70640000D03*
X80370000Y-68100000D03*
X80370000Y-70640000D03*
X82910000Y-68100000D03*
X82910000Y-70640000D03*
X85450000Y-68100000D03*
X85450000Y-70640000D03*
X87990000Y-68100000D03*
X85450000Y-65560000D03*
X87990000Y-65560000D03*
X85450000Y-63020000D03*
X87990000Y-63020000D03*
X85450000Y-60480000D03*
X87990000Y-60480000D03*
X85450000Y-57940000D03*
X87990000Y-57940000D03*
X85450000Y-55400000D03*
X87990000Y-55400000D03*
X85450000Y-52860000D03*
X82910000Y-55400000D03*
X82910000Y-52860000D03*
X80370000Y-55400000D03*
X80370000Y-52860000D03*
X77830000Y-55400000D03*
X77830000Y-52860000D03*
X75290000Y-55400000D03*
X75290000Y-52860000D03*
X72750000Y-55400000D03*
X72750000Y-52860000D03*
X70210000Y-55400000D03*
X72750000Y-57940000D03*
X70210000Y-57940000D03*
X72750000Y-60480000D03*
X70210000Y-60480000D03*
X72750000Y-63020000D03*
X70210000Y-63020000D03*
X72750000Y-65560000D03*
X70210000Y-65560000D03*
X72750000Y-68100000D03*
X70210000Y-68100000D03*
X72750000Y-70640000D03*
X75290000Y-68100000D03*
X75290000Y-70640000D03*
D12*
X99060000Y-96520000D03*
D13*
X96520000Y-96520000D03*
X99060000Y-93980000D03*
X96520000Y-93980000D03*
X99060000Y-91440000D03*
X96520000Y-91440000D03*
X99060000Y-88900000D03*
X96520000Y-88900000D03*
X99060000Y-86360000D03*
X96520000Y-86360000D03*
X99060000Y-83820000D03*
X96520000Y-83820000D03*
X99060000Y-81280000D03*
X96520000Y-81280000D03*
X99060000Y-78740000D03*
X96520000Y-78740000D03*
X99060000Y-76200000D03*
X96520000Y-76200000D03*
X99060000Y-73660000D03*
X96520000Y-73660000D03*
X99060000Y-71120000D03*
X96520000Y-71120000D03*
X99060000Y-68580000D03*
X96520000Y-68580000D03*
X99060000Y-66040000D03*
X96520000Y-66040000D03*
X99060000Y-63500000D03*
X96520000Y-63500000D03*
X99060000Y-60960000D03*
X96520000Y-60960000D03*
X99060000Y-58420000D03*
X96520000Y-58420000D03*
X99060000Y-55880000D03*
X96520000Y-55880000D03*
X99060000Y-53340000D03*
X96520000Y-53340000D03*
X99060000Y-50800000D03*
X96520000Y-50800000D03*
X99060000Y-48260000D03*
X96520000Y-48260000D03*
D15*
X58970000Y-95280000D03*
D16*
X61470000Y-95280000D03*
X63970000Y-95280000D03*
X58970000Y-92880000D03*
X61470000Y-92880000D03*
X63970000Y-92880000D03*
D17*
X56170000Y-94080000D03*
X66770000Y-94080000D03*
D18*
X50950000Y-94900000D03*
D14*
X47450000Y-94900000D03*
D19*
X82610000Y-94535000D03*
X88390000Y-94535000D03*
D20*
X81180000Y-94035000D03*
D21*
X81180000Y-98215000D03*
D20*
X89820000Y-94035000D03*
D21*
X89820000Y-98215000D03*
D12*
X33020000Y-48260000D03*
D13*
X35560000Y-48260000D03*
X33020000Y-50800000D03*
X35560000Y-50800000D03*
X33020000Y-53340000D03*
X35560000Y-53340000D03*
X33020000Y-55880000D03*
X35560000Y-55880000D03*
X33020000Y-58420000D03*
X35560000Y-58420000D03*
X33020000Y-60960000D03*
X35560000Y-60960000D03*
X33020000Y-63500000D03*
X35560000Y-63500000D03*
X33020000Y-66040000D03*
X35560000Y-66040000D03*
X33020000Y-68580000D03*
X35560000Y-68580000D03*
X33020000Y-71120000D03*
X35560000Y-71120000D03*
X33020000Y-73660000D03*
X35560000Y-73660000D03*
X33020000Y-76200000D03*
X35560000Y-76200000D03*
X33020000Y-78740000D03*
X35560000Y-78740000D03*
X33020000Y-81280000D03*
X35560000Y-81280000D03*
X33020000Y-83820000D03*
X35560000Y-83820000D03*
X33020000Y-86360000D03*
X35560000Y-86360000D03*
X33020000Y-88900000D03*
X35560000Y-88900000D03*
X33020000Y-91440000D03*
X35560000Y-91440000D03*
X33020000Y-93980000D03*
X35560000Y-93980000D03*
X33020000Y-96520000D03*
X35560000Y-96520000D03*
%LPD*%
M02*
