G04 #@! TF.GenerationSoftware,KiCad,Pcbnew,8.0.8*
G04 #@! TF.CreationDate,2026-01-21T17:59:11+00:00*
G04 #@! TF.ProjectId,TestBench,54657374-4265-46e6-9368-2e6b69636164,rev?*
G04 #@! TF.SameCoordinates,Original*
G04 #@! TF.FileFunction,Copper,L4,Bot*
G04 #@! TF.FilePolarity,Positive*
%FSLAX46Y46*%
G04 Gerber Fmt 4.6, Leading zero omitted, Abs format (unit mm)*
G04 Created by KiCad (PCBNEW 8.0.8) date 2026-01-21 17:59:11*
%MOMM*%
%LPD*%
G01*
G04 APERTURE LIST*
G04 #@! TA.AperFunction,ComponentPad*
%ADD10R,1.700000X1.700000*%
G04 #@! TD*
G04 #@! TA.AperFunction,ComponentPad*
%ADD11O,1.700000X1.700000*%
G04 #@! TD*
G04 #@! TA.AperFunction,ComponentPad*
%ADD12C,1.650000*%
G04 #@! TD*
G04 #@! TA.AperFunction,ComponentPad*
%ADD13R,1.365000X1.365000*%
G04 #@! TD*
G04 #@! TA.AperFunction,ComponentPad*
%ADD14C,1.365000*%
G04 #@! TD*
G04 #@! TA.AperFunction,ComponentPad*
%ADD15C,1.920000*%
G04 #@! TD*
G04 #@! TA.AperFunction,ComponentPad*
%ADD16R,1.650000X1.650000*%
G04 #@! TD*
G04 #@! TA.AperFunction,HeatsinkPad*
%ADD17O,1.000000X2.100000*%
G04 #@! TD*
G04 #@! TA.AperFunction,HeatsinkPad*
%ADD18O,1.000000X1.800000*%
G04 #@! TD*
G04 #@! TA.AperFunction,ViaPad*
%ADD19C,0.600000*%
G04 #@! TD*
G04 #@! TA.AperFunction,ViaPad*
%ADD20C,0.400000*%
G04 #@! TD*
G04 #@! TA.AperFunction,Conductor*
%ADD21C,0.300000*%
G04 #@! TD*
G04 APERTURE END LIST*
D10*
X49400000Y-86800000D03*
D11*
X51940000Y-86800000D03*
X54480000Y-86800000D03*
D10*
X49400000Y-83000000D03*
D11*
X51940000Y-83000000D03*
X54480000Y-83000000D03*
D12*
X77830000Y-68100000D03*
X77830000Y-70640000D03*
X80370000Y-68100000D03*
X80370000Y-70640000D03*
X82910000Y-68100000D03*
X82910000Y-70640000D03*
X85450000Y-68100000D03*
X85450000Y-70640000D03*
X87990000Y-68100000D03*
X85450000Y-65560000D03*
X87990000Y-65560000D03*
X85450000Y-63020000D03*
X87990000Y-63020000D03*
X85450000Y-60480000D03*
X87990000Y-60480000D03*
X85450000Y-57940000D03*
X87990000Y-57940000D03*
X85450000Y-55400000D03*
X87990000Y-55400000D03*
X85450000Y-52860000D03*
X82910000Y-55400000D03*
X82910000Y-52860000D03*
X80370000Y-55400000D03*
X80370000Y-52860000D03*
X77830000Y-55400000D03*
X77830000Y-52860000D03*
X75290000Y-55400000D03*
X75290000Y-52860000D03*
X72750000Y-55400000D03*
X72750000Y-52860000D03*
X70210000Y-55400000D03*
X72750000Y-57940000D03*
X70210000Y-57940000D03*
X72750000Y-60480000D03*
X70210000Y-60480000D03*
X72750000Y-63020000D03*
X70210000Y-63020000D03*
X72750000Y-65560000D03*
X70210000Y-65560000D03*
X72750000Y-68100000D03*
X70210000Y-68100000D03*
X72750000Y-70640000D03*
X75290000Y-68100000D03*
X75290000Y-70640000D03*
D10*
X99060000Y-96520000D03*
D11*
X96520000Y-96520000D03*
X99060000Y-93980000D03*
X96520000Y-93980000D03*
X99060000Y-91440000D03*
X96520000Y-91440000D03*
X99060000Y-88900000D03*
X96520000Y-88900000D03*
X99060000Y-86360000D03*
X96520000Y-86360000D03*
X99060000Y-83820000D03*
X96520000Y-83820000D03*
X99060000Y-81280000D03*
X96520000Y-81280000D03*
X99060000Y-78740000D03*
X96520000Y-78740000D03*
X99060000Y-76200000D03*
X96520000Y-76200000D03*
X99060000Y-73660000D03*
X96520000Y-73660000D03*
X99060000Y-71120000D03*
X96520000Y-71120000D03*
X99060000Y-68580000D03*
X96520000Y-68580000D03*
X99060000Y-66040000D03*
X96520000Y-66040000D03*
X99060000Y-63500000D03*
X96520000Y-63500000D03*
X99060000Y-60960000D03*
X96520000Y-60960000D03*
X99060000Y-58420000D03*
X96520000Y-58420000D03*
X99060000Y-55880000D03*
X96520000Y-55880000D03*
X99060000Y-53340000D03*
X96520000Y-53340000D03*
X99060000Y-50800000D03*
X96520000Y-50800000D03*
X99060000Y-48260000D03*
X96520000Y-48260000D03*
D13*
X58970000Y-95280000D03*
D14*
X61470000Y-95280000D03*
X63970000Y-95280000D03*
X58970000Y-92880000D03*
X61470000Y-92880000D03*
X63970000Y-92880000D03*
D15*
X56170000Y-94080000D03*
X66770000Y-94080000D03*
D16*
X50950000Y-94900000D03*
D12*
X47450000Y-94900000D03*
D17*
X81180000Y-94035000D03*
D18*
X81180000Y-98215000D03*
D17*
X89820000Y-94035000D03*
D18*
X89820000Y-98215000D03*
D10*
X33020000Y-48260000D03*
D11*
X35560000Y-48260000D03*
X33020000Y-50800000D03*
X35560000Y-50800000D03*
X33020000Y-53340000D03*
X35560000Y-53340000D03*
X33020000Y-55880000D03*
X35560000Y-55880000D03*
X33020000Y-58420000D03*
X35560000Y-58420000D03*
X33020000Y-60960000D03*
X35560000Y-60960000D03*
X33020000Y-63500000D03*
X35560000Y-63500000D03*
X33020000Y-66040000D03*
X35560000Y-66040000D03*
X33020000Y-68580000D03*
X35560000Y-68580000D03*
X33020000Y-71120000D03*
X35560000Y-71120000D03*
X33020000Y-73660000D03*
X35560000Y-73660000D03*
X33020000Y-76200000D03*
X35560000Y-76200000D03*
X33020000Y-78740000D03*
X35560000Y-78740000D03*
X33020000Y-81280000D03*
X35560000Y-81280000D03*
X33020000Y-83820000D03*
X35560000Y-83820000D03*
X33020000Y-86360000D03*
X35560000Y-86360000D03*
X33020000Y-88900000D03*
X35560000Y-88900000D03*
X33020000Y-91440000D03*
X35560000Y-91440000D03*
X33020000Y-93980000D03*
X35560000Y-93980000D03*
X33020000Y-96520000D03*
X35560000Y-96520000D03*
D19*
X82600000Y-84200000D03*
D20*
X61500000Y-79450000D03*
X79200000Y-76800000D03*
X68300000Y-80630000D03*
X52500000Y-50700000D03*
D19*
X64400000Y-75500000D03*
D20*
X59600000Y-50550000D03*
X88000000Y-72000000D03*
X90200000Y-90650000D03*
X60600000Y-62700000D03*
X44320000Y-80650000D03*
X75400000Y-82825000D03*
D19*
X65600000Y-75500000D03*
D20*
X90900000Y-84300000D03*
D19*
X84100000Y-84200000D03*
D20*
X51746376Y-57533515D03*
X65800000Y-69375000D03*
X39600000Y-83500000D03*
X89200000Y-82700000D03*
X84300000Y-73300000D03*
X85500000Y-87000000D03*
X75250000Y-93650000D03*
X41500000Y-71500000D03*
X41500000Y-69700000D03*
X90300000Y-82700000D03*
X54000000Y-59800000D03*
X85600000Y-73500000D03*
X42338909Y-54438909D03*
X86100000Y-79500000D03*
X41500000Y-72600000D03*
X84200000Y-72200000D03*
X84100000Y-64900000D03*
X86350000Y-87250000D03*
X84900000Y-72800000D03*
X63300000Y-52900000D03*
X68050000Y-66250000D03*
X66425000Y-72325000D03*
X68925000Y-72325000D03*
X83000000Y-66000000D03*
X82100000Y-73300000D03*
X81300000Y-73300000D03*
X65400000Y-80730000D03*
X81300000Y-72400000D03*
X80500000Y-72400000D03*
X66250000Y-80730000D03*
X81700000Y-66000000D03*
X82100000Y-72400000D03*
X81600000Y-71600000D03*
D19*
X59600000Y-46250000D03*
X61000000Y-76200000D03*
D20*
X50650000Y-78250000D03*
X76300000Y-85020000D03*
X76050000Y-91207500D03*
X80100000Y-88050000D03*
X81200000Y-76800000D03*
X87800000Y-76900000D03*
X83287500Y-91987500D03*
X86300000Y-92085000D03*
X77700000Y-81280000D03*
X77500000Y-86100000D03*
X90300000Y-92012500D03*
X82500000Y-92000000D03*
X89050000Y-56750000D03*
X83000000Y-44750000D03*
X70400000Y-47000000D03*
X81600000Y-51500000D03*
X80800000Y-44000000D03*
X88750000Y-59250000D03*
X83800000Y-61750000D03*
X79200000Y-49250000D03*
X76600000Y-50000000D03*
X68900000Y-54035000D03*
X89700000Y-73400000D03*
X90250000Y-65250000D03*
X85600000Y-45500000D03*
X73200000Y-41750000D03*
X75400000Y-42500000D03*
X74000000Y-47750000D03*
X71900000Y-48500000D03*
X84100000Y-50750000D03*
X77900000Y-43250000D03*
D19*
X62000000Y-73700000D03*
D20*
X73950000Y-89100000D03*
D21*
X69748299Y-69300000D02*
X73950000Y-69300000D01*
X68050000Y-67601701D02*
X69748299Y-69300000D01*
X68050000Y-66250000D02*
X68050000Y-67601701D01*
X73950000Y-69300000D02*
X75290000Y-70640000D01*
X95320000Y-53837057D02*
X96162943Y-54680000D01*
X97860000Y-54680000D02*
X99060000Y-55880000D01*
X34300000Y-54600000D02*
X36000000Y-54600000D01*
X59600000Y-46250000D02*
X88750000Y-46250000D01*
X36000000Y-54600000D02*
X44350000Y-46250000D01*
X96162943Y-54680000D02*
X97860000Y-54680000D01*
X88750000Y-46250000D02*
X93320000Y-50820000D01*
X93320000Y-50847106D02*
X95320000Y-52847106D01*
X93320000Y-50820000D02*
X93320000Y-50847106D01*
X33020000Y-55880000D02*
X34300000Y-54600000D01*
X95320000Y-52847106D02*
X95320000Y-53837057D01*
X44350000Y-46250000D02*
X59600000Y-46250000D01*
X87300000Y-76200000D02*
X89400000Y-74100000D01*
X94700000Y-76200000D02*
X96520000Y-76200000D01*
X89400000Y-74100000D02*
X92600000Y-74100000D01*
X61000000Y-76200000D02*
X35560000Y-76200000D01*
X92600000Y-74100000D02*
X94700000Y-76200000D01*
X61000000Y-76200000D02*
X87300000Y-76200000D01*
X48050000Y-84400000D02*
X47350000Y-85100000D01*
X34700000Y-85100000D02*
X33440000Y-86360000D01*
X33440000Y-86360000D02*
X33020000Y-86360000D01*
X99060000Y-86360000D02*
X98460000Y-86360000D01*
X58620000Y-85020000D02*
X58000000Y-84400000D01*
X47350000Y-85100000D02*
X34700000Y-85100000D01*
X97120000Y-85020000D02*
X58620000Y-85020000D01*
X98460000Y-86360000D02*
X97120000Y-85020000D01*
X58000000Y-84400000D02*
X48050000Y-84400000D01*
X35792500Y-91207500D02*
X35560000Y-91440000D01*
X96520000Y-91440000D02*
X96287500Y-91207500D01*
X96287500Y-91207500D02*
X35792500Y-91207500D01*
X36597057Y-88100000D02*
X36057057Y-87560000D01*
X97860000Y-87700000D02*
X95200000Y-87700000D01*
X80100000Y-88050000D02*
X80100000Y-88100000D01*
X99060000Y-88900000D02*
X97860000Y-87700000D01*
X36057057Y-87560000D02*
X34360000Y-87560000D01*
X95200000Y-87700000D02*
X94800000Y-88100000D01*
X34360000Y-87560000D02*
X33020000Y-88900000D01*
X94800000Y-88100000D02*
X80100000Y-88100000D01*
X80100000Y-88100000D02*
X36597057Y-88100000D01*
X77600000Y-97400000D02*
X38980000Y-97400000D01*
X78900000Y-96100000D02*
X77600000Y-97400000D01*
X94400000Y-96100000D02*
X78900000Y-96100000D01*
X96520000Y-93980000D02*
X94400000Y-96100000D01*
X38980000Y-97400000D02*
X35560000Y-93980000D01*
X83385000Y-92085000D02*
X83287500Y-91987500D01*
X86300000Y-92085000D02*
X83385000Y-92085000D01*
X77700000Y-81280000D02*
X35560000Y-81280000D01*
X96520000Y-81280000D02*
X77700000Y-81280000D01*
X47350000Y-86300000D02*
X48250000Y-85400000D01*
X96520000Y-86360000D02*
X96260000Y-86100000D01*
X96260000Y-86100000D02*
X77500000Y-86100000D01*
X35560000Y-86360000D02*
X35620000Y-86300000D01*
X48250000Y-85400000D02*
X57825000Y-85400000D01*
X35620000Y-86300000D02*
X47350000Y-86300000D01*
X57825000Y-85400000D02*
X58525000Y-86100000D01*
X58525000Y-86100000D02*
X77500000Y-86100000D01*
X96520000Y-67740000D02*
X95815836Y-67740000D01*
X90000000Y-57700000D02*
X89050000Y-56750000D01*
X96520000Y-68580000D02*
X96520000Y-67740000D01*
X49875000Y-56750000D02*
X38045000Y-68580000D01*
X94820000Y-66744164D02*
X94820000Y-65820000D01*
X90000000Y-61000000D02*
X90000000Y-57700000D01*
X95815836Y-67740000D02*
X94820000Y-66744164D01*
X94820000Y-65820000D02*
X90000000Y-61000000D01*
X38045000Y-68580000D02*
X35560000Y-68580000D01*
X89050000Y-56750000D02*
X49875000Y-56750000D01*
X35957057Y-52100000D02*
X34260000Y-52100000D01*
X97720000Y-52000000D02*
X96022943Y-52000000D01*
X89350000Y-44750000D02*
X83000000Y-44750000D01*
X99060000Y-53340000D02*
X97720000Y-52000000D01*
X95320000Y-50720000D02*
X89350000Y-44750000D01*
X34260000Y-52100000D02*
X33020000Y-53340000D01*
X95320000Y-51297057D02*
X95320000Y-50720000D01*
X43307057Y-44750000D02*
X35957057Y-52100000D01*
X83000000Y-44750000D02*
X43307057Y-44750000D01*
X96022943Y-52000000D02*
X95320000Y-51297057D01*
X96520000Y-55270000D02*
X96045836Y-55270000D01*
X96045836Y-55270000D02*
X94820000Y-54044164D01*
X44900000Y-47000000D02*
X36020000Y-55880000D01*
X94820000Y-54044164D02*
X94820000Y-53320000D01*
X36020000Y-55880000D02*
X35560000Y-55880000D01*
X70400000Y-47000000D02*
X44900000Y-47000000D01*
X88500000Y-47000000D02*
X70400000Y-47000000D01*
X94820000Y-53320000D02*
X88500000Y-47000000D01*
X96520000Y-55880000D02*
X96520000Y-55270000D01*
X50252081Y-52550000D02*
X36762081Y-66040000D01*
X36762081Y-66040000D02*
X35560000Y-66040000D01*
X91400000Y-60900000D02*
X91400000Y-56100000D01*
X63922182Y-51500000D02*
X62872182Y-52550000D01*
X62872182Y-52550000D02*
X50252081Y-52550000D01*
X96520000Y-66020000D02*
X91400000Y-60900000D01*
X96520000Y-66040000D02*
X96520000Y-66020000D01*
X91400000Y-56100000D02*
X86800000Y-51500000D01*
X86800000Y-51500000D02*
X81600000Y-51500000D01*
X81600000Y-51500000D02*
X63922182Y-51500000D01*
X96520000Y-50800000D02*
X89720000Y-44000000D01*
X89720000Y-44000000D02*
X80800000Y-44000000D01*
X36000000Y-50800000D02*
X35560000Y-50800000D01*
X42800000Y-44000000D02*
X36000000Y-50800000D01*
X80800000Y-44000000D02*
X42800000Y-44000000D01*
X96022943Y-69780000D02*
X94320000Y-68077057D01*
X38720000Y-69780000D02*
X34360000Y-69780000D01*
X34360000Y-69780000D02*
X33020000Y-71120000D01*
X49250000Y-59250000D02*
X38720000Y-69780000D01*
X99060000Y-71120000D02*
X97720000Y-69780000D01*
X97720000Y-69780000D02*
X96022943Y-69780000D01*
X89300000Y-61360000D02*
X89300000Y-59800000D01*
X89300000Y-59800000D02*
X88750000Y-59250000D01*
X94320000Y-68077057D02*
X94320000Y-66380000D01*
X88750000Y-59250000D02*
X49250000Y-59250000D01*
X94320000Y-66380000D02*
X89300000Y-61360000D01*
X93250000Y-66618299D02*
X88381701Y-61750000D01*
X96520000Y-71120000D02*
X93250000Y-67850000D01*
X93250000Y-67850000D02*
X93250000Y-66618299D01*
X48450000Y-61750000D02*
X39080000Y-71120000D01*
X39080000Y-71120000D02*
X35560000Y-71120000D01*
X83800000Y-61750000D02*
X48450000Y-61750000D01*
X88381701Y-61750000D02*
X83800000Y-61750000D01*
X72765000Y-92635000D02*
X68900000Y-96500000D01*
X97022057Y-92635000D02*
X97017057Y-92640000D01*
X99060000Y-93980000D02*
X97715000Y-92635000D01*
X97017057Y-92640000D02*
X96022943Y-92640000D01*
X97715000Y-92635000D02*
X97022057Y-92635000D01*
X94600000Y-92635000D02*
X72765000Y-92635000D01*
X96017943Y-92635000D02*
X94600000Y-92635000D01*
X39777057Y-96500000D02*
X36057057Y-92780000D01*
X34220000Y-92780000D02*
X33020000Y-93980000D01*
X68900000Y-96500000D02*
X39777057Y-96500000D01*
X96022943Y-92640000D02*
X96017943Y-92635000D01*
X36057057Y-92780000D02*
X34220000Y-92780000D01*
X93500000Y-59637057D02*
X93500000Y-55100000D01*
X99060000Y-63500000D02*
X98217057Y-63500000D01*
X46750000Y-49250000D02*
X36250000Y-59750000D01*
X34250000Y-62270000D02*
X33020000Y-63500000D01*
X93500000Y-55100000D02*
X87650000Y-49250000D01*
X79200000Y-49250000D02*
X46750000Y-49250000D01*
X98217057Y-63500000D02*
X96877057Y-62160000D01*
X87650000Y-49250000D02*
X79200000Y-49250000D01*
X96022943Y-62160000D02*
X93500000Y-59637057D01*
X96877057Y-62160000D02*
X96022943Y-62160000D01*
X36250000Y-59750000D02*
X35072943Y-59750000D01*
X34250000Y-60572943D02*
X34250000Y-62270000D01*
X35072943Y-59750000D02*
X34250000Y-60572943D01*
X92800000Y-60200000D02*
X92800000Y-55407106D01*
X58200000Y-50000000D02*
X48900000Y-50000000D01*
X48900000Y-50000000D02*
X35560000Y-63340000D01*
X87392894Y-50000000D02*
X76600000Y-50000000D01*
X96520000Y-63500000D02*
X96100000Y-63500000D01*
X76600000Y-50000000D02*
X58200000Y-50000000D01*
X35560000Y-63340000D02*
X35560000Y-63500000D01*
X92800000Y-55407106D02*
X87392894Y-50000000D01*
X96100000Y-63500000D02*
X92800000Y-60200000D01*
X95320000Y-66537057D02*
X95320000Y-65570000D01*
X96022943Y-67240000D02*
X95320000Y-66537057D01*
X50565000Y-54035000D02*
X37220000Y-67380000D01*
X88286701Y-54035000D02*
X68900000Y-54035000D01*
X34220000Y-67380000D02*
X33020000Y-68580000D01*
X90700000Y-56448299D02*
X88286701Y-54035000D01*
X97720000Y-67240000D02*
X96022943Y-67240000D01*
X95320000Y-65570000D02*
X90700000Y-60950000D01*
X37220000Y-67380000D02*
X34220000Y-67380000D01*
X90700000Y-60950000D02*
X90700000Y-56448299D01*
X99060000Y-68580000D02*
X97720000Y-67240000D01*
X68900000Y-54035000D02*
X50565000Y-54035000D01*
X64030761Y-74700000D02*
X63830761Y-74900000D01*
X89700000Y-73400000D02*
X94400000Y-73400000D01*
X63830761Y-74900000D02*
X34320000Y-74900000D01*
X66019239Y-74700000D02*
X64030761Y-74700000D01*
X88900000Y-73400000D02*
X87000000Y-75300000D01*
X66619239Y-75300000D02*
X66019239Y-74700000D01*
X87000000Y-75300000D02*
X66619239Y-75300000D01*
X96000000Y-75000000D02*
X97860000Y-75000000D01*
X34320000Y-74900000D02*
X33020000Y-76200000D01*
X94400000Y-73400000D02*
X96000000Y-75000000D01*
X97860000Y-75000000D02*
X99060000Y-76200000D01*
X89700000Y-73400000D02*
X88900000Y-73400000D01*
X39780000Y-72320000D02*
X34360000Y-72320000D01*
X96022943Y-72320000D02*
X97720000Y-72320000D01*
X92250000Y-68547057D02*
X96022943Y-72320000D01*
X92250000Y-67250000D02*
X92250000Y-68547057D01*
X89250000Y-64250000D02*
X47850000Y-64250000D01*
X47850000Y-64250000D02*
X39780000Y-72320000D01*
X90250000Y-65250000D02*
X92250000Y-67250000D01*
X34360000Y-72320000D02*
X33020000Y-73660000D01*
X90250000Y-65250000D02*
X89250000Y-64250000D01*
X97720000Y-72320000D02*
X99060000Y-73660000D01*
X94820000Y-51504163D02*
X94820000Y-51320000D01*
X96520000Y-53340000D02*
X96520000Y-53020000D01*
X96520000Y-53020000D02*
X96335837Y-53020000D01*
X96335837Y-53020000D02*
X94820000Y-51504163D01*
X94820000Y-51320000D02*
X89000000Y-45500000D01*
X35960000Y-53340000D02*
X35560000Y-53340000D01*
X43800000Y-45500000D02*
X35960000Y-53340000D01*
X89000000Y-45500000D02*
X85600000Y-45500000D01*
X85600000Y-45500000D02*
X43800000Y-45500000D01*
X97860000Y-80080000D02*
X93300000Y-80080000D01*
X93300000Y-80080000D02*
X34220000Y-80080000D01*
X34220000Y-80080000D02*
X33020000Y-81280000D01*
X99060000Y-81280000D02*
X97860000Y-80080000D01*
X96360000Y-78900000D02*
X93800000Y-78900000D01*
X96520000Y-78740000D02*
X96360000Y-78900000D01*
X93800000Y-78900000D02*
X35720000Y-78900000D01*
X35720000Y-78900000D02*
X35560000Y-78740000D01*
X73200000Y-41750000D02*
X39950000Y-41750000D01*
X91550000Y-41750000D02*
X73200000Y-41750000D01*
X99060000Y-48260000D02*
X97860000Y-47060000D01*
X39950000Y-41750000D02*
X33440000Y-48260000D01*
X33440000Y-48260000D02*
X33020000Y-48260000D01*
X96860000Y-47060000D02*
X91550000Y-41750000D01*
X97860000Y-47060000D02*
X96860000Y-47060000D01*
X75400000Y-42500000D02*
X41650000Y-42500000D01*
X41650000Y-42500000D02*
X35890000Y-48260000D01*
X35890000Y-48260000D02*
X35560000Y-48260000D01*
X90700000Y-42500000D02*
X75400000Y-42500000D01*
X96520000Y-48260000D02*
X96460000Y-48260000D01*
X96460000Y-48260000D02*
X90700000Y-42500000D01*
X88750000Y-76850000D02*
X88060000Y-77540000D01*
X88060000Y-77540000D02*
X34220000Y-77540000D01*
X34220000Y-77540000D02*
X33020000Y-78740000D01*
X97860000Y-77540000D02*
X94790000Y-77540000D01*
X89921573Y-74800000D02*
X88750000Y-75971573D01*
X99060000Y-78740000D02*
X97860000Y-77540000D01*
X88750000Y-75971573D02*
X88750000Y-76850000D01*
X92050000Y-74800000D02*
X89921573Y-74800000D01*
X94790000Y-77540000D02*
X92050000Y-74800000D01*
X94320000Y-54251270D02*
X94320000Y-54020000D01*
X34220000Y-57220000D02*
X33020000Y-58420000D01*
X96022943Y-57080000D02*
X95320000Y-56377057D01*
X45650000Y-47750000D02*
X36180000Y-57220000D01*
X74000000Y-47750000D02*
X45650000Y-47750000D01*
X94320000Y-54020000D02*
X88050000Y-47750000D01*
X88050000Y-47750000D02*
X74000000Y-47750000D01*
X97720000Y-57080000D02*
X96022943Y-57080000D01*
X95320000Y-55251270D02*
X94320000Y-54251270D01*
X36180000Y-57220000D02*
X34220000Y-57220000D01*
X95320000Y-56377057D02*
X95320000Y-55251270D01*
X99060000Y-58420000D02*
X97720000Y-57080000D01*
X94200000Y-54838376D02*
X87861624Y-48500000D01*
X95820000Y-58420000D02*
X94200000Y-56800000D01*
X46300000Y-48500000D02*
X36380000Y-58420000D01*
X94200000Y-56800000D02*
X94200000Y-54838376D01*
X96520000Y-58420000D02*
X95820000Y-58420000D01*
X36380000Y-58420000D02*
X35560000Y-58420000D01*
X71900000Y-48500000D02*
X46300000Y-48500000D01*
X87861624Y-48500000D02*
X71900000Y-48500000D01*
X36060000Y-64840000D02*
X34220000Y-64840000D01*
X97860000Y-64840000D02*
X96090000Y-64840000D01*
X96090000Y-64840000D02*
X92100000Y-60850000D01*
X87100000Y-50750000D02*
X84100000Y-50750000D01*
X62950000Y-50750000D02*
X62450000Y-51250000D01*
X62450000Y-51250000D02*
X49650000Y-51250000D01*
X49650000Y-51250000D02*
X36060000Y-64840000D01*
X92100000Y-55750000D02*
X87100000Y-50750000D01*
X34220000Y-64840000D02*
X33020000Y-66040000D01*
X99060000Y-66040000D02*
X97860000Y-64840000D01*
X92100000Y-60850000D02*
X92100000Y-55750000D01*
X84100000Y-50750000D02*
X62950000Y-50750000D01*
X90050000Y-43250000D02*
X77900000Y-43250000D01*
X42407057Y-43250000D02*
X36057057Y-49600000D01*
X77900000Y-43250000D02*
X42407057Y-43250000D01*
X97860000Y-49600000D02*
X96162943Y-49600000D01*
X96162943Y-49600000D02*
X95320000Y-48757057D01*
X95320000Y-48757057D02*
X95320000Y-48520000D01*
X36057057Y-49600000D02*
X34220000Y-49600000D01*
X99060000Y-50800000D02*
X97860000Y-49600000D01*
X34220000Y-49600000D02*
X33020000Y-50800000D01*
X95320000Y-48520000D02*
X90050000Y-43250000D01*
X79335000Y-96965000D02*
X78100000Y-98200000D01*
X91720000Y-97720000D02*
X90965000Y-96965000D01*
X99060000Y-96520000D02*
X97860000Y-97720000D01*
X90965000Y-96965000D02*
X79335000Y-96965000D01*
X34700000Y-98200000D02*
X33020000Y-96520000D01*
X97860000Y-97720000D02*
X91720000Y-97720000D01*
X78100000Y-98200000D02*
X34700000Y-98200000D01*
X34360000Y-90100000D02*
X33020000Y-91440000D01*
X97720000Y-90100000D02*
X34360000Y-90100000D01*
X99060000Y-91440000D02*
X97720000Y-90100000D01*
X88400000Y-72700000D02*
X95560000Y-72700000D01*
X86800000Y-74300000D02*
X88400000Y-72700000D01*
X62000000Y-73700000D02*
X61960000Y-73660000D01*
X95560000Y-72700000D02*
X96520000Y-73660000D01*
X62000000Y-73700000D02*
X66300000Y-73700000D01*
X66900000Y-74300000D02*
X86800000Y-74300000D01*
X66300000Y-73700000D02*
X66900000Y-74300000D01*
X61960000Y-73660000D02*
X35560000Y-73660000D01*
X35760000Y-89100000D02*
X35560000Y-88900000D01*
X96520000Y-88900000D02*
X96320000Y-89100000D01*
X96320000Y-89100000D02*
X73950000Y-89100000D01*
X73950000Y-89100000D02*
X35760000Y-89100000D01*
G04 #@! TA.AperFunction,Conductor*
G36*
X83442133Y-65618097D02*
G01*
X83484198Y-65666643D01*
X83494500Y-65714000D01*
X83494500Y-66841975D01*
X83476403Y-66903608D01*
X83427857Y-66945673D01*
X83364276Y-66954815D01*
X83335262Y-66946170D01*
X83335258Y-66946184D01*
X83335033Y-66946102D01*
X83332324Y-66945295D01*
X83330578Y-66944481D01*
X83330576Y-66944480D01*
X83123535Y-66889003D01*
X83123539Y-66889003D01*
X82910001Y-66870321D01*
X82909999Y-66870321D01*
X82696463Y-66889003D01*
X82489422Y-66944480D01*
X82295162Y-67035066D01*
X82295152Y-67035072D01*
X82238378Y-67074824D01*
X82238378Y-67074825D01*
X82739765Y-67576212D01*
X82697708Y-67587482D01*
X82572292Y-67659890D01*
X82469890Y-67762292D01*
X82397482Y-67887708D01*
X82386212Y-67929765D01*
X81884825Y-67428378D01*
X81884824Y-67428378D01*
X81845072Y-67485152D01*
X81845066Y-67485162D01*
X81754480Y-67679422D01*
X81699003Y-67886463D01*
X81680321Y-68099998D01*
X81680321Y-68100001D01*
X81699003Y-68313536D01*
X81754480Y-68520576D01*
X81754480Y-68520578D01*
X81845061Y-68714828D01*
X81845068Y-68714840D01*
X81884825Y-68771620D01*
X82386212Y-68270233D01*
X82397482Y-68312292D01*
X82469890Y-68437708D01*
X82572292Y-68540110D01*
X82697708Y-68612518D01*
X82739764Y-68623787D01*
X82238378Y-69125173D01*
X82295159Y-69164931D01*
X82295171Y-69164938D01*
X82489422Y-69255519D01*
X82696464Y-69310996D01*
X82696460Y-69310996D01*
X82909999Y-69329679D01*
X82910001Y-69329679D01*
X83123536Y-69310996D01*
X83330576Y-69255519D01*
X83332317Y-69254708D01*
X83333159Y-69254579D01*
X83335262Y-69253815D01*
X83335415Y-69254237D01*
X83395824Y-69245060D01*
X83454465Y-69271277D01*
X83489623Y-69325036D01*
X83494500Y-69358025D01*
X83494500Y-69599421D01*
X83476403Y-69661054D01*
X83427857Y-69703119D01*
X83364276Y-69712261D01*
X83326763Y-69699961D01*
X83304342Y-69687977D01*
X83304332Y-69687973D01*
X83111037Y-69629339D01*
X83111033Y-69629338D01*
X82910000Y-69609538D01*
X82708966Y-69629338D01*
X82708962Y-69629339D01*
X82515667Y-69687973D01*
X82515658Y-69687977D01*
X82337504Y-69783202D01*
X82181353Y-69911353D01*
X82053202Y-70067504D01*
X81957977Y-70245658D01*
X81957973Y-70245667D01*
X81899339Y-70438962D01*
X81899338Y-70438966D01*
X81879538Y-70639999D01*
X81879538Y-70640000D01*
X81899338Y-70841033D01*
X81899339Y-70841037D01*
X81957973Y-71034332D01*
X81957977Y-71034341D01*
X82053202Y-71212495D01*
X82091405Y-71259045D01*
X82181353Y-71368647D01*
X82252686Y-71427188D01*
X82337504Y-71496797D01*
X82337506Y-71496798D01*
X82515659Y-71592023D01*
X82515662Y-71592024D01*
X82515667Y-71592026D01*
X82620544Y-71623839D01*
X82708967Y-71650662D01*
X82910000Y-71670462D01*
X83111033Y-71650662D01*
X83254953Y-71607004D01*
X83304332Y-71592026D01*
X83304333Y-71592025D01*
X83304341Y-71592023D01*
X83326762Y-71580038D01*
X83389646Y-71566945D01*
X83449629Y-71589929D01*
X83487663Y-71641693D01*
X83494500Y-71680578D01*
X83494500Y-72282922D01*
X83476403Y-72344555D01*
X83467526Y-72356559D01*
X82534153Y-73459637D01*
X82480527Y-73494998D01*
X82447127Y-73500000D01*
X80878295Y-73500000D01*
X80816662Y-73481903D01*
X80774597Y-73433357D01*
X80771894Y-73426924D01*
X80324698Y-72264215D01*
X80319463Y-72200193D01*
X80345304Y-72148223D01*
X80877710Y-71539759D01*
X80909758Y-71514295D01*
X80942494Y-71496798D01*
X81098647Y-71368647D01*
X81226798Y-71212494D01*
X81322023Y-71034341D01*
X81329501Y-71009691D01*
X81345995Y-70955314D01*
X81380662Y-70841033D01*
X81400462Y-70640000D01*
X81380662Y-70438967D01*
X81338678Y-70300562D01*
X81322026Y-70245667D01*
X81322024Y-70245662D01*
X81322023Y-70245659D01*
X81226798Y-70067506D01*
X81226797Y-70067504D01*
X81158524Y-69984314D01*
X81098647Y-69911353D01*
X81041677Y-69864599D01*
X81005517Y-69811510D01*
X81000000Y-69776477D01*
X81000000Y-68963522D01*
X81018097Y-68901889D01*
X81041679Y-68875399D01*
X81098647Y-68828647D01*
X81226798Y-68672494D01*
X81322023Y-68494341D01*
X81329501Y-68469691D01*
X81345995Y-68415314D01*
X81380662Y-68301033D01*
X81400462Y-68100000D01*
X81380662Y-67898967D01*
X81345994Y-67784682D01*
X81322026Y-67705667D01*
X81322024Y-67705662D01*
X81322023Y-67705659D01*
X81226798Y-67527506D01*
X81226797Y-67527504D01*
X81158524Y-67444314D01*
X81098647Y-67371353D01*
X81041677Y-67324599D01*
X81005517Y-67271510D01*
X81000000Y-67236477D01*
X81000000Y-65714000D01*
X81018097Y-65652367D01*
X81066643Y-65610302D01*
X81114000Y-65600000D01*
X83380500Y-65600000D01*
X83442133Y-65618097D01*
G37*
G04 #@! TD.AperFunction*
G04 #@! TA.AperFunction,Conductor*
G36*
X84469041Y-64618597D02*
G01*
X84511106Y-64667143D01*
X84520248Y-64730724D01*
X84500792Y-64779887D01*
X84385065Y-64945163D01*
X84385062Y-64945168D01*
X84294480Y-65139422D01*
X84239003Y-65346463D01*
X84220321Y-65559998D01*
X84220321Y-65560000D01*
X84239003Y-65773536D01*
X84294480Y-65980576D01*
X84294480Y-65980578D01*
X84385061Y-66174828D01*
X84385068Y-66174840D01*
X84424825Y-66231620D01*
X84926212Y-65730233D01*
X84937482Y-65772292D01*
X85009890Y-65897708D01*
X85112292Y-66000110D01*
X85237708Y-66072518D01*
X85279765Y-66083787D01*
X84778378Y-66585173D01*
X84835159Y-66624931D01*
X84835171Y-66624938D01*
X85029422Y-66715519D01*
X85236464Y-66770996D01*
X85236460Y-66770996D01*
X85449999Y-66789679D01*
X85450001Y-66789679D01*
X85663536Y-66770996D01*
X85870576Y-66715519D01*
X85870578Y-66715519D01*
X86064829Y-66624938D01*
X86064843Y-66624931D01*
X86121620Y-66585174D01*
X86121620Y-66585173D01*
X85620234Y-66083787D01*
X85662292Y-66072518D01*
X85787708Y-66000110D01*
X85890110Y-65897708D01*
X85962518Y-65772292D01*
X85973787Y-65730234D01*
X86497224Y-66253671D01*
X86500000Y-66258754D01*
X86500000Y-66412117D01*
X86500000Y-67444314D01*
X86481903Y-67505947D01*
X86433357Y-67548012D01*
X86369776Y-67557154D01*
X86311346Y-67530469D01*
X86297877Y-67516635D01*
X86217354Y-67418518D01*
X86178647Y-67371353D01*
X86100570Y-67307277D01*
X86022495Y-67243202D01*
X85844341Y-67147977D01*
X85844332Y-67147973D01*
X85651037Y-67089339D01*
X85651033Y-67089338D01*
X85450000Y-67069538D01*
X85248966Y-67089338D01*
X85248962Y-67089339D01*
X85055667Y-67147973D01*
X85055658Y-67147977D01*
X84877504Y-67243202D01*
X84721353Y-67371353D01*
X84593202Y-67527504D01*
X84497977Y-67705658D01*
X84497973Y-67705667D01*
X84439339Y-67898962D01*
X84439338Y-67898966D01*
X84419538Y-68099999D01*
X84419538Y-68100000D01*
X84439338Y-68301033D01*
X84439339Y-68301037D01*
X84497973Y-68494332D01*
X84497977Y-68494341D01*
X84593202Y-68672495D01*
X84642894Y-68733044D01*
X84721353Y-68828647D01*
X84816488Y-68906722D01*
X84877504Y-68956797D01*
X84877506Y-68956798D01*
X85055659Y-69052023D01*
X85055662Y-69052024D01*
X85055667Y-69052026D01*
X85160544Y-69083839D01*
X85248967Y-69110662D01*
X85450000Y-69130462D01*
X85651033Y-69110662D01*
X85794953Y-69067004D01*
X85844332Y-69052026D01*
X85844333Y-69052025D01*
X85844341Y-69052023D01*
X86022494Y-68956798D01*
X86178647Y-68828647D01*
X86297877Y-68683363D01*
X86350965Y-68647202D01*
X86415177Y-68645482D01*
X86470126Y-68678751D01*
X86498365Y-68736446D01*
X86500000Y-68755685D01*
X86500000Y-69984314D01*
X86481903Y-70045947D01*
X86433357Y-70088012D01*
X86369776Y-70097154D01*
X86311346Y-70070469D01*
X86297877Y-70056635D01*
X86217354Y-69958518D01*
X86178647Y-69911353D01*
X86100570Y-69847277D01*
X86022495Y-69783202D01*
X85844341Y-69687977D01*
X85844332Y-69687973D01*
X85651037Y-69629339D01*
X85651033Y-69629338D01*
X85450000Y-69609538D01*
X85248966Y-69629338D01*
X85248962Y-69629339D01*
X85055667Y-69687973D01*
X85055658Y-69687977D01*
X84877504Y-69783202D01*
X84721353Y-69911353D01*
X84593202Y-70067504D01*
X84497977Y-70245658D01*
X84497973Y-70245667D01*
X84439339Y-70438962D01*
X84439338Y-70438966D01*
X84419538Y-70639999D01*
X84419538Y-70640000D01*
X84439338Y-70841033D01*
X84439339Y-70841037D01*
X84497973Y-71034332D01*
X84497977Y-71034341D01*
X84593202Y-71212495D01*
X84642894Y-71273044D01*
X84721353Y-71368647D01*
X84816488Y-71446722D01*
X84877504Y-71496797D01*
X84877506Y-71496798D01*
X85055659Y-71592023D01*
X85055662Y-71592024D01*
X85055667Y-71592026D01*
X85160544Y-71623839D01*
X85248967Y-71650662D01*
X85450000Y-71670462D01*
X85651033Y-71650662D01*
X85794953Y-71607004D01*
X85844332Y-71592026D01*
X85844333Y-71592025D01*
X85844341Y-71592023D01*
X86022494Y-71496798D01*
X86178647Y-71368647D01*
X86297877Y-71223363D01*
X86350965Y-71187202D01*
X86415177Y-71185482D01*
X86470126Y-71218751D01*
X86498365Y-71276446D01*
X86500000Y-71295685D01*
X86500000Y-73786000D01*
X86481903Y-73847633D01*
X86433357Y-73889698D01*
X86386000Y-73900000D01*
X84451730Y-73900000D01*
X84390097Y-73881903D01*
X84365936Y-73861069D01*
X83728206Y-73132234D01*
X83701240Y-73073934D01*
X83700000Y-73057165D01*
X83700000Y-71334677D01*
X83718097Y-71273044D01*
X83725877Y-71262356D01*
X83757877Y-71223364D01*
X83766798Y-71212494D01*
X83862023Y-71034341D01*
X83920662Y-70841033D01*
X83940462Y-70640000D01*
X83920662Y-70438967D01*
X83893839Y-70350544D01*
X83862026Y-70245667D01*
X83862024Y-70245662D01*
X83862023Y-70245659D01*
X83766798Y-70067506D01*
X83725876Y-70017642D01*
X83700766Y-69958518D01*
X83700000Y-69945322D01*
X83700000Y-68794677D01*
X83718097Y-68733044D01*
X83725877Y-68722356D01*
X83757877Y-68683364D01*
X83766798Y-68672494D01*
X83862023Y-68494341D01*
X83920662Y-68301033D01*
X83940462Y-68100000D01*
X83920662Y-67898967D01*
X83893839Y-67810544D01*
X83862026Y-67705667D01*
X83862024Y-67705662D01*
X83862023Y-67705659D01*
X83766798Y-67527506D01*
X83725876Y-67477642D01*
X83700766Y-67418518D01*
X83700000Y-67405322D01*
X83700000Y-64714500D01*
X83718097Y-64652867D01*
X83766643Y-64610802D01*
X83814000Y-64600500D01*
X84407408Y-64600500D01*
X84469041Y-64618597D01*
G37*
G04 #@! TD.AperFunction*
M02*
