G04 #@! TF.GenerationSoftware,KiCad,Pcbnew,8.0.8*
G04 #@! TF.CreationDate,2026-01-21T17:59:11+00:00*
G04 #@! TF.ProjectId,TestBench,54657374-4265-46e6-9368-2e6b69636164,rev?*
G04 #@! TF.SameCoordinates,Original*
G04 #@! TF.FileFunction,Legend,Top*
G04 #@! TF.FilePolarity,Positive*
%FSLAX46Y46*%
G04 Gerber Fmt 4.6, Leading zero omitted, Abs format (unit mm)*
G04 Created by KiCad (PCBNEW 8.0.8) date 2026-01-21 17:59:11*
%MOMM*%
%LPD*%
G01*
G04 APERTURE LIST*
G04 Aperture macros list*
%AMRoundRect*
0 Rectangle with rounded corners*
0 $1 Rounding radius*
0 $2 $3 $4 $5 $6 $7 $8 $9 X,Y pos of 4 corners*
0 Add a 4 corners polygon primitive as box body*
4,1,4,$2,$3,$4,$5,$6,$7,$8,$9,$2,$3,0*
0 Add four circle primitives for the rounded corners*
1,1,$1+$1,$2,$3*
1,1,$1+$1,$4,$5*
1,1,$1+$1,$6,$7*
1,1,$1+$1,$8,$9*
0 Add four rect primitives between the rounded corners*
20,1,$1+$1,$2,$3,$4,$5,0*
20,1,$1+$1,$4,$5,$6,$7,0*
20,1,$1+$1,$6,$7,$8,$9,0*
20,1,$1+$1,$8,$9,$2,$3,0*%
%AMFreePoly0*
4,1,19,0.550000,-0.750000,0.000000,-0.750000,0.000000,-0.744911,-0.071157,-0.744911,-0.207708,-0.704816,-0.327430,-0.627875,-0.420627,-0.520320,-0.479746,-0.390866,-0.500000,-0.250000,-0.500000,0.250000,-0.479746,0.390866,-0.420627,0.520320,-0.327430,0.627875,-0.207708,0.704816,-0.071157,0.744911,0.000000,0.744911,0.000000,0.750000,0.550000,0.750000,0.550000,-0.750000,0.550000,-0.750000,
$1*%
%AMFreePoly1*
4,1,19,0.000000,0.744911,0.071157,0.744911,0.207708,0.704816,0.327430,0.627875,0.420627,0.520320,0.479746,0.390866,0.500000,0.250000,0.500000,-0.250000,0.479746,-0.390866,0.420627,-0.520320,0.327430,-0.627875,0.207708,-0.704816,0.071157,-0.744911,0.000000,-0.744911,0.000000,-0.750000,-0.550000,-0.750000,-0.550000,0.750000,0.000000,0.750000,0.000000,0.744911,0.000000,0.744911,
$1*%
G04 Aperture macros list end*
%ADD10C,0.200000*%
%ADD11C,0.100000*%
%ADD12C,0.300000*%
%ADD13C,0.150000*%
%ADD14C,0.250000*%
%ADD15C,0.254000*%
%ADD16C,0.120000*%
%ADD17C,0.000000*%
%ADD18C,1.650000*%
%ADD19RoundRect,0.250000X-0.450000X0.350000X-0.450000X-0.350000X0.450000X-0.350000X0.450000X0.350000X0*%
%ADD20RoundRect,0.250000X0.350000X0.450000X-0.350000X0.450000X-0.350000X-0.450000X0.350000X-0.450000X0*%
%ADD21RoundRect,0.100000X0.100000X-0.225000X0.100000X0.225000X-0.100000X0.225000X-0.100000X-0.225000X0*%
%ADD22C,1.000000*%
%ADD23RoundRect,0.250000X0.450000X-0.350000X0.450000X0.350000X-0.450000X0.350000X-0.450000X-0.350000X0*%
%ADD24RoundRect,0.250000X0.450000X-0.325000X0.450000X0.325000X-0.450000X0.325000X-0.450000X-0.325000X0*%
%ADD25RoundRect,0.250000X-0.350000X-0.450000X0.350000X-0.450000X0.350000X0.450000X-0.350000X0.450000X0*%
%ADD26RoundRect,0.250000X0.475000X-0.337500X0.475000X0.337500X-0.475000X0.337500X-0.475000X-0.337500X0*%
%ADD27C,3.200000*%
%ADD28R,1.400000X1.200000*%
%ADD29R,2.100000X1.400000*%
%ADD30RoundRect,0.250000X-0.325000X-0.450000X0.325000X-0.450000X0.325000X0.450000X-0.325000X0.450000X0*%
%ADD31RoundRect,0.062500X0.062500X-0.350000X0.062500X0.350000X-0.062500X0.350000X-0.062500X-0.350000X0*%
%ADD32RoundRect,0.062500X0.350000X-0.062500X0.350000X0.062500X-0.350000X0.062500X-0.350000X-0.062500X0*%
%ADD33R,2.600000X2.600000*%
%ADD34RoundRect,0.250000X-0.475000X0.337500X-0.475000X-0.337500X0.475000X-0.337500X0.475000X0.337500X0*%
%ADD35RoundRect,0.250000X0.337500X0.475000X-0.337500X0.475000X-0.337500X-0.475000X0.337500X-0.475000X0*%
%ADD36RoundRect,0.100000X0.225000X0.100000X-0.225000X0.100000X-0.225000X-0.100000X0.225000X-0.100000X0*%
%ADD37RoundRect,0.250000X-0.337500X-0.475000X0.337500X-0.475000X0.337500X0.475000X-0.337500X0.475000X0*%
%ADD38R,1.700000X1.700000*%
%ADD39O,1.700000X1.700000*%
%ADD40R,1.365000X1.365000*%
%ADD41C,1.365000*%
%ADD42C,1.920000*%
%ADD43FreePoly0,90.000000*%
%ADD44R,1.500000X1.000000*%
%ADD45FreePoly1,90.000000*%
%ADD46R,1.650000X1.650000*%
%ADD47RoundRect,0.150000X-0.512500X-0.150000X0.512500X-0.150000X0.512500X0.150000X-0.512500X0.150000X0*%
%ADD48RoundRect,0.150000X0.150000X-0.512500X0.150000X0.512500X-0.150000X0.512500X-0.150000X-0.512500X0*%
%ADD49C,0.650000*%
%ADD50RoundRect,0.150000X-0.150000X-0.425000X0.150000X-0.425000X0.150000X0.425000X-0.150000X0.425000X0*%
%ADD51RoundRect,0.075000X-0.075000X-0.500000X0.075000X-0.500000X0.075000X0.500000X-0.075000X0.500000X0*%
%ADD52O,1.000000X2.100000*%
%ADD53O,1.000000X1.800000*%
%ADD54R,1.520000X2.160000*%
G04 APERTURE END LIST*
D10*
X33000000Y-42000000D02*
X35800000Y-42000000D01*
X93750000Y-42000000D02*
X97895000Y-42000000D01*
X42000000Y-98400000D02*
X40600000Y-97100000D01*
X43400000Y-97100000D01*
X42000000Y-98400000D01*
G36*
X42000000Y-98400000D02*
G01*
X40600000Y-97100000D01*
X43400000Y-97100000D01*
X42000000Y-98400000D01*
G37*
X55900000Y-48600000D02*
X54900000Y-48600000D01*
X33000000Y-99000000D02*
G75*
G02*
X31000000Y-97000000I0J2000000D01*
G01*
X51950000Y-48600000D02*
X52950000Y-48600000D01*
D11*
X90425000Y-83600000D02*
X90100000Y-84150000D01*
X48450000Y-73750000D02*
X47250000Y-73750000D01*
X47850000Y-72950000D01*
X48450000Y-73750000D01*
G36*
X48450000Y-73750000D02*
G01*
X47250000Y-73750000D01*
X47850000Y-72950000D01*
X48450000Y-73750000D01*
G37*
D10*
X55900000Y-55400000D02*
X55900000Y-54800000D01*
X101000000Y-97000000D02*
G75*
G02*
X99000000Y-99000000I-2000000J0D01*
G01*
D11*
X59100000Y-87200000D02*
X58300000Y-86600000D01*
X59100000Y-86000000D01*
X59100000Y-87200000D01*
G36*
X59100000Y-87200000D02*
G01*
X58300000Y-86600000D01*
X59100000Y-86000000D01*
X59100000Y-87200000D01*
G37*
D10*
X99000000Y-99000000D02*
X33000000Y-99000000D01*
X55900000Y-48600000D02*
X55900000Y-49200000D01*
X51950000Y-48600000D02*
X51950000Y-49200000D01*
D11*
X59100000Y-83700000D02*
X58300000Y-83100000D01*
X59100000Y-82500000D01*
X59100000Y-83700000D01*
G36*
X59100000Y-83700000D02*
G01*
X58300000Y-83100000D01*
X59100000Y-82500000D01*
X59100000Y-83700000D01*
G37*
D10*
X31000000Y-44000000D02*
X31000000Y-97000000D01*
D11*
X90425000Y-83600000D02*
X91475000Y-83600000D01*
D10*
X55900000Y-55400000D02*
X54900000Y-55400000D01*
X101000000Y-44000000D02*
X101000000Y-97000000D01*
D12*
X42000000Y-95000000D02*
X42000000Y-97200000D01*
D10*
X99000000Y-42000000D02*
X97895000Y-42000000D01*
X31000000Y-44000000D02*
G75*
G02*
X33000000Y-42000000I2000000J0D01*
G01*
X52000000Y-55400000D02*
X53000000Y-55400000D01*
X99000000Y-42000000D02*
G75*
G02*
X101000000Y-44000000I0J-2000000D01*
G01*
X52000000Y-55400000D02*
X52000000Y-54800000D01*
D12*
X45250000Y-95000000D02*
X42000000Y-95000000D01*
D13*
X54233207Y-68874580D02*
X54185588Y-68922200D01*
X54185588Y-68922200D02*
X54042731Y-68969819D01*
X54042731Y-68969819D02*
X53947493Y-68969819D01*
X53947493Y-68969819D02*
X53804636Y-68922200D01*
X53804636Y-68922200D02*
X53709398Y-68826961D01*
X53709398Y-68826961D02*
X53661779Y-68731723D01*
X53661779Y-68731723D02*
X53614160Y-68541247D01*
X53614160Y-68541247D02*
X53614160Y-68398390D01*
X53614160Y-68398390D02*
X53661779Y-68207914D01*
X53661779Y-68207914D02*
X53709398Y-68112676D01*
X53709398Y-68112676D02*
X53804636Y-68017438D01*
X53804636Y-68017438D02*
X53947493Y-67969819D01*
X53947493Y-67969819D02*
X54042731Y-67969819D01*
X54042731Y-67969819D02*
X54185588Y-68017438D01*
X54185588Y-68017438D02*
X54233207Y-68065057D01*
X55137969Y-68969819D02*
X54661779Y-68969819D01*
X54661779Y-68969819D02*
X54661779Y-67969819D01*
X55471303Y-68969819D02*
X55471303Y-67969819D01*
X56042731Y-68969819D02*
X55614160Y-68398390D01*
X56042731Y-67969819D02*
X55471303Y-68541247D01*
X56233208Y-69065057D02*
X56995112Y-69065057D01*
X57423684Y-67969819D02*
X57614160Y-67969819D01*
X57614160Y-67969819D02*
X57709398Y-68017438D01*
X57709398Y-68017438D02*
X57804636Y-68112676D01*
X57804636Y-68112676D02*
X57852255Y-68303152D01*
X57852255Y-68303152D02*
X57852255Y-68636485D01*
X57852255Y-68636485D02*
X57804636Y-68826961D01*
X57804636Y-68826961D02*
X57709398Y-68922200D01*
X57709398Y-68922200D02*
X57614160Y-68969819D01*
X57614160Y-68969819D02*
X57423684Y-68969819D01*
X57423684Y-68969819D02*
X57328446Y-68922200D01*
X57328446Y-68922200D02*
X57233208Y-68826961D01*
X57233208Y-68826961D02*
X57185589Y-68636485D01*
X57185589Y-68636485D02*
X57185589Y-68303152D01*
X57185589Y-68303152D02*
X57233208Y-68112676D01*
X57233208Y-68112676D02*
X57328446Y-68017438D01*
X57328446Y-68017438D02*
X57423684Y-67969819D01*
X58280827Y-67969819D02*
X58280827Y-68779342D01*
X58280827Y-68779342D02*
X58328446Y-68874580D01*
X58328446Y-68874580D02*
X58376065Y-68922200D01*
X58376065Y-68922200D02*
X58471303Y-68969819D01*
X58471303Y-68969819D02*
X58661779Y-68969819D01*
X58661779Y-68969819D02*
X58757017Y-68922200D01*
X58757017Y-68922200D02*
X58804636Y-68874580D01*
X58804636Y-68874580D02*
X58852255Y-68779342D01*
X58852255Y-68779342D02*
X58852255Y-67969819D01*
X59185589Y-67969819D02*
X59757017Y-67969819D01*
X59471303Y-68969819D02*
X59471303Y-67969819D01*
G36*
X70452734Y-44308603D02*
G01*
X70518667Y-44316045D01*
X70595399Y-44333686D01*
X70659351Y-44360146D01*
X70721316Y-44405625D01*
X70763299Y-44464886D01*
X70782494Y-44522218D01*
X70788893Y-44588369D01*
X70788893Y-44962940D01*
X70789706Y-45012045D01*
X70793565Y-45073121D01*
X70803162Y-45138442D01*
X70821915Y-45198000D01*
X70559647Y-45198000D01*
X70551707Y-45173042D01*
X70541549Y-45114175D01*
X70494730Y-45151229D01*
X70434167Y-45184768D01*
X70367185Y-45207873D01*
X70304648Y-45219372D01*
X70237369Y-45223205D01*
X70181133Y-45220763D01*
X70113467Y-45209910D01*
X70047370Y-45187321D01*
X69991929Y-45153743D01*
X69970957Y-45135443D01*
X69930850Y-45082480D01*
X69909729Y-45026004D01*
X69902707Y-44961182D01*
X69903245Y-44951217D01*
X70168468Y-44951217D01*
X70172857Y-44985470D01*
X70205617Y-45035920D01*
X70247268Y-45058258D01*
X70310397Y-45066988D01*
X70353823Y-45064547D01*
X70419050Y-45049009D01*
X70476775Y-45015990D01*
X70501272Y-44991628D01*
X70530803Y-44936437D01*
X70539644Y-44873840D01*
X70539644Y-44776534D01*
X70492766Y-44794679D01*
X70427224Y-44810068D01*
X70357707Y-44821670D01*
X70330262Y-44826068D01*
X70267713Y-44839381D01*
X70208475Y-44863875D01*
X70182572Y-44893618D01*
X70168468Y-44951217D01*
X69903245Y-44951217D01*
X69904850Y-44921506D01*
X69917948Y-44863875D01*
X69928310Y-44841241D01*
X69969068Y-44793240D01*
X69984347Y-44781237D01*
X70036381Y-44746053D01*
X70063780Y-44733178D01*
X70124651Y-44715864D01*
X70151570Y-44710437D01*
X70215778Y-44698279D01*
X70248313Y-44693384D01*
X70312302Y-44685676D01*
X70367611Y-44678283D01*
X70431760Y-44667429D01*
X70495191Y-44650505D01*
X70517554Y-44637558D01*
X70541549Y-44581628D01*
X70537410Y-44548192D01*
X70499200Y-44494580D01*
X70438213Y-44471118D01*
X70372313Y-44465564D01*
X70366764Y-44465593D01*
X70303211Y-44471237D01*
X70241179Y-44494873D01*
X70204934Y-44538782D01*
X70186566Y-44598334D01*
X69944619Y-44598334D01*
X69948831Y-44562933D01*
X69966451Y-44498992D01*
X69996330Y-44444195D01*
X70038463Y-44398539D01*
X70092847Y-44362022D01*
X70159479Y-44334639D01*
X70238354Y-44316387D01*
X70305543Y-44308688D01*
X70379616Y-44306122D01*
X70452734Y-44308603D01*
G37*
G36*
X71876702Y-45198000D02*
G01*
X71876702Y-44618558D01*
X71872512Y-44556444D01*
X71857479Y-44493493D01*
X71831548Y-44439115D01*
X71789385Y-44388188D01*
X71735111Y-44349269D01*
X71670848Y-44323047D01*
X71605307Y-44310430D01*
X71550931Y-44307588D01*
X71480631Y-44312684D01*
X71415835Y-44327959D01*
X71356556Y-44353388D01*
X71302807Y-44388948D01*
X71254601Y-44434617D01*
X71239766Y-44452082D01*
X71239766Y-44331328D01*
X70994009Y-44331328D01*
X70994009Y-45198000D01*
X71250561Y-45198000D01*
X71250561Y-44732863D01*
X71255538Y-44667004D01*
X71274648Y-44602707D01*
X71315059Y-44548010D01*
X71374978Y-44515192D01*
X71441865Y-44504475D01*
X71454406Y-44504252D01*
X71521174Y-44512108D01*
X71575105Y-44543466D01*
X71581730Y-44552026D01*
X71605390Y-44606774D01*
X71614231Y-44670023D01*
X71614752Y-44692417D01*
X71614752Y-45198000D01*
X71876702Y-45198000D01*
G37*
G36*
X72985785Y-45198000D02*
G01*
X72741933Y-45198000D01*
X72741933Y-45087211D01*
X72710514Y-45125967D01*
X72658480Y-45169190D01*
X72597057Y-45199537D01*
X72526244Y-45217010D01*
X72458073Y-45221740D01*
X72387807Y-45217323D01*
X72323111Y-45204089D01*
X72254692Y-45177536D01*
X72193893Y-45139049D01*
X72147861Y-45096590D01*
X72120742Y-45063946D01*
X72086866Y-45010027D01*
X72061139Y-44950154D01*
X72043550Y-44884315D01*
X72035100Y-44824883D01*
X72032285Y-44761293D01*
X72292330Y-44761293D01*
X72292565Y-44776849D01*
X72299396Y-44841517D01*
X72317995Y-44903208D01*
X72351706Y-44958837D01*
X72388467Y-44993265D01*
X72448500Y-45021642D01*
X72514591Y-45030058D01*
X72565131Y-45025712D01*
X72629489Y-45002853D01*
X72680017Y-44960302D01*
X72696883Y-44937159D01*
X72721993Y-44882297D01*
X72734803Y-44823218D01*
X72738440Y-44763052D01*
X72738209Y-44747500D01*
X72731461Y-44682932D01*
X72713006Y-44621515D01*
X72679382Y-44566387D01*
X72642277Y-44532328D01*
X72581552Y-44504144D01*
X72514591Y-44495752D01*
X72464702Y-44500195D01*
X72401030Y-44523430D01*
X72350753Y-44566387D01*
X72333993Y-44589797D01*
X72308903Y-44644398D01*
X72296011Y-44702483D01*
X72292330Y-44761293D01*
X72032285Y-44761293D01*
X72033265Y-44723584D01*
X72039255Y-44663868D01*
X72053643Y-44597396D01*
X72075897Y-44536603D01*
X72106028Y-44481514D01*
X72144050Y-44432152D01*
X72188697Y-44389856D01*
X72247523Y-44351543D01*
X72313568Y-44325130D01*
X72375893Y-44311975D01*
X72443468Y-44307588D01*
X72481306Y-44309223D01*
X72543840Y-44319554D01*
X72608258Y-44341293D01*
X72636020Y-44354903D01*
X72688128Y-44391758D01*
X72729232Y-44438600D01*
X72729232Y-44001893D01*
X72985785Y-44001893D01*
X72985785Y-45198000D01*
G37*
G36*
X74686399Y-44001893D02*
G01*
X73714483Y-44001893D01*
X73714483Y-45198000D01*
X74699099Y-45198000D01*
X74699099Y-44978181D01*
X73996755Y-44978181D01*
X73996755Y-44683917D01*
X74629881Y-44683917D01*
X74629881Y-44477288D01*
X73996755Y-44477288D01*
X73996755Y-44217023D01*
X74686399Y-44217023D01*
X74686399Y-44001893D01*
G37*
G36*
X75131556Y-44001893D02*
G01*
X74873098Y-44001893D01*
X74873098Y-45198000D01*
X75131556Y-45198000D01*
X75131556Y-44001893D01*
G37*
G36*
X75793813Y-44306641D02*
G01*
X75868564Y-44314430D01*
X75937204Y-44331584D01*
X75999720Y-44358129D01*
X76056099Y-44394086D01*
X76106329Y-44439479D01*
X76148912Y-44492936D01*
X76182709Y-44553070D01*
X76204153Y-44608282D01*
X76219478Y-44668131D01*
X76228679Y-44732617D01*
X76231748Y-44801740D01*
X76231748Y-44825187D01*
X75558297Y-44825187D01*
X75563739Y-44884252D01*
X75582259Y-44944920D01*
X75617355Y-44996646D01*
X75653395Y-45024939D01*
X75712774Y-45048315D01*
X75778653Y-45055264D01*
X75826884Y-45050842D01*
X75888530Y-45027606D01*
X75937296Y-44984414D01*
X75969797Y-44929235D01*
X76217142Y-44929235D01*
X76214360Y-44937911D01*
X76190783Y-44995189D01*
X76155107Y-45053286D01*
X76110204Y-45103578D01*
X76056161Y-45146122D01*
X76041285Y-45155489D01*
X75978348Y-45186858D01*
X75909896Y-45208514D01*
X75845454Y-45219539D01*
X75776748Y-45223205D01*
X75736861Y-45222115D01*
X75673694Y-45215452D01*
X75603358Y-45199451D01*
X75538983Y-45174705D01*
X75480569Y-45141204D01*
X75428115Y-45098935D01*
X75397202Y-45066579D01*
X75358581Y-45013351D01*
X75329249Y-44954477D01*
X75309193Y-44889946D01*
X75299557Y-44831841D01*
X75296346Y-44769793D01*
X75297510Y-44732582D01*
X75304554Y-44673952D01*
X75558297Y-44673952D01*
X75969797Y-44673952D01*
X75964901Y-44642913D01*
X75944073Y-44583185D01*
X75909469Y-44533561D01*
X75892567Y-44517856D01*
X75834849Y-44488043D01*
X75767540Y-44479046D01*
X75746673Y-44479857D01*
X75680672Y-44495513D01*
X75625610Y-44531217D01*
X75600313Y-44559619D01*
X75571218Y-44616180D01*
X75558297Y-44673952D01*
X75304554Y-44673952D01*
X75304627Y-44673343D01*
X75321716Y-44606831D01*
X75348144Y-44545300D01*
X75383924Y-44488739D01*
X75429068Y-44437134D01*
X75445964Y-44421269D01*
X75500082Y-44379816D01*
X75559324Y-44347575D01*
X75623664Y-44324546D01*
X75693078Y-44310728D01*
X75767540Y-44306122D01*
X75793813Y-44306641D01*
G37*
G36*
X77273834Y-44863875D02*
G01*
X77024584Y-44863875D01*
X77008117Y-44923204D01*
X76976615Y-44976933D01*
X76924379Y-45017894D01*
X76854801Y-45037020D01*
X76824232Y-45038558D01*
X76758581Y-45030130D01*
X76699284Y-45001656D01*
X76663251Y-44967043D01*
X76630712Y-44911210D01*
X76612852Y-44848490D01*
X76606601Y-44790076D01*
X76606099Y-44766276D01*
X76609790Y-44703518D01*
X76622766Y-44641585D01*
X76648143Y-44583540D01*
X76665157Y-44558767D01*
X76711274Y-44516216D01*
X76774165Y-44489941D01*
X76829947Y-44484029D01*
X76900133Y-44493371D01*
X76960126Y-44526215D01*
X76996561Y-44575262D01*
X77015376Y-44633505D01*
X77268436Y-44633505D01*
X77256436Y-44570369D01*
X77234629Y-44513292D01*
X77203058Y-44462274D01*
X77161760Y-44417314D01*
X77133810Y-44394343D01*
X77078807Y-44359929D01*
X77017149Y-44333995D01*
X76948836Y-44316524D01*
X76884986Y-44308270D01*
X76828042Y-44306122D01*
X76761862Y-44309235D01*
X76688065Y-44321188D01*
X76620359Y-44342105D01*
X76558709Y-44371986D01*
X76503076Y-44410832D01*
X76477505Y-44433617D01*
X76432685Y-44484467D01*
X76397161Y-44541067D01*
X76370923Y-44603417D01*
X76353956Y-44671516D01*
X76346891Y-44732657D01*
X76345736Y-44771258D01*
X76348924Y-44832893D01*
X76361182Y-44901642D01*
X76382661Y-44964702D01*
X76413387Y-45022075D01*
X76453386Y-45073760D01*
X76476870Y-45097469D01*
X76528999Y-45139140D01*
X76587157Y-45172168D01*
X76651342Y-45196563D01*
X76721555Y-45212338D01*
X76784671Y-45218907D01*
X76824549Y-45219981D01*
X76892360Y-45216674D01*
X76955404Y-45206751D01*
X77022911Y-45186814D01*
X77083892Y-45157872D01*
X77130952Y-45125899D01*
X77178649Y-45081204D01*
X77217139Y-45029440D01*
X77246421Y-44970608D01*
X77266497Y-44904707D01*
X77273834Y-44863875D01*
G37*
G36*
X77939347Y-44331328D02*
G01*
X77748203Y-44331328D01*
X77748203Y-44069011D01*
X77491650Y-44069011D01*
X77491650Y-44331328D01*
X77335115Y-44331328D01*
X77335115Y-44492528D01*
X77491650Y-44492528D01*
X77491650Y-44942717D01*
X77494567Y-45006277D01*
X77505045Y-45066932D01*
X77528859Y-45124894D01*
X77552613Y-45153743D01*
X77607344Y-45184780D01*
X77671157Y-45200592D01*
X77742225Y-45207406D01*
X77782812Y-45208258D01*
X77848007Y-45206742D01*
X77916173Y-45203068D01*
X77939347Y-45201517D01*
X77939347Y-45020093D01*
X77875578Y-45023250D01*
X77861238Y-45023317D01*
X77797912Y-45017833D01*
X77796465Y-45017455D01*
X77762808Y-44993129D01*
X77750108Y-44957078D01*
X77748203Y-44900805D01*
X77748203Y-44492528D01*
X77939347Y-44492528D01*
X77939347Y-44331328D01*
G37*
G36*
X78672173Y-44316087D02*
G01*
X78615973Y-44311105D01*
X78540857Y-44317413D01*
X78474101Y-44336345D01*
X78415692Y-44367911D01*
X78365617Y-44412125D01*
X78323864Y-44468997D01*
X78311793Y-44490770D01*
X78311793Y-44331328D01*
X78066353Y-44331328D01*
X78066353Y-45198000D01*
X78324811Y-45198000D01*
X78324811Y-44801740D01*
X78328562Y-44741890D01*
X78341748Y-44682275D01*
X78367533Y-44625574D01*
X78384822Y-44600972D01*
X78434057Y-44558421D01*
X78492622Y-44535065D01*
X78556521Y-44526526D01*
X78572156Y-44526234D01*
X78635858Y-44530482D01*
X78672173Y-44536199D01*
X78672173Y-44316087D01*
G37*
G36*
X79239136Y-44307228D02*
G01*
X79302303Y-44313985D01*
X79372639Y-44330214D01*
X79437014Y-44355310D01*
X79495428Y-44389285D01*
X79547882Y-44432152D01*
X79578795Y-44464850D01*
X79617416Y-44518645D01*
X79646748Y-44578148D01*
X79666804Y-44643369D01*
X79676440Y-44702097D01*
X79679651Y-44764810D01*
X79678495Y-44803089D01*
X79671430Y-44863715D01*
X79654463Y-44931208D01*
X79628225Y-44992932D01*
X79592702Y-45048853D01*
X79547882Y-45098935D01*
X79522367Y-45121480D01*
X79466672Y-45159900D01*
X79404767Y-45189434D01*
X79336665Y-45210095D01*
X79262378Y-45221893D01*
X79195757Y-45224964D01*
X79155188Y-45223859D01*
X79091026Y-45217101D01*
X79019709Y-45200873D01*
X78954563Y-45175777D01*
X78895561Y-45141801D01*
X78842679Y-45098935D01*
X78811529Y-45066197D01*
X78772569Y-45012219D01*
X78742940Y-44952426D01*
X78722654Y-44886852D01*
X78712895Y-44827816D01*
X78709640Y-44764810D01*
X78968098Y-44764810D01*
X78969036Y-44796986D01*
X78978002Y-44862752D01*
X78996462Y-44919336D01*
X79028108Y-44971440D01*
X79070266Y-45010389D01*
X79127383Y-45036571D01*
X79195757Y-45045299D01*
X79258072Y-45038000D01*
X79315805Y-45013112D01*
X79362135Y-44970561D01*
X79379149Y-44945788D01*
X79404525Y-44887742D01*
X79417502Y-44825810D01*
X79421193Y-44763052D01*
X79420657Y-44739304D01*
X79412620Y-44673933D01*
X79392378Y-44611701D01*
X79360230Y-44560526D01*
X79317643Y-44522040D01*
X79260345Y-44496169D01*
X79191946Y-44487546D01*
X79137009Y-44493388D01*
X79074543Y-44519354D01*
X79028108Y-44561405D01*
X79010820Y-44585839D01*
X78985034Y-44642850D01*
X78971849Y-44703476D01*
X78968098Y-44764810D01*
X78709640Y-44764810D01*
X78710821Y-44726703D01*
X78718039Y-44666382D01*
X78735374Y-44599252D01*
X78762182Y-44537845D01*
X78798475Y-44482149D01*
X78844267Y-44432152D01*
X78870292Y-44409606D01*
X78926858Y-44371187D01*
X78989432Y-44341652D01*
X79058003Y-44320992D01*
X79132558Y-44309193D01*
X79199249Y-44306122D01*
X79239136Y-44307228D01*
G37*
G36*
X80732850Y-45198000D02*
G01*
X80732850Y-44618558D01*
X80728660Y-44556444D01*
X80713627Y-44493493D01*
X80687696Y-44439115D01*
X80645533Y-44388188D01*
X80591259Y-44349269D01*
X80526996Y-44323047D01*
X80461454Y-44310430D01*
X80407079Y-44307588D01*
X80336779Y-44312684D01*
X80271983Y-44327959D01*
X80212704Y-44353388D01*
X80158955Y-44388948D01*
X80110749Y-44434617D01*
X80095914Y-44452082D01*
X80095914Y-44331328D01*
X79850157Y-44331328D01*
X79850157Y-45198000D01*
X80106709Y-45198000D01*
X80106709Y-44732863D01*
X80111686Y-44667004D01*
X80130796Y-44602707D01*
X80171207Y-44548010D01*
X80231126Y-44515192D01*
X80298013Y-44504475D01*
X80310554Y-44504252D01*
X80377322Y-44512108D01*
X80431253Y-44543466D01*
X80437878Y-44552026D01*
X80461538Y-44606774D01*
X80470379Y-44670023D01*
X80470900Y-44692417D01*
X80470900Y-45198000D01*
X80732850Y-45198000D01*
G37*
G36*
X81192295Y-44001893D02*
G01*
X80933838Y-44001893D01*
X80933838Y-44203540D01*
X81192295Y-44203540D01*
X81192295Y-44001893D01*
G37*
G36*
X81192295Y-44331328D02*
G01*
X80933838Y-44331328D01*
X80933838Y-45198000D01*
X81192295Y-45198000D01*
X81192295Y-44331328D01*
G37*
G36*
X82290582Y-44863875D02*
G01*
X82041332Y-44863875D01*
X82024865Y-44923204D01*
X81993363Y-44976933D01*
X81941128Y-45017894D01*
X81871549Y-45037020D01*
X81840980Y-45038558D01*
X81775329Y-45030130D01*
X81716033Y-45001656D01*
X81680000Y-44967043D01*
X81647460Y-44911210D01*
X81629600Y-44848490D01*
X81623349Y-44790076D01*
X81622847Y-44766276D01*
X81626538Y-44703518D01*
X81639514Y-44641585D01*
X81664891Y-44583540D01*
X81681905Y-44558767D01*
X81728022Y-44516216D01*
X81790913Y-44489941D01*
X81846695Y-44484029D01*
X81916881Y-44493371D01*
X81976874Y-44526215D01*
X82013309Y-44575262D01*
X82032124Y-44633505D01*
X82285184Y-44633505D01*
X82273184Y-44570369D01*
X82251378Y-44513292D01*
X82219806Y-44462274D01*
X82178508Y-44417314D01*
X82150558Y-44394343D01*
X82095555Y-44359929D01*
X82033897Y-44333995D01*
X81965584Y-44316524D01*
X81901734Y-44308270D01*
X81844790Y-44306122D01*
X81778611Y-44309235D01*
X81704813Y-44321188D01*
X81637107Y-44342105D01*
X81575457Y-44371986D01*
X81519824Y-44410832D01*
X81494253Y-44433617D01*
X81449433Y-44484467D01*
X81413910Y-44541067D01*
X81387671Y-44603417D01*
X81370704Y-44671516D01*
X81363639Y-44732657D01*
X81362484Y-44771258D01*
X81365672Y-44832893D01*
X81377930Y-44901642D01*
X81399409Y-44964702D01*
X81430136Y-45022075D01*
X81470134Y-45073760D01*
X81493618Y-45097469D01*
X81545747Y-45139140D01*
X81603905Y-45172168D01*
X81668090Y-45196563D01*
X81738303Y-45212338D01*
X81801419Y-45218907D01*
X81841297Y-45219981D01*
X81909109Y-45216674D01*
X81972152Y-45206751D01*
X82039659Y-45186814D01*
X82100640Y-45157872D01*
X82147700Y-45125899D01*
X82195397Y-45081204D01*
X82233887Y-45029440D01*
X82263169Y-44970608D01*
X82283245Y-44904707D01*
X82290582Y-44863875D01*
G37*
G36*
X83943886Y-44001893D02*
G01*
X82971971Y-44001893D01*
X82971971Y-45198000D01*
X83956587Y-45198000D01*
X83956587Y-44978181D01*
X83254242Y-44978181D01*
X83254242Y-44683917D01*
X83887369Y-44683917D01*
X83887369Y-44477288D01*
X83254242Y-44477288D01*
X83254242Y-44217023D01*
X83943886Y-44217023D01*
X83943886Y-44001893D01*
G37*
G36*
X85007882Y-45198000D02*
G01*
X85007882Y-44618558D01*
X85003691Y-44556444D01*
X84988659Y-44493493D01*
X84962727Y-44439115D01*
X84920565Y-44388188D01*
X84866290Y-44349269D01*
X84802028Y-44323047D01*
X84736486Y-44310430D01*
X84682110Y-44307588D01*
X84611810Y-44312684D01*
X84547014Y-44327959D01*
X84487736Y-44353388D01*
X84433987Y-44388948D01*
X84385780Y-44434617D01*
X84370945Y-44452082D01*
X84370945Y-44331328D01*
X84125188Y-44331328D01*
X84125188Y-45198000D01*
X84381741Y-45198000D01*
X84381741Y-44732863D01*
X84386717Y-44667004D01*
X84405828Y-44602707D01*
X84446238Y-44548010D01*
X84506158Y-44515192D01*
X84573044Y-44504475D01*
X84585586Y-44504252D01*
X84652353Y-44512108D01*
X84706285Y-44543466D01*
X84712909Y-44552026D01*
X84736570Y-44606774D01*
X84745411Y-44670023D01*
X84745931Y-44692417D01*
X84745931Y-45198000D01*
X85007882Y-45198000D01*
G37*
G36*
X85614077Y-44308759D02*
G01*
X85678285Y-44318055D01*
X85741343Y-44340414D01*
X85768961Y-44356778D01*
X85817388Y-44397501D01*
X85858506Y-44447099D01*
X85858506Y-44331328D01*
X86102676Y-44331328D01*
X86102676Y-45107434D01*
X86102563Y-45120651D01*
X86098626Y-45183433D01*
X86086484Y-45251494D01*
X86066264Y-45311596D01*
X86032479Y-45371624D01*
X85987735Y-45420749D01*
X85965256Y-45438588D01*
X85904676Y-45473411D01*
X85843702Y-45495670D01*
X85774390Y-45510913D01*
X85710268Y-45518247D01*
X85640373Y-45520693D01*
X85615576Y-45520429D01*
X85545459Y-45516462D01*
X85481751Y-45507737D01*
X85406771Y-45488704D01*
X85343171Y-45461218D01*
X85290944Y-45425281D01*
X85241643Y-45368483D01*
X85214977Y-45313546D01*
X85199661Y-45250170D01*
X85456531Y-45250170D01*
X85471668Y-45289686D01*
X85516542Y-45335166D01*
X85519408Y-45336763D01*
X85579744Y-45356227D01*
X85645771Y-45361251D01*
X85695284Y-45358607D01*
X85757620Y-45343829D01*
X85809609Y-45306443D01*
X85835316Y-45256902D01*
X85848933Y-45196282D01*
X85853108Y-45135864D01*
X85855013Y-45038558D01*
X85820112Y-45077314D01*
X85764998Y-45120536D01*
X85702591Y-45150884D01*
X85632891Y-45168357D01*
X85567344Y-45173087D01*
X85522573Y-45171273D01*
X85449932Y-45159372D01*
X85384521Y-45136363D01*
X85326300Y-45102247D01*
X85275230Y-45057023D01*
X85262136Y-45042209D01*
X85222937Y-44985533D01*
X85197556Y-44930957D01*
X85179776Y-44870821D01*
X85169607Y-44805101D01*
X85166957Y-44746053D01*
X85166984Y-44744587D01*
X85421922Y-44744587D01*
X85422153Y-44758693D01*
X85428901Y-44817677D01*
X85447356Y-44874626D01*
X85480980Y-44926890D01*
X85517447Y-44959675D01*
X85576223Y-44986807D01*
X85640373Y-44994887D01*
X85687762Y-44990596D01*
X85749023Y-44968025D01*
X85798496Y-44926011D01*
X85805588Y-44917194D01*
X85836368Y-44861948D01*
X85852315Y-44801807D01*
X85856919Y-44739605D01*
X85856691Y-44725292D01*
X85850040Y-44665745D01*
X85831805Y-44608937D01*
X85798496Y-44557888D01*
X85762345Y-44526251D01*
X85703362Y-44500229D01*
X85638468Y-44492528D01*
X85590300Y-44496655D01*
X85528475Y-44518360D01*
X85479075Y-44558767D01*
X85472154Y-44567271D01*
X85442071Y-44621432D01*
X85426443Y-44681559D01*
X85421922Y-44744587D01*
X85166984Y-44744587D01*
X85167400Y-44721622D01*
X85174037Y-44651929D01*
X85188627Y-44587661D01*
X85211158Y-44528853D01*
X85241617Y-44475539D01*
X85279993Y-44427755D01*
X85316929Y-44393169D01*
X85374708Y-44354571D01*
X85439528Y-44327449D01*
X85511352Y-44311821D01*
X85578457Y-44307588D01*
X85614077Y-44308759D01*
G37*
G36*
X86578632Y-44001893D02*
G01*
X86320174Y-44001893D01*
X86320174Y-44203540D01*
X86578632Y-44203540D01*
X86578632Y-44001893D01*
G37*
G36*
X86578632Y-44331328D02*
G01*
X86320174Y-44331328D01*
X86320174Y-45198000D01*
X86578632Y-45198000D01*
X86578632Y-44331328D01*
G37*
G36*
X87666123Y-45198000D02*
G01*
X87666123Y-44618558D01*
X87661933Y-44556444D01*
X87646900Y-44493493D01*
X87620969Y-44439115D01*
X87578806Y-44388188D01*
X87524532Y-44349269D01*
X87460269Y-44323047D01*
X87394727Y-44310430D01*
X87340352Y-44307588D01*
X87270052Y-44312684D01*
X87205256Y-44327959D01*
X87145977Y-44353388D01*
X87092228Y-44388948D01*
X87044022Y-44434617D01*
X87029187Y-44452082D01*
X87029187Y-44331328D01*
X86783429Y-44331328D01*
X86783429Y-45198000D01*
X87039982Y-45198000D01*
X87039982Y-44732863D01*
X87044959Y-44667004D01*
X87064069Y-44602707D01*
X87104480Y-44548010D01*
X87164399Y-44515192D01*
X87231286Y-44504475D01*
X87243827Y-44504252D01*
X87310595Y-44512108D01*
X87364526Y-44543466D01*
X87371151Y-44552026D01*
X87394811Y-44606774D01*
X87403652Y-44670023D01*
X87404173Y-44692417D01*
X87404173Y-45198000D01*
X87666123Y-45198000D01*
G37*
G36*
X88319172Y-44306641D02*
G01*
X88393924Y-44314430D01*
X88462563Y-44331584D01*
X88525079Y-44358129D01*
X88581458Y-44394086D01*
X88631688Y-44439479D01*
X88674272Y-44492936D01*
X88708069Y-44553070D01*
X88729512Y-44608282D01*
X88744838Y-44668131D01*
X88754038Y-44732617D01*
X88757107Y-44801740D01*
X88757107Y-44825187D01*
X88083656Y-44825187D01*
X88089098Y-44884252D01*
X88107619Y-44944920D01*
X88142714Y-44996646D01*
X88178754Y-45024939D01*
X88238133Y-45048315D01*
X88304012Y-45055264D01*
X88352244Y-45050842D01*
X88413890Y-45027606D01*
X88462656Y-44984414D01*
X88495157Y-44929235D01*
X88742501Y-44929235D01*
X88739719Y-44937911D01*
X88716142Y-44995189D01*
X88680467Y-45053286D01*
X88635563Y-45103578D01*
X88581521Y-45146122D01*
X88566645Y-45155489D01*
X88503707Y-45186858D01*
X88435256Y-45208514D01*
X88370814Y-45219539D01*
X88302107Y-45223205D01*
X88262220Y-45222115D01*
X88199053Y-45215452D01*
X88128717Y-45199451D01*
X88064342Y-45174705D01*
X88005928Y-45141204D01*
X87953475Y-45098935D01*
X87922561Y-45066579D01*
X87883940Y-45013351D01*
X87854608Y-44954477D01*
X87834552Y-44889946D01*
X87824916Y-44831841D01*
X87821706Y-44769793D01*
X87822870Y-44732582D01*
X87829913Y-44673952D01*
X88083656Y-44673952D01*
X88495157Y-44673952D01*
X88490260Y-44642913D01*
X88469432Y-44583185D01*
X88434829Y-44533561D01*
X88417926Y-44517856D01*
X88360208Y-44488043D01*
X88292899Y-44479046D01*
X88272032Y-44479857D01*
X88206031Y-44495513D01*
X88150969Y-44531217D01*
X88125672Y-44559619D01*
X88096577Y-44616180D01*
X88083656Y-44673952D01*
X87829913Y-44673952D01*
X87829986Y-44673343D01*
X87847075Y-44606831D01*
X87873504Y-44545300D01*
X87909283Y-44488739D01*
X87954427Y-44437134D01*
X87971324Y-44421269D01*
X88025442Y-44379816D01*
X88084683Y-44347575D01*
X88149023Y-44324546D01*
X88218437Y-44310728D01*
X88292899Y-44306122D01*
X88319172Y-44306641D01*
G37*
G36*
X89363164Y-44306641D02*
G01*
X89437915Y-44314430D01*
X89506555Y-44331584D01*
X89569071Y-44358129D01*
X89625450Y-44394086D01*
X89675680Y-44439479D01*
X89718263Y-44492936D01*
X89752060Y-44553070D01*
X89773504Y-44608282D01*
X89788829Y-44668131D01*
X89798030Y-44732617D01*
X89801099Y-44801740D01*
X89801099Y-44825187D01*
X89127648Y-44825187D01*
X89133090Y-44884252D01*
X89151610Y-44944920D01*
X89186706Y-44996646D01*
X89222746Y-45024939D01*
X89282125Y-45048315D01*
X89348004Y-45055264D01*
X89396235Y-45050842D01*
X89457881Y-45027606D01*
X89506647Y-44984414D01*
X89539148Y-44929235D01*
X89786493Y-44929235D01*
X89783711Y-44937911D01*
X89760134Y-44995189D01*
X89724458Y-45053286D01*
X89679555Y-45103578D01*
X89625512Y-45146122D01*
X89610636Y-45155489D01*
X89547699Y-45186858D01*
X89479247Y-45208514D01*
X89414805Y-45219539D01*
X89346099Y-45223205D01*
X89306212Y-45222115D01*
X89243045Y-45215452D01*
X89172709Y-45199451D01*
X89108334Y-45174705D01*
X89049920Y-45141204D01*
X88997466Y-45098935D01*
X88966553Y-45066579D01*
X88927932Y-45013351D01*
X88898600Y-44954477D01*
X88878544Y-44889946D01*
X88868908Y-44831841D01*
X88865697Y-44769793D01*
X88866861Y-44732582D01*
X88873905Y-44673952D01*
X89127648Y-44673952D01*
X89539148Y-44673952D01*
X89534252Y-44642913D01*
X89513424Y-44583185D01*
X89478820Y-44533561D01*
X89461918Y-44517856D01*
X89404200Y-44488043D01*
X89336891Y-44479046D01*
X89316024Y-44479857D01*
X89250023Y-44495513D01*
X89194961Y-44531217D01*
X89169664Y-44559619D01*
X89140569Y-44616180D01*
X89127648Y-44673952D01*
X88873905Y-44673952D01*
X88873978Y-44673343D01*
X88891067Y-44606831D01*
X88917495Y-44545300D01*
X88953275Y-44488739D01*
X88998419Y-44437134D01*
X89015315Y-44421269D01*
X89069433Y-44379816D01*
X89128675Y-44347575D01*
X89193015Y-44324546D01*
X89262429Y-44310728D01*
X89336891Y-44306122D01*
X89363164Y-44306641D01*
G37*
G36*
X90557421Y-44316087D02*
G01*
X90501221Y-44311105D01*
X90426105Y-44317413D01*
X90359349Y-44336345D01*
X90300940Y-44367911D01*
X90250865Y-44412125D01*
X90209111Y-44468997D01*
X90197041Y-44490770D01*
X90197041Y-44331328D01*
X89951601Y-44331328D01*
X89951601Y-45198000D01*
X90210059Y-45198000D01*
X90210059Y-44801740D01*
X90213809Y-44741890D01*
X90226995Y-44682275D01*
X90252781Y-44625574D01*
X90270069Y-44600972D01*
X90319305Y-44558421D01*
X90377869Y-44535065D01*
X90441768Y-44526526D01*
X90457404Y-44526234D01*
X90521106Y-44530482D01*
X90557421Y-44536199D01*
X90557421Y-44316087D01*
G37*
G36*
X90920976Y-44001893D02*
G01*
X90662519Y-44001893D01*
X90662519Y-44203540D01*
X90920976Y-44203540D01*
X90920976Y-44001893D01*
G37*
G36*
X90920976Y-44331328D02*
G01*
X90662519Y-44331328D01*
X90662519Y-45198000D01*
X90920976Y-45198000D01*
X90920976Y-44331328D01*
G37*
G36*
X92008468Y-45198000D02*
G01*
X92008468Y-44618558D01*
X92004278Y-44556444D01*
X91989245Y-44493493D01*
X91963314Y-44439115D01*
X91921151Y-44388188D01*
X91866877Y-44349269D01*
X91802614Y-44323047D01*
X91737072Y-44310430D01*
X91682697Y-44307588D01*
X91612396Y-44312684D01*
X91547601Y-44327959D01*
X91488322Y-44353388D01*
X91434573Y-44388948D01*
X91386366Y-44434617D01*
X91371531Y-44452082D01*
X91371531Y-44331328D01*
X91125774Y-44331328D01*
X91125774Y-45198000D01*
X91382327Y-45198000D01*
X91382327Y-44732863D01*
X91387303Y-44667004D01*
X91406414Y-44602707D01*
X91446825Y-44548010D01*
X91506744Y-44515192D01*
X91573631Y-44504475D01*
X91586172Y-44504252D01*
X91652940Y-44512108D01*
X91706871Y-44543466D01*
X91713496Y-44552026D01*
X91737156Y-44606774D01*
X91745997Y-44670023D01*
X91746517Y-44692417D01*
X91746517Y-45198000D01*
X92008468Y-45198000D01*
G37*
G36*
X92614664Y-44308759D02*
G01*
X92678871Y-44318055D01*
X92741929Y-44340414D01*
X92769548Y-44356778D01*
X92817975Y-44397501D01*
X92859092Y-44447099D01*
X92859092Y-44331328D01*
X93103262Y-44331328D01*
X93103262Y-45107434D01*
X93103149Y-45120651D01*
X93099212Y-45183433D01*
X93087070Y-45251494D01*
X93066850Y-45311596D01*
X93033065Y-45371624D01*
X92988321Y-45420749D01*
X92965843Y-45438588D01*
X92905262Y-45473411D01*
X92844288Y-45495670D01*
X92774976Y-45510913D01*
X92710855Y-45518247D01*
X92640959Y-45520693D01*
X92616162Y-45520429D01*
X92546045Y-45516462D01*
X92482337Y-45507737D01*
X92407357Y-45488704D01*
X92343758Y-45461218D01*
X92291531Y-45425281D01*
X92242229Y-45368483D01*
X92215564Y-45313546D01*
X92200247Y-45250170D01*
X92457117Y-45250170D01*
X92472254Y-45289686D01*
X92517128Y-45335166D01*
X92519994Y-45336763D01*
X92580330Y-45356227D01*
X92646357Y-45361251D01*
X92695871Y-45358607D01*
X92758207Y-45343829D01*
X92810195Y-45306443D01*
X92835903Y-45256902D01*
X92849520Y-45196282D01*
X92853695Y-45135864D01*
X92855600Y-45038558D01*
X92820698Y-45077314D01*
X92765584Y-45120536D01*
X92703177Y-45150884D01*
X92633478Y-45168357D01*
X92567930Y-45173087D01*
X92523159Y-45171273D01*
X92450518Y-45159372D01*
X92385107Y-45136363D01*
X92326886Y-45102247D01*
X92275816Y-45057023D01*
X92262722Y-45042209D01*
X92223523Y-44985533D01*
X92198143Y-44930957D01*
X92180362Y-44870821D01*
X92170193Y-44805101D01*
X92167543Y-44746053D01*
X92167570Y-44744587D01*
X92422508Y-44744587D01*
X92422739Y-44758693D01*
X92429487Y-44817677D01*
X92447942Y-44874626D01*
X92481566Y-44926890D01*
X92518033Y-44959675D01*
X92576809Y-44986807D01*
X92640959Y-44994887D01*
X92688348Y-44990596D01*
X92749609Y-44968025D01*
X92799082Y-44926011D01*
X92806174Y-44917194D01*
X92836954Y-44861948D01*
X92852901Y-44801807D01*
X92857505Y-44739605D01*
X92857278Y-44725292D01*
X92850626Y-44665745D01*
X92832391Y-44608937D01*
X92799082Y-44557888D01*
X92762932Y-44526251D01*
X92703948Y-44500229D01*
X92639054Y-44492528D01*
X92590886Y-44496655D01*
X92529061Y-44518360D01*
X92479661Y-44558767D01*
X92472740Y-44567271D01*
X92442657Y-44621432D01*
X92427029Y-44681559D01*
X92422508Y-44744587D01*
X92167570Y-44744587D01*
X92167986Y-44721622D01*
X92174623Y-44651929D01*
X92189213Y-44587661D01*
X92211744Y-44528853D01*
X92242204Y-44475539D01*
X92280579Y-44427755D01*
X92317515Y-44393169D01*
X92375294Y-44354571D01*
X92440115Y-44327449D01*
X92511938Y-44311821D01*
X92579043Y-44307588D01*
X92614664Y-44308759D01*
G37*
D11*
X47272419Y-84096115D02*
X46272419Y-84096115D01*
X46272419Y-84096115D02*
X46272419Y-83715163D01*
X46272419Y-83715163D02*
X46320038Y-83619925D01*
X46320038Y-83619925D02*
X46367657Y-83572306D01*
X46367657Y-83572306D02*
X46462895Y-83524687D01*
X46462895Y-83524687D02*
X46605752Y-83524687D01*
X46605752Y-83524687D02*
X46700990Y-83572306D01*
X46700990Y-83572306D02*
X46748609Y-83619925D01*
X46748609Y-83619925D02*
X46796228Y-83715163D01*
X46796228Y-83715163D02*
X46796228Y-84096115D01*
X47272419Y-82619925D02*
X47272419Y-83096115D01*
X47272419Y-83096115D02*
X46272419Y-83096115D01*
X47272419Y-81810401D02*
X47272419Y-82286591D01*
X47272419Y-82286591D02*
X46272419Y-82286591D01*
X50686704Y-54143734D02*
X50686704Y-53667544D01*
X50972419Y-54238972D02*
X49972419Y-53905639D01*
X49972419Y-53905639D02*
X50972419Y-53572306D01*
X50877180Y-52667544D02*
X50924800Y-52715163D01*
X50924800Y-52715163D02*
X50972419Y-52858020D01*
X50972419Y-52858020D02*
X50972419Y-52953258D01*
X50972419Y-52953258D02*
X50924800Y-53096115D01*
X50924800Y-53096115D02*
X50829561Y-53191353D01*
X50829561Y-53191353D02*
X50734323Y-53238972D01*
X50734323Y-53238972D02*
X50543847Y-53286591D01*
X50543847Y-53286591D02*
X50400990Y-53286591D01*
X50400990Y-53286591D02*
X50210514Y-53238972D01*
X50210514Y-53238972D02*
X50115276Y-53191353D01*
X50115276Y-53191353D02*
X50020038Y-53096115D01*
X50020038Y-53096115D02*
X49972419Y-52953258D01*
X49972419Y-52953258D02*
X49972419Y-52858020D01*
X49972419Y-52858020D02*
X50020038Y-52715163D01*
X50020038Y-52715163D02*
X50067657Y-52667544D01*
X49972419Y-52381829D02*
X49972419Y-51810401D01*
X50972419Y-52096115D02*
X49972419Y-52096115D01*
X50972419Y-51477067D02*
X49972419Y-51477067D01*
X49972419Y-51143734D02*
X50972419Y-50810401D01*
X50972419Y-50810401D02*
X49972419Y-50477068D01*
X50448609Y-50143734D02*
X50448609Y-49810401D01*
X50972419Y-49667544D02*
X50972419Y-50143734D01*
X50972419Y-50143734D02*
X49972419Y-50143734D01*
X49972419Y-50143734D02*
X49972419Y-49667544D01*
D13*
X55689160Y-70922200D02*
X55832017Y-70969819D01*
X55832017Y-70969819D02*
X56070112Y-70969819D01*
X56070112Y-70969819D02*
X56165350Y-70922200D01*
X56165350Y-70922200D02*
X56212969Y-70874580D01*
X56212969Y-70874580D02*
X56260588Y-70779342D01*
X56260588Y-70779342D02*
X56260588Y-70684104D01*
X56260588Y-70684104D02*
X56212969Y-70588866D01*
X56212969Y-70588866D02*
X56165350Y-70541247D01*
X56165350Y-70541247D02*
X56070112Y-70493628D01*
X56070112Y-70493628D02*
X55879636Y-70446009D01*
X55879636Y-70446009D02*
X55784398Y-70398390D01*
X55784398Y-70398390D02*
X55736779Y-70350771D01*
X55736779Y-70350771D02*
X55689160Y-70255533D01*
X55689160Y-70255533D02*
X55689160Y-70160295D01*
X55689160Y-70160295D02*
X55736779Y-70065057D01*
X55736779Y-70065057D02*
X55784398Y-70017438D01*
X55784398Y-70017438D02*
X55879636Y-69969819D01*
X55879636Y-69969819D02*
X56117731Y-69969819D01*
X56117731Y-69969819D02*
X56260588Y-70017438D01*
X56689160Y-70969819D02*
X56689160Y-69969819D01*
X56689160Y-69969819D02*
X56927255Y-69969819D01*
X56927255Y-69969819D02*
X57070112Y-70017438D01*
X57070112Y-70017438D02*
X57165350Y-70112676D01*
X57165350Y-70112676D02*
X57212969Y-70207914D01*
X57212969Y-70207914D02*
X57260588Y-70398390D01*
X57260588Y-70398390D02*
X57260588Y-70541247D01*
X57260588Y-70541247D02*
X57212969Y-70731723D01*
X57212969Y-70731723D02*
X57165350Y-70826961D01*
X57165350Y-70826961D02*
X57070112Y-70922200D01*
X57070112Y-70922200D02*
X56927255Y-70969819D01*
X56927255Y-70969819D02*
X56689160Y-70969819D01*
X57641541Y-70684104D02*
X58117731Y-70684104D01*
X57546303Y-70969819D02*
X57879636Y-69969819D01*
X57879636Y-69969819D02*
X58212969Y-70969819D01*
D10*
X42083958Y-48654980D02*
X41650625Y-48131171D01*
X41341101Y-48654980D02*
X41341101Y-47554980D01*
X41341101Y-47554980D02*
X41836339Y-47554980D01*
X41836339Y-47554980D02*
X41960149Y-47607361D01*
X41960149Y-47607361D02*
X42022054Y-47659742D01*
X42022054Y-47659742D02*
X42083958Y-47764504D01*
X42083958Y-47764504D02*
X42083958Y-47921647D01*
X42083958Y-47921647D02*
X42022054Y-48026409D01*
X42022054Y-48026409D02*
X41960149Y-48078790D01*
X41960149Y-48078790D02*
X41836339Y-48131171D01*
X41836339Y-48131171D02*
X41341101Y-48131171D01*
X42641101Y-48078790D02*
X43074435Y-48078790D01*
X43260149Y-48654980D02*
X42641101Y-48654980D01*
X42641101Y-48654980D02*
X42641101Y-47554980D01*
X42641101Y-47554980D02*
X43260149Y-47554980D01*
X43755387Y-48602600D02*
X43941101Y-48654980D01*
X43941101Y-48654980D02*
X44250625Y-48654980D01*
X44250625Y-48654980D02*
X44374434Y-48602600D01*
X44374434Y-48602600D02*
X44436339Y-48550219D01*
X44436339Y-48550219D02*
X44498244Y-48445457D01*
X44498244Y-48445457D02*
X44498244Y-48340695D01*
X44498244Y-48340695D02*
X44436339Y-48235933D01*
X44436339Y-48235933D02*
X44374434Y-48183552D01*
X44374434Y-48183552D02*
X44250625Y-48131171D01*
X44250625Y-48131171D02*
X44003006Y-48078790D01*
X44003006Y-48078790D02*
X43879196Y-48026409D01*
X43879196Y-48026409D02*
X43817291Y-47974028D01*
X43817291Y-47974028D02*
X43755387Y-47869266D01*
X43755387Y-47869266D02*
X43755387Y-47764504D01*
X43755387Y-47764504D02*
X43817291Y-47659742D01*
X43817291Y-47659742D02*
X43879196Y-47607361D01*
X43879196Y-47607361D02*
X44003006Y-47554980D01*
X44003006Y-47554980D02*
X44312529Y-47554980D01*
X44312529Y-47554980D02*
X44498244Y-47607361D01*
X45055386Y-48078790D02*
X45488720Y-48078790D01*
X45674434Y-48654980D02*
X45055386Y-48654980D01*
X45055386Y-48654980D02*
X45055386Y-47554980D01*
X45055386Y-47554980D02*
X45674434Y-47554980D01*
X46045862Y-47554980D02*
X46788719Y-47554980D01*
X46417291Y-48654980D02*
X46417291Y-47554980D01*
D13*
X71636779Y-77119819D02*
X71636779Y-76119819D01*
X71636779Y-76119819D02*
X71874874Y-76119819D01*
X71874874Y-76119819D02*
X72017731Y-76167438D01*
X72017731Y-76167438D02*
X72112969Y-76262676D01*
X72112969Y-76262676D02*
X72160588Y-76357914D01*
X72160588Y-76357914D02*
X72208207Y-76548390D01*
X72208207Y-76548390D02*
X72208207Y-76691247D01*
X72208207Y-76691247D02*
X72160588Y-76881723D01*
X72160588Y-76881723D02*
X72112969Y-76976961D01*
X72112969Y-76976961D02*
X72017731Y-77072200D01*
X72017731Y-77072200D02*
X71874874Y-77119819D01*
X71874874Y-77119819D02*
X71636779Y-77119819D01*
X72589160Y-76834104D02*
X73065350Y-76834104D01*
X72493922Y-77119819D02*
X72827255Y-76119819D01*
X72827255Y-76119819D02*
X73160588Y-77119819D01*
X74065350Y-77024580D02*
X74017731Y-77072200D01*
X74017731Y-77072200D02*
X73874874Y-77119819D01*
X73874874Y-77119819D02*
X73779636Y-77119819D01*
X73779636Y-77119819D02*
X73636779Y-77072200D01*
X73636779Y-77072200D02*
X73541541Y-76976961D01*
X73541541Y-76976961D02*
X73493922Y-76881723D01*
X73493922Y-76881723D02*
X73446303Y-76691247D01*
X73446303Y-76691247D02*
X73446303Y-76548390D01*
X73446303Y-76548390D02*
X73493922Y-76357914D01*
X73493922Y-76357914D02*
X73541541Y-76262676D01*
X73541541Y-76262676D02*
X73636779Y-76167438D01*
X73636779Y-76167438D02*
X73779636Y-76119819D01*
X73779636Y-76119819D02*
X73874874Y-76119819D01*
X73874874Y-76119819D02*
X74017731Y-76167438D01*
X74017731Y-76167438D02*
X74065350Y-76215057D01*
X75017731Y-77119819D02*
X74446303Y-77119819D01*
X74732017Y-77119819D02*
X74732017Y-76119819D01*
X74732017Y-76119819D02*
X74636779Y-76262676D01*
X74636779Y-76262676D02*
X74541541Y-76357914D01*
X74541541Y-76357914D02*
X74446303Y-76405533D01*
D11*
X57051390Y-85703884D02*
X57051390Y-86037217D01*
X56527580Y-86180074D02*
X56527580Y-85703884D01*
X56527580Y-85703884D02*
X57527580Y-85703884D01*
X57527580Y-85703884D02*
X57527580Y-86180074D01*
X57527580Y-86513408D02*
X56527580Y-87180074D01*
X57527580Y-87180074D02*
X56527580Y-86513408D01*
X57527580Y-87418170D02*
X57527580Y-87989598D01*
X56527580Y-87703884D02*
X57527580Y-87703884D01*
D13*
X60408207Y-83474580D02*
X60360588Y-83522200D01*
X60360588Y-83522200D02*
X60217731Y-83569819D01*
X60217731Y-83569819D02*
X60122493Y-83569819D01*
X60122493Y-83569819D02*
X59979636Y-83522200D01*
X59979636Y-83522200D02*
X59884398Y-83426961D01*
X59884398Y-83426961D02*
X59836779Y-83331723D01*
X59836779Y-83331723D02*
X59789160Y-83141247D01*
X59789160Y-83141247D02*
X59789160Y-82998390D01*
X59789160Y-82998390D02*
X59836779Y-82807914D01*
X59836779Y-82807914D02*
X59884398Y-82712676D01*
X59884398Y-82712676D02*
X59979636Y-82617438D01*
X59979636Y-82617438D02*
X60122493Y-82569819D01*
X60122493Y-82569819D02*
X60217731Y-82569819D01*
X60217731Y-82569819D02*
X60360588Y-82617438D01*
X60360588Y-82617438D02*
X60408207Y-82665057D01*
X61312969Y-83569819D02*
X60836779Y-83569819D01*
X60836779Y-83569819D02*
X60836779Y-82569819D01*
X61836779Y-82569819D02*
X62027255Y-82569819D01*
X62027255Y-82569819D02*
X62122493Y-82617438D01*
X62122493Y-82617438D02*
X62217731Y-82712676D01*
X62217731Y-82712676D02*
X62265350Y-82903152D01*
X62265350Y-82903152D02*
X62265350Y-83236485D01*
X62265350Y-83236485D02*
X62217731Y-83426961D01*
X62217731Y-83426961D02*
X62122493Y-83522200D01*
X62122493Y-83522200D02*
X62027255Y-83569819D01*
X62027255Y-83569819D02*
X61836779Y-83569819D01*
X61836779Y-83569819D02*
X61741541Y-83522200D01*
X61741541Y-83522200D02*
X61646303Y-83426961D01*
X61646303Y-83426961D02*
X61598684Y-83236485D01*
X61598684Y-83236485D02*
X61598684Y-82903152D01*
X61598684Y-82903152D02*
X61646303Y-82712676D01*
X61646303Y-82712676D02*
X61741541Y-82617438D01*
X61741541Y-82617438D02*
X61836779Y-82569819D01*
X63265350Y-83474580D02*
X63217731Y-83522200D01*
X63217731Y-83522200D02*
X63074874Y-83569819D01*
X63074874Y-83569819D02*
X62979636Y-83569819D01*
X62979636Y-83569819D02*
X62836779Y-83522200D01*
X62836779Y-83522200D02*
X62741541Y-83426961D01*
X62741541Y-83426961D02*
X62693922Y-83331723D01*
X62693922Y-83331723D02*
X62646303Y-83141247D01*
X62646303Y-83141247D02*
X62646303Y-82998390D01*
X62646303Y-82998390D02*
X62693922Y-82807914D01*
X62693922Y-82807914D02*
X62741541Y-82712676D01*
X62741541Y-82712676D02*
X62836779Y-82617438D01*
X62836779Y-82617438D02*
X62979636Y-82569819D01*
X62979636Y-82569819D02*
X63074874Y-82569819D01*
X63074874Y-82569819D02*
X63217731Y-82617438D01*
X63217731Y-82617438D02*
X63265350Y-82665057D01*
X63693922Y-83569819D02*
X63693922Y-82569819D01*
X64265350Y-83569819D02*
X63836779Y-82998390D01*
X64265350Y-82569819D02*
X63693922Y-83141247D01*
X65408208Y-83522200D02*
X65551065Y-83569819D01*
X65551065Y-83569819D02*
X65789160Y-83569819D01*
X65789160Y-83569819D02*
X65884398Y-83522200D01*
X65884398Y-83522200D02*
X65932017Y-83474580D01*
X65932017Y-83474580D02*
X65979636Y-83379342D01*
X65979636Y-83379342D02*
X65979636Y-83284104D01*
X65979636Y-83284104D02*
X65932017Y-83188866D01*
X65932017Y-83188866D02*
X65884398Y-83141247D01*
X65884398Y-83141247D02*
X65789160Y-83093628D01*
X65789160Y-83093628D02*
X65598684Y-83046009D01*
X65598684Y-83046009D02*
X65503446Y-82998390D01*
X65503446Y-82998390D02*
X65455827Y-82950771D01*
X65455827Y-82950771D02*
X65408208Y-82855533D01*
X65408208Y-82855533D02*
X65408208Y-82760295D01*
X65408208Y-82760295D02*
X65455827Y-82665057D01*
X65455827Y-82665057D02*
X65503446Y-82617438D01*
X65503446Y-82617438D02*
X65598684Y-82569819D01*
X65598684Y-82569819D02*
X65836779Y-82569819D01*
X65836779Y-82569819D02*
X65979636Y-82617438D01*
X66408208Y-83046009D02*
X66741541Y-83046009D01*
X66884398Y-83569819D02*
X66408208Y-83569819D01*
X66408208Y-83569819D02*
X66408208Y-82569819D01*
X66408208Y-82569819D02*
X66884398Y-82569819D01*
X67789160Y-83569819D02*
X67312970Y-83569819D01*
X67312970Y-83569819D02*
X67312970Y-82569819D01*
X80208207Y-84169819D02*
X79874874Y-83693628D01*
X79636779Y-84169819D02*
X79636779Y-83169819D01*
X79636779Y-83169819D02*
X80017731Y-83169819D01*
X80017731Y-83169819D02*
X80112969Y-83217438D01*
X80112969Y-83217438D02*
X80160588Y-83265057D01*
X80160588Y-83265057D02*
X80208207Y-83360295D01*
X80208207Y-83360295D02*
X80208207Y-83503152D01*
X80208207Y-83503152D02*
X80160588Y-83598390D01*
X80160588Y-83598390D02*
X80112969Y-83646009D01*
X80112969Y-83646009D02*
X80017731Y-83693628D01*
X80017731Y-83693628D02*
X79636779Y-83693628D01*
G36*
X70574858Y-42354311D02*
G01*
X70643828Y-42361561D01*
X70708453Y-42373640D01*
X70783122Y-42395525D01*
X70851000Y-42424943D01*
X70912088Y-42461888D01*
X70966385Y-42506353D01*
X70976406Y-42516155D01*
X71021740Y-42569087D01*
X71059121Y-42628561D01*
X71088549Y-42694591D01*
X71106364Y-42752143D01*
X71119090Y-42813906D01*
X71126725Y-42879887D01*
X71129270Y-42950093D01*
X71129111Y-42968015D01*
X71125294Y-43037091D01*
X71116386Y-43101981D01*
X71102388Y-43162680D01*
X71083300Y-43219180D01*
X71052281Y-43283889D01*
X71013310Y-43342014D01*
X70966385Y-43393540D01*
X70912088Y-43438103D01*
X70851000Y-43475080D01*
X70783122Y-43504485D01*
X70708453Y-43526330D01*
X70643828Y-43538373D01*
X70574858Y-43545594D01*
X70501542Y-43548000D01*
X69977323Y-43548000D01*
X69977323Y-43329646D01*
X70259277Y-43329646D01*
X70466933Y-43329646D01*
X70512551Y-43328163D01*
X70594948Y-43316294D01*
X70665563Y-43292561D01*
X70724400Y-43256966D01*
X70771462Y-43209513D01*
X70806753Y-43150205D01*
X70830276Y-43079046D01*
X70840199Y-43017901D01*
X70843506Y-42950093D01*
X70842047Y-42905593D01*
X70834380Y-42843842D01*
X70817113Y-42779377D01*
X70790863Y-42723075D01*
X70749839Y-42668725D01*
X70724894Y-42645644D01*
X70666074Y-42608715D01*
X70604840Y-42586499D01*
X70534489Y-42573709D01*
X70466933Y-42570247D01*
X70259277Y-42570247D01*
X70259277Y-43329646D01*
X69977323Y-43329646D01*
X69977323Y-42351893D01*
X70501542Y-42351893D01*
X70574858Y-42354311D01*
G37*
G36*
X71755013Y-42656641D02*
G01*
X71829764Y-42664430D01*
X71898404Y-42681584D01*
X71960920Y-42708129D01*
X72017299Y-42744086D01*
X72067529Y-42789479D01*
X72110113Y-42842936D01*
X72143910Y-42903070D01*
X72165353Y-42958282D01*
X72180679Y-43018131D01*
X72189879Y-43082617D01*
X72192948Y-43151740D01*
X72192948Y-43175187D01*
X71519497Y-43175187D01*
X71524939Y-43234252D01*
X71543460Y-43294920D01*
X71578555Y-43346646D01*
X71614595Y-43374939D01*
X71673974Y-43398315D01*
X71739853Y-43405264D01*
X71788085Y-43400842D01*
X71849731Y-43377606D01*
X71898497Y-43334414D01*
X71930997Y-43279235D01*
X72178342Y-43279235D01*
X72175560Y-43287911D01*
X72151983Y-43345189D01*
X72116308Y-43403286D01*
X72071404Y-43453578D01*
X72017362Y-43496122D01*
X72002485Y-43505489D01*
X71939548Y-43536858D01*
X71871097Y-43558514D01*
X71806655Y-43569539D01*
X71737948Y-43573205D01*
X71698061Y-43572115D01*
X71634894Y-43565452D01*
X71564558Y-43549451D01*
X71500183Y-43524705D01*
X71441769Y-43491204D01*
X71389316Y-43448935D01*
X71358402Y-43416579D01*
X71319781Y-43363351D01*
X71290449Y-43304477D01*
X71270393Y-43239946D01*
X71260757Y-43181841D01*
X71257547Y-43119793D01*
X71258711Y-43082582D01*
X71265754Y-43023952D01*
X71519497Y-43023952D01*
X71930997Y-43023952D01*
X71926101Y-42992913D01*
X71905273Y-42933185D01*
X71870669Y-42883561D01*
X71853767Y-42867856D01*
X71796049Y-42838043D01*
X71728740Y-42829046D01*
X71707873Y-42829857D01*
X71641872Y-42845513D01*
X71586810Y-42881217D01*
X71561513Y-42909619D01*
X71532418Y-42966180D01*
X71519497Y-43023952D01*
X71265754Y-43023952D01*
X71265827Y-43023343D01*
X71282916Y-42956831D01*
X71309344Y-42895300D01*
X71345124Y-42838739D01*
X71390268Y-42787134D01*
X71407165Y-42771269D01*
X71461283Y-42729816D01*
X71520524Y-42697575D01*
X71584864Y-42674546D01*
X71654278Y-42660728D01*
X71728740Y-42656122D01*
X71755013Y-42656641D01*
G37*
G36*
X72943094Y-42662035D02*
G01*
X73006256Y-42675362D01*
X73073290Y-42702102D01*
X73133177Y-42740859D01*
X73178834Y-42783617D01*
X73205638Y-42816467D01*
X73239186Y-42870643D01*
X73264722Y-42930712D01*
X73282221Y-42996686D01*
X73290646Y-43056182D01*
X73293457Y-43119793D01*
X73292470Y-43157181D01*
X73286437Y-43216399D01*
X73271970Y-43282345D01*
X73249628Y-43342700D01*
X73219426Y-43397452D01*
X73181374Y-43446590D01*
X73144653Y-43482170D01*
X73087368Y-43521824D01*
X73023212Y-43549646D01*
X72952165Y-43565652D01*
X72885767Y-43569981D01*
X72828736Y-43566826D01*
X72766101Y-43554708D01*
X72700978Y-43529085D01*
X72644362Y-43491091D01*
X72596193Y-43440728D01*
X72596193Y-43855745D01*
X72339640Y-43855745D01*
X72339640Y-43116276D01*
X72587302Y-43116276D01*
X72587537Y-43131828D01*
X72594393Y-43196396D01*
X72613147Y-43257812D01*
X72647313Y-43312940D01*
X72684678Y-43347000D01*
X72745678Y-43375183D01*
X72812739Y-43383575D01*
X72861859Y-43379133D01*
X72925112Y-43355898D01*
X72975942Y-43312940D01*
X72983093Y-43303893D01*
X73014179Y-43246974D01*
X73030328Y-43184628D01*
X73035000Y-43119793D01*
X73034765Y-43104234D01*
X73027908Y-43039465D01*
X73009155Y-42977499D01*
X72974989Y-42921370D01*
X72937767Y-42886517D01*
X72877355Y-42857789D01*
X72811151Y-42849270D01*
X72761202Y-42853671D01*
X72697217Y-42876818D01*
X72646360Y-42919905D01*
X72629347Y-42943258D01*
X72603970Y-42998155D01*
X72590993Y-43056824D01*
X72587302Y-43116276D01*
X72339640Y-43116276D01*
X72339640Y-42681328D01*
X72583492Y-42681328D01*
X72583492Y-42788600D01*
X72624792Y-42744076D01*
X72680746Y-42703775D01*
X72745050Y-42676011D01*
X72806798Y-42662194D01*
X72874654Y-42657588D01*
X72943094Y-42662035D01*
G37*
G36*
X73955567Y-42658603D02*
G01*
X74021500Y-42666045D01*
X74098232Y-42683686D01*
X74162185Y-42710146D01*
X74224149Y-42755625D01*
X74266132Y-42814886D01*
X74285327Y-42872218D01*
X74291727Y-42938369D01*
X74291727Y-43312940D01*
X74292539Y-43362045D01*
X74296398Y-43423121D01*
X74305995Y-43488442D01*
X74324748Y-43548000D01*
X74062480Y-43548000D01*
X74054540Y-43523042D01*
X74044382Y-43464175D01*
X73997564Y-43501229D01*
X73937000Y-43534768D01*
X73870018Y-43557873D01*
X73807481Y-43569372D01*
X73740202Y-43573205D01*
X73683966Y-43570763D01*
X73616301Y-43559910D01*
X73550203Y-43537321D01*
X73494762Y-43503743D01*
X73473790Y-43485443D01*
X73433683Y-43432480D01*
X73412562Y-43376004D01*
X73405540Y-43311182D01*
X73406078Y-43301217D01*
X73671301Y-43301217D01*
X73675691Y-43335470D01*
X73708450Y-43385920D01*
X73750101Y-43408258D01*
X73813230Y-43416988D01*
X73856656Y-43414547D01*
X73921883Y-43399009D01*
X73979609Y-43365990D01*
X74004105Y-43341628D01*
X74033636Y-43286437D01*
X74042477Y-43223840D01*
X74042477Y-43126534D01*
X73995599Y-43144679D01*
X73930057Y-43160068D01*
X73860540Y-43171670D01*
X73833096Y-43176068D01*
X73770546Y-43189381D01*
X73711308Y-43213875D01*
X73685405Y-43243618D01*
X73671301Y-43301217D01*
X73406078Y-43301217D01*
X73407684Y-43271506D01*
X73420781Y-43213875D01*
X73431143Y-43191241D01*
X73471901Y-43143240D01*
X73487180Y-43131237D01*
X73539214Y-43096053D01*
X73566613Y-43083178D01*
X73627484Y-43065864D01*
X73654403Y-43060437D01*
X73718611Y-43048279D01*
X73751146Y-43043384D01*
X73815136Y-43035676D01*
X73870445Y-43028283D01*
X73934593Y-43017429D01*
X73998025Y-43000505D01*
X74020388Y-42987558D01*
X74044382Y-42931628D01*
X74040244Y-42898192D01*
X74002033Y-42844580D01*
X73941046Y-42821118D01*
X73875146Y-42815564D01*
X73869597Y-42815593D01*
X73806044Y-42821237D01*
X73744012Y-42844873D01*
X73707767Y-42888782D01*
X73689399Y-42948334D01*
X73447452Y-42948334D01*
X73451664Y-42912933D01*
X73469284Y-42848992D01*
X73499163Y-42794195D01*
X73541296Y-42748539D01*
X73595681Y-42712022D01*
X73662312Y-42684639D01*
X73741188Y-42666387D01*
X73808377Y-42658688D01*
X73882449Y-42656122D01*
X73955567Y-42658603D01*
G37*
G36*
X75104567Y-42666087D02*
G01*
X75048367Y-42661105D01*
X74973251Y-42667413D01*
X74906495Y-42686345D01*
X74848085Y-42717911D01*
X74798010Y-42762125D01*
X74756257Y-42818997D01*
X74744187Y-42840770D01*
X74744187Y-42681328D01*
X74498747Y-42681328D01*
X74498747Y-43548000D01*
X74757205Y-43548000D01*
X74757205Y-43151740D01*
X74760955Y-43091890D01*
X74774141Y-43032275D01*
X74799927Y-42975574D01*
X74817215Y-42950972D01*
X74866451Y-42908421D01*
X74925015Y-42885065D01*
X74988914Y-42876526D01*
X75004549Y-42876234D01*
X75068252Y-42880482D01*
X75104567Y-42886199D01*
X75104567Y-42666087D01*
G37*
G36*
X75719277Y-42681328D02*
G01*
X75528133Y-42681328D01*
X75528133Y-42419011D01*
X75271580Y-42419011D01*
X75271580Y-42681328D01*
X75115045Y-42681328D01*
X75115045Y-42842528D01*
X75271580Y-42842528D01*
X75271580Y-43292717D01*
X75274497Y-43356277D01*
X75284975Y-43416932D01*
X75308789Y-43474894D01*
X75332543Y-43503743D01*
X75387274Y-43534780D01*
X75451087Y-43550592D01*
X75522155Y-43557406D01*
X75562742Y-43558258D01*
X75627937Y-43556742D01*
X75696103Y-43553068D01*
X75719277Y-43551517D01*
X75719277Y-43370093D01*
X75655508Y-43373250D01*
X75641168Y-43373317D01*
X75577843Y-43367833D01*
X75576395Y-43367455D01*
X75542739Y-43343129D01*
X75530038Y-43307078D01*
X75528133Y-43250805D01*
X75528133Y-42842528D01*
X75719277Y-42842528D01*
X75719277Y-42681328D01*
G37*
G36*
X77289392Y-43548000D02*
G01*
X77289392Y-42965041D01*
X77285430Y-42906076D01*
X77271216Y-42845489D01*
X77242911Y-42785998D01*
X77206838Y-42740826D01*
X77154504Y-42700631D01*
X77090758Y-42673552D01*
X77024551Y-42660522D01*
X76969019Y-42657588D01*
X76898998Y-42662624D01*
X76834682Y-42677727D01*
X76776084Y-42702883D01*
X76723217Y-42738083D01*
X76676093Y-42783313D01*
X76661664Y-42800616D01*
X76624691Y-42744925D01*
X76575868Y-42702883D01*
X76515193Y-42674511D01*
X76442667Y-42659827D01*
X76395903Y-42657588D01*
X76328244Y-42662624D01*
X76265998Y-42677727D01*
X76200201Y-42708053D01*
X76149638Y-42744925D01*
X76104449Y-42791825D01*
X76097438Y-42800616D01*
X76097438Y-42681328D01*
X75851681Y-42681328D01*
X75851681Y-43548000D01*
X76110139Y-43548000D01*
X76110139Y-43077588D01*
X76114719Y-43012352D01*
X76132300Y-42948643D01*
X76169457Y-42894425D01*
X76224521Y-42861880D01*
X76297473Y-42851028D01*
X76363984Y-42860718D01*
X76410509Y-42895285D01*
X76433091Y-42952945D01*
X76439375Y-43015708D01*
X76439403Y-43020728D01*
X76439403Y-43548000D01*
X76697861Y-43548000D01*
X76697861Y-43060882D01*
X76702257Y-43000848D01*
X76719147Y-42942239D01*
X76754880Y-42892380D01*
X76816880Y-42859820D01*
X76878210Y-42852494D01*
X76941903Y-42860165D01*
X76994357Y-42893210D01*
X76998230Y-42898802D01*
X77020099Y-42954856D01*
X77027183Y-43014967D01*
X77027442Y-43030693D01*
X77027442Y-43548000D01*
X77289392Y-43548000D01*
G37*
G36*
X77950379Y-42656641D02*
G01*
X78025131Y-42664430D01*
X78093771Y-42681584D01*
X78156287Y-42708129D01*
X78212666Y-42744086D01*
X78262896Y-42789479D01*
X78305479Y-42842936D01*
X78339276Y-42903070D01*
X78360719Y-42958282D01*
X78376045Y-43018131D01*
X78385246Y-43082617D01*
X78388314Y-43151740D01*
X78388314Y-43175187D01*
X77714863Y-43175187D01*
X77720305Y-43234252D01*
X77738826Y-43294920D01*
X77773921Y-43346646D01*
X77809961Y-43374939D01*
X77869340Y-43398315D01*
X77935219Y-43405264D01*
X77983451Y-43400842D01*
X78045097Y-43377606D01*
X78093863Y-43334414D01*
X78126364Y-43279235D01*
X78373709Y-43279235D01*
X78370926Y-43287911D01*
X78347350Y-43345189D01*
X78311674Y-43403286D01*
X78266770Y-43453578D01*
X78212728Y-43496122D01*
X78197852Y-43505489D01*
X78134915Y-43536858D01*
X78066463Y-43558514D01*
X78002021Y-43569539D01*
X77933314Y-43573205D01*
X77893427Y-43572115D01*
X77830261Y-43565452D01*
X77759925Y-43549451D01*
X77695550Y-43524705D01*
X77637135Y-43491204D01*
X77584682Y-43448935D01*
X77553768Y-43416579D01*
X77515148Y-43363351D01*
X77485816Y-43304477D01*
X77465760Y-43239946D01*
X77456123Y-43181841D01*
X77452913Y-43119793D01*
X77454077Y-43082582D01*
X77461120Y-43023952D01*
X77714863Y-43023952D01*
X78126364Y-43023952D01*
X78121468Y-42992913D01*
X78100639Y-42933185D01*
X78066036Y-42883561D01*
X78049134Y-42867856D01*
X77991415Y-42838043D01*
X77924106Y-42829046D01*
X77903240Y-42829857D01*
X77837238Y-42845513D01*
X77782177Y-42881217D01*
X77756880Y-42909619D01*
X77727784Y-42966180D01*
X77714863Y-43023952D01*
X77461120Y-43023952D01*
X77461193Y-43023343D01*
X77478283Y-42956831D01*
X77504711Y-42895300D01*
X77540491Y-42838739D01*
X77585635Y-42787134D01*
X77602531Y-42771269D01*
X77656649Y-42729816D01*
X77715891Y-42697575D01*
X77780231Y-42674546D01*
X77849644Y-42660728D01*
X77924106Y-42656122D01*
X77950379Y-42656641D01*
G37*
G36*
X79419605Y-43548000D02*
G01*
X79419605Y-42968558D01*
X79415415Y-42906444D01*
X79400382Y-42843493D01*
X79374451Y-42789115D01*
X79332288Y-42738188D01*
X79278014Y-42699269D01*
X79213751Y-42673047D01*
X79148210Y-42660430D01*
X79093834Y-42657588D01*
X79023534Y-42662684D01*
X78958738Y-42677959D01*
X78899459Y-42703388D01*
X78845710Y-42738948D01*
X78797504Y-42784617D01*
X78782669Y-42802082D01*
X78782669Y-42681328D01*
X78536912Y-42681328D01*
X78536912Y-43548000D01*
X78793464Y-43548000D01*
X78793464Y-43082863D01*
X78798441Y-43017004D01*
X78817551Y-42952707D01*
X78857962Y-42898010D01*
X78917881Y-42865192D01*
X78984768Y-42854475D01*
X78997309Y-42854252D01*
X79064077Y-42862108D01*
X79118008Y-42893466D01*
X79124633Y-42902026D01*
X79148293Y-42956774D01*
X79157134Y-43020023D01*
X79157655Y-43042417D01*
X79157655Y-43548000D01*
X79419605Y-43548000D01*
G37*
G36*
X80130205Y-42681328D02*
G01*
X79939061Y-42681328D01*
X79939061Y-42419011D01*
X79682508Y-42419011D01*
X79682508Y-42681328D01*
X79525973Y-42681328D01*
X79525973Y-42842528D01*
X79682508Y-42842528D01*
X79682508Y-43292717D01*
X79685425Y-43356277D01*
X79695903Y-43416932D01*
X79719717Y-43474894D01*
X79743471Y-43503743D01*
X79798202Y-43534780D01*
X79862016Y-43550592D01*
X79933083Y-43557406D01*
X79973670Y-43558258D01*
X80038865Y-43556742D01*
X80107031Y-43553068D01*
X80130205Y-43551517D01*
X80130205Y-43370093D01*
X80066436Y-43373250D01*
X80052096Y-43373317D01*
X79988771Y-43367833D01*
X79987323Y-43367455D01*
X79953667Y-43343129D01*
X79940966Y-43307078D01*
X79939061Y-43250805D01*
X79939061Y-42842528D01*
X80130205Y-42842528D01*
X80130205Y-42681328D01*
G37*
G36*
X81261076Y-42657228D02*
G01*
X81324243Y-42663985D01*
X81394579Y-42680214D01*
X81458954Y-42705310D01*
X81517368Y-42739285D01*
X81569822Y-42782152D01*
X81600735Y-42814850D01*
X81639356Y-42868645D01*
X81668688Y-42928148D01*
X81688744Y-42993369D01*
X81698380Y-43052097D01*
X81701591Y-43114810D01*
X81700435Y-43153089D01*
X81693370Y-43213715D01*
X81676403Y-43281208D01*
X81650165Y-43342932D01*
X81614642Y-43398853D01*
X81569822Y-43448935D01*
X81544307Y-43471480D01*
X81488612Y-43509900D01*
X81426707Y-43539434D01*
X81358605Y-43560095D01*
X81284318Y-43571893D01*
X81217697Y-43574964D01*
X81177128Y-43573859D01*
X81112966Y-43567101D01*
X81041649Y-43550873D01*
X80976503Y-43525777D01*
X80917501Y-43491801D01*
X80864619Y-43448935D01*
X80833469Y-43416197D01*
X80794509Y-43362219D01*
X80764880Y-43302426D01*
X80744594Y-43236852D01*
X80734835Y-43177816D01*
X80731580Y-43114810D01*
X80990038Y-43114810D01*
X80990976Y-43146986D01*
X80999942Y-43212752D01*
X81018402Y-43269336D01*
X81050048Y-43321440D01*
X81092206Y-43360389D01*
X81149323Y-43386571D01*
X81217697Y-43395299D01*
X81280012Y-43388000D01*
X81337745Y-43363112D01*
X81384075Y-43320561D01*
X81401089Y-43295788D01*
X81426465Y-43237742D01*
X81439442Y-43175810D01*
X81443133Y-43113052D01*
X81442597Y-43089304D01*
X81434560Y-43023933D01*
X81414318Y-42961701D01*
X81382170Y-42910526D01*
X81339583Y-42872040D01*
X81282285Y-42846169D01*
X81213886Y-42837546D01*
X81158949Y-42843388D01*
X81096483Y-42869354D01*
X81050048Y-42911405D01*
X81032760Y-42935839D01*
X81006974Y-42992850D01*
X80993789Y-43053476D01*
X80990038Y-43114810D01*
X80731580Y-43114810D01*
X80732761Y-43076703D01*
X80739979Y-43016382D01*
X80757314Y-42949252D01*
X80784122Y-42887845D01*
X80820415Y-42832149D01*
X80866207Y-42782152D01*
X80892232Y-42759606D01*
X80948798Y-42721187D01*
X81011372Y-42691652D01*
X81079943Y-42670992D01*
X81154498Y-42659193D01*
X81221189Y-42656122D01*
X81261076Y-42657228D01*
G37*
G36*
X82381709Y-42351893D02*
G01*
X82339797Y-42350135D01*
X82289630Y-42347790D01*
X82247083Y-42346911D01*
X82176139Y-42350154D01*
X82106559Y-42361817D01*
X82042940Y-42385118D01*
X81999420Y-42414908D01*
X81960025Y-42465750D01*
X81937088Y-42525648D01*
X81926619Y-42590170D01*
X81924804Y-42635899D01*
X81924804Y-42681328D01*
X81772079Y-42681328D01*
X81772079Y-42842528D01*
X81924804Y-42842528D01*
X81924804Y-43548000D01*
X82183262Y-43548000D01*
X82183262Y-42842528D01*
X82365198Y-42842528D01*
X82365198Y-42681328D01*
X82181357Y-42681328D01*
X82181357Y-42612452D01*
X82193167Y-42553687D01*
X82204218Y-42540937D01*
X82267996Y-42524193D01*
X82295980Y-42523352D01*
X82362867Y-42525848D01*
X82381709Y-42526576D01*
X82381709Y-42351893D01*
G37*
G36*
X83980718Y-42351893D02*
G01*
X83008803Y-42351893D01*
X83008803Y-43548000D01*
X83993419Y-43548000D01*
X83993419Y-43328181D01*
X83291074Y-43328181D01*
X83291074Y-43033917D01*
X83924200Y-43033917D01*
X83924200Y-42827288D01*
X83291074Y-42827288D01*
X83291074Y-42567023D01*
X83980718Y-42567023D01*
X83980718Y-42351893D01*
G37*
G36*
X84425875Y-42351893D02*
G01*
X84167418Y-42351893D01*
X84167418Y-43548000D01*
X84425875Y-43548000D01*
X84425875Y-42351893D01*
G37*
G36*
X85088132Y-42656641D02*
G01*
X85162884Y-42664430D01*
X85231524Y-42681584D01*
X85294039Y-42708129D01*
X85350419Y-42744086D01*
X85400648Y-42789479D01*
X85443232Y-42842936D01*
X85477029Y-42903070D01*
X85498472Y-42958282D01*
X85513798Y-43018131D01*
X85522999Y-43082617D01*
X85526067Y-43151740D01*
X85526067Y-43175187D01*
X84852616Y-43175187D01*
X84858058Y-43234252D01*
X84876579Y-43294920D01*
X84911674Y-43346646D01*
X84947714Y-43374939D01*
X85007093Y-43398315D01*
X85072972Y-43405264D01*
X85121204Y-43400842D01*
X85182850Y-43377606D01*
X85231616Y-43334414D01*
X85264117Y-43279235D01*
X85511461Y-43279235D01*
X85508679Y-43287911D01*
X85485103Y-43345189D01*
X85449427Y-43403286D01*
X85404523Y-43453578D01*
X85350481Y-43496122D01*
X85335605Y-43505489D01*
X85272668Y-43536858D01*
X85204216Y-43558514D01*
X85139774Y-43569539D01*
X85071067Y-43573205D01*
X85031180Y-43572115D01*
X84968014Y-43565452D01*
X84897678Y-43549451D01*
X84833303Y-43524705D01*
X84774888Y-43491204D01*
X84722435Y-43448935D01*
X84691521Y-43416579D01*
X84652900Y-43363351D01*
X84623568Y-43304477D01*
X84603513Y-43239946D01*
X84593876Y-43181841D01*
X84590666Y-43119793D01*
X84591830Y-43082582D01*
X84598873Y-43023952D01*
X84852616Y-43023952D01*
X85264117Y-43023952D01*
X85259221Y-42992913D01*
X85238392Y-42933185D01*
X85203789Y-42883561D01*
X85186887Y-42867856D01*
X85129168Y-42838043D01*
X85061859Y-42829046D01*
X85040992Y-42829857D01*
X84974991Y-42845513D01*
X84919930Y-42881217D01*
X84894633Y-42909619D01*
X84865537Y-42966180D01*
X84852616Y-43023952D01*
X84598873Y-43023952D01*
X84598946Y-43023343D01*
X84616035Y-42956831D01*
X84642464Y-42895300D01*
X84678244Y-42838739D01*
X84723387Y-42787134D01*
X84740284Y-42771269D01*
X84794402Y-42729816D01*
X84853644Y-42697575D01*
X84917984Y-42674546D01*
X84987397Y-42660728D01*
X85061859Y-42656122D01*
X85088132Y-42656641D01*
G37*
G36*
X86568154Y-43213875D02*
G01*
X86318904Y-43213875D01*
X86302437Y-43273204D01*
X86270934Y-43326933D01*
X86218699Y-43367894D01*
X86149121Y-43387020D01*
X86118551Y-43388558D01*
X86052900Y-43380130D01*
X85993604Y-43351656D01*
X85957571Y-43317043D01*
X85925032Y-43261210D01*
X85907172Y-43198490D01*
X85900921Y-43140076D01*
X85900418Y-43116276D01*
X85904109Y-43053518D01*
X85917086Y-42991585D01*
X85942462Y-42933540D01*
X85959476Y-42908767D01*
X86005594Y-42866216D01*
X86068484Y-42839941D01*
X86124267Y-42834029D01*
X86194453Y-42843371D01*
X86254446Y-42876215D01*
X86290881Y-42925262D01*
X86309696Y-42983505D01*
X86562756Y-42983505D01*
X86550755Y-42920369D01*
X86528949Y-42863292D01*
X86497377Y-42812274D01*
X86456079Y-42767314D01*
X86428129Y-42744343D01*
X86373126Y-42709929D01*
X86311468Y-42683995D01*
X86243156Y-42666524D01*
X86179305Y-42658270D01*
X86122362Y-42656122D01*
X86056182Y-42659235D01*
X85982384Y-42671188D01*
X85914679Y-42692105D01*
X85853029Y-42721986D01*
X85797396Y-42760832D01*
X85771824Y-42783617D01*
X85727004Y-42834467D01*
X85691481Y-42891067D01*
X85665243Y-42953417D01*
X85648276Y-43021516D01*
X85641211Y-43082657D01*
X85640055Y-43121258D01*
X85643244Y-43182893D01*
X85655501Y-43251642D01*
X85676981Y-43314702D01*
X85707707Y-43372075D01*
X85747705Y-43423760D01*
X85771189Y-43447469D01*
X85823319Y-43489140D01*
X85881476Y-43522168D01*
X85945662Y-43546563D01*
X86015875Y-43562338D01*
X86078990Y-43568907D01*
X86118869Y-43569981D01*
X86186680Y-43566674D01*
X86249723Y-43556751D01*
X86317231Y-43536814D01*
X86378212Y-43507872D01*
X86425272Y-43475899D01*
X86472969Y-43431204D01*
X86511459Y-43379440D01*
X86540741Y-43320608D01*
X86560816Y-43254707D01*
X86568154Y-43213875D01*
G37*
G36*
X87233667Y-42681328D02*
G01*
X87042522Y-42681328D01*
X87042522Y-42419011D01*
X86785969Y-42419011D01*
X86785969Y-42681328D01*
X86629434Y-42681328D01*
X86629434Y-42842528D01*
X86785969Y-42842528D01*
X86785969Y-43292717D01*
X86788887Y-43356277D01*
X86799365Y-43416932D01*
X86823178Y-43474894D01*
X86846933Y-43503743D01*
X86901663Y-43534780D01*
X86965477Y-43550592D01*
X87036545Y-43557406D01*
X87077131Y-43558258D01*
X87142326Y-43556742D01*
X87210492Y-43553068D01*
X87233667Y-43551517D01*
X87233667Y-43370093D01*
X87169897Y-43373250D01*
X87155558Y-43373317D01*
X87092232Y-43367833D01*
X87090785Y-43367455D01*
X87057128Y-43343129D01*
X87044427Y-43307078D01*
X87042522Y-43250805D01*
X87042522Y-42842528D01*
X87233667Y-42842528D01*
X87233667Y-42681328D01*
G37*
G36*
X87966493Y-42666087D02*
G01*
X87910293Y-42661105D01*
X87835177Y-42667413D01*
X87768421Y-42686345D01*
X87710011Y-42717911D01*
X87659936Y-42762125D01*
X87618183Y-42818997D01*
X87606113Y-42840770D01*
X87606113Y-42681328D01*
X87360673Y-42681328D01*
X87360673Y-43548000D01*
X87619131Y-43548000D01*
X87619131Y-43151740D01*
X87622881Y-43091890D01*
X87636067Y-43032275D01*
X87661853Y-42975574D01*
X87679141Y-42950972D01*
X87728377Y-42908421D01*
X87786941Y-42885065D01*
X87850840Y-42876526D01*
X87866475Y-42876234D01*
X87930178Y-42880482D01*
X87966493Y-42886199D01*
X87966493Y-42666087D01*
G37*
G36*
X88330048Y-42351893D02*
G01*
X88071591Y-42351893D01*
X88071591Y-42553540D01*
X88330048Y-42553540D01*
X88330048Y-42351893D01*
G37*
G36*
X88330048Y-42681328D02*
G01*
X88071591Y-42681328D01*
X88071591Y-43548000D01*
X88330048Y-43548000D01*
X88330048Y-42681328D01*
G37*
G36*
X89428335Y-43213875D02*
G01*
X89179085Y-43213875D01*
X89162618Y-43273204D01*
X89131116Y-43326933D01*
X89078880Y-43367894D01*
X89009302Y-43387020D01*
X88978733Y-43388558D01*
X88913082Y-43380130D01*
X88853786Y-43351656D01*
X88817752Y-43317043D01*
X88785213Y-43261210D01*
X88767353Y-43198490D01*
X88761102Y-43140076D01*
X88760600Y-43116276D01*
X88764291Y-43053518D01*
X88777267Y-42991585D01*
X88802644Y-42933540D01*
X88819658Y-42908767D01*
X88865775Y-42866216D01*
X88928666Y-42839941D01*
X88984448Y-42834029D01*
X89054634Y-42843371D01*
X89114627Y-42876215D01*
X89151062Y-42925262D01*
X89169877Y-42983505D01*
X89422937Y-42983505D01*
X89410937Y-42920369D01*
X89389130Y-42863292D01*
X89357559Y-42812274D01*
X89316261Y-42767314D01*
X89288311Y-42744343D01*
X89233308Y-42709929D01*
X89171650Y-42683995D01*
X89103337Y-42666524D01*
X89039487Y-42658270D01*
X88982543Y-42656122D01*
X88916364Y-42659235D01*
X88842566Y-42671188D01*
X88774860Y-42692105D01*
X88713210Y-42721986D01*
X88657577Y-42760832D01*
X88632006Y-42783617D01*
X88587186Y-42834467D01*
X88551663Y-42891067D01*
X88525424Y-42953417D01*
X88508457Y-43021516D01*
X88501392Y-43082657D01*
X88500237Y-43121258D01*
X88503425Y-43182893D01*
X88515683Y-43251642D01*
X88537162Y-43314702D01*
X88567889Y-43372075D01*
X88607887Y-43423760D01*
X88631371Y-43447469D01*
X88683500Y-43489140D01*
X88741658Y-43522168D01*
X88805843Y-43546563D01*
X88876056Y-43562338D01*
X88939172Y-43568907D01*
X88979050Y-43569981D01*
X89046862Y-43566674D01*
X89109905Y-43556751D01*
X89177412Y-43536814D01*
X89238393Y-43507872D01*
X89285453Y-43475899D01*
X89333150Y-43431204D01*
X89371640Y-43379440D01*
X89400922Y-43320608D01*
X89420998Y-43254707D01*
X89428335Y-43213875D01*
G37*
G36*
X90081554Y-42658603D02*
G01*
X90147488Y-42666045D01*
X90224220Y-42683686D01*
X90288172Y-42710146D01*
X90350136Y-42755625D01*
X90392119Y-42814886D01*
X90411315Y-42872218D01*
X90417714Y-42938369D01*
X90417714Y-43312940D01*
X90418527Y-43362045D01*
X90422386Y-43423121D01*
X90431982Y-43488442D01*
X90450736Y-43548000D01*
X90188468Y-43548000D01*
X90180527Y-43523042D01*
X90170369Y-43464175D01*
X90123551Y-43501229D01*
X90062987Y-43534768D01*
X89996005Y-43557873D01*
X89933469Y-43569372D01*
X89866189Y-43573205D01*
X89809954Y-43570763D01*
X89742288Y-43559910D01*
X89676190Y-43537321D01*
X89620750Y-43503743D01*
X89599778Y-43485443D01*
X89559670Y-43432480D01*
X89538549Y-43376004D01*
X89531528Y-43311182D01*
X89532066Y-43301217D01*
X89797288Y-43301217D01*
X89801678Y-43335470D01*
X89834438Y-43385920D01*
X89876089Y-43408258D01*
X89939218Y-43416988D01*
X89982644Y-43414547D01*
X90047871Y-43399009D01*
X90105596Y-43365990D01*
X90130093Y-43341628D01*
X90159623Y-43286437D01*
X90168464Y-43223840D01*
X90168464Y-43126534D01*
X90121587Y-43144679D01*
X90056044Y-43160068D01*
X89986528Y-43171670D01*
X89959083Y-43176068D01*
X89896534Y-43189381D01*
X89837295Y-43213875D01*
X89811392Y-43243618D01*
X89797288Y-43301217D01*
X89532066Y-43301217D01*
X89533671Y-43271506D01*
X89546769Y-43213875D01*
X89557130Y-43191241D01*
X89597889Y-43143240D01*
X89613168Y-43131237D01*
X89665202Y-43096053D01*
X89692601Y-43083178D01*
X89753471Y-43065864D01*
X89780391Y-43060437D01*
X89844598Y-43048279D01*
X89877134Y-43043384D01*
X89941123Y-43035676D01*
X89996432Y-43028283D01*
X90060580Y-43017429D01*
X90124012Y-43000505D01*
X90146375Y-42987558D01*
X90170369Y-42931628D01*
X90166231Y-42898192D01*
X90128021Y-42844580D01*
X90067034Y-42821118D01*
X90001133Y-42815564D01*
X89995585Y-42815593D01*
X89932032Y-42821237D01*
X89870000Y-42844873D01*
X89833754Y-42888782D01*
X89815387Y-42948334D01*
X89573440Y-42948334D01*
X89577652Y-42912933D01*
X89595272Y-42848992D01*
X89625150Y-42794195D01*
X89667284Y-42748539D01*
X89721668Y-42712022D01*
X89788300Y-42684639D01*
X89867175Y-42666387D01*
X89934364Y-42658688D01*
X90008436Y-42656122D01*
X90081554Y-42658603D01*
G37*
G36*
X90886685Y-42351893D02*
G01*
X90628227Y-42351893D01*
X90628227Y-43548000D01*
X90886685Y-43548000D01*
X90886685Y-42351893D01*
G37*
X77143922Y-77419819D02*
X77715350Y-77419819D01*
X77429636Y-78419819D02*
X77429636Y-77419819D01*
X77953446Y-77419819D02*
X78620112Y-78419819D01*
X78620112Y-77419819D02*
X77953446Y-78419819D01*
X56989160Y-78422200D02*
X57132017Y-78469819D01*
X57132017Y-78469819D02*
X57370112Y-78469819D01*
X57370112Y-78469819D02*
X57465350Y-78422200D01*
X57465350Y-78422200D02*
X57512969Y-78374580D01*
X57512969Y-78374580D02*
X57560588Y-78279342D01*
X57560588Y-78279342D02*
X57560588Y-78184104D01*
X57560588Y-78184104D02*
X57512969Y-78088866D01*
X57512969Y-78088866D02*
X57465350Y-78041247D01*
X57465350Y-78041247D02*
X57370112Y-77993628D01*
X57370112Y-77993628D02*
X57179636Y-77946009D01*
X57179636Y-77946009D02*
X57084398Y-77898390D01*
X57084398Y-77898390D02*
X57036779Y-77850771D01*
X57036779Y-77850771D02*
X56989160Y-77755533D01*
X56989160Y-77755533D02*
X56989160Y-77660295D01*
X56989160Y-77660295D02*
X57036779Y-77565057D01*
X57036779Y-77565057D02*
X57084398Y-77517438D01*
X57084398Y-77517438D02*
X57179636Y-77469819D01*
X57179636Y-77469819D02*
X57417731Y-77469819D01*
X57417731Y-77469819D02*
X57560588Y-77517438D01*
X58560588Y-78374580D02*
X58512969Y-78422200D01*
X58512969Y-78422200D02*
X58370112Y-78469819D01*
X58370112Y-78469819D02*
X58274874Y-78469819D01*
X58274874Y-78469819D02*
X58132017Y-78422200D01*
X58132017Y-78422200D02*
X58036779Y-78326961D01*
X58036779Y-78326961D02*
X57989160Y-78231723D01*
X57989160Y-78231723D02*
X57941541Y-78041247D01*
X57941541Y-78041247D02*
X57941541Y-77898390D01*
X57941541Y-77898390D02*
X57989160Y-77707914D01*
X57989160Y-77707914D02*
X58036779Y-77612676D01*
X58036779Y-77612676D02*
X58132017Y-77517438D01*
X58132017Y-77517438D02*
X58274874Y-77469819D01*
X58274874Y-77469819D02*
X58370112Y-77469819D01*
X58370112Y-77469819D02*
X58512969Y-77517438D01*
X58512969Y-77517438D02*
X58560588Y-77565057D01*
X59465350Y-78469819D02*
X58989160Y-78469819D01*
X58989160Y-78469819D02*
X58989160Y-77469819D01*
D11*
X57051390Y-81903884D02*
X57051390Y-82237217D01*
X56527580Y-82380074D02*
X56527580Y-81903884D01*
X56527580Y-81903884D02*
X57527580Y-81903884D01*
X57527580Y-81903884D02*
X57527580Y-82380074D01*
X57527580Y-82713408D02*
X56527580Y-83380074D01*
X57527580Y-83380074D02*
X56527580Y-82713408D01*
X57527580Y-83618170D02*
X57527580Y-84189598D01*
X56527580Y-83903884D02*
X57527580Y-83903884D01*
D10*
X32955387Y-45254980D02*
X33698244Y-45254980D01*
X33326816Y-46354980D02*
X33326816Y-45254980D01*
X34564911Y-45778790D02*
X34750625Y-45831171D01*
X34750625Y-45831171D02*
X34812530Y-45883552D01*
X34812530Y-45883552D02*
X34874434Y-45988314D01*
X34874434Y-45988314D02*
X34874434Y-46145457D01*
X34874434Y-46145457D02*
X34812530Y-46250219D01*
X34812530Y-46250219D02*
X34750625Y-46302600D01*
X34750625Y-46302600D02*
X34626815Y-46354980D01*
X34626815Y-46354980D02*
X34131577Y-46354980D01*
X34131577Y-46354980D02*
X34131577Y-45254980D01*
X34131577Y-45254980D02*
X34564911Y-45254980D01*
X34564911Y-45254980D02*
X34688720Y-45307361D01*
X34688720Y-45307361D02*
X34750625Y-45359742D01*
X34750625Y-45359742D02*
X34812530Y-45464504D01*
X34812530Y-45464504D02*
X34812530Y-45569266D01*
X34812530Y-45569266D02*
X34750625Y-45674028D01*
X34750625Y-45674028D02*
X34688720Y-45726409D01*
X34688720Y-45726409D02*
X34564911Y-45778790D01*
X34564911Y-45778790D02*
X34131577Y-45778790D01*
D12*
X53554510Y-56100828D02*
X53554510Y-54600828D01*
X53554510Y-55315114D02*
X54411653Y-55315114D01*
X54411653Y-56100828D02*
X54411653Y-54600828D01*
D13*
X77758207Y-81119819D02*
X77424874Y-80643628D01*
X77186779Y-81119819D02*
X77186779Y-80119819D01*
X77186779Y-80119819D02*
X77567731Y-80119819D01*
X77567731Y-80119819D02*
X77662969Y-80167438D01*
X77662969Y-80167438D02*
X77710588Y-80215057D01*
X77710588Y-80215057D02*
X77758207Y-80310295D01*
X77758207Y-80310295D02*
X77758207Y-80453152D01*
X77758207Y-80453152D02*
X77710588Y-80548390D01*
X77710588Y-80548390D02*
X77662969Y-80596009D01*
X77662969Y-80596009D02*
X77567731Y-80643628D01*
X77567731Y-80643628D02*
X77186779Y-80643628D01*
X78091541Y-80119819D02*
X78758207Y-81119819D01*
X78758207Y-80119819D02*
X78091541Y-81119819D01*
D14*
X49171615Y-74265666D02*
X49171615Y-72865666D01*
X49171615Y-72865666D02*
X49743044Y-72865666D01*
X49743044Y-72865666D02*
X49885901Y-72932333D01*
X49885901Y-72932333D02*
X49957330Y-72999000D01*
X49957330Y-72999000D02*
X50028758Y-73132333D01*
X50028758Y-73132333D02*
X50028758Y-73332333D01*
X50028758Y-73332333D02*
X49957330Y-73465666D01*
X49957330Y-73465666D02*
X49885901Y-73532333D01*
X49885901Y-73532333D02*
X49743044Y-73599000D01*
X49743044Y-73599000D02*
X49171615Y-73599000D01*
X51385901Y-74265666D02*
X50671615Y-74265666D01*
X50671615Y-74265666D02*
X50671615Y-72865666D01*
X52600187Y-74265666D02*
X51885901Y-74265666D01*
X51885901Y-74265666D02*
X51885901Y-72865666D01*
D11*
X46748609Y-87762782D02*
X46796228Y-87619925D01*
X46796228Y-87619925D02*
X46843847Y-87572306D01*
X46843847Y-87572306D02*
X46939085Y-87524687D01*
X46939085Y-87524687D02*
X47081942Y-87524687D01*
X47081942Y-87524687D02*
X47177180Y-87572306D01*
X47177180Y-87572306D02*
X47224800Y-87619925D01*
X47224800Y-87619925D02*
X47272419Y-87715163D01*
X47272419Y-87715163D02*
X47272419Y-88096115D01*
X47272419Y-88096115D02*
X46272419Y-88096115D01*
X46272419Y-88096115D02*
X46272419Y-87762782D01*
X46272419Y-87762782D02*
X46320038Y-87667544D01*
X46320038Y-87667544D02*
X46367657Y-87619925D01*
X46367657Y-87619925D02*
X46462895Y-87572306D01*
X46462895Y-87572306D02*
X46558133Y-87572306D01*
X46558133Y-87572306D02*
X46653371Y-87619925D01*
X46653371Y-87619925D02*
X46700990Y-87667544D01*
X46700990Y-87667544D02*
X46748609Y-87762782D01*
X46748609Y-87762782D02*
X46748609Y-88096115D01*
X47272419Y-86524687D02*
X46796228Y-86858020D01*
X47272419Y-87096115D02*
X46272419Y-87096115D01*
X46272419Y-87096115D02*
X46272419Y-86715163D01*
X46272419Y-86715163D02*
X46320038Y-86619925D01*
X46320038Y-86619925D02*
X46367657Y-86572306D01*
X46367657Y-86572306D02*
X46462895Y-86524687D01*
X46462895Y-86524687D02*
X46605752Y-86524687D01*
X46605752Y-86524687D02*
X46700990Y-86572306D01*
X46700990Y-86572306D02*
X46748609Y-86619925D01*
X46748609Y-86619925D02*
X46796228Y-86715163D01*
X46796228Y-86715163D02*
X46796228Y-87096115D01*
X47272419Y-86096115D02*
X46272419Y-86096115D01*
X46272419Y-86096115D02*
X46272419Y-85858020D01*
X46272419Y-85858020D02*
X46320038Y-85715163D01*
X46320038Y-85715163D02*
X46415276Y-85619925D01*
X46415276Y-85619925D02*
X46510514Y-85572306D01*
X46510514Y-85572306D02*
X46700990Y-85524687D01*
X46700990Y-85524687D02*
X46843847Y-85524687D01*
X46843847Y-85524687D02*
X47034323Y-85572306D01*
X47034323Y-85572306D02*
X47129561Y-85619925D01*
X47129561Y-85619925D02*
X47224800Y-85715163D01*
X47224800Y-85715163D02*
X47272419Y-85858020D01*
X47272419Y-85858020D02*
X47272419Y-86096115D01*
D13*
X71636779Y-79319819D02*
X71636779Y-78319819D01*
X71636779Y-78319819D02*
X71874874Y-78319819D01*
X71874874Y-78319819D02*
X72017731Y-78367438D01*
X72017731Y-78367438D02*
X72112969Y-78462676D01*
X72112969Y-78462676D02*
X72160588Y-78557914D01*
X72160588Y-78557914D02*
X72208207Y-78748390D01*
X72208207Y-78748390D02*
X72208207Y-78891247D01*
X72208207Y-78891247D02*
X72160588Y-79081723D01*
X72160588Y-79081723D02*
X72112969Y-79176961D01*
X72112969Y-79176961D02*
X72017731Y-79272200D01*
X72017731Y-79272200D02*
X71874874Y-79319819D01*
X71874874Y-79319819D02*
X71636779Y-79319819D01*
X72589160Y-79034104D02*
X73065350Y-79034104D01*
X72493922Y-79319819D02*
X72827255Y-78319819D01*
X72827255Y-78319819D02*
X73160588Y-79319819D01*
X74065350Y-79224580D02*
X74017731Y-79272200D01*
X74017731Y-79272200D02*
X73874874Y-79319819D01*
X73874874Y-79319819D02*
X73779636Y-79319819D01*
X73779636Y-79319819D02*
X73636779Y-79272200D01*
X73636779Y-79272200D02*
X73541541Y-79176961D01*
X73541541Y-79176961D02*
X73493922Y-79081723D01*
X73493922Y-79081723D02*
X73446303Y-78891247D01*
X73446303Y-78891247D02*
X73446303Y-78748390D01*
X73446303Y-78748390D02*
X73493922Y-78557914D01*
X73493922Y-78557914D02*
X73541541Y-78462676D01*
X73541541Y-78462676D02*
X73636779Y-78367438D01*
X73636779Y-78367438D02*
X73779636Y-78319819D01*
X73779636Y-78319819D02*
X73874874Y-78319819D01*
X73874874Y-78319819D02*
X74017731Y-78367438D01*
X74017731Y-78367438D02*
X74065350Y-78415057D01*
X74446303Y-78415057D02*
X74493922Y-78367438D01*
X74493922Y-78367438D02*
X74589160Y-78319819D01*
X74589160Y-78319819D02*
X74827255Y-78319819D01*
X74827255Y-78319819D02*
X74922493Y-78367438D01*
X74922493Y-78367438D02*
X74970112Y-78415057D01*
X74970112Y-78415057D02*
X75017731Y-78510295D01*
X75017731Y-78510295D02*
X75017731Y-78605533D01*
X75017731Y-78605533D02*
X74970112Y-78748390D01*
X74970112Y-78748390D02*
X74398684Y-79319819D01*
X74398684Y-79319819D02*
X75017731Y-79319819D01*
D12*
X54318796Y-49300828D02*
X53604510Y-49300828D01*
X53604510Y-49300828D02*
X53604510Y-47800828D01*
D10*
X49974435Y-90956028D02*
X49117292Y-90956028D01*
X49545863Y-90956028D02*
X49545863Y-89456028D01*
X49545863Y-89456028D02*
X49403006Y-89670314D01*
X49403006Y-89670314D02*
X49260149Y-89813171D01*
X49260149Y-89813171D02*
X49117292Y-89884600D01*
X50403006Y-89456028D02*
X50903006Y-90956028D01*
X50903006Y-90956028D02*
X51403006Y-89456028D01*
X51831577Y-89598885D02*
X51903005Y-89527457D01*
X51903005Y-89527457D02*
X52045863Y-89456028D01*
X52045863Y-89456028D02*
X52403005Y-89456028D01*
X52403005Y-89456028D02*
X52545863Y-89527457D01*
X52545863Y-89527457D02*
X52617291Y-89598885D01*
X52617291Y-89598885D02*
X52688720Y-89741742D01*
X52688720Y-89741742D02*
X52688720Y-89884600D01*
X52688720Y-89884600D02*
X52617291Y-90098885D01*
X52617291Y-90098885D02*
X51760148Y-90956028D01*
X51760148Y-90956028D02*
X52688720Y-90956028D01*
D13*
X60408207Y-87074580D02*
X60360588Y-87122200D01*
X60360588Y-87122200D02*
X60217731Y-87169819D01*
X60217731Y-87169819D02*
X60122493Y-87169819D01*
X60122493Y-87169819D02*
X59979636Y-87122200D01*
X59979636Y-87122200D02*
X59884398Y-87026961D01*
X59884398Y-87026961D02*
X59836779Y-86931723D01*
X59836779Y-86931723D02*
X59789160Y-86741247D01*
X59789160Y-86741247D02*
X59789160Y-86598390D01*
X59789160Y-86598390D02*
X59836779Y-86407914D01*
X59836779Y-86407914D02*
X59884398Y-86312676D01*
X59884398Y-86312676D02*
X59979636Y-86217438D01*
X59979636Y-86217438D02*
X60122493Y-86169819D01*
X60122493Y-86169819D02*
X60217731Y-86169819D01*
X60217731Y-86169819D02*
X60360588Y-86217438D01*
X60360588Y-86217438D02*
X60408207Y-86265057D01*
X61027255Y-86169819D02*
X61217731Y-86169819D01*
X61217731Y-86169819D02*
X61312969Y-86217438D01*
X61312969Y-86217438D02*
X61408207Y-86312676D01*
X61408207Y-86312676D02*
X61455826Y-86503152D01*
X61455826Y-86503152D02*
X61455826Y-86836485D01*
X61455826Y-86836485D02*
X61408207Y-87026961D01*
X61408207Y-87026961D02*
X61312969Y-87122200D01*
X61312969Y-87122200D02*
X61217731Y-87169819D01*
X61217731Y-87169819D02*
X61027255Y-87169819D01*
X61027255Y-87169819D02*
X60932017Y-87122200D01*
X60932017Y-87122200D02*
X60836779Y-87026961D01*
X60836779Y-87026961D02*
X60789160Y-86836485D01*
X60789160Y-86836485D02*
X60789160Y-86503152D01*
X60789160Y-86503152D02*
X60836779Y-86312676D01*
X60836779Y-86312676D02*
X60932017Y-86217438D01*
X60932017Y-86217438D02*
X61027255Y-86169819D01*
X62455826Y-87169819D02*
X62122493Y-86693628D01*
X61884398Y-87169819D02*
X61884398Y-86169819D01*
X61884398Y-86169819D02*
X62265350Y-86169819D01*
X62265350Y-86169819D02*
X62360588Y-86217438D01*
X62360588Y-86217438D02*
X62408207Y-86265057D01*
X62408207Y-86265057D02*
X62455826Y-86360295D01*
X62455826Y-86360295D02*
X62455826Y-86503152D01*
X62455826Y-86503152D02*
X62408207Y-86598390D01*
X62408207Y-86598390D02*
X62360588Y-86646009D01*
X62360588Y-86646009D02*
X62265350Y-86693628D01*
X62265350Y-86693628D02*
X61884398Y-86693628D01*
X62884398Y-86646009D02*
X63217731Y-86646009D01*
X63360588Y-87169819D02*
X62884398Y-87169819D01*
X62884398Y-87169819D02*
X62884398Y-86169819D01*
X62884398Y-86169819D02*
X63360588Y-86169819D01*
X64503446Y-87122200D02*
X64646303Y-87169819D01*
X64646303Y-87169819D02*
X64884398Y-87169819D01*
X64884398Y-87169819D02*
X64979636Y-87122200D01*
X64979636Y-87122200D02*
X65027255Y-87074580D01*
X65027255Y-87074580D02*
X65074874Y-86979342D01*
X65074874Y-86979342D02*
X65074874Y-86884104D01*
X65074874Y-86884104D02*
X65027255Y-86788866D01*
X65027255Y-86788866D02*
X64979636Y-86741247D01*
X64979636Y-86741247D02*
X64884398Y-86693628D01*
X64884398Y-86693628D02*
X64693922Y-86646009D01*
X64693922Y-86646009D02*
X64598684Y-86598390D01*
X64598684Y-86598390D02*
X64551065Y-86550771D01*
X64551065Y-86550771D02*
X64503446Y-86455533D01*
X64503446Y-86455533D02*
X64503446Y-86360295D01*
X64503446Y-86360295D02*
X64551065Y-86265057D01*
X64551065Y-86265057D02*
X64598684Y-86217438D01*
X64598684Y-86217438D02*
X64693922Y-86169819D01*
X64693922Y-86169819D02*
X64932017Y-86169819D01*
X64932017Y-86169819D02*
X65074874Y-86217438D01*
X65503446Y-86169819D02*
X65503446Y-86979342D01*
X65503446Y-86979342D02*
X65551065Y-87074580D01*
X65551065Y-87074580D02*
X65598684Y-87122200D01*
X65598684Y-87122200D02*
X65693922Y-87169819D01*
X65693922Y-87169819D02*
X65884398Y-87169819D01*
X65884398Y-87169819D02*
X65979636Y-87122200D01*
X65979636Y-87122200D02*
X66027255Y-87074580D01*
X66027255Y-87074580D02*
X66074874Y-86979342D01*
X66074874Y-86979342D02*
X66074874Y-86169819D01*
X66551065Y-87169819D02*
X66551065Y-86169819D01*
X66551065Y-86169819D02*
X66932017Y-86169819D01*
X66932017Y-86169819D02*
X67027255Y-86217438D01*
X67027255Y-86217438D02*
X67074874Y-86265057D01*
X67074874Y-86265057D02*
X67122493Y-86360295D01*
X67122493Y-86360295D02*
X67122493Y-86503152D01*
X67122493Y-86503152D02*
X67074874Y-86598390D01*
X67074874Y-86598390D02*
X67027255Y-86646009D01*
X67027255Y-86646009D02*
X66932017Y-86693628D01*
X66932017Y-86693628D02*
X66551065Y-86693628D01*
X67551065Y-87169819D02*
X67551065Y-86169819D01*
X67551065Y-86169819D02*
X67932017Y-86169819D01*
X67932017Y-86169819D02*
X68027255Y-86217438D01*
X68027255Y-86217438D02*
X68074874Y-86265057D01*
X68074874Y-86265057D02*
X68122493Y-86360295D01*
X68122493Y-86360295D02*
X68122493Y-86503152D01*
X68122493Y-86503152D02*
X68074874Y-86598390D01*
X68074874Y-86598390D02*
X68027255Y-86646009D01*
X68027255Y-86646009D02*
X67932017Y-86693628D01*
X67932017Y-86693628D02*
X67551065Y-86693628D01*
X69027255Y-87169819D02*
X68551065Y-87169819D01*
X68551065Y-87169819D02*
X68551065Y-86169819D01*
X69551065Y-86693628D02*
X69551065Y-87169819D01*
X69217732Y-86169819D02*
X69551065Y-86693628D01*
X69551065Y-86693628D02*
X69884398Y-86169819D01*
X79593922Y-86169819D02*
X80165350Y-86169819D01*
X79879636Y-87169819D02*
X79879636Y-86169819D01*
D10*
X96391101Y-46404980D02*
X96391101Y-45304980D01*
X96391101Y-45304980D02*
X96700625Y-45304980D01*
X96700625Y-45304980D02*
X96886339Y-45357361D01*
X96886339Y-45357361D02*
X97010149Y-45462123D01*
X97010149Y-45462123D02*
X97072054Y-45566885D01*
X97072054Y-45566885D02*
X97133958Y-45776409D01*
X97133958Y-45776409D02*
X97133958Y-45933552D01*
X97133958Y-45933552D02*
X97072054Y-46143076D01*
X97072054Y-46143076D02*
X97010149Y-46247838D01*
X97010149Y-46247838D02*
X96886339Y-46352600D01*
X96886339Y-46352600D02*
X96700625Y-46404980D01*
X96700625Y-46404980D02*
X96391101Y-46404980D01*
X97691101Y-45304980D02*
X97691101Y-46195457D01*
X97691101Y-46195457D02*
X97753006Y-46300219D01*
X97753006Y-46300219D02*
X97814911Y-46352600D01*
X97814911Y-46352600D02*
X97938720Y-46404980D01*
X97938720Y-46404980D02*
X98186339Y-46404980D01*
X98186339Y-46404980D02*
X98310149Y-46352600D01*
X98310149Y-46352600D02*
X98372054Y-46300219D01*
X98372054Y-46300219D02*
X98433958Y-46195457D01*
X98433958Y-46195457D02*
X98433958Y-45304980D01*
X98867292Y-45304980D02*
X99610149Y-45304980D01*
X99238721Y-46404980D02*
X99238721Y-45304980D01*
D13*
X94254819Y-97542857D02*
X93778628Y-97876190D01*
X94254819Y-98114285D02*
X93254819Y-98114285D01*
X93254819Y-98114285D02*
X93254819Y-97733333D01*
X93254819Y-97733333D02*
X93302438Y-97638095D01*
X93302438Y-97638095D02*
X93350057Y-97590476D01*
X93350057Y-97590476D02*
X93445295Y-97542857D01*
X93445295Y-97542857D02*
X93588152Y-97542857D01*
X93588152Y-97542857D02*
X93683390Y-97590476D01*
X93683390Y-97590476D02*
X93731009Y-97638095D01*
X93731009Y-97638095D02*
X93778628Y-97733333D01*
X93778628Y-97733333D02*
X93778628Y-98114285D01*
X94254819Y-96590476D02*
X94254819Y-97161904D01*
X94254819Y-96876190D02*
X93254819Y-96876190D01*
X93254819Y-96876190D02*
X93397676Y-96971428D01*
X93397676Y-96971428D02*
X93492914Y-97066666D01*
X93492914Y-97066666D02*
X93540533Y-97161904D01*
X93683390Y-96019047D02*
X93635771Y-96114285D01*
X93635771Y-96114285D02*
X93588152Y-96161904D01*
X93588152Y-96161904D02*
X93492914Y-96209523D01*
X93492914Y-96209523D02*
X93445295Y-96209523D01*
X93445295Y-96209523D02*
X93350057Y-96161904D01*
X93350057Y-96161904D02*
X93302438Y-96114285D01*
X93302438Y-96114285D02*
X93254819Y-96019047D01*
X93254819Y-96019047D02*
X93254819Y-95828571D01*
X93254819Y-95828571D02*
X93302438Y-95733333D01*
X93302438Y-95733333D02*
X93350057Y-95685714D01*
X93350057Y-95685714D02*
X93445295Y-95638095D01*
X93445295Y-95638095D02*
X93492914Y-95638095D01*
X93492914Y-95638095D02*
X93588152Y-95685714D01*
X93588152Y-95685714D02*
X93635771Y-95733333D01*
X93635771Y-95733333D02*
X93683390Y-95828571D01*
X93683390Y-95828571D02*
X93683390Y-96019047D01*
X93683390Y-96019047D02*
X93731009Y-96114285D01*
X93731009Y-96114285D02*
X93778628Y-96161904D01*
X93778628Y-96161904D02*
X93873866Y-96209523D01*
X93873866Y-96209523D02*
X94064342Y-96209523D01*
X94064342Y-96209523D02*
X94159580Y-96161904D01*
X94159580Y-96161904D02*
X94207200Y-96114285D01*
X94207200Y-96114285D02*
X94254819Y-96019047D01*
X94254819Y-96019047D02*
X94254819Y-95828571D01*
X94254819Y-95828571D02*
X94207200Y-95733333D01*
X94207200Y-95733333D02*
X94159580Y-95685714D01*
X94159580Y-95685714D02*
X94064342Y-95638095D01*
X94064342Y-95638095D02*
X93873866Y-95638095D01*
X93873866Y-95638095D02*
X93778628Y-95685714D01*
X93778628Y-95685714D02*
X93731009Y-95733333D01*
X93731009Y-95733333D02*
X93683390Y-95828571D01*
X91057142Y-81904819D02*
X90723809Y-81428628D01*
X90485714Y-81904819D02*
X90485714Y-80904819D01*
X90485714Y-80904819D02*
X90866666Y-80904819D01*
X90866666Y-80904819D02*
X90961904Y-80952438D01*
X90961904Y-80952438D02*
X91009523Y-81000057D01*
X91009523Y-81000057D02*
X91057142Y-81095295D01*
X91057142Y-81095295D02*
X91057142Y-81238152D01*
X91057142Y-81238152D02*
X91009523Y-81333390D01*
X91009523Y-81333390D02*
X90961904Y-81381009D01*
X90961904Y-81381009D02*
X90866666Y-81428628D01*
X90866666Y-81428628D02*
X90485714Y-81428628D01*
X92009523Y-81904819D02*
X91438095Y-81904819D01*
X91723809Y-81904819D02*
X91723809Y-80904819D01*
X91723809Y-80904819D02*
X91628571Y-81047676D01*
X91628571Y-81047676D02*
X91533333Y-81142914D01*
X91533333Y-81142914D02*
X91438095Y-81190533D01*
X92628571Y-80904819D02*
X92723809Y-80904819D01*
X92723809Y-80904819D02*
X92819047Y-80952438D01*
X92819047Y-80952438D02*
X92866666Y-81000057D01*
X92866666Y-81000057D02*
X92914285Y-81095295D01*
X92914285Y-81095295D02*
X92961904Y-81285771D01*
X92961904Y-81285771D02*
X92961904Y-81523866D01*
X92961904Y-81523866D02*
X92914285Y-81714342D01*
X92914285Y-81714342D02*
X92866666Y-81809580D01*
X92866666Y-81809580D02*
X92819047Y-81857200D01*
X92819047Y-81857200D02*
X92723809Y-81904819D01*
X92723809Y-81904819D02*
X92628571Y-81904819D01*
X92628571Y-81904819D02*
X92533333Y-81857200D01*
X92533333Y-81857200D02*
X92485714Y-81809580D01*
X92485714Y-81809580D02*
X92438095Y-81714342D01*
X92438095Y-81714342D02*
X92390476Y-81523866D01*
X92390476Y-81523866D02*
X92390476Y-81285771D01*
X92390476Y-81285771D02*
X92438095Y-81095295D01*
X92438095Y-81095295D02*
X92485714Y-81000057D01*
X92485714Y-81000057D02*
X92533333Y-80952438D01*
X92533333Y-80952438D02*
X92628571Y-80904819D01*
X71042319Y-82436904D02*
X71851842Y-82436904D01*
X71851842Y-82436904D02*
X71947080Y-82389285D01*
X71947080Y-82389285D02*
X71994700Y-82341666D01*
X71994700Y-82341666D02*
X72042319Y-82246428D01*
X72042319Y-82246428D02*
X72042319Y-82055952D01*
X72042319Y-82055952D02*
X71994700Y-81960714D01*
X71994700Y-81960714D02*
X71947080Y-81913095D01*
X71947080Y-81913095D02*
X71851842Y-81865476D01*
X71851842Y-81865476D02*
X71042319Y-81865476D01*
X72042319Y-81341666D02*
X72042319Y-81151190D01*
X72042319Y-81151190D02*
X71994700Y-81055952D01*
X71994700Y-81055952D02*
X71947080Y-81008333D01*
X71947080Y-81008333D02*
X71804223Y-80913095D01*
X71804223Y-80913095D02*
X71613747Y-80865476D01*
X71613747Y-80865476D02*
X71232795Y-80865476D01*
X71232795Y-80865476D02*
X71137557Y-80913095D01*
X71137557Y-80913095D02*
X71089938Y-80960714D01*
X71089938Y-80960714D02*
X71042319Y-81055952D01*
X71042319Y-81055952D02*
X71042319Y-81246428D01*
X71042319Y-81246428D02*
X71089938Y-81341666D01*
X71089938Y-81341666D02*
X71137557Y-81389285D01*
X71137557Y-81389285D02*
X71232795Y-81436904D01*
X71232795Y-81436904D02*
X71470890Y-81436904D01*
X71470890Y-81436904D02*
X71566128Y-81389285D01*
X71566128Y-81389285D02*
X71613747Y-81341666D01*
X71613747Y-81341666D02*
X71661366Y-81246428D01*
X71661366Y-81246428D02*
X71661366Y-81055952D01*
X71661366Y-81055952D02*
X71613747Y-80960714D01*
X71613747Y-80960714D02*
X71566128Y-80913095D01*
X71566128Y-80913095D02*
X71470890Y-80865476D01*
X55957142Y-75404819D02*
X55623809Y-74928628D01*
X55385714Y-75404819D02*
X55385714Y-74404819D01*
X55385714Y-74404819D02*
X55766666Y-74404819D01*
X55766666Y-74404819D02*
X55861904Y-74452438D01*
X55861904Y-74452438D02*
X55909523Y-74500057D01*
X55909523Y-74500057D02*
X55957142Y-74595295D01*
X55957142Y-74595295D02*
X55957142Y-74738152D01*
X55957142Y-74738152D02*
X55909523Y-74833390D01*
X55909523Y-74833390D02*
X55861904Y-74881009D01*
X55861904Y-74881009D02*
X55766666Y-74928628D01*
X55766666Y-74928628D02*
X55385714Y-74928628D01*
X56909523Y-75404819D02*
X56338095Y-75404819D01*
X56623809Y-75404819D02*
X56623809Y-74404819D01*
X56623809Y-74404819D02*
X56528571Y-74547676D01*
X56528571Y-74547676D02*
X56433333Y-74642914D01*
X56433333Y-74642914D02*
X56338095Y-74690533D01*
X57242857Y-74404819D02*
X57861904Y-74404819D01*
X57861904Y-74404819D02*
X57528571Y-74785771D01*
X57528571Y-74785771D02*
X57671428Y-74785771D01*
X57671428Y-74785771D02*
X57766666Y-74833390D01*
X57766666Y-74833390D02*
X57814285Y-74881009D01*
X57814285Y-74881009D02*
X57861904Y-74976247D01*
X57861904Y-74976247D02*
X57861904Y-75214342D01*
X57861904Y-75214342D02*
X57814285Y-75309580D01*
X57814285Y-75309580D02*
X57766666Y-75357200D01*
X57766666Y-75357200D02*
X57671428Y-75404819D01*
X57671428Y-75404819D02*
X57385714Y-75404819D01*
X57385714Y-75404819D02*
X57290476Y-75357200D01*
X57290476Y-75357200D02*
X57242857Y-75309580D01*
X79654819Y-92142857D02*
X79178628Y-92476190D01*
X79654819Y-92714285D02*
X78654819Y-92714285D01*
X78654819Y-92714285D02*
X78654819Y-92333333D01*
X78654819Y-92333333D02*
X78702438Y-92238095D01*
X78702438Y-92238095D02*
X78750057Y-92190476D01*
X78750057Y-92190476D02*
X78845295Y-92142857D01*
X78845295Y-92142857D02*
X78988152Y-92142857D01*
X78988152Y-92142857D02*
X79083390Y-92190476D01*
X79083390Y-92190476D02*
X79131009Y-92238095D01*
X79131009Y-92238095D02*
X79178628Y-92333333D01*
X79178628Y-92333333D02*
X79178628Y-92714285D01*
X79654819Y-91190476D02*
X79654819Y-91761904D01*
X79654819Y-91476190D02*
X78654819Y-91476190D01*
X78654819Y-91476190D02*
X78797676Y-91571428D01*
X78797676Y-91571428D02*
X78892914Y-91666666D01*
X78892914Y-91666666D02*
X78940533Y-91761904D01*
X78654819Y-90857142D02*
X78654819Y-90190476D01*
X78654819Y-90190476D02*
X79654819Y-90619047D01*
X87633333Y-75904819D02*
X87300000Y-75428628D01*
X87061905Y-75904819D02*
X87061905Y-74904819D01*
X87061905Y-74904819D02*
X87442857Y-74904819D01*
X87442857Y-74904819D02*
X87538095Y-74952438D01*
X87538095Y-74952438D02*
X87585714Y-75000057D01*
X87585714Y-75000057D02*
X87633333Y-75095295D01*
X87633333Y-75095295D02*
X87633333Y-75238152D01*
X87633333Y-75238152D02*
X87585714Y-75333390D01*
X87585714Y-75333390D02*
X87538095Y-75381009D01*
X87538095Y-75381009D02*
X87442857Y-75428628D01*
X87442857Y-75428628D02*
X87061905Y-75428628D01*
X88490476Y-74904819D02*
X88300000Y-74904819D01*
X88300000Y-74904819D02*
X88204762Y-74952438D01*
X88204762Y-74952438D02*
X88157143Y-75000057D01*
X88157143Y-75000057D02*
X88061905Y-75142914D01*
X88061905Y-75142914D02*
X88014286Y-75333390D01*
X88014286Y-75333390D02*
X88014286Y-75714342D01*
X88014286Y-75714342D02*
X88061905Y-75809580D01*
X88061905Y-75809580D02*
X88109524Y-75857200D01*
X88109524Y-75857200D02*
X88204762Y-75904819D01*
X88204762Y-75904819D02*
X88395238Y-75904819D01*
X88395238Y-75904819D02*
X88490476Y-75857200D01*
X88490476Y-75857200D02*
X88538095Y-75809580D01*
X88538095Y-75809580D02*
X88585714Y-75714342D01*
X88585714Y-75714342D02*
X88585714Y-75476247D01*
X88585714Y-75476247D02*
X88538095Y-75381009D01*
X88538095Y-75381009D02*
X88490476Y-75333390D01*
X88490476Y-75333390D02*
X88395238Y-75285771D01*
X88395238Y-75285771D02*
X88204762Y-75285771D01*
X88204762Y-75285771D02*
X88109524Y-75333390D01*
X88109524Y-75333390D02*
X88061905Y-75381009D01*
X88061905Y-75381009D02*
X88014286Y-75476247D01*
X60229580Y-63916666D02*
X60277200Y-63964285D01*
X60277200Y-63964285D02*
X60324819Y-64107142D01*
X60324819Y-64107142D02*
X60324819Y-64202380D01*
X60324819Y-64202380D02*
X60277200Y-64345237D01*
X60277200Y-64345237D02*
X60181961Y-64440475D01*
X60181961Y-64440475D02*
X60086723Y-64488094D01*
X60086723Y-64488094D02*
X59896247Y-64535713D01*
X59896247Y-64535713D02*
X59753390Y-64535713D01*
X59753390Y-64535713D02*
X59562914Y-64488094D01*
X59562914Y-64488094D02*
X59467676Y-64440475D01*
X59467676Y-64440475D02*
X59372438Y-64345237D01*
X59372438Y-64345237D02*
X59324819Y-64202380D01*
X59324819Y-64202380D02*
X59324819Y-64107142D01*
X59324819Y-64107142D02*
X59372438Y-63964285D01*
X59372438Y-63964285D02*
X59420057Y-63916666D01*
X59753390Y-63345237D02*
X59705771Y-63440475D01*
X59705771Y-63440475D02*
X59658152Y-63488094D01*
X59658152Y-63488094D02*
X59562914Y-63535713D01*
X59562914Y-63535713D02*
X59515295Y-63535713D01*
X59515295Y-63535713D02*
X59420057Y-63488094D01*
X59420057Y-63488094D02*
X59372438Y-63440475D01*
X59372438Y-63440475D02*
X59324819Y-63345237D01*
X59324819Y-63345237D02*
X59324819Y-63154761D01*
X59324819Y-63154761D02*
X59372438Y-63059523D01*
X59372438Y-63059523D02*
X59420057Y-63011904D01*
X59420057Y-63011904D02*
X59515295Y-62964285D01*
X59515295Y-62964285D02*
X59562914Y-62964285D01*
X59562914Y-62964285D02*
X59658152Y-63011904D01*
X59658152Y-63011904D02*
X59705771Y-63059523D01*
X59705771Y-63059523D02*
X59753390Y-63154761D01*
X59753390Y-63154761D02*
X59753390Y-63345237D01*
X59753390Y-63345237D02*
X59801009Y-63440475D01*
X59801009Y-63440475D02*
X59848628Y-63488094D01*
X59848628Y-63488094D02*
X59943866Y-63535713D01*
X59943866Y-63535713D02*
X60134342Y-63535713D01*
X60134342Y-63535713D02*
X60229580Y-63488094D01*
X60229580Y-63488094D02*
X60277200Y-63440475D01*
X60277200Y-63440475D02*
X60324819Y-63345237D01*
X60324819Y-63345237D02*
X60324819Y-63154761D01*
X60324819Y-63154761D02*
X60277200Y-63059523D01*
X60277200Y-63059523D02*
X60229580Y-63011904D01*
X60229580Y-63011904D02*
X60134342Y-62964285D01*
X60134342Y-62964285D02*
X59943866Y-62964285D01*
X59943866Y-62964285D02*
X59848628Y-63011904D01*
X59848628Y-63011904D02*
X59801009Y-63059523D01*
X59801009Y-63059523D02*
X59753390Y-63154761D01*
D15*
X42326666Y-52723842D02*
X42508095Y-52784318D01*
X42508095Y-52784318D02*
X42810476Y-52784318D01*
X42810476Y-52784318D02*
X42931428Y-52723842D01*
X42931428Y-52723842D02*
X42991904Y-52663365D01*
X42991904Y-52663365D02*
X43052381Y-52542413D01*
X43052381Y-52542413D02*
X43052381Y-52421461D01*
X43052381Y-52421461D02*
X42991904Y-52300508D01*
X42991904Y-52300508D02*
X42931428Y-52240032D01*
X42931428Y-52240032D02*
X42810476Y-52179556D01*
X42810476Y-52179556D02*
X42568571Y-52119080D01*
X42568571Y-52119080D02*
X42447619Y-52058603D01*
X42447619Y-52058603D02*
X42387142Y-51998127D01*
X42387142Y-51998127D02*
X42326666Y-51877175D01*
X42326666Y-51877175D02*
X42326666Y-51756222D01*
X42326666Y-51756222D02*
X42387142Y-51635270D01*
X42387142Y-51635270D02*
X42447619Y-51574794D01*
X42447619Y-51574794D02*
X42568571Y-51514318D01*
X42568571Y-51514318D02*
X42870952Y-51514318D01*
X42870952Y-51514318D02*
X43052381Y-51574794D01*
X43475714Y-51514318D02*
X43778095Y-52784318D01*
X43778095Y-52784318D02*
X44020000Y-51877175D01*
X44020000Y-51877175D02*
X44261905Y-52784318D01*
X44261905Y-52784318D02*
X44564286Y-51514318D01*
X45713334Y-52784318D02*
X44987619Y-52784318D01*
X45350476Y-52784318D02*
X45350476Y-51514318D01*
X45350476Y-51514318D02*
X45229524Y-51695746D01*
X45229524Y-51695746D02*
X45108572Y-51816699D01*
X45108572Y-51816699D02*
X44987619Y-51877175D01*
D13*
X67254819Y-69492857D02*
X66778628Y-69826190D01*
X67254819Y-70064285D02*
X66254819Y-70064285D01*
X66254819Y-70064285D02*
X66254819Y-69683333D01*
X66254819Y-69683333D02*
X66302438Y-69588095D01*
X66302438Y-69588095D02*
X66350057Y-69540476D01*
X66350057Y-69540476D02*
X66445295Y-69492857D01*
X66445295Y-69492857D02*
X66588152Y-69492857D01*
X66588152Y-69492857D02*
X66683390Y-69540476D01*
X66683390Y-69540476D02*
X66731009Y-69588095D01*
X66731009Y-69588095D02*
X66778628Y-69683333D01*
X66778628Y-69683333D02*
X66778628Y-70064285D01*
X66350057Y-69111904D02*
X66302438Y-69064285D01*
X66302438Y-69064285D02*
X66254819Y-68969047D01*
X66254819Y-68969047D02*
X66254819Y-68730952D01*
X66254819Y-68730952D02*
X66302438Y-68635714D01*
X66302438Y-68635714D02*
X66350057Y-68588095D01*
X66350057Y-68588095D02*
X66445295Y-68540476D01*
X66445295Y-68540476D02*
X66540533Y-68540476D01*
X66540533Y-68540476D02*
X66683390Y-68588095D01*
X66683390Y-68588095D02*
X67254819Y-69159523D01*
X67254819Y-69159523D02*
X67254819Y-68540476D01*
X66254819Y-68207142D02*
X66254819Y-67588095D01*
X66254819Y-67588095D02*
X66635771Y-67921428D01*
X66635771Y-67921428D02*
X66635771Y-67778571D01*
X66635771Y-67778571D02*
X66683390Y-67683333D01*
X66683390Y-67683333D02*
X66731009Y-67635714D01*
X66731009Y-67635714D02*
X66826247Y-67588095D01*
X66826247Y-67588095D02*
X67064342Y-67588095D01*
X67064342Y-67588095D02*
X67159580Y-67635714D01*
X67159580Y-67635714D02*
X67207200Y-67683333D01*
X67207200Y-67683333D02*
X67254819Y-67778571D01*
X67254819Y-67778571D02*
X67254819Y-68064285D01*
X67254819Y-68064285D02*
X67207200Y-68159523D01*
X67207200Y-68159523D02*
X67159580Y-68207142D01*
X60907142Y-67104819D02*
X60573809Y-66628628D01*
X60335714Y-67104819D02*
X60335714Y-66104819D01*
X60335714Y-66104819D02*
X60716666Y-66104819D01*
X60716666Y-66104819D02*
X60811904Y-66152438D01*
X60811904Y-66152438D02*
X60859523Y-66200057D01*
X60859523Y-66200057D02*
X60907142Y-66295295D01*
X60907142Y-66295295D02*
X60907142Y-66438152D01*
X60907142Y-66438152D02*
X60859523Y-66533390D01*
X60859523Y-66533390D02*
X60811904Y-66581009D01*
X60811904Y-66581009D02*
X60716666Y-66628628D01*
X60716666Y-66628628D02*
X60335714Y-66628628D01*
X61288095Y-66200057D02*
X61335714Y-66152438D01*
X61335714Y-66152438D02*
X61430952Y-66104819D01*
X61430952Y-66104819D02*
X61669047Y-66104819D01*
X61669047Y-66104819D02*
X61764285Y-66152438D01*
X61764285Y-66152438D02*
X61811904Y-66200057D01*
X61811904Y-66200057D02*
X61859523Y-66295295D01*
X61859523Y-66295295D02*
X61859523Y-66390533D01*
X61859523Y-66390533D02*
X61811904Y-66533390D01*
X61811904Y-66533390D02*
X61240476Y-67104819D01*
X61240476Y-67104819D02*
X61859523Y-67104819D01*
X62811904Y-67104819D02*
X62240476Y-67104819D01*
X62526190Y-67104819D02*
X62526190Y-66104819D01*
X62526190Y-66104819D02*
X62430952Y-66247676D01*
X62430952Y-66247676D02*
X62335714Y-66342914D01*
X62335714Y-66342914D02*
X62240476Y-66390533D01*
X67754819Y-77861904D02*
X68564342Y-77861904D01*
X68564342Y-77861904D02*
X68659580Y-77814285D01*
X68659580Y-77814285D02*
X68707200Y-77766666D01*
X68707200Y-77766666D02*
X68754819Y-77671428D01*
X68754819Y-77671428D02*
X68754819Y-77480952D01*
X68754819Y-77480952D02*
X68707200Y-77385714D01*
X68707200Y-77385714D02*
X68659580Y-77338095D01*
X68659580Y-77338095D02*
X68564342Y-77290476D01*
X68564342Y-77290476D02*
X67754819Y-77290476D01*
X67754819Y-76338095D02*
X67754819Y-76814285D01*
X67754819Y-76814285D02*
X68231009Y-76861904D01*
X68231009Y-76861904D02*
X68183390Y-76814285D01*
X68183390Y-76814285D02*
X68135771Y-76719047D01*
X68135771Y-76719047D02*
X68135771Y-76480952D01*
X68135771Y-76480952D02*
X68183390Y-76385714D01*
X68183390Y-76385714D02*
X68231009Y-76338095D01*
X68231009Y-76338095D02*
X68326247Y-76290476D01*
X68326247Y-76290476D02*
X68564342Y-76290476D01*
X68564342Y-76290476D02*
X68659580Y-76338095D01*
X68659580Y-76338095D02*
X68707200Y-76385714D01*
X68707200Y-76385714D02*
X68754819Y-76480952D01*
X68754819Y-76480952D02*
X68754819Y-76719047D01*
X68754819Y-76719047D02*
X68707200Y-76814285D01*
X68707200Y-76814285D02*
X68659580Y-76861904D01*
X87757142Y-79854819D02*
X87423809Y-79378628D01*
X87185714Y-79854819D02*
X87185714Y-78854819D01*
X87185714Y-78854819D02*
X87566666Y-78854819D01*
X87566666Y-78854819D02*
X87661904Y-78902438D01*
X87661904Y-78902438D02*
X87709523Y-78950057D01*
X87709523Y-78950057D02*
X87757142Y-79045295D01*
X87757142Y-79045295D02*
X87757142Y-79188152D01*
X87757142Y-79188152D02*
X87709523Y-79283390D01*
X87709523Y-79283390D02*
X87661904Y-79331009D01*
X87661904Y-79331009D02*
X87566666Y-79378628D01*
X87566666Y-79378628D02*
X87185714Y-79378628D01*
X88709523Y-79854819D02*
X88138095Y-79854819D01*
X88423809Y-79854819D02*
X88423809Y-78854819D01*
X88423809Y-78854819D02*
X88328571Y-78997676D01*
X88328571Y-78997676D02*
X88233333Y-79092914D01*
X88233333Y-79092914D02*
X88138095Y-79140533D01*
X89614285Y-78854819D02*
X89138095Y-78854819D01*
X89138095Y-78854819D02*
X89090476Y-79331009D01*
X89090476Y-79331009D02*
X89138095Y-79283390D01*
X89138095Y-79283390D02*
X89233333Y-79235771D01*
X89233333Y-79235771D02*
X89471428Y-79235771D01*
X89471428Y-79235771D02*
X89566666Y-79283390D01*
X89566666Y-79283390D02*
X89614285Y-79331009D01*
X89614285Y-79331009D02*
X89661904Y-79426247D01*
X89661904Y-79426247D02*
X89661904Y-79664342D01*
X89661904Y-79664342D02*
X89614285Y-79759580D01*
X89614285Y-79759580D02*
X89566666Y-79807200D01*
X89566666Y-79807200D02*
X89471428Y-79854819D01*
X89471428Y-79854819D02*
X89233333Y-79854819D01*
X89233333Y-79854819D02*
X89138095Y-79807200D01*
X89138095Y-79807200D02*
X89090476Y-79759580D01*
X94159580Y-93692857D02*
X94207200Y-93740476D01*
X94207200Y-93740476D02*
X94254819Y-93883333D01*
X94254819Y-93883333D02*
X94254819Y-93978571D01*
X94254819Y-93978571D02*
X94207200Y-94121428D01*
X94207200Y-94121428D02*
X94111961Y-94216666D01*
X94111961Y-94216666D02*
X94016723Y-94264285D01*
X94016723Y-94264285D02*
X93826247Y-94311904D01*
X93826247Y-94311904D02*
X93683390Y-94311904D01*
X93683390Y-94311904D02*
X93492914Y-94264285D01*
X93492914Y-94264285D02*
X93397676Y-94216666D01*
X93397676Y-94216666D02*
X93302438Y-94121428D01*
X93302438Y-94121428D02*
X93254819Y-93978571D01*
X93254819Y-93978571D02*
X93254819Y-93883333D01*
X93254819Y-93883333D02*
X93302438Y-93740476D01*
X93302438Y-93740476D02*
X93350057Y-93692857D01*
X94254819Y-92740476D02*
X94254819Y-93311904D01*
X94254819Y-93026190D02*
X93254819Y-93026190D01*
X93254819Y-93026190D02*
X93397676Y-93121428D01*
X93397676Y-93121428D02*
X93492914Y-93216666D01*
X93492914Y-93216666D02*
X93540533Y-93311904D01*
X93254819Y-92121428D02*
X93254819Y-92026190D01*
X93254819Y-92026190D02*
X93302438Y-91930952D01*
X93302438Y-91930952D02*
X93350057Y-91883333D01*
X93350057Y-91883333D02*
X93445295Y-91835714D01*
X93445295Y-91835714D02*
X93635771Y-91788095D01*
X93635771Y-91788095D02*
X93873866Y-91788095D01*
X93873866Y-91788095D02*
X94064342Y-91835714D01*
X94064342Y-91835714D02*
X94159580Y-91883333D01*
X94159580Y-91883333D02*
X94207200Y-91930952D01*
X94207200Y-91930952D02*
X94254819Y-92026190D01*
X94254819Y-92026190D02*
X94254819Y-92121428D01*
X94254819Y-92121428D02*
X94207200Y-92216666D01*
X94207200Y-92216666D02*
X94159580Y-92264285D01*
X94159580Y-92264285D02*
X94064342Y-92311904D01*
X94064342Y-92311904D02*
X93873866Y-92359523D01*
X93873866Y-92359523D02*
X93635771Y-92359523D01*
X93635771Y-92359523D02*
X93445295Y-92311904D01*
X93445295Y-92311904D02*
X93350057Y-92264285D01*
X93350057Y-92264285D02*
X93302438Y-92216666D01*
X93302438Y-92216666D02*
X93254819Y-92121428D01*
X87657142Y-92259580D02*
X87609523Y-92307200D01*
X87609523Y-92307200D02*
X87466666Y-92354819D01*
X87466666Y-92354819D02*
X87371428Y-92354819D01*
X87371428Y-92354819D02*
X87228571Y-92307200D01*
X87228571Y-92307200D02*
X87133333Y-92211961D01*
X87133333Y-92211961D02*
X87085714Y-92116723D01*
X87085714Y-92116723D02*
X87038095Y-91926247D01*
X87038095Y-91926247D02*
X87038095Y-91783390D01*
X87038095Y-91783390D02*
X87085714Y-91592914D01*
X87085714Y-91592914D02*
X87133333Y-91497676D01*
X87133333Y-91497676D02*
X87228571Y-91402438D01*
X87228571Y-91402438D02*
X87371428Y-91354819D01*
X87371428Y-91354819D02*
X87466666Y-91354819D01*
X87466666Y-91354819D02*
X87609523Y-91402438D01*
X87609523Y-91402438D02*
X87657142Y-91450057D01*
X88609523Y-92354819D02*
X88038095Y-92354819D01*
X88323809Y-92354819D02*
X88323809Y-91354819D01*
X88323809Y-91354819D02*
X88228571Y-91497676D01*
X88228571Y-91497676D02*
X88133333Y-91592914D01*
X88133333Y-91592914D02*
X88038095Y-91640533D01*
X88942857Y-91354819D02*
X89561904Y-91354819D01*
X89561904Y-91354819D02*
X89228571Y-91735771D01*
X89228571Y-91735771D02*
X89371428Y-91735771D01*
X89371428Y-91735771D02*
X89466666Y-91783390D01*
X89466666Y-91783390D02*
X89514285Y-91831009D01*
X89514285Y-91831009D02*
X89561904Y-91926247D01*
X89561904Y-91926247D02*
X89561904Y-92164342D01*
X89561904Y-92164342D02*
X89514285Y-92259580D01*
X89514285Y-92259580D02*
X89466666Y-92307200D01*
X89466666Y-92307200D02*
X89371428Y-92354819D01*
X89371428Y-92354819D02*
X89085714Y-92354819D01*
X89085714Y-92354819D02*
X88990476Y-92307200D01*
X88990476Y-92307200D02*
X88942857Y-92259580D01*
X59954819Y-55266666D02*
X59478628Y-55599999D01*
X59954819Y-55838094D02*
X58954819Y-55838094D01*
X58954819Y-55838094D02*
X58954819Y-55457142D01*
X58954819Y-55457142D02*
X59002438Y-55361904D01*
X59002438Y-55361904D02*
X59050057Y-55314285D01*
X59050057Y-55314285D02*
X59145295Y-55266666D01*
X59145295Y-55266666D02*
X59288152Y-55266666D01*
X59288152Y-55266666D02*
X59383390Y-55314285D01*
X59383390Y-55314285D02*
X59431009Y-55361904D01*
X59431009Y-55361904D02*
X59478628Y-55457142D01*
X59478628Y-55457142D02*
X59478628Y-55838094D01*
X59383390Y-54695237D02*
X59335771Y-54790475D01*
X59335771Y-54790475D02*
X59288152Y-54838094D01*
X59288152Y-54838094D02*
X59192914Y-54885713D01*
X59192914Y-54885713D02*
X59145295Y-54885713D01*
X59145295Y-54885713D02*
X59050057Y-54838094D01*
X59050057Y-54838094D02*
X59002438Y-54790475D01*
X59002438Y-54790475D02*
X58954819Y-54695237D01*
X58954819Y-54695237D02*
X58954819Y-54504761D01*
X58954819Y-54504761D02*
X59002438Y-54409523D01*
X59002438Y-54409523D02*
X59050057Y-54361904D01*
X59050057Y-54361904D02*
X59145295Y-54314285D01*
X59145295Y-54314285D02*
X59192914Y-54314285D01*
X59192914Y-54314285D02*
X59288152Y-54361904D01*
X59288152Y-54361904D02*
X59335771Y-54409523D01*
X59335771Y-54409523D02*
X59383390Y-54504761D01*
X59383390Y-54504761D02*
X59383390Y-54695237D01*
X59383390Y-54695237D02*
X59431009Y-54790475D01*
X59431009Y-54790475D02*
X59478628Y-54838094D01*
X59478628Y-54838094D02*
X59573866Y-54885713D01*
X59573866Y-54885713D02*
X59764342Y-54885713D01*
X59764342Y-54885713D02*
X59859580Y-54838094D01*
X59859580Y-54838094D02*
X59907200Y-54790475D01*
X59907200Y-54790475D02*
X59954819Y-54695237D01*
X59954819Y-54695237D02*
X59954819Y-54504761D01*
X59954819Y-54504761D02*
X59907200Y-54409523D01*
X59907200Y-54409523D02*
X59859580Y-54361904D01*
X59859580Y-54361904D02*
X59764342Y-54314285D01*
X59764342Y-54314285D02*
X59573866Y-54314285D01*
X59573866Y-54314285D02*
X59478628Y-54361904D01*
X59478628Y-54361904D02*
X59431009Y-54409523D01*
X59431009Y-54409523D02*
X59383390Y-54504761D01*
X61338095Y-70004819D02*
X61338095Y-70814342D01*
X61338095Y-70814342D02*
X61385714Y-70909580D01*
X61385714Y-70909580D02*
X61433333Y-70957200D01*
X61433333Y-70957200D02*
X61528571Y-71004819D01*
X61528571Y-71004819D02*
X61719047Y-71004819D01*
X61719047Y-71004819D02*
X61814285Y-70957200D01*
X61814285Y-70957200D02*
X61861904Y-70909580D01*
X61861904Y-70909580D02*
X61909523Y-70814342D01*
X61909523Y-70814342D02*
X61909523Y-70004819D01*
X62528571Y-70433390D02*
X62433333Y-70385771D01*
X62433333Y-70385771D02*
X62385714Y-70338152D01*
X62385714Y-70338152D02*
X62338095Y-70242914D01*
X62338095Y-70242914D02*
X62338095Y-70195295D01*
X62338095Y-70195295D02*
X62385714Y-70100057D01*
X62385714Y-70100057D02*
X62433333Y-70052438D01*
X62433333Y-70052438D02*
X62528571Y-70004819D01*
X62528571Y-70004819D02*
X62719047Y-70004819D01*
X62719047Y-70004819D02*
X62814285Y-70052438D01*
X62814285Y-70052438D02*
X62861904Y-70100057D01*
X62861904Y-70100057D02*
X62909523Y-70195295D01*
X62909523Y-70195295D02*
X62909523Y-70242914D01*
X62909523Y-70242914D02*
X62861904Y-70338152D01*
X62861904Y-70338152D02*
X62814285Y-70385771D01*
X62814285Y-70385771D02*
X62719047Y-70433390D01*
X62719047Y-70433390D02*
X62528571Y-70433390D01*
X62528571Y-70433390D02*
X62433333Y-70481009D01*
X62433333Y-70481009D02*
X62385714Y-70528628D01*
X62385714Y-70528628D02*
X62338095Y-70623866D01*
X62338095Y-70623866D02*
X62338095Y-70814342D01*
X62338095Y-70814342D02*
X62385714Y-70909580D01*
X62385714Y-70909580D02*
X62433333Y-70957200D01*
X62433333Y-70957200D02*
X62528571Y-71004819D01*
X62528571Y-71004819D02*
X62719047Y-71004819D01*
X62719047Y-71004819D02*
X62814285Y-70957200D01*
X62814285Y-70957200D02*
X62861904Y-70909580D01*
X62861904Y-70909580D02*
X62909523Y-70814342D01*
X62909523Y-70814342D02*
X62909523Y-70623866D01*
X62909523Y-70623866D02*
X62861904Y-70528628D01*
X62861904Y-70528628D02*
X62814285Y-70481009D01*
X62814285Y-70481009D02*
X62719047Y-70433390D01*
X38873333Y-81099580D02*
X38825714Y-81147200D01*
X38825714Y-81147200D02*
X38682857Y-81194819D01*
X38682857Y-81194819D02*
X38587619Y-81194819D01*
X38587619Y-81194819D02*
X38444762Y-81147200D01*
X38444762Y-81147200D02*
X38349524Y-81051961D01*
X38349524Y-81051961D02*
X38301905Y-80956723D01*
X38301905Y-80956723D02*
X38254286Y-80766247D01*
X38254286Y-80766247D02*
X38254286Y-80623390D01*
X38254286Y-80623390D02*
X38301905Y-80432914D01*
X38301905Y-80432914D02*
X38349524Y-80337676D01*
X38349524Y-80337676D02*
X38444762Y-80242438D01*
X38444762Y-80242438D02*
X38587619Y-80194819D01*
X38587619Y-80194819D02*
X38682857Y-80194819D01*
X38682857Y-80194819D02*
X38825714Y-80242438D01*
X38825714Y-80242438D02*
X38873333Y-80290057D01*
X39206667Y-80194819D02*
X39825714Y-80194819D01*
X39825714Y-80194819D02*
X39492381Y-80575771D01*
X39492381Y-80575771D02*
X39635238Y-80575771D01*
X39635238Y-80575771D02*
X39730476Y-80623390D01*
X39730476Y-80623390D02*
X39778095Y-80671009D01*
X39778095Y-80671009D02*
X39825714Y-80766247D01*
X39825714Y-80766247D02*
X39825714Y-81004342D01*
X39825714Y-81004342D02*
X39778095Y-81099580D01*
X39778095Y-81099580D02*
X39730476Y-81147200D01*
X39730476Y-81147200D02*
X39635238Y-81194819D01*
X39635238Y-81194819D02*
X39349524Y-81194819D01*
X39349524Y-81194819D02*
X39254286Y-81147200D01*
X39254286Y-81147200D02*
X39206667Y-81099580D01*
X52904819Y-58516666D02*
X52428628Y-58849999D01*
X52904819Y-59088094D02*
X51904819Y-59088094D01*
X51904819Y-59088094D02*
X51904819Y-58707142D01*
X51904819Y-58707142D02*
X51952438Y-58611904D01*
X51952438Y-58611904D02*
X52000057Y-58564285D01*
X52000057Y-58564285D02*
X52095295Y-58516666D01*
X52095295Y-58516666D02*
X52238152Y-58516666D01*
X52238152Y-58516666D02*
X52333390Y-58564285D01*
X52333390Y-58564285D02*
X52381009Y-58611904D01*
X52381009Y-58611904D02*
X52428628Y-58707142D01*
X52428628Y-58707142D02*
X52428628Y-59088094D01*
X52238152Y-57659523D02*
X52904819Y-57659523D01*
X51857200Y-57897618D02*
X52571485Y-58135713D01*
X52571485Y-58135713D02*
X52571485Y-57516666D01*
X94204819Y-89892857D02*
X93728628Y-90226190D01*
X94204819Y-90464285D02*
X93204819Y-90464285D01*
X93204819Y-90464285D02*
X93204819Y-90083333D01*
X93204819Y-90083333D02*
X93252438Y-89988095D01*
X93252438Y-89988095D02*
X93300057Y-89940476D01*
X93300057Y-89940476D02*
X93395295Y-89892857D01*
X93395295Y-89892857D02*
X93538152Y-89892857D01*
X93538152Y-89892857D02*
X93633390Y-89940476D01*
X93633390Y-89940476D02*
X93681009Y-89988095D01*
X93681009Y-89988095D02*
X93728628Y-90083333D01*
X93728628Y-90083333D02*
X93728628Y-90464285D01*
X94204819Y-88940476D02*
X94204819Y-89511904D01*
X94204819Y-89226190D02*
X93204819Y-89226190D01*
X93204819Y-89226190D02*
X93347676Y-89321428D01*
X93347676Y-89321428D02*
X93442914Y-89416666D01*
X93442914Y-89416666D02*
X93490533Y-89511904D01*
X94204819Y-88464285D02*
X94204819Y-88273809D01*
X94204819Y-88273809D02*
X94157200Y-88178571D01*
X94157200Y-88178571D02*
X94109580Y-88130952D01*
X94109580Y-88130952D02*
X93966723Y-88035714D01*
X93966723Y-88035714D02*
X93776247Y-87988095D01*
X93776247Y-87988095D02*
X93395295Y-87988095D01*
X93395295Y-87988095D02*
X93300057Y-88035714D01*
X93300057Y-88035714D02*
X93252438Y-88083333D01*
X93252438Y-88083333D02*
X93204819Y-88178571D01*
X93204819Y-88178571D02*
X93204819Y-88369047D01*
X93204819Y-88369047D02*
X93252438Y-88464285D01*
X93252438Y-88464285D02*
X93300057Y-88511904D01*
X93300057Y-88511904D02*
X93395295Y-88559523D01*
X93395295Y-88559523D02*
X93633390Y-88559523D01*
X93633390Y-88559523D02*
X93728628Y-88511904D01*
X93728628Y-88511904D02*
X93776247Y-88464285D01*
X93776247Y-88464285D02*
X93823866Y-88369047D01*
X93823866Y-88369047D02*
X93823866Y-88178571D01*
X93823866Y-88178571D02*
X93776247Y-88083333D01*
X93776247Y-88083333D02*
X93728628Y-88035714D01*
X93728628Y-88035714D02*
X93633390Y-87988095D01*
X39003333Y-83949580D02*
X38955714Y-83997200D01*
X38955714Y-83997200D02*
X38812857Y-84044819D01*
X38812857Y-84044819D02*
X38717619Y-84044819D01*
X38717619Y-84044819D02*
X38574762Y-83997200D01*
X38574762Y-83997200D02*
X38479524Y-83901961D01*
X38479524Y-83901961D02*
X38431905Y-83806723D01*
X38431905Y-83806723D02*
X38384286Y-83616247D01*
X38384286Y-83616247D02*
X38384286Y-83473390D01*
X38384286Y-83473390D02*
X38431905Y-83282914D01*
X38431905Y-83282914D02*
X38479524Y-83187676D01*
X38479524Y-83187676D02*
X38574762Y-83092438D01*
X38574762Y-83092438D02*
X38717619Y-83044819D01*
X38717619Y-83044819D02*
X38812857Y-83044819D01*
X38812857Y-83044819D02*
X38955714Y-83092438D01*
X38955714Y-83092438D02*
X39003333Y-83140057D01*
X39384286Y-83140057D02*
X39431905Y-83092438D01*
X39431905Y-83092438D02*
X39527143Y-83044819D01*
X39527143Y-83044819D02*
X39765238Y-83044819D01*
X39765238Y-83044819D02*
X39860476Y-83092438D01*
X39860476Y-83092438D02*
X39908095Y-83140057D01*
X39908095Y-83140057D02*
X39955714Y-83235295D01*
X39955714Y-83235295D02*
X39955714Y-83330533D01*
X39955714Y-83330533D02*
X39908095Y-83473390D01*
X39908095Y-83473390D02*
X39336667Y-84044819D01*
X39336667Y-84044819D02*
X39955714Y-84044819D01*
X72754819Y-86017857D02*
X72278628Y-86351190D01*
X72754819Y-86589285D02*
X71754819Y-86589285D01*
X71754819Y-86589285D02*
X71754819Y-86208333D01*
X71754819Y-86208333D02*
X71802438Y-86113095D01*
X71802438Y-86113095D02*
X71850057Y-86065476D01*
X71850057Y-86065476D02*
X71945295Y-86017857D01*
X71945295Y-86017857D02*
X72088152Y-86017857D01*
X72088152Y-86017857D02*
X72183390Y-86065476D01*
X72183390Y-86065476D02*
X72231009Y-86113095D01*
X72231009Y-86113095D02*
X72278628Y-86208333D01*
X72278628Y-86208333D02*
X72278628Y-86589285D01*
X71850057Y-85636904D02*
X71802438Y-85589285D01*
X71802438Y-85589285D02*
X71754819Y-85494047D01*
X71754819Y-85494047D02*
X71754819Y-85255952D01*
X71754819Y-85255952D02*
X71802438Y-85160714D01*
X71802438Y-85160714D02*
X71850057Y-85113095D01*
X71850057Y-85113095D02*
X71945295Y-85065476D01*
X71945295Y-85065476D02*
X72040533Y-85065476D01*
X72040533Y-85065476D02*
X72183390Y-85113095D01*
X72183390Y-85113095D02*
X72754819Y-85684523D01*
X72754819Y-85684523D02*
X72754819Y-85065476D01*
X72088152Y-84208333D02*
X72754819Y-84208333D01*
X71707200Y-84446428D02*
X72421485Y-84684523D01*
X72421485Y-84684523D02*
X72421485Y-84065476D01*
X87757142Y-81254819D02*
X87423809Y-80778628D01*
X87185714Y-81254819D02*
X87185714Y-80254819D01*
X87185714Y-80254819D02*
X87566666Y-80254819D01*
X87566666Y-80254819D02*
X87661904Y-80302438D01*
X87661904Y-80302438D02*
X87709523Y-80350057D01*
X87709523Y-80350057D02*
X87757142Y-80445295D01*
X87757142Y-80445295D02*
X87757142Y-80588152D01*
X87757142Y-80588152D02*
X87709523Y-80683390D01*
X87709523Y-80683390D02*
X87661904Y-80731009D01*
X87661904Y-80731009D02*
X87566666Y-80778628D01*
X87566666Y-80778628D02*
X87185714Y-80778628D01*
X88709523Y-81254819D02*
X88138095Y-81254819D01*
X88423809Y-81254819D02*
X88423809Y-80254819D01*
X88423809Y-80254819D02*
X88328571Y-80397676D01*
X88328571Y-80397676D02*
X88233333Y-80492914D01*
X88233333Y-80492914D02*
X88138095Y-80540533D01*
X89566666Y-80254819D02*
X89376190Y-80254819D01*
X89376190Y-80254819D02*
X89280952Y-80302438D01*
X89280952Y-80302438D02*
X89233333Y-80350057D01*
X89233333Y-80350057D02*
X89138095Y-80492914D01*
X89138095Y-80492914D02*
X89090476Y-80683390D01*
X89090476Y-80683390D02*
X89090476Y-81064342D01*
X89090476Y-81064342D02*
X89138095Y-81159580D01*
X89138095Y-81159580D02*
X89185714Y-81207200D01*
X89185714Y-81207200D02*
X89280952Y-81254819D01*
X89280952Y-81254819D02*
X89471428Y-81254819D01*
X89471428Y-81254819D02*
X89566666Y-81207200D01*
X89566666Y-81207200D02*
X89614285Y-81159580D01*
X89614285Y-81159580D02*
X89661904Y-81064342D01*
X89661904Y-81064342D02*
X89661904Y-80826247D01*
X89661904Y-80826247D02*
X89614285Y-80731009D01*
X89614285Y-80731009D02*
X89566666Y-80683390D01*
X89566666Y-80683390D02*
X89471428Y-80635771D01*
X89471428Y-80635771D02*
X89280952Y-80635771D01*
X89280952Y-80635771D02*
X89185714Y-80683390D01*
X89185714Y-80683390D02*
X89138095Y-80731009D01*
X89138095Y-80731009D02*
X89090476Y-80826247D01*
D15*
X78676667Y-61054318D02*
X78676667Y-61961461D01*
X78676667Y-61961461D02*
X78616190Y-62142889D01*
X78616190Y-62142889D02*
X78495238Y-62263842D01*
X78495238Y-62263842D02*
X78313809Y-62324318D01*
X78313809Y-62324318D02*
X78192857Y-62324318D01*
X79825714Y-61477651D02*
X79825714Y-62324318D01*
X79523333Y-60993842D02*
X79220952Y-61900984D01*
X79220952Y-61900984D02*
X80007143Y-61900984D01*
D13*
X39083333Y-89399580D02*
X39035714Y-89447200D01*
X39035714Y-89447200D02*
X38892857Y-89494819D01*
X38892857Y-89494819D02*
X38797619Y-89494819D01*
X38797619Y-89494819D02*
X38654762Y-89447200D01*
X38654762Y-89447200D02*
X38559524Y-89351961D01*
X38559524Y-89351961D02*
X38511905Y-89256723D01*
X38511905Y-89256723D02*
X38464286Y-89066247D01*
X38464286Y-89066247D02*
X38464286Y-88923390D01*
X38464286Y-88923390D02*
X38511905Y-88732914D01*
X38511905Y-88732914D02*
X38559524Y-88637676D01*
X38559524Y-88637676D02*
X38654762Y-88542438D01*
X38654762Y-88542438D02*
X38797619Y-88494819D01*
X38797619Y-88494819D02*
X38892857Y-88494819D01*
X38892857Y-88494819D02*
X39035714Y-88542438D01*
X39035714Y-88542438D02*
X39083333Y-88590057D01*
X40035714Y-89494819D02*
X39464286Y-89494819D01*
X39750000Y-89494819D02*
X39750000Y-88494819D01*
X39750000Y-88494819D02*
X39654762Y-88637676D01*
X39654762Y-88637676D02*
X39559524Y-88732914D01*
X39559524Y-88732914D02*
X39464286Y-88780533D01*
X77883333Y-75754819D02*
X77550000Y-75278628D01*
X77311905Y-75754819D02*
X77311905Y-74754819D01*
X77311905Y-74754819D02*
X77692857Y-74754819D01*
X77692857Y-74754819D02*
X77788095Y-74802438D01*
X77788095Y-74802438D02*
X77835714Y-74850057D01*
X77835714Y-74850057D02*
X77883333Y-74945295D01*
X77883333Y-74945295D02*
X77883333Y-75088152D01*
X77883333Y-75088152D02*
X77835714Y-75183390D01*
X77835714Y-75183390D02*
X77788095Y-75231009D01*
X77788095Y-75231009D02*
X77692857Y-75278628D01*
X77692857Y-75278628D02*
X77311905Y-75278628D01*
X78788095Y-74754819D02*
X78311905Y-74754819D01*
X78311905Y-74754819D02*
X78264286Y-75231009D01*
X78264286Y-75231009D02*
X78311905Y-75183390D01*
X78311905Y-75183390D02*
X78407143Y-75135771D01*
X78407143Y-75135771D02*
X78645238Y-75135771D01*
X78645238Y-75135771D02*
X78740476Y-75183390D01*
X78740476Y-75183390D02*
X78788095Y-75231009D01*
X78788095Y-75231009D02*
X78835714Y-75326247D01*
X78835714Y-75326247D02*
X78835714Y-75564342D01*
X78835714Y-75564342D02*
X78788095Y-75659580D01*
X78788095Y-75659580D02*
X78740476Y-75707200D01*
X78740476Y-75707200D02*
X78645238Y-75754819D01*
X78645238Y-75754819D02*
X78407143Y-75754819D01*
X78407143Y-75754819D02*
X78311905Y-75707200D01*
X78311905Y-75707200D02*
X78264286Y-75659580D01*
X61683333Y-61259580D02*
X61635714Y-61307200D01*
X61635714Y-61307200D02*
X61492857Y-61354819D01*
X61492857Y-61354819D02*
X61397619Y-61354819D01*
X61397619Y-61354819D02*
X61254762Y-61307200D01*
X61254762Y-61307200D02*
X61159524Y-61211961D01*
X61159524Y-61211961D02*
X61111905Y-61116723D01*
X61111905Y-61116723D02*
X61064286Y-60926247D01*
X61064286Y-60926247D02*
X61064286Y-60783390D01*
X61064286Y-60783390D02*
X61111905Y-60592914D01*
X61111905Y-60592914D02*
X61159524Y-60497676D01*
X61159524Y-60497676D02*
X61254762Y-60402438D01*
X61254762Y-60402438D02*
X61397619Y-60354819D01*
X61397619Y-60354819D02*
X61492857Y-60354819D01*
X61492857Y-60354819D02*
X61635714Y-60402438D01*
X61635714Y-60402438D02*
X61683333Y-60450057D01*
X62159524Y-61354819D02*
X62350000Y-61354819D01*
X62350000Y-61354819D02*
X62445238Y-61307200D01*
X62445238Y-61307200D02*
X62492857Y-61259580D01*
X62492857Y-61259580D02*
X62588095Y-61116723D01*
X62588095Y-61116723D02*
X62635714Y-60926247D01*
X62635714Y-60926247D02*
X62635714Y-60545295D01*
X62635714Y-60545295D02*
X62588095Y-60450057D01*
X62588095Y-60450057D02*
X62540476Y-60402438D01*
X62540476Y-60402438D02*
X62445238Y-60354819D01*
X62445238Y-60354819D02*
X62254762Y-60354819D01*
X62254762Y-60354819D02*
X62159524Y-60402438D01*
X62159524Y-60402438D02*
X62111905Y-60450057D01*
X62111905Y-60450057D02*
X62064286Y-60545295D01*
X62064286Y-60545295D02*
X62064286Y-60783390D01*
X62064286Y-60783390D02*
X62111905Y-60878628D01*
X62111905Y-60878628D02*
X62159524Y-60926247D01*
X62159524Y-60926247D02*
X62254762Y-60973866D01*
X62254762Y-60973866D02*
X62445238Y-60973866D01*
X62445238Y-60973866D02*
X62540476Y-60926247D01*
X62540476Y-60926247D02*
X62588095Y-60878628D01*
X62588095Y-60878628D02*
X62635714Y-60783390D01*
X41914819Y-58696666D02*
X41438628Y-59029999D01*
X41914819Y-59268094D02*
X40914819Y-59268094D01*
X40914819Y-59268094D02*
X40914819Y-58887142D01*
X40914819Y-58887142D02*
X40962438Y-58791904D01*
X40962438Y-58791904D02*
X41010057Y-58744285D01*
X41010057Y-58744285D02*
X41105295Y-58696666D01*
X41105295Y-58696666D02*
X41248152Y-58696666D01*
X41248152Y-58696666D02*
X41343390Y-58744285D01*
X41343390Y-58744285D02*
X41391009Y-58791904D01*
X41391009Y-58791904D02*
X41438628Y-58887142D01*
X41438628Y-58887142D02*
X41438628Y-59268094D01*
X41914819Y-57744285D02*
X41914819Y-58315713D01*
X41914819Y-58029999D02*
X40914819Y-58029999D01*
X40914819Y-58029999D02*
X41057676Y-58125237D01*
X41057676Y-58125237D02*
X41152914Y-58220475D01*
X41152914Y-58220475D02*
X41200533Y-58315713D01*
X61233333Y-49759580D02*
X61185714Y-49807200D01*
X61185714Y-49807200D02*
X61042857Y-49854819D01*
X61042857Y-49854819D02*
X60947619Y-49854819D01*
X60947619Y-49854819D02*
X60804762Y-49807200D01*
X60804762Y-49807200D02*
X60709524Y-49711961D01*
X60709524Y-49711961D02*
X60661905Y-49616723D01*
X60661905Y-49616723D02*
X60614286Y-49426247D01*
X60614286Y-49426247D02*
X60614286Y-49283390D01*
X60614286Y-49283390D02*
X60661905Y-49092914D01*
X60661905Y-49092914D02*
X60709524Y-48997676D01*
X60709524Y-48997676D02*
X60804762Y-48902438D01*
X60804762Y-48902438D02*
X60947619Y-48854819D01*
X60947619Y-48854819D02*
X61042857Y-48854819D01*
X61042857Y-48854819D02*
X61185714Y-48902438D01*
X61185714Y-48902438D02*
X61233333Y-48950057D01*
X62138095Y-48854819D02*
X61661905Y-48854819D01*
X61661905Y-48854819D02*
X61614286Y-49331009D01*
X61614286Y-49331009D02*
X61661905Y-49283390D01*
X61661905Y-49283390D02*
X61757143Y-49235771D01*
X61757143Y-49235771D02*
X61995238Y-49235771D01*
X61995238Y-49235771D02*
X62090476Y-49283390D01*
X62090476Y-49283390D02*
X62138095Y-49331009D01*
X62138095Y-49331009D02*
X62185714Y-49426247D01*
X62185714Y-49426247D02*
X62185714Y-49664342D01*
X62185714Y-49664342D02*
X62138095Y-49759580D01*
X62138095Y-49759580D02*
X62090476Y-49807200D01*
X62090476Y-49807200D02*
X61995238Y-49854819D01*
X61995238Y-49854819D02*
X61757143Y-49854819D01*
X61757143Y-49854819D02*
X61661905Y-49807200D01*
X61661905Y-49807200D02*
X61614286Y-49759580D01*
X77354819Y-91966666D02*
X76878628Y-92299999D01*
X77354819Y-92538094D02*
X76354819Y-92538094D01*
X76354819Y-92538094D02*
X76354819Y-92157142D01*
X76354819Y-92157142D02*
X76402438Y-92061904D01*
X76402438Y-92061904D02*
X76450057Y-92014285D01*
X76450057Y-92014285D02*
X76545295Y-91966666D01*
X76545295Y-91966666D02*
X76688152Y-91966666D01*
X76688152Y-91966666D02*
X76783390Y-92014285D01*
X76783390Y-92014285D02*
X76831009Y-92061904D01*
X76831009Y-92061904D02*
X76878628Y-92157142D01*
X76878628Y-92157142D02*
X76878628Y-92538094D01*
X77354819Y-91490475D02*
X77354819Y-91299999D01*
X77354819Y-91299999D02*
X77307200Y-91204761D01*
X77307200Y-91204761D02*
X77259580Y-91157142D01*
X77259580Y-91157142D02*
X77116723Y-91061904D01*
X77116723Y-91061904D02*
X76926247Y-91014285D01*
X76926247Y-91014285D02*
X76545295Y-91014285D01*
X76545295Y-91014285D02*
X76450057Y-91061904D01*
X76450057Y-91061904D02*
X76402438Y-91109523D01*
X76402438Y-91109523D02*
X76354819Y-91204761D01*
X76354819Y-91204761D02*
X76354819Y-91395237D01*
X76354819Y-91395237D02*
X76402438Y-91490475D01*
X76402438Y-91490475D02*
X76450057Y-91538094D01*
X76450057Y-91538094D02*
X76545295Y-91585713D01*
X76545295Y-91585713D02*
X76783390Y-91585713D01*
X76783390Y-91585713D02*
X76878628Y-91538094D01*
X76878628Y-91538094D02*
X76926247Y-91490475D01*
X76926247Y-91490475D02*
X76973866Y-91395237D01*
X76973866Y-91395237D02*
X76973866Y-91204761D01*
X76973866Y-91204761D02*
X76926247Y-91109523D01*
X76926247Y-91109523D02*
X76878628Y-91061904D01*
X76878628Y-91061904D02*
X76783390Y-91014285D01*
X58054819Y-56042857D02*
X57578628Y-56376190D01*
X58054819Y-56614285D02*
X57054819Y-56614285D01*
X57054819Y-56614285D02*
X57054819Y-56233333D01*
X57054819Y-56233333D02*
X57102438Y-56138095D01*
X57102438Y-56138095D02*
X57150057Y-56090476D01*
X57150057Y-56090476D02*
X57245295Y-56042857D01*
X57245295Y-56042857D02*
X57388152Y-56042857D01*
X57388152Y-56042857D02*
X57483390Y-56090476D01*
X57483390Y-56090476D02*
X57531009Y-56138095D01*
X57531009Y-56138095D02*
X57578628Y-56233333D01*
X57578628Y-56233333D02*
X57578628Y-56614285D01*
X58054819Y-55090476D02*
X58054819Y-55661904D01*
X58054819Y-55376190D02*
X57054819Y-55376190D01*
X57054819Y-55376190D02*
X57197676Y-55471428D01*
X57197676Y-55471428D02*
X57292914Y-55566666D01*
X57292914Y-55566666D02*
X57340533Y-55661904D01*
X58054819Y-54138095D02*
X58054819Y-54709523D01*
X58054819Y-54423809D02*
X57054819Y-54423809D01*
X57054819Y-54423809D02*
X57197676Y-54519047D01*
X57197676Y-54519047D02*
X57292914Y-54614285D01*
X57292914Y-54614285D02*
X57340533Y-54709523D01*
X91057142Y-83379819D02*
X90723809Y-82903628D01*
X90485714Y-83379819D02*
X90485714Y-82379819D01*
X90485714Y-82379819D02*
X90866666Y-82379819D01*
X90866666Y-82379819D02*
X90961904Y-82427438D01*
X90961904Y-82427438D02*
X91009523Y-82475057D01*
X91009523Y-82475057D02*
X91057142Y-82570295D01*
X91057142Y-82570295D02*
X91057142Y-82713152D01*
X91057142Y-82713152D02*
X91009523Y-82808390D01*
X91009523Y-82808390D02*
X90961904Y-82856009D01*
X90961904Y-82856009D02*
X90866666Y-82903628D01*
X90866666Y-82903628D02*
X90485714Y-82903628D01*
X91438095Y-82475057D02*
X91485714Y-82427438D01*
X91485714Y-82427438D02*
X91580952Y-82379819D01*
X91580952Y-82379819D02*
X91819047Y-82379819D01*
X91819047Y-82379819D02*
X91914285Y-82427438D01*
X91914285Y-82427438D02*
X91961904Y-82475057D01*
X91961904Y-82475057D02*
X92009523Y-82570295D01*
X92009523Y-82570295D02*
X92009523Y-82665533D01*
X92009523Y-82665533D02*
X91961904Y-82808390D01*
X91961904Y-82808390D02*
X91390476Y-83379819D01*
X91390476Y-83379819D02*
X92009523Y-83379819D01*
X92628571Y-82379819D02*
X92723809Y-82379819D01*
X92723809Y-82379819D02*
X92819047Y-82427438D01*
X92819047Y-82427438D02*
X92866666Y-82475057D01*
X92866666Y-82475057D02*
X92914285Y-82570295D01*
X92914285Y-82570295D02*
X92961904Y-82760771D01*
X92961904Y-82760771D02*
X92961904Y-82998866D01*
X92961904Y-82998866D02*
X92914285Y-83189342D01*
X92914285Y-83189342D02*
X92866666Y-83284580D01*
X92866666Y-83284580D02*
X92819047Y-83332200D01*
X92819047Y-83332200D02*
X92723809Y-83379819D01*
X92723809Y-83379819D02*
X92628571Y-83379819D01*
X92628571Y-83379819D02*
X92533333Y-83332200D01*
X92533333Y-83332200D02*
X92485714Y-83284580D01*
X92485714Y-83284580D02*
X92438095Y-83189342D01*
X92438095Y-83189342D02*
X92390476Y-82998866D01*
X92390476Y-82998866D02*
X92390476Y-82760771D01*
X92390476Y-82760771D02*
X92438095Y-82570295D01*
X92438095Y-82570295D02*
X92485714Y-82475057D01*
X92485714Y-82475057D02*
X92533333Y-82427438D01*
X92533333Y-82427438D02*
X92628571Y-82379819D01*
X94109580Y-86042857D02*
X94157200Y-86090476D01*
X94157200Y-86090476D02*
X94204819Y-86233333D01*
X94204819Y-86233333D02*
X94204819Y-86328571D01*
X94204819Y-86328571D02*
X94157200Y-86471428D01*
X94157200Y-86471428D02*
X94061961Y-86566666D01*
X94061961Y-86566666D02*
X93966723Y-86614285D01*
X93966723Y-86614285D02*
X93776247Y-86661904D01*
X93776247Y-86661904D02*
X93633390Y-86661904D01*
X93633390Y-86661904D02*
X93442914Y-86614285D01*
X93442914Y-86614285D02*
X93347676Y-86566666D01*
X93347676Y-86566666D02*
X93252438Y-86471428D01*
X93252438Y-86471428D02*
X93204819Y-86328571D01*
X93204819Y-86328571D02*
X93204819Y-86233333D01*
X93204819Y-86233333D02*
X93252438Y-86090476D01*
X93252438Y-86090476D02*
X93300057Y-86042857D01*
X94204819Y-85090476D02*
X94204819Y-85661904D01*
X94204819Y-85376190D02*
X93204819Y-85376190D01*
X93204819Y-85376190D02*
X93347676Y-85471428D01*
X93347676Y-85471428D02*
X93442914Y-85566666D01*
X93442914Y-85566666D02*
X93490533Y-85661904D01*
X94204819Y-84138095D02*
X94204819Y-84709523D01*
X94204819Y-84423809D02*
X93204819Y-84423809D01*
X93204819Y-84423809D02*
X93347676Y-84519047D01*
X93347676Y-84519047D02*
X93442914Y-84614285D01*
X93442914Y-84614285D02*
X93490533Y-84709523D01*
X55333333Y-60154819D02*
X55000000Y-59678628D01*
X54761905Y-60154819D02*
X54761905Y-59154819D01*
X54761905Y-59154819D02*
X55142857Y-59154819D01*
X55142857Y-59154819D02*
X55238095Y-59202438D01*
X55238095Y-59202438D02*
X55285714Y-59250057D01*
X55285714Y-59250057D02*
X55333333Y-59345295D01*
X55333333Y-59345295D02*
X55333333Y-59488152D01*
X55333333Y-59488152D02*
X55285714Y-59583390D01*
X55285714Y-59583390D02*
X55238095Y-59631009D01*
X55238095Y-59631009D02*
X55142857Y-59678628D01*
X55142857Y-59678628D02*
X54761905Y-59678628D01*
X55666667Y-59154819D02*
X56333333Y-59154819D01*
X56333333Y-59154819D02*
X55904762Y-60154819D01*
X38923333Y-75539580D02*
X38875714Y-75587200D01*
X38875714Y-75587200D02*
X38732857Y-75634819D01*
X38732857Y-75634819D02*
X38637619Y-75634819D01*
X38637619Y-75634819D02*
X38494762Y-75587200D01*
X38494762Y-75587200D02*
X38399524Y-75491961D01*
X38399524Y-75491961D02*
X38351905Y-75396723D01*
X38351905Y-75396723D02*
X38304286Y-75206247D01*
X38304286Y-75206247D02*
X38304286Y-75063390D01*
X38304286Y-75063390D02*
X38351905Y-74872914D01*
X38351905Y-74872914D02*
X38399524Y-74777676D01*
X38399524Y-74777676D02*
X38494762Y-74682438D01*
X38494762Y-74682438D02*
X38637619Y-74634819D01*
X38637619Y-74634819D02*
X38732857Y-74634819D01*
X38732857Y-74634819D02*
X38875714Y-74682438D01*
X38875714Y-74682438D02*
X38923333Y-74730057D01*
X39780476Y-74968152D02*
X39780476Y-75634819D01*
X39542381Y-74587200D02*
X39304286Y-75301485D01*
X39304286Y-75301485D02*
X39923333Y-75301485D01*
X67150833Y-81199580D02*
X67103214Y-81247200D01*
X67103214Y-81247200D02*
X66960357Y-81294819D01*
X66960357Y-81294819D02*
X66865119Y-81294819D01*
X66865119Y-81294819D02*
X66722262Y-81247200D01*
X66722262Y-81247200D02*
X66627024Y-81151961D01*
X66627024Y-81151961D02*
X66579405Y-81056723D01*
X66579405Y-81056723D02*
X66531786Y-80866247D01*
X66531786Y-80866247D02*
X66531786Y-80723390D01*
X66531786Y-80723390D02*
X66579405Y-80532914D01*
X66579405Y-80532914D02*
X66627024Y-80437676D01*
X66627024Y-80437676D02*
X66722262Y-80342438D01*
X66722262Y-80342438D02*
X66865119Y-80294819D01*
X66865119Y-80294819D02*
X66960357Y-80294819D01*
X66960357Y-80294819D02*
X67103214Y-80342438D01*
X67103214Y-80342438D02*
X67150833Y-80390057D01*
X67484167Y-80294819D02*
X68150833Y-80294819D01*
X68150833Y-80294819D02*
X67722262Y-81294819D01*
X55957142Y-73389819D02*
X55623809Y-72913628D01*
X55385714Y-73389819D02*
X55385714Y-72389819D01*
X55385714Y-72389819D02*
X55766666Y-72389819D01*
X55766666Y-72389819D02*
X55861904Y-72437438D01*
X55861904Y-72437438D02*
X55909523Y-72485057D01*
X55909523Y-72485057D02*
X55957142Y-72580295D01*
X55957142Y-72580295D02*
X55957142Y-72723152D01*
X55957142Y-72723152D02*
X55909523Y-72818390D01*
X55909523Y-72818390D02*
X55861904Y-72866009D01*
X55861904Y-72866009D02*
X55766666Y-72913628D01*
X55766666Y-72913628D02*
X55385714Y-72913628D01*
X56909523Y-73389819D02*
X56338095Y-73389819D01*
X56623809Y-73389819D02*
X56623809Y-72389819D01*
X56623809Y-72389819D02*
X56528571Y-72532676D01*
X56528571Y-72532676D02*
X56433333Y-72627914D01*
X56433333Y-72627914D02*
X56338095Y-72675533D01*
X57766666Y-72723152D02*
X57766666Y-73389819D01*
X57528571Y-72342200D02*
X57290476Y-73056485D01*
X57290476Y-73056485D02*
X57909523Y-73056485D01*
X80810595Y-87919819D02*
X80810595Y-88729342D01*
X80810595Y-88729342D02*
X80858214Y-88824580D01*
X80858214Y-88824580D02*
X80905833Y-88872200D01*
X80905833Y-88872200D02*
X81001071Y-88919819D01*
X81001071Y-88919819D02*
X81191547Y-88919819D01*
X81191547Y-88919819D02*
X81286785Y-88872200D01*
X81286785Y-88872200D02*
X81334404Y-88824580D01*
X81334404Y-88824580D02*
X81382023Y-88729342D01*
X81382023Y-88729342D02*
X81382023Y-87919819D01*
X82286785Y-87919819D02*
X82096309Y-87919819D01*
X82096309Y-87919819D02*
X82001071Y-87967438D01*
X82001071Y-87967438D02*
X81953452Y-88015057D01*
X81953452Y-88015057D02*
X81858214Y-88157914D01*
X81858214Y-88157914D02*
X81810595Y-88348390D01*
X81810595Y-88348390D02*
X81810595Y-88729342D01*
X81810595Y-88729342D02*
X81858214Y-88824580D01*
X81858214Y-88824580D02*
X81905833Y-88872200D01*
X81905833Y-88872200D02*
X82001071Y-88919819D01*
X82001071Y-88919819D02*
X82191547Y-88919819D01*
X82191547Y-88919819D02*
X82286785Y-88872200D01*
X82286785Y-88872200D02*
X82334404Y-88824580D01*
X82334404Y-88824580D02*
X82382023Y-88729342D01*
X82382023Y-88729342D02*
X82382023Y-88491247D01*
X82382023Y-88491247D02*
X82334404Y-88396009D01*
X82334404Y-88396009D02*
X82286785Y-88348390D01*
X82286785Y-88348390D02*
X82191547Y-88300771D01*
X82191547Y-88300771D02*
X82001071Y-88300771D01*
X82001071Y-88300771D02*
X81905833Y-88348390D01*
X81905833Y-88348390D02*
X81858214Y-88396009D01*
X81858214Y-88396009D02*
X81810595Y-88491247D01*
X63333333Y-81209580D02*
X63285714Y-81257200D01*
X63285714Y-81257200D02*
X63142857Y-81304819D01*
X63142857Y-81304819D02*
X63047619Y-81304819D01*
X63047619Y-81304819D02*
X62904762Y-81257200D01*
X62904762Y-81257200D02*
X62809524Y-81161961D01*
X62809524Y-81161961D02*
X62761905Y-81066723D01*
X62761905Y-81066723D02*
X62714286Y-80876247D01*
X62714286Y-80876247D02*
X62714286Y-80733390D01*
X62714286Y-80733390D02*
X62761905Y-80542914D01*
X62761905Y-80542914D02*
X62809524Y-80447676D01*
X62809524Y-80447676D02*
X62904762Y-80352438D01*
X62904762Y-80352438D02*
X63047619Y-80304819D01*
X63047619Y-80304819D02*
X63142857Y-80304819D01*
X63142857Y-80304819D02*
X63285714Y-80352438D01*
X63285714Y-80352438D02*
X63333333Y-80400057D01*
X64190476Y-80304819D02*
X64000000Y-80304819D01*
X64000000Y-80304819D02*
X63904762Y-80352438D01*
X63904762Y-80352438D02*
X63857143Y-80400057D01*
X63857143Y-80400057D02*
X63761905Y-80542914D01*
X63761905Y-80542914D02*
X63714286Y-80733390D01*
X63714286Y-80733390D02*
X63714286Y-81114342D01*
X63714286Y-81114342D02*
X63761905Y-81209580D01*
X63761905Y-81209580D02*
X63809524Y-81257200D01*
X63809524Y-81257200D02*
X63904762Y-81304819D01*
X63904762Y-81304819D02*
X64095238Y-81304819D01*
X64095238Y-81304819D02*
X64190476Y-81257200D01*
X64190476Y-81257200D02*
X64238095Y-81209580D01*
X64238095Y-81209580D02*
X64285714Y-81114342D01*
X64285714Y-81114342D02*
X64285714Y-80876247D01*
X64285714Y-80876247D02*
X64238095Y-80781009D01*
X64238095Y-80781009D02*
X64190476Y-80733390D01*
X64190476Y-80733390D02*
X64095238Y-80685771D01*
X64095238Y-80685771D02*
X63904762Y-80685771D01*
X63904762Y-80685771D02*
X63809524Y-80733390D01*
X63809524Y-80733390D02*
X63761905Y-80781009D01*
X63761905Y-80781009D02*
X63714286Y-80876247D01*
X87607142Y-87159580D02*
X87559523Y-87207200D01*
X87559523Y-87207200D02*
X87416666Y-87254819D01*
X87416666Y-87254819D02*
X87321428Y-87254819D01*
X87321428Y-87254819D02*
X87178571Y-87207200D01*
X87178571Y-87207200D02*
X87083333Y-87111961D01*
X87083333Y-87111961D02*
X87035714Y-87016723D01*
X87035714Y-87016723D02*
X86988095Y-86826247D01*
X86988095Y-86826247D02*
X86988095Y-86683390D01*
X86988095Y-86683390D02*
X87035714Y-86492914D01*
X87035714Y-86492914D02*
X87083333Y-86397676D01*
X87083333Y-86397676D02*
X87178571Y-86302438D01*
X87178571Y-86302438D02*
X87321428Y-86254819D01*
X87321428Y-86254819D02*
X87416666Y-86254819D01*
X87416666Y-86254819D02*
X87559523Y-86302438D01*
X87559523Y-86302438D02*
X87607142Y-86350057D01*
X88559523Y-87254819D02*
X87988095Y-87254819D01*
X88273809Y-87254819D02*
X88273809Y-86254819D01*
X88273809Y-86254819D02*
X88178571Y-86397676D01*
X88178571Y-86397676D02*
X88083333Y-86492914D01*
X88083333Y-86492914D02*
X87988095Y-86540533D01*
X88940476Y-86350057D02*
X88988095Y-86302438D01*
X88988095Y-86302438D02*
X89083333Y-86254819D01*
X89083333Y-86254819D02*
X89321428Y-86254819D01*
X89321428Y-86254819D02*
X89416666Y-86302438D01*
X89416666Y-86302438D02*
X89464285Y-86350057D01*
X89464285Y-86350057D02*
X89511904Y-86445295D01*
X89511904Y-86445295D02*
X89511904Y-86540533D01*
X89511904Y-86540533D02*
X89464285Y-86683390D01*
X89464285Y-86683390D02*
X88892857Y-87254819D01*
X88892857Y-87254819D02*
X89511904Y-87254819D01*
X38328095Y-85834819D02*
X38328095Y-86644342D01*
X38328095Y-86644342D02*
X38375714Y-86739580D01*
X38375714Y-86739580D02*
X38423333Y-86787200D01*
X38423333Y-86787200D02*
X38518571Y-86834819D01*
X38518571Y-86834819D02*
X38709047Y-86834819D01*
X38709047Y-86834819D02*
X38804285Y-86787200D01*
X38804285Y-86787200D02*
X38851904Y-86739580D01*
X38851904Y-86739580D02*
X38899523Y-86644342D01*
X38899523Y-86644342D02*
X38899523Y-85834819D01*
X39280476Y-85834819D02*
X39899523Y-85834819D01*
X39899523Y-85834819D02*
X39566190Y-86215771D01*
X39566190Y-86215771D02*
X39709047Y-86215771D01*
X39709047Y-86215771D02*
X39804285Y-86263390D01*
X39804285Y-86263390D02*
X39851904Y-86311009D01*
X39851904Y-86311009D02*
X39899523Y-86406247D01*
X39899523Y-86406247D02*
X39899523Y-86644342D01*
X39899523Y-86644342D02*
X39851904Y-86739580D01*
X39851904Y-86739580D02*
X39804285Y-86787200D01*
X39804285Y-86787200D02*
X39709047Y-86834819D01*
X39709047Y-86834819D02*
X39423333Y-86834819D01*
X39423333Y-86834819D02*
X39328095Y-86787200D01*
X39328095Y-86787200D02*
X39280476Y-86739580D01*
X81254819Y-90961904D02*
X82064342Y-90961904D01*
X82064342Y-90961904D02*
X82159580Y-90914285D01*
X82159580Y-90914285D02*
X82207200Y-90866666D01*
X82207200Y-90866666D02*
X82254819Y-90771428D01*
X82254819Y-90771428D02*
X82254819Y-90580952D01*
X82254819Y-90580952D02*
X82207200Y-90485714D01*
X82207200Y-90485714D02*
X82159580Y-90438095D01*
X82159580Y-90438095D02*
X82064342Y-90390476D01*
X82064342Y-90390476D02*
X81254819Y-90390476D01*
X81254819Y-90009523D02*
X81254819Y-89342857D01*
X81254819Y-89342857D02*
X82254819Y-89771428D01*
X85166666Y-96304819D02*
X85166666Y-97019104D01*
X85166666Y-97019104D02*
X85119047Y-97161961D01*
X85119047Y-97161961D02*
X85023809Y-97257200D01*
X85023809Y-97257200D02*
X84880952Y-97304819D01*
X84880952Y-97304819D02*
X84785714Y-97304819D01*
X86119047Y-96304819D02*
X85642857Y-96304819D01*
X85642857Y-96304819D02*
X85595238Y-96781009D01*
X85595238Y-96781009D02*
X85642857Y-96733390D01*
X85642857Y-96733390D02*
X85738095Y-96685771D01*
X85738095Y-96685771D02*
X85976190Y-96685771D01*
X85976190Y-96685771D02*
X86071428Y-96733390D01*
X86071428Y-96733390D02*
X86119047Y-96781009D01*
X86119047Y-96781009D02*
X86166666Y-96876247D01*
X86166666Y-96876247D02*
X86166666Y-97114342D01*
X86166666Y-97114342D02*
X86119047Y-97209580D01*
X86119047Y-97209580D02*
X86071428Y-97257200D01*
X86071428Y-97257200D02*
X85976190Y-97304819D01*
X85976190Y-97304819D02*
X85738095Y-97304819D01*
X85738095Y-97304819D02*
X85642857Y-97257200D01*
X85642857Y-97257200D02*
X85595238Y-97209580D01*
X61257142Y-47654819D02*
X60923809Y-47178628D01*
X60685714Y-47654819D02*
X60685714Y-46654819D01*
X60685714Y-46654819D02*
X61066666Y-46654819D01*
X61066666Y-46654819D02*
X61161904Y-46702438D01*
X61161904Y-46702438D02*
X61209523Y-46750057D01*
X61209523Y-46750057D02*
X61257142Y-46845295D01*
X61257142Y-46845295D02*
X61257142Y-46988152D01*
X61257142Y-46988152D02*
X61209523Y-47083390D01*
X61209523Y-47083390D02*
X61161904Y-47131009D01*
X61161904Y-47131009D02*
X61066666Y-47178628D01*
X61066666Y-47178628D02*
X60685714Y-47178628D01*
X62209523Y-47654819D02*
X61638095Y-47654819D01*
X61923809Y-47654819D02*
X61923809Y-46654819D01*
X61923809Y-46654819D02*
X61828571Y-46797676D01*
X61828571Y-46797676D02*
X61733333Y-46892914D01*
X61733333Y-46892914D02*
X61638095Y-46940533D01*
X62590476Y-46750057D02*
X62638095Y-46702438D01*
X62638095Y-46702438D02*
X62733333Y-46654819D01*
X62733333Y-46654819D02*
X62971428Y-46654819D01*
X62971428Y-46654819D02*
X63066666Y-46702438D01*
X63066666Y-46702438D02*
X63114285Y-46750057D01*
X63114285Y-46750057D02*
X63161904Y-46845295D01*
X63161904Y-46845295D02*
X63161904Y-46940533D01*
X63161904Y-46940533D02*
X63114285Y-47083390D01*
X63114285Y-47083390D02*
X62542857Y-47654819D01*
X62542857Y-47654819D02*
X63161904Y-47654819D01*
X47707142Y-79904819D02*
X47373809Y-79428628D01*
X47135714Y-79904819D02*
X47135714Y-78904819D01*
X47135714Y-78904819D02*
X47516666Y-78904819D01*
X47516666Y-78904819D02*
X47611904Y-78952438D01*
X47611904Y-78952438D02*
X47659523Y-79000057D01*
X47659523Y-79000057D02*
X47707142Y-79095295D01*
X47707142Y-79095295D02*
X47707142Y-79238152D01*
X47707142Y-79238152D02*
X47659523Y-79333390D01*
X47659523Y-79333390D02*
X47611904Y-79381009D01*
X47611904Y-79381009D02*
X47516666Y-79428628D01*
X47516666Y-79428628D02*
X47135714Y-79428628D01*
X48088095Y-79000057D02*
X48135714Y-78952438D01*
X48135714Y-78952438D02*
X48230952Y-78904819D01*
X48230952Y-78904819D02*
X48469047Y-78904819D01*
X48469047Y-78904819D02*
X48564285Y-78952438D01*
X48564285Y-78952438D02*
X48611904Y-79000057D01*
X48611904Y-79000057D02*
X48659523Y-79095295D01*
X48659523Y-79095295D02*
X48659523Y-79190533D01*
X48659523Y-79190533D02*
X48611904Y-79333390D01*
X48611904Y-79333390D02*
X48040476Y-79904819D01*
X48040476Y-79904819D02*
X48659523Y-79904819D01*
X49040476Y-79000057D02*
X49088095Y-78952438D01*
X49088095Y-78952438D02*
X49183333Y-78904819D01*
X49183333Y-78904819D02*
X49421428Y-78904819D01*
X49421428Y-78904819D02*
X49516666Y-78952438D01*
X49516666Y-78952438D02*
X49564285Y-79000057D01*
X49564285Y-79000057D02*
X49611904Y-79095295D01*
X49611904Y-79095295D02*
X49611904Y-79190533D01*
X49611904Y-79190533D02*
X49564285Y-79333390D01*
X49564285Y-79333390D02*
X48992857Y-79904819D01*
X48992857Y-79904819D02*
X49611904Y-79904819D01*
X38218095Y-77374819D02*
X38218095Y-78184342D01*
X38218095Y-78184342D02*
X38265714Y-78279580D01*
X38265714Y-78279580D02*
X38313333Y-78327200D01*
X38313333Y-78327200D02*
X38408571Y-78374819D01*
X38408571Y-78374819D02*
X38599047Y-78374819D01*
X38599047Y-78374819D02*
X38694285Y-78327200D01*
X38694285Y-78327200D02*
X38741904Y-78279580D01*
X38741904Y-78279580D02*
X38789523Y-78184342D01*
X38789523Y-78184342D02*
X38789523Y-77374819D01*
X39694285Y-77708152D02*
X39694285Y-78374819D01*
X39456190Y-77327200D02*
X39218095Y-78041485D01*
X39218095Y-78041485D02*
X39837142Y-78041485D01*
D16*
X91315000Y-96672936D02*
X91315000Y-97127064D01*
X92785000Y-96672936D02*
X92785000Y-97127064D01*
X88427064Y-81965000D02*
X87972936Y-81965000D01*
X88427064Y-83435000D02*
X87972936Y-83435000D01*
X72677500Y-82385000D02*
X72677500Y-80975000D01*
X74997500Y-82375000D02*
X74997500Y-80975000D01*
X72727500Y-82755000D02*
X72397500Y-82995000D01*
X72397500Y-82515000D01*
X72727500Y-82755000D01*
G36*
X72727500Y-82755000D02*
G01*
X72397500Y-82995000D01*
X72397500Y-82515000D01*
X72727500Y-82755000D01*
G37*
X60272064Y-74240000D02*
X59817936Y-74240000D01*
X60272064Y-75710000D02*
X59817936Y-75710000D01*
X71200000Y-76650000D02*
G75*
G02*
X69800000Y-76650000I-700000J0D01*
G01*
X69800000Y-76650000D02*
G75*
G02*
X71200000Y-76650000I700000J0D01*
G01*
X78315000Y-94877064D02*
X78315000Y-94422936D01*
X79785000Y-94877064D02*
X79785000Y-94422936D01*
X72840000Y-93600000D02*
X72840000Y-96460000D01*
X72840000Y-96460000D02*
X74760000Y-96460000D01*
X74760000Y-96460000D02*
X74760000Y-93600000D01*
X84822936Y-74665000D02*
X85277064Y-74665000D01*
X84822936Y-76135000D02*
X85277064Y-76135000D01*
X60815000Y-64011252D02*
X60815000Y-63488748D01*
X62285000Y-64011252D02*
X62285000Y-63488748D01*
X66850000Y-62100000D02*
X62850000Y-62100000D01*
X66850000Y-65400000D02*
X66850000Y-62100000D01*
D11*
X37900000Y-49950000D02*
X37900000Y-49950000D01*
X38000000Y-49950000D02*
X38000000Y-49950000D01*
D10*
X41000000Y-49200000D02*
X47000000Y-49200000D01*
X41000000Y-55200000D02*
X41000000Y-49200000D01*
X47000000Y-49200000D02*
X47000000Y-55200000D01*
X47000000Y-55200000D02*
X41000000Y-55200000D01*
D11*
X37900000Y-49950000D02*
G75*
G02*
X38000000Y-49950000I50000J0D01*
G01*
X38000000Y-49950000D02*
G75*
G02*
X37900000Y-49950000I-50000J0D01*
G01*
D16*
X79140000Y-79640000D02*
X79140000Y-81560000D01*
X79140000Y-81560000D02*
X82000000Y-81560000D01*
X82000000Y-79640000D02*
X79140000Y-79640000D01*
X63727064Y-67740000D02*
X63272936Y-67740000D01*
X63727064Y-69210000D02*
X63272936Y-69210000D01*
X47485000Y-58757064D02*
X47485000Y-58302936D01*
X48955000Y-58757064D02*
X48955000Y-58302936D01*
X61000000Y-77700000D02*
G75*
G02*
X59600000Y-77700000I-700000J0D01*
G01*
X59600000Y-77700000D02*
G75*
G02*
X61000000Y-77700000I700000J0D01*
G01*
X61350000Y-68500000D02*
G75*
G02*
X59950000Y-68500000I-700000J0D01*
G01*
X59950000Y-68500000D02*
G75*
G02*
X61350000Y-68500000I700000J0D01*
G01*
X65027064Y-65815000D02*
X64572936Y-65815000D01*
X65027064Y-67285000D02*
X64572936Y-67285000D01*
X71200000Y-78850000D02*
G75*
G02*
X69800000Y-78850000I-700000J0D01*
G01*
X69800000Y-78850000D02*
G75*
G02*
X71200000Y-78850000I700000J0D01*
G01*
D17*
G36*
X66681538Y-43263901D02*
G01*
X66681538Y-44624615D01*
X67442143Y-44624615D01*
X68202747Y-44624615D01*
X68202747Y-44913040D01*
X68202747Y-45201465D01*
X67128132Y-45201465D01*
X66053516Y-45201465D01*
X66053516Y-43552326D01*
X66053516Y-41903187D01*
X66367527Y-41903187D01*
X66681538Y-41903187D01*
X66681538Y-43263901D01*
G37*
G36*
X40374395Y-42191611D02*
G01*
X40374395Y-42480036D01*
X39985952Y-42480036D01*
X39597509Y-42480036D01*
X39597509Y-43552326D01*
X39597509Y-44624615D01*
X39985952Y-44624615D01*
X40374395Y-44624615D01*
X40374395Y-44913040D01*
X40374395Y-45201465D01*
X39285824Y-45201465D01*
X38197253Y-45201465D01*
X38197253Y-44913040D01*
X38197253Y-44624615D01*
X38583370Y-44624615D01*
X38969487Y-44624615D01*
X38969487Y-43552326D01*
X38969487Y-42480036D01*
X38583370Y-42480036D01*
X38197253Y-42480036D01*
X38197253Y-42191611D01*
X38197253Y-41903187D01*
X39285824Y-41903187D01*
X40374395Y-41903187D01*
X40374395Y-42191611D01*
G37*
G36*
X52781318Y-42191611D02*
G01*
X52781318Y-42480036D01*
X52025366Y-42480036D01*
X51269414Y-42480036D01*
X51269414Y-42859176D01*
X51269414Y-43238315D01*
X51960238Y-43238315D01*
X52651062Y-43238315D01*
X52651062Y-43519762D01*
X52651062Y-43801208D01*
X51960238Y-43801208D01*
X51269414Y-43801208D01*
X51269414Y-44212912D01*
X51269414Y-44624615D01*
X52025366Y-44624615D01*
X52781318Y-44624615D01*
X52781318Y-44913040D01*
X52781318Y-45201465D01*
X51711355Y-45201465D01*
X50641392Y-45201465D01*
X50641392Y-43552326D01*
X50641392Y-41903187D01*
X51711355Y-41903187D01*
X52781318Y-41903187D01*
X52781318Y-42191611D01*
G37*
G36*
X60396666Y-42191611D02*
G01*
X60396666Y-42480036D01*
X60008223Y-42480036D01*
X59619780Y-42480036D01*
X59619780Y-43552326D01*
X59619780Y-44624615D01*
X60008223Y-44624615D01*
X60396666Y-44624615D01*
X60396666Y-44913040D01*
X60396666Y-45201465D01*
X59308095Y-45201465D01*
X58219524Y-45201465D01*
X58219524Y-44913040D01*
X58219524Y-44624615D01*
X58605641Y-44624615D01*
X58991758Y-44624615D01*
X58991758Y-43552326D01*
X58991758Y-42480036D01*
X58605641Y-42480036D01*
X58219524Y-42480036D01*
X58219524Y-42191611D01*
X58219524Y-41903187D01*
X59308095Y-41903187D01*
X60396666Y-41903187D01*
X60396666Y-42191611D01*
G37*
G36*
X45356703Y-43552302D02*
G01*
X45356703Y-45201465D01*
X45058983Y-45201465D01*
X44761263Y-45201465D01*
X44760091Y-43975419D01*
X44758919Y-42749374D01*
X44383562Y-43611399D01*
X44008204Y-44473425D01*
X43676760Y-44473425D01*
X43345315Y-44473425D01*
X42968198Y-43607372D01*
X42591080Y-42741320D01*
X42589909Y-43971392D01*
X42588737Y-45201465D01*
X42291017Y-45201465D01*
X41993296Y-45201465D01*
X41993296Y-43552302D01*
X41993296Y-41903141D01*
X42440444Y-41904326D01*
X42887591Y-41905513D01*
X43280173Y-42868133D01*
X43317077Y-42958602D01*
X43353067Y-43046793D01*
X43387985Y-43132316D01*
X43421671Y-43214786D01*
X43453967Y-43293815D01*
X43484715Y-43369015D01*
X43513755Y-43439999D01*
X43540930Y-43506380D01*
X43566080Y-43567771D01*
X43589046Y-43623785D01*
X43609670Y-43674033D01*
X43627794Y-43718129D01*
X43643258Y-43755686D01*
X43655904Y-43786315D01*
X43665574Y-43809631D01*
X43672108Y-43825245D01*
X43675347Y-43832771D01*
X43675678Y-43833426D01*
X43679688Y-43832771D01*
X43680402Y-43831447D01*
X43682304Y-43826761D01*
X43687562Y-43813850D01*
X43696018Y-43793101D01*
X43707513Y-43764904D01*
X43721888Y-43729646D01*
X43738985Y-43687717D01*
X43758645Y-43639505D01*
X43780711Y-43585399D01*
X43805023Y-43525787D01*
X43831423Y-43461059D01*
X43859752Y-43391602D01*
X43889852Y-43317806D01*
X43921565Y-43240058D01*
X43954731Y-43158748D01*
X43989193Y-43074265D01*
X44024792Y-42986997D01*
X44061369Y-42897332D01*
X44074088Y-42866154D01*
X44465972Y-41905513D01*
X44911337Y-41904326D01*
X45356703Y-41903141D01*
X45356703Y-43552302D01*
G37*
G36*
X47595485Y-41904493D02*
G01*
X47687633Y-41904745D01*
X47770965Y-41904997D01*
X47845972Y-41905255D01*
X47913142Y-41905525D01*
X47972964Y-41905815D01*
X48025927Y-41906130D01*
X48072520Y-41906478D01*
X48113233Y-41906865D01*
X48148553Y-41907296D01*
X48178972Y-41907780D01*
X48204976Y-41908321D01*
X48227056Y-41908927D01*
X48245701Y-41909605D01*
X48261399Y-41910360D01*
X48274640Y-41911199D01*
X48285912Y-41912129D01*
X48295705Y-41913156D01*
X48301428Y-41913868D01*
X48393194Y-41927586D01*
X48477239Y-41943641D01*
X48554938Y-41962419D01*
X48627667Y-41984306D01*
X48696802Y-42009688D01*
X48763718Y-42038953D01*
X48787008Y-42050253D01*
X48871233Y-42096993D01*
X48948660Y-42149970D01*
X49019153Y-42209027D01*
X49082576Y-42274011D01*
X49138795Y-42344765D01*
X49187675Y-42421136D01*
X49229081Y-42502967D01*
X49262877Y-42590105D01*
X49266239Y-42600363D01*
X49290889Y-42690491D01*
X49308686Y-42785398D01*
X49319592Y-42883531D01*
X49323571Y-42983337D01*
X49320586Y-43083262D01*
X49310600Y-43181753D01*
X49293576Y-43277257D01*
X49283314Y-43319980D01*
X49255089Y-43410580D01*
X49219170Y-43496059D01*
X49175719Y-43576283D01*
X49124897Y-43651116D01*
X49066867Y-43720422D01*
X49001791Y-43784066D01*
X48929829Y-43841912D01*
X48851145Y-43893826D01*
X48765900Y-43939671D01*
X48674255Y-43979312D01*
X48576374Y-44012613D01*
X48472417Y-44039439D01*
X48408425Y-44052152D01*
X48382593Y-44056696D01*
X48359134Y-44060650D01*
X48337191Y-44064058D01*
X48315908Y-44066968D01*
X48294430Y-44069425D01*
X48271899Y-44071474D01*
X48247459Y-44073162D01*
X48220255Y-44074535D01*
X48189429Y-44075638D01*
X48154126Y-44076517D01*
X48113489Y-44077219D01*
X48066663Y-44077788D01*
X48012790Y-44078272D01*
X47951015Y-44078715D01*
X47907170Y-44078997D01*
X47575714Y-44081080D01*
X47575714Y-44641272D01*
X47575714Y-45201465D01*
X47261703Y-45201465D01*
X46947692Y-45201465D01*
X46947692Y-43552128D01*
X46947692Y-43545916D01*
X47575714Y-43545916D01*
X47867628Y-43544018D01*
X47928920Y-43543590D01*
X47981664Y-43543148D01*
X48026614Y-43542669D01*
X48064527Y-43542132D01*
X48096159Y-43541515D01*
X48122263Y-43540795D01*
X48143597Y-43539951D01*
X48160916Y-43538960D01*
X48174974Y-43537802D01*
X48186528Y-43536453D01*
X48196334Y-43534891D01*
X48199084Y-43534371D01*
X48269752Y-43517982D01*
X48332726Y-43497828D01*
X48389020Y-43473422D01*
X48439646Y-43444277D01*
X48485619Y-43409909D01*
X48515527Y-43382527D01*
X48553364Y-43341359D01*
X48583887Y-43299427D01*
X48608898Y-43254113D01*
X48618001Y-43233898D01*
X48638377Y-43175595D01*
X48652672Y-43111997D01*
X48660822Y-43044907D01*
X48662765Y-42976126D01*
X48658439Y-42907452D01*
X48647781Y-42840689D01*
X48633535Y-42786274D01*
X48609450Y-42724557D01*
X48577971Y-42668417D01*
X48539274Y-42618015D01*
X48493532Y-42573514D01*
X48440920Y-42535076D01*
X48381610Y-42502864D01*
X48315778Y-42477040D01*
X48295442Y-42470755D01*
X48275991Y-42465112D01*
X48258582Y-42460246D01*
X48242373Y-42456093D01*
X48226520Y-42452591D01*
X48210181Y-42449679D01*
X48192512Y-42447293D01*
X48172671Y-42445371D01*
X48149814Y-42443852D01*
X48123098Y-42442673D01*
X48091681Y-42441772D01*
X48054718Y-42441086D01*
X48011369Y-42440553D01*
X47960788Y-42440112D01*
X47902133Y-42439699D01*
X47872280Y-42439502D01*
X47575714Y-42437553D01*
X47575714Y-42991734D01*
X47575714Y-43545916D01*
X46947692Y-43545916D01*
X46947692Y-42991734D01*
X46947692Y-41902793D01*
X47595485Y-41904493D01*
G37*
G36*
X55001492Y-41903205D02*
G01*
X55102512Y-41903221D01*
X55194744Y-41903277D01*
X55278706Y-41903391D01*
X55354914Y-41903583D01*
X55423886Y-41903875D01*
X55486137Y-41904284D01*
X55542185Y-41904831D01*
X55592547Y-41905535D01*
X55637739Y-41906417D01*
X55678278Y-41907495D01*
X55714681Y-41908790D01*
X55747465Y-41910322D01*
X55777146Y-41912110D01*
X55804242Y-41914173D01*
X55829269Y-41916532D01*
X55852744Y-41919207D01*
X55875183Y-41922216D01*
X55897104Y-41925580D01*
X55919023Y-41929319D01*
X55941458Y-41933452D01*
X55964924Y-41937998D01*
X55977253Y-41940442D01*
X56080032Y-41964479D01*
X56175492Y-41994208D01*
X56263723Y-42029690D01*
X56344812Y-42070986D01*
X56418849Y-42118160D01*
X56485922Y-42171272D01*
X56546120Y-42230384D01*
X56599532Y-42295558D01*
X56646246Y-42366856D01*
X56679105Y-42428864D01*
X56707407Y-42493852D01*
X56730462Y-42560464D01*
X56748792Y-42630607D01*
X56762917Y-42706190D01*
X56770635Y-42763809D01*
X56773972Y-42801971D01*
X56776090Y-42846200D01*
X56777026Y-42894399D01*
X56776821Y-42944471D01*
X56775512Y-42994319D01*
X56773140Y-43041846D01*
X56769742Y-43084956D01*
X56765359Y-43121550D01*
X56763818Y-43131176D01*
X56743172Y-43227402D01*
X56715404Y-43317658D01*
X56680431Y-43402057D01*
X56638173Y-43480713D01*
X56588545Y-43553738D01*
X56531466Y-43621246D01*
X56466854Y-43683351D01*
X56394626Y-43740164D01*
X56314701Y-43791800D01*
X56263308Y-43820192D01*
X56242810Y-43830882D01*
X56225532Y-43839913D01*
X56213017Y-43846478D01*
X56206808Y-43849769D01*
X56206416Y-43849989D01*
X56208433Y-43854085D01*
X56214486Y-43865896D01*
X56224300Y-43884892D01*
X56237598Y-43910543D01*
X56254104Y-43942322D01*
X56273541Y-43979698D01*
X56295633Y-44022141D01*
X56320105Y-44069124D01*
X56346678Y-44120116D01*
X56375078Y-44174587D01*
X56405027Y-44232010D01*
X56436250Y-44291854D01*
X56468470Y-44353590D01*
X56501410Y-44416689D01*
X56534795Y-44480622D01*
X56568347Y-44544859D01*
X56601791Y-44608871D01*
X56634850Y-44672128D01*
X56667248Y-44734102D01*
X56698709Y-44794263D01*
X56728955Y-44852081D01*
X56757711Y-44907028D01*
X56784701Y-44958574D01*
X56809647Y-45006190D01*
X56832274Y-45049346D01*
X56852306Y-45087514D01*
X56869465Y-45120163D01*
X56883476Y-45146765D01*
X56884724Y-45149130D01*
X56912341Y-45201465D01*
X56564557Y-45201465D01*
X56216772Y-45201465D01*
X55898630Y-44592051D01*
X55580487Y-43982637D01*
X55274126Y-43982637D01*
X54967765Y-43982637D01*
X54967765Y-44592051D01*
X54967765Y-45201465D01*
X54653754Y-45201465D01*
X54339743Y-45201465D01*
X54339743Y-43552326D01*
X54339743Y-43447655D01*
X54967765Y-43447655D01*
X55264331Y-43447616D01*
X55317802Y-43447535D01*
X55369889Y-43447315D01*
X55419612Y-43446970D01*
X55465993Y-43446513D01*
X55508052Y-43445956D01*
X55544811Y-43445314D01*
X55575289Y-43444598D01*
X55598510Y-43443822D01*
X55613492Y-43443000D01*
X55614395Y-43442925D01*
X55695479Y-43433103D01*
X55768794Y-43418312D01*
X55834542Y-43398386D01*
X55892921Y-43373161D01*
X55944134Y-43342472D01*
X55988378Y-43306152D01*
X56025854Y-43264038D01*
X56056763Y-43215964D01*
X56081305Y-43161764D01*
X56099678Y-43101274D01*
X56112084Y-43034328D01*
X56112439Y-43031668D01*
X56114588Y-43007786D01*
X56115851Y-42976606D01*
X56116179Y-42940096D01*
X56115620Y-42903737D01*
X56114557Y-42870288D01*
X56113209Y-42844024D01*
X56111349Y-42822826D01*
X56108750Y-42804574D01*
X56105188Y-42787150D01*
X56101670Y-42773060D01*
X56085147Y-42720615D01*
X56064624Y-42675010D01*
X56038937Y-42634225D01*
X56006921Y-42596238D01*
X55990017Y-42579403D01*
X55950412Y-42546313D01*
X55906243Y-42518299D01*
X55856235Y-42494700D01*
X55799112Y-42474852D01*
X55776150Y-42468388D01*
X55757740Y-42463530D01*
X55740968Y-42459297D01*
X55725064Y-42455642D01*
X55709259Y-42452517D01*
X55692783Y-42449875D01*
X55674867Y-42447669D01*
X55654742Y-42445852D01*
X55631638Y-42444377D01*
X55604786Y-42443197D01*
X55573417Y-42442263D01*
X55536760Y-42441530D01*
X55494047Y-42440950D01*
X55444509Y-42440475D01*
X55387375Y-42440059D01*
X55321877Y-42439654D01*
X55306199Y-42439562D01*
X54967765Y-42437569D01*
X54967765Y-42942612D01*
X54967765Y-43447655D01*
X54339743Y-43447655D01*
X54339743Y-42942612D01*
X54339743Y-41903187D01*
X55001492Y-41903205D01*
G37*
G36*
X63610603Y-42071822D02*
G01*
X63616766Y-42090417D01*
X63625705Y-42117439D01*
X63637284Y-42152478D01*
X63651368Y-42195123D01*
X63667823Y-42244967D01*
X63686513Y-42301597D01*
X63707303Y-42364604D01*
X63730057Y-42433579D01*
X63754641Y-42508112D01*
X63780919Y-42587791D01*
X63808757Y-42672209D01*
X63838018Y-42760954D01*
X63868568Y-42853616D01*
X63900271Y-42949786D01*
X63932993Y-43049054D01*
X63966597Y-43151010D01*
X64000950Y-43255244D01*
X64035916Y-43361345D01*
X64071359Y-43468905D01*
X64090415Y-43526740D01*
X64126168Y-43635245D01*
X64161572Y-43742680D01*
X64196486Y-43848624D01*
X64230774Y-43952656D01*
X64264297Y-44054357D01*
X64296915Y-44153307D01*
X64328491Y-44249086D01*
X64358886Y-44341274D01*
X64387962Y-44429450D01*
X64415579Y-44513195D01*
X64441600Y-44592088D01*
X64465886Y-44665711D01*
X64488298Y-44733641D01*
X64508698Y-44795461D01*
X64526947Y-44850749D01*
X64542907Y-44899085D01*
X64556440Y-44940050D01*
X64567406Y-44973224D01*
X64575667Y-44998186D01*
X64578680Y-45007274D01*
X64643127Y-45201527D01*
X64312218Y-45200333D01*
X63981310Y-45199139D01*
X63871676Y-44845586D01*
X63854480Y-44790157D01*
X63838034Y-44737195D01*
X63822553Y-44687388D01*
X63808250Y-44641423D01*
X63795341Y-44599988D01*
X63784040Y-44563771D01*
X63774561Y-44533459D01*
X63767119Y-44509740D01*
X63761928Y-44493301D01*
X63759203Y-44484831D01*
X63758877Y-44483892D01*
X63758060Y-44482723D01*
X63756252Y-44481671D01*
X63752986Y-44480730D01*
X63747794Y-44479895D01*
X63740209Y-44479158D01*
X63729763Y-44478513D01*
X63715987Y-44477955D01*
X63698416Y-44477477D01*
X63676580Y-44477073D01*
X63650013Y-44476737D01*
X63618246Y-44476463D01*
X63580813Y-44476244D01*
X63537244Y-44476075D01*
X63487074Y-44475949D01*
X63429833Y-44475860D01*
X63365055Y-44475802D01*
X63292272Y-44475768D01*
X63211016Y-44475753D01*
X63141701Y-44475751D01*
X62527689Y-44475751D01*
X62509159Y-44535064D01*
X62500218Y-44563736D01*
X62489646Y-44597717D01*
X62477696Y-44636192D01*
X62464621Y-44678347D01*
X62450670Y-44723366D01*
X62436097Y-44770434D01*
X62421152Y-44818737D01*
X62406088Y-44867459D01*
X62391156Y-44915786D01*
X62376607Y-44962903D01*
X62362694Y-45007995D01*
X62349668Y-45050247D01*
X62337781Y-45088844D01*
X62327284Y-45122972D01*
X62318429Y-45151815D01*
X62311468Y-45174558D01*
X62306652Y-45190387D01*
X62304233Y-45198487D01*
X62303992Y-45199388D01*
X62299464Y-45199730D01*
X62286369Y-45200055D01*
X62265448Y-45200358D01*
X62237439Y-45200634D01*
X62203079Y-45200878D01*
X62163109Y-45201086D01*
X62118267Y-45201253D01*
X62069290Y-45201375D01*
X62016918Y-45201447D01*
X61973202Y-45201465D01*
X61907481Y-45201435D01*
X61850529Y-45201338D01*
X61801812Y-45201165D01*
X61760795Y-45200906D01*
X61726945Y-45200552D01*
X61699725Y-45200094D01*
X61678603Y-45199522D01*
X61663043Y-45198826D01*
X61652510Y-45197998D01*
X61646472Y-45197027D01*
X61644392Y-45195904D01*
X61644407Y-45195650D01*
X61645993Y-45190855D01*
X61650390Y-45177531D01*
X61657496Y-45155987D01*
X61667210Y-45126531D01*
X61679429Y-45089472D01*
X61694052Y-45045116D01*
X61710979Y-44993773D01*
X61730106Y-44935751D01*
X61751333Y-44871358D01*
X61774558Y-44800901D01*
X61799680Y-44724690D01*
X61826596Y-44643031D01*
X61855206Y-44556235D01*
X61885407Y-44464607D01*
X61917099Y-44368458D01*
X61950179Y-44268095D01*
X61984546Y-44163825D01*
X62020098Y-44055958D01*
X62056734Y-43944801D01*
X62058904Y-43938216D01*
X62694762Y-43938216D01*
X62699308Y-43938579D01*
X62712524Y-43938926D01*
X62733775Y-43939255D01*
X62762426Y-43939561D01*
X62797844Y-43939840D01*
X62839394Y-43940090D01*
X62886441Y-43940306D01*
X62938351Y-43940485D01*
X62994489Y-43940624D01*
X63054221Y-43940718D01*
X63116913Y-43940765D01*
X63143061Y-43940769D01*
X63591360Y-43940769D01*
X63534051Y-43755851D01*
X63525023Y-43726712D01*
X63513497Y-43689503D01*
X63499728Y-43645042D01*
X63483968Y-43594149D01*
X63466472Y-43537642D01*
X63447492Y-43476338D01*
X63427282Y-43411057D01*
X63406095Y-43342617D01*
X63384185Y-43271837D01*
X63361806Y-43199535D01*
X63339209Y-43126529D01*
X63316650Y-43053638D01*
X63310212Y-43032835D01*
X63289047Y-42964569D01*
X63268613Y-42898899D01*
X63249079Y-42836358D01*
X63230615Y-42777480D01*
X63213392Y-42722799D01*
X63197579Y-42672849D01*
X63183347Y-42628163D01*
X63170864Y-42589277D01*
X63160301Y-42556723D01*
X63151829Y-42531035D01*
X63145616Y-42512747D01*
X63141833Y-42502393D01*
X63140671Y-42500179D01*
X63139024Y-42505072D01*
X63134812Y-42518269D01*
X63128210Y-42539197D01*
X63119398Y-42567283D01*
X63108552Y-42601954D01*
X63095851Y-42642637D01*
X63081471Y-42688760D01*
X63065591Y-42739749D01*
X63048388Y-42795032D01*
X63030040Y-42854037D01*
X63010725Y-42916189D01*
X62990619Y-42980917D01*
X62969902Y-43047648D01*
X62948749Y-43115808D01*
X62927339Y-43184825D01*
X62905850Y-43254126D01*
X62884459Y-43323139D01*
X62863344Y-43391290D01*
X62842683Y-43458006D01*
X62822652Y-43522716D01*
X62803430Y-43584845D01*
X62785194Y-43643821D01*
X62768122Y-43699072D01*
X62752392Y-43750024D01*
X62738180Y-43796105D01*
X62725666Y-43836742D01*
X62715026Y-43871361D01*
X62706438Y-43899391D01*
X62700079Y-43920259D01*
X62696128Y-43933390D01*
X62694762Y-43938214D01*
X62694762Y-43938216D01*
X62058904Y-43938216D01*
X62058905Y-43938214D01*
X62094353Y-43830663D01*
X62132852Y-43713852D01*
X62172130Y-43594675D01*
X62188004Y-43546511D01*
X62729604Y-41903187D01*
X63142107Y-41903187D01*
X63554610Y-41903187D01*
X63610603Y-42071822D01*
G37*
D16*
X62890000Y-73640000D02*
X63365000Y-73640000D01*
X62890000Y-74115000D02*
X62890000Y-73640000D01*
X62890000Y-77385000D02*
X62890000Y-77560000D01*
X63365000Y-77860000D02*
X63130000Y-77860000D01*
X67110000Y-73640000D02*
X66635000Y-73640000D01*
X67110000Y-74115000D02*
X67110000Y-73640000D01*
X67110000Y-77385000D02*
X67110000Y-77860000D01*
X67110000Y-77860000D02*
X66635000Y-77860000D01*
X62890000Y-77860000D02*
X62560000Y-78100000D01*
X62560000Y-77620000D01*
X62890000Y-77860000D01*
G36*
X62890000Y-77860000D02*
G01*
X62560000Y-78100000D01*
X62560000Y-77620000D01*
X62890000Y-77860000D01*
G37*
X84922936Y-77315000D02*
X85377064Y-77315000D01*
X84922936Y-78785000D02*
X85377064Y-78785000D01*
X91265000Y-92788748D02*
X91265000Y-93311252D01*
X92735000Y-92788748D02*
X92735000Y-93311252D01*
X88561252Y-89615000D02*
X88038748Y-89615000D01*
X88561252Y-91085000D02*
X88038748Y-91085000D01*
X58865000Y-52427064D02*
X58865000Y-51972936D01*
X60335000Y-52427064D02*
X60335000Y-51972936D01*
X65350000Y-69677500D02*
X63950000Y-69677500D01*
X65360000Y-71997500D02*
X63950000Y-71997500D01*
X65970000Y-72277500D02*
X65490000Y-72277500D01*
X65730000Y-71947500D01*
X65970000Y-72277500D01*
G36*
X65970000Y-72277500D02*
G01*
X65490000Y-72277500D01*
X65730000Y-71947500D01*
X65970000Y-72277500D01*
G37*
X41657498Y-79915000D02*
X42180002Y-79915000D01*
X41657498Y-81385000D02*
X42180002Y-81385000D01*
X49975000Y-58757064D02*
X49975000Y-58302936D01*
X51445000Y-58757064D02*
X51445000Y-58302936D01*
X91265000Y-89477064D02*
X91265000Y-89022936D01*
X92735000Y-89477064D02*
X92735000Y-89022936D01*
X42162502Y-82775000D02*
X41639998Y-82775000D01*
X42162502Y-84245000D02*
X41639998Y-84245000D01*
X48070000Y-88130000D02*
X48070000Y-86800000D01*
X49400000Y-88130000D02*
X48070000Y-88130000D01*
X50670000Y-85470000D02*
X55810000Y-85470000D01*
X50670000Y-88130000D02*
X50670000Y-85470000D01*
X50670000Y-88130000D02*
X55810000Y-88130000D01*
X55810000Y-88130000D02*
X55810000Y-85470000D01*
X73215000Y-85602064D02*
X73215000Y-85147936D01*
X74685000Y-85602064D02*
X74685000Y-85147936D01*
X84922936Y-79865000D02*
X85377064Y-79865000D01*
X84922936Y-81335000D02*
X85377064Y-81335000D01*
X48070000Y-84330000D02*
X48070000Y-83000000D01*
X49400000Y-84330000D02*
X48070000Y-84330000D01*
X50670000Y-81670000D02*
X55810000Y-81670000D01*
X50670000Y-84330000D02*
X50670000Y-81670000D01*
X50670000Y-84330000D02*
X55810000Y-84330000D01*
X55810000Y-84330000D02*
X55810000Y-81670000D01*
D11*
X67510000Y-50160000D02*
X90690000Y-50160000D01*
X67510000Y-73340000D02*
X67510000Y-50160000D01*
X90690000Y-50160000D02*
X90690000Y-73340000D01*
X90690000Y-73340000D02*
X67510000Y-73340000D01*
D16*
X41639998Y-88375000D02*
X42162502Y-88375000D01*
X41639998Y-89845000D02*
X42162502Y-89845000D01*
X81277064Y-74715000D02*
X80822936Y-74715000D01*
X81277064Y-76185000D02*
X80822936Y-76185000D01*
X65111252Y-60065000D02*
X64588748Y-60065000D01*
X65111252Y-61535000D02*
X64588748Y-61535000D01*
X42375000Y-58757064D02*
X42375000Y-58302936D01*
X43845000Y-58757064D02*
X43845000Y-58302936D01*
X79090000Y-77040000D02*
X79090000Y-78960000D01*
X79090000Y-78960000D02*
X81950000Y-78960000D01*
X81950000Y-77040000D02*
X79090000Y-77040000D01*
X58338748Y-48565000D02*
X58861252Y-48565000D01*
X58338748Y-50035000D02*
X58861252Y-50035000D01*
X76165000Y-94372936D02*
X76165000Y-94827064D01*
X77635000Y-94372936D02*
X77635000Y-94827064D01*
X56965000Y-52427064D02*
X56965000Y-51972936D01*
X58435000Y-52427064D02*
X58435000Y-51972936D01*
X87972936Y-84315000D02*
X88427064Y-84315000D01*
X87972936Y-85785000D02*
X88427064Y-85785000D01*
X95190000Y-97850000D02*
X95190000Y-46930000D01*
X97790000Y-95250000D02*
X97790000Y-97850000D01*
X97790000Y-97850000D02*
X95190000Y-97850000D01*
X100390000Y-46930000D02*
X95190000Y-46930000D01*
X100390000Y-95250000D02*
X97790000Y-95250000D01*
X100390000Y-95250000D02*
X100390000Y-46930000D01*
X100390000Y-96520000D02*
X100390000Y-97850000D01*
X100390000Y-97850000D02*
X99060000Y-97850000D01*
X91265000Y-85661252D02*
X91265000Y-85138748D01*
X92735000Y-85661252D02*
X92735000Y-85138748D01*
X55372936Y-57165000D02*
X55827064Y-57165000D01*
X55372936Y-58635000D02*
X55827064Y-58635000D01*
X42180002Y-74315000D02*
X41657498Y-74315000D01*
X42180002Y-75785000D02*
X41657498Y-75785000D01*
D10*
X55920000Y-90980000D02*
X55920000Y-92880000D01*
X55920000Y-95280000D02*
X55920000Y-97180000D01*
X55920000Y-97180000D02*
X67020000Y-97180000D01*
D11*
X58970000Y-97680000D02*
X58970000Y-97680000D01*
X58970000Y-97780000D02*
X58970000Y-97780000D01*
D10*
X67020000Y-90980000D02*
X55920000Y-90980000D01*
X67020000Y-92880000D02*
X67020000Y-90980000D01*
X67020000Y-97180000D02*
X67020000Y-95280000D01*
D11*
X58970000Y-97680000D02*
G75*
G02*
X58970000Y-97780000I0J-50000D01*
G01*
X58970000Y-97780000D02*
G75*
G02*
X58970000Y-97680000I0J50000D01*
G01*
D16*
X67548752Y-78615000D02*
X67026248Y-78615000D01*
X67548752Y-80085000D02*
X67026248Y-80085000D01*
X60292064Y-72065000D02*
X59837936Y-72065000D01*
X60292064Y-73535000D02*
X59837936Y-73535000D01*
X51500000Y-53400000D02*
X51500000Y-50600000D01*
X52200000Y-49950000D02*
X52800000Y-49950000D01*
X52800000Y-54050000D02*
X52200000Y-54050000D01*
X53500000Y-50600000D02*
X53500000Y-53400000D01*
X51500000Y-50650000D02*
G75*
G02*
X52200000Y-49950000I700000J0D01*
G01*
X52200000Y-54050000D02*
G75*
G02*
X51500000Y-53350000I-1J699999D01*
G01*
X52800000Y-49950000D02*
G75*
G02*
X53500000Y-50650000I0J-700000D01*
G01*
X53500000Y-53350000D02*
G75*
G02*
X52800000Y-54050000I-699999J-1D01*
G01*
X81290000Y-82990000D02*
X81765000Y-82990000D01*
X81290000Y-83465000D02*
X81290000Y-82990000D01*
X81290000Y-86735000D02*
X81290000Y-86910000D01*
X81765000Y-87210000D02*
X81530000Y-87210000D01*
X85510000Y-82990000D02*
X85035000Y-82990000D01*
X85510000Y-83465000D02*
X85510000Y-82990000D01*
X85510000Y-86735000D02*
X85510000Y-87210000D01*
X85510000Y-87210000D02*
X85035000Y-87210000D01*
X81290000Y-87210000D02*
X80960000Y-87450000D01*
X80960000Y-86970000D01*
X81290000Y-87210000D01*
G36*
X81290000Y-87210000D02*
G01*
X80960000Y-87450000D01*
X80960000Y-86970000D01*
X81290000Y-87210000D01*
G37*
X63238748Y-78615000D02*
X63761252Y-78615000D01*
X63238748Y-80085000D02*
X63761252Y-80085000D01*
D10*
X45700000Y-91300000D02*
X52700000Y-91300000D01*
X45700000Y-98300000D02*
X45700000Y-91300000D01*
X52700000Y-91300000D02*
X52700000Y-98300000D01*
X52700000Y-98300000D02*
X45700000Y-98300000D01*
D16*
X44885000Y-58757064D02*
X44885000Y-58302936D01*
X46355000Y-58757064D02*
X46355000Y-58302936D01*
X88561252Y-87615000D02*
X88038748Y-87615000D01*
X88561252Y-89085000D02*
X88038748Y-89085000D01*
X42086250Y-84810000D02*
X41286250Y-84810000D01*
X42086250Y-84810000D02*
X42886250Y-84810000D01*
X42086250Y-87930000D02*
X41286250Y-87930000D01*
X42086250Y-87930000D02*
X42886250Y-87930000D01*
X40786250Y-84860000D02*
X40546250Y-84530000D01*
X41026250Y-84530000D01*
X40786250Y-84860000D01*
G36*
X40786250Y-84860000D02*
G01*
X40546250Y-84530000D01*
X41026250Y-84530000D01*
X40786250Y-84860000D01*
G37*
X79150000Y-86800000D02*
G75*
G02*
X77750000Y-86800000I-700000J0D01*
G01*
X77750000Y-86800000D02*
G75*
G02*
X79150000Y-86800000I700000J0D01*
G01*
X82677500Y-90072500D02*
X82677500Y-89272500D01*
X82677500Y-90072500D02*
X82677500Y-90872500D01*
X85797500Y-90072500D02*
X85797500Y-89272500D01*
X85797500Y-90072500D02*
X85797500Y-90872500D01*
X82727500Y-91372500D02*
X82397500Y-91612500D01*
X82397500Y-91132500D01*
X82727500Y-91372500D01*
G36*
X82727500Y-91372500D02*
G01*
X82397500Y-91612500D01*
X82397500Y-91132500D01*
X82727500Y-91372500D01*
G37*
X80830000Y-97040000D02*
X80830000Y-95340000D01*
X90170000Y-97040000D02*
X90170000Y-95340000D01*
X58372936Y-46565000D02*
X58827064Y-46565000D01*
X58372936Y-48035000D02*
X58827064Y-48035000D01*
X51827064Y-78715000D02*
X51372936Y-78715000D01*
X51827064Y-80185000D02*
X51372936Y-80185000D01*
X59975000Y-70600000D02*
G75*
G02*
X58575000Y-70600000I-700000J0D01*
G01*
X58575000Y-70600000D02*
G75*
G02*
X59975000Y-70600000I700000J0D01*
G01*
X79050000Y-83750000D02*
G75*
G02*
X77650000Y-83750000I-700000J0D01*
G01*
X77650000Y-83750000D02*
G75*
G02*
X79050000Y-83750000I700000J0D01*
G01*
X31690000Y-46930000D02*
X33020000Y-46930000D01*
X31690000Y-48260000D02*
X31690000Y-46930000D01*
X31690000Y-49530000D02*
X31690000Y-97850000D01*
X31690000Y-49530000D02*
X34290000Y-49530000D01*
X31690000Y-97850000D02*
X36890000Y-97850000D01*
X34290000Y-46930000D02*
X36890000Y-46930000D01*
X34290000Y-49530000D02*
X34290000Y-46930000D01*
X36890000Y-46930000D02*
X36890000Y-97850000D01*
X54400000Y-53400000D02*
X54400000Y-50600000D01*
X55100000Y-49950000D02*
X55700000Y-49950000D01*
X55700000Y-54050000D02*
X55100000Y-54050000D01*
X56400000Y-50600000D02*
X56400000Y-53400000D01*
X54400000Y-50650000D02*
G75*
G02*
X55100000Y-49950000I700000J0D01*
G01*
X55100000Y-54050000D02*
G75*
G02*
X54400000Y-53350000I-1J699999D01*
G01*
X55700000Y-49950000D02*
G75*
G02*
X56400000Y-50650000I0J-700000D01*
G01*
X56400000Y-53350000D02*
G75*
G02*
X55700000Y-54050000I-699999J-1D01*
G01*
D10*
X40840000Y-62980000D02*
X41910000Y-62980000D01*
X40840000Y-70480000D02*
X40840000Y-62980000D01*
X41910000Y-70480000D02*
X40840000Y-70480000D01*
D11*
X43100000Y-72330000D02*
X43100000Y-72330000D01*
X43100000Y-72430000D02*
X43100000Y-72430000D01*
D10*
X51910000Y-70480000D02*
X52980000Y-70480000D01*
X52980000Y-62980000D02*
X51910000Y-62980000D01*
X52980000Y-70480000D02*
X52980000Y-62980000D01*
D11*
X43100000Y-72330000D02*
G75*
G02*
X43100000Y-72430000I0J-50000D01*
G01*
X43100000Y-72430000D02*
G75*
G02*
X43100000Y-72330000I0J50000D01*
G01*
D16*
X42081250Y-76340000D02*
X41281250Y-76340000D01*
X42081250Y-76340000D02*
X42881250Y-76340000D01*
X42081250Y-79460000D02*
X41281250Y-79460000D01*
X42081250Y-79460000D02*
X42881250Y-79460000D01*
X40781250Y-76390000D02*
X40541250Y-76060000D01*
X41021250Y-76060000D01*
X40781250Y-76390000D01*
G36*
X40781250Y-76390000D02*
G01*
X40541250Y-76060000D01*
X41021250Y-76060000D01*
X40781250Y-76390000D01*
G37*
D18*
X77830000Y-68100000D03*
X77830000Y-70640000D03*
X80370000Y-68100000D03*
X80370000Y-70640000D03*
X82910000Y-68100000D03*
X82910000Y-70640000D03*
X85450000Y-68100000D03*
X85450000Y-70640000D03*
X87990000Y-68100000D03*
X85450000Y-65560000D03*
X87990000Y-65560000D03*
X85450000Y-63020000D03*
X87990000Y-63020000D03*
X85450000Y-60480000D03*
X87990000Y-60480000D03*
X85450000Y-57940000D03*
X87990000Y-57940000D03*
X85450000Y-55400000D03*
X87990000Y-55400000D03*
X85450000Y-52860000D03*
X82910000Y-55400000D03*
X82910000Y-52860000D03*
X80370000Y-55400000D03*
X80370000Y-52860000D03*
X77830000Y-55400000D03*
X77830000Y-52860000D03*
X75290000Y-55400000D03*
X75290000Y-52860000D03*
X72750000Y-55400000D03*
X72750000Y-52860000D03*
X70210000Y-55400000D03*
X72750000Y-57940000D03*
X70210000Y-57940000D03*
X72750000Y-60480000D03*
X70210000Y-60480000D03*
X72750000Y-63020000D03*
X70210000Y-63020000D03*
X72750000Y-65560000D03*
X70210000Y-65560000D03*
X72750000Y-68100000D03*
X70210000Y-68100000D03*
X72750000Y-70640000D03*
X75290000Y-68100000D03*
X75290000Y-70640000D03*
%LPC*%
D19*
X92050000Y-95900000D03*
X92050000Y-97900000D03*
D20*
X89200000Y-82700000D03*
X87200000Y-82700000D03*
D21*
X73187500Y-82625000D03*
X73837500Y-82625000D03*
X74487500Y-82625000D03*
X74487500Y-80725000D03*
X73187500Y-80725000D03*
D20*
X61045000Y-74975000D03*
X59045000Y-74975000D03*
D22*
X70500000Y-76650000D03*
D23*
X79050000Y-95650000D03*
X79050000Y-93650000D03*
D24*
X73800000Y-95625000D03*
X73800000Y-93575000D03*
D25*
X84050000Y-75400000D03*
X86050000Y-75400000D03*
D26*
X61550000Y-64787500D03*
X61550000Y-62712500D03*
D27*
X90750000Y-76850000D03*
D28*
X65950000Y-62900000D03*
X63750000Y-62900000D03*
X63750000Y-64600000D03*
X65950000Y-64600000D03*
D29*
X39450000Y-49950000D03*
X39450000Y-54450000D03*
X48550000Y-49950000D03*
X48550000Y-54450000D03*
D30*
X79975000Y-80600000D03*
X82025000Y-80600000D03*
D20*
X64500000Y-68475000D03*
X62500000Y-68475000D03*
D23*
X48220000Y-59530000D03*
X48220000Y-57530000D03*
D22*
X60300000Y-77700000D03*
X60650000Y-68500000D03*
D20*
X65800000Y-66550000D03*
X63800000Y-66550000D03*
D22*
X70500000Y-78850000D03*
D31*
X63750000Y-77687500D03*
X64250000Y-77687500D03*
X64750000Y-77687500D03*
X65250000Y-77687500D03*
X65750000Y-77687500D03*
X66250000Y-77687500D03*
D32*
X66937500Y-77000000D03*
X66937500Y-76500000D03*
X66937500Y-76000000D03*
X66937500Y-75500000D03*
X66937500Y-75000000D03*
X66937500Y-74500000D03*
D31*
X66250000Y-73812500D03*
X65750000Y-73812500D03*
X65250000Y-73812500D03*
X64750000Y-73812500D03*
X64250000Y-73812500D03*
X63750000Y-73812500D03*
D32*
X63062500Y-74500000D03*
X63062500Y-75000000D03*
X63062500Y-75500000D03*
X63062500Y-76000000D03*
X63062500Y-76500000D03*
X63062500Y-77000000D03*
D33*
X65000000Y-75750000D03*
D25*
X84150000Y-78050000D03*
X86150000Y-78050000D03*
D34*
X92000000Y-92012500D03*
X92000000Y-94087500D03*
D35*
X89337500Y-90350000D03*
X87262500Y-90350000D03*
D23*
X59600000Y-53200000D03*
X59600000Y-51200000D03*
D36*
X65600000Y-71487500D03*
X65600000Y-70837500D03*
X65600000Y-70187500D03*
X63700000Y-70187500D03*
X63700000Y-71487500D03*
D37*
X40881250Y-80650000D03*
X42956250Y-80650000D03*
D23*
X50710000Y-59530000D03*
X50710000Y-57530000D03*
X92000000Y-90250000D03*
X92000000Y-88250000D03*
D35*
X42938750Y-83510000D03*
X40863750Y-83510000D03*
D38*
X49400000Y-86800000D03*
D39*
X51940000Y-86800000D03*
X54480000Y-86800000D03*
D23*
X73950000Y-86375000D03*
X73950000Y-84375000D03*
D25*
X84150000Y-80600000D03*
X86150000Y-80600000D03*
D38*
X49400000Y-83000000D03*
D39*
X51940000Y-83000000D03*
X54480000Y-83000000D03*
D18*
X77830000Y-68100000D03*
X77830000Y-70640000D03*
X80370000Y-68100000D03*
X80370000Y-70640000D03*
X82910000Y-68100000D03*
X82910000Y-70640000D03*
X85450000Y-68100000D03*
X85450000Y-70640000D03*
X87990000Y-68100000D03*
X85450000Y-65560000D03*
X87990000Y-65560000D03*
X85450000Y-63020000D03*
X87990000Y-63020000D03*
X85450000Y-60480000D03*
X87990000Y-60480000D03*
X85450000Y-57940000D03*
X87990000Y-57940000D03*
X85450000Y-55400000D03*
X87990000Y-55400000D03*
X85450000Y-52860000D03*
X82910000Y-55400000D03*
X82910000Y-52860000D03*
X80370000Y-55400000D03*
X80370000Y-52860000D03*
X77830000Y-55400000D03*
X77830000Y-52860000D03*
X75290000Y-55400000D03*
X75290000Y-52860000D03*
X72750000Y-55400000D03*
X72750000Y-52860000D03*
X70210000Y-55400000D03*
X72750000Y-57940000D03*
X70210000Y-57940000D03*
X72750000Y-60480000D03*
X70210000Y-60480000D03*
X72750000Y-63020000D03*
X70210000Y-63020000D03*
X72750000Y-65560000D03*
X70210000Y-65560000D03*
X72750000Y-68100000D03*
X70210000Y-68100000D03*
X72750000Y-70640000D03*
X75290000Y-68100000D03*
X75290000Y-70640000D03*
D37*
X40863750Y-89110000D03*
X42938750Y-89110000D03*
D20*
X82050000Y-75450000D03*
X80050000Y-75450000D03*
D35*
X65887500Y-60800000D03*
X63812500Y-60800000D03*
D23*
X43110000Y-59530000D03*
X43110000Y-57530000D03*
D30*
X79925000Y-78000000D03*
X81975000Y-78000000D03*
D37*
X57562500Y-49300000D03*
X59637500Y-49300000D03*
D19*
X76900000Y-93600000D03*
X76900000Y-95600000D03*
D23*
X57700000Y-53200000D03*
X57700000Y-51200000D03*
D25*
X87200000Y-85050000D03*
X89200000Y-85050000D03*
D38*
X99060000Y-96520000D03*
D39*
X96520000Y-96520000D03*
X99060000Y-93980000D03*
X96520000Y-93980000D03*
X99060000Y-91440000D03*
X96520000Y-91440000D03*
X99060000Y-88900000D03*
X96520000Y-88900000D03*
X99060000Y-86360000D03*
X96520000Y-86360000D03*
X99060000Y-83820000D03*
X96520000Y-83820000D03*
X99060000Y-81280000D03*
X96520000Y-81280000D03*
X99060000Y-78740000D03*
X96520000Y-78740000D03*
X99060000Y-76200000D03*
X96520000Y-76200000D03*
X99060000Y-73660000D03*
X96520000Y-73660000D03*
X99060000Y-71120000D03*
X96520000Y-71120000D03*
X99060000Y-68580000D03*
X96520000Y-68580000D03*
X99060000Y-66040000D03*
X96520000Y-66040000D03*
X99060000Y-63500000D03*
X96520000Y-63500000D03*
X99060000Y-60960000D03*
X96520000Y-60960000D03*
X99060000Y-58420000D03*
X96520000Y-58420000D03*
X99060000Y-55880000D03*
X96520000Y-55880000D03*
X99060000Y-53340000D03*
X96520000Y-53340000D03*
X99060000Y-50800000D03*
X96520000Y-50800000D03*
X99060000Y-48260000D03*
X96520000Y-48260000D03*
D26*
X92000000Y-86437500D03*
X92000000Y-84362500D03*
D25*
X54600000Y-57900000D03*
X56600000Y-57900000D03*
D35*
X42956250Y-75050000D03*
X40881250Y-75050000D03*
D40*
X58970000Y-95280000D03*
D41*
X61470000Y-95280000D03*
X63970000Y-95280000D03*
X58970000Y-92880000D03*
X61470000Y-92880000D03*
X63970000Y-92880000D03*
D42*
X56170000Y-94080000D03*
X66770000Y-94080000D03*
D35*
X68325000Y-79350000D03*
X66250000Y-79350000D03*
D20*
X61065000Y-72800000D03*
X59065000Y-72800000D03*
D43*
X52500000Y-53300000D03*
D44*
X52500000Y-52000000D03*
D45*
X52500000Y-50700000D03*
D31*
X82150000Y-87037500D03*
X82650000Y-87037500D03*
X83150000Y-87037500D03*
X83650000Y-87037500D03*
X84150000Y-87037500D03*
X84650000Y-87037500D03*
D32*
X85337500Y-86350000D03*
X85337500Y-85850000D03*
X85337500Y-85350000D03*
X85337500Y-84850000D03*
X85337500Y-84350000D03*
X85337500Y-83850000D03*
D31*
X84650000Y-83162500D03*
X84150000Y-83162500D03*
X83650000Y-83162500D03*
X83150000Y-83162500D03*
X82650000Y-83162500D03*
X82150000Y-83162500D03*
D32*
X81462500Y-83850000D03*
X81462500Y-84350000D03*
X81462500Y-84850000D03*
X81462500Y-85350000D03*
X81462500Y-85850000D03*
X81462500Y-86350000D03*
D33*
X83400000Y-85100000D03*
D37*
X62462500Y-79350000D03*
X64537500Y-79350000D03*
D46*
X50950000Y-94900000D03*
D18*
X47450000Y-94900000D03*
D23*
X45620000Y-59530000D03*
X45620000Y-57530000D03*
D35*
X89337500Y-88350000D03*
X87262500Y-88350000D03*
D47*
X40948750Y-85420000D03*
X40948750Y-86370000D03*
X40948750Y-87320000D03*
X43223750Y-87320000D03*
X43223750Y-85420000D03*
D22*
X78450000Y-86800000D03*
D48*
X83287500Y-91210000D03*
X84237500Y-91210000D03*
X85187500Y-91210000D03*
X85187500Y-88935000D03*
X84237500Y-88935000D03*
X83287500Y-88935000D03*
D49*
X82610000Y-94535000D03*
X88390000Y-94535000D03*
D50*
X82300000Y-93460000D03*
X83100000Y-93460000D03*
D51*
X84250000Y-93460000D03*
X85250000Y-93460000D03*
X85750000Y-93460000D03*
X86750000Y-93460000D03*
D50*
X87900000Y-93460000D03*
X88700000Y-93460000D03*
X88700000Y-93460000D03*
X87900000Y-93460000D03*
D51*
X87250000Y-93460000D03*
X86250000Y-93460000D03*
X84750000Y-93460000D03*
X83750000Y-93460000D03*
D50*
X83100000Y-93460000D03*
X82300000Y-93460000D03*
D52*
X81180000Y-94035000D03*
D53*
X81180000Y-98215000D03*
D52*
X89820000Y-94035000D03*
D53*
X89820000Y-98215000D03*
D25*
X57600000Y-47300000D03*
X59600000Y-47300000D03*
D20*
X52600000Y-79450000D03*
X50600000Y-79450000D03*
D22*
X59275000Y-70600000D03*
X78350000Y-83750000D03*
D38*
X33020000Y-48260000D03*
D39*
X35560000Y-48260000D03*
X33020000Y-50800000D03*
X35560000Y-50800000D03*
X33020000Y-53340000D03*
X35560000Y-53340000D03*
X33020000Y-55880000D03*
X35560000Y-55880000D03*
X33020000Y-58420000D03*
X35560000Y-58420000D03*
X33020000Y-60960000D03*
X35560000Y-60960000D03*
X33020000Y-63500000D03*
X35560000Y-63500000D03*
X33020000Y-66040000D03*
X35560000Y-66040000D03*
X33020000Y-68580000D03*
X35560000Y-68580000D03*
X33020000Y-71120000D03*
X35560000Y-71120000D03*
X33020000Y-73660000D03*
X35560000Y-73660000D03*
X33020000Y-76200000D03*
X35560000Y-76200000D03*
X33020000Y-78740000D03*
X35560000Y-78740000D03*
X33020000Y-81280000D03*
X35560000Y-81280000D03*
X33020000Y-83820000D03*
X35560000Y-83820000D03*
X33020000Y-86360000D03*
X35560000Y-86360000D03*
X33020000Y-88900000D03*
X35560000Y-88900000D03*
X33020000Y-91440000D03*
X35560000Y-91440000D03*
X33020000Y-93980000D03*
X35560000Y-93980000D03*
X33020000Y-96520000D03*
X35560000Y-96520000D03*
D43*
X55400000Y-53300000D03*
D44*
X55400000Y-52000000D03*
D45*
X55400000Y-50700000D03*
D54*
X43100000Y-70860000D03*
X45640000Y-70860000D03*
X48180000Y-70860000D03*
X50720000Y-70860000D03*
X43100000Y-62600000D03*
X45640000Y-62600000D03*
X48180000Y-62600000D03*
X50720000Y-62600000D03*
D47*
X40943750Y-76950000D03*
X40943750Y-77900000D03*
X40943750Y-78850000D03*
X43218750Y-78850000D03*
X43218750Y-76950000D03*
%LPD*%
M02*
