G04 #@! TF.GenerationSoftware,KiCad,Pcbnew,8.0.8*
G04 #@! TF.CreationDate,2026-01-21T17:59:11+00:00*
G04 #@! TF.ProjectId,TestBench,54657374-4265-46e6-9368-2e6b69636164,rev?*
G04 #@! TF.SameCoordinates,Original*
G04 #@! TF.FileFunction,Soldermask,Bot*
G04 #@! TF.FilePolarity,Negative*
%FSLAX46Y46*%
G04 Gerber Fmt 4.6, Leading zero omitted, Abs format (unit mm)*
G04 Created by KiCad (PCBNEW 8.0.8) date 2026-01-21 17:59:11*
%MOMM*%
%LPD*%
G01*
G04 APERTURE LIST*
%ADD10C,3.200000*%
%ADD11R,1.700000X1.700000*%
%ADD12O,1.700000X1.700000*%
%ADD13C,1.650000*%
%ADD14R,1.365000X1.365000*%
%ADD15C,1.365000*%
%ADD16C,1.920000*%
%ADD17R,1.650000X1.650000*%
%ADD18C,0.650000*%
%ADD19O,1.000000X2.100000*%
%ADD20O,1.000000X1.800000*%
G04 APERTURE END LIST*
D10*
X90750000Y-76850000D03*
D11*
X49400000Y-86800000D03*
D12*
X51940000Y-86800000D03*
X54480000Y-86800000D03*
D11*
X49400000Y-83000000D03*
D12*
X51940000Y-83000000D03*
X54480000Y-83000000D03*
D13*
X77830000Y-68100000D03*
X77830000Y-70640000D03*
X80370000Y-68100000D03*
X80370000Y-70640000D03*
X82910000Y-68100000D03*
X82910000Y-70640000D03*
X85450000Y-68100000D03*
X85450000Y-70640000D03*
X87990000Y-68100000D03*
X85450000Y-65560000D03*
X87990000Y-65560000D03*
X85450000Y-63020000D03*
X87990000Y-63020000D03*
X85450000Y-60480000D03*
X87990000Y-60480000D03*
X85450000Y-57940000D03*
X87990000Y-57940000D03*
X85450000Y-55400000D03*
X87990000Y-55400000D03*
X85450000Y-52860000D03*
X82910000Y-55400000D03*
X82910000Y-52860000D03*
X80370000Y-55400000D03*
X80370000Y-52860000D03*
X77830000Y-55400000D03*
X77830000Y-52860000D03*
X75290000Y-55400000D03*
X75290000Y-52860000D03*
X72750000Y-55400000D03*
X72750000Y-52860000D03*
X70210000Y-55400000D03*
X72750000Y-57940000D03*
X70210000Y-57940000D03*
X72750000Y-60480000D03*
X70210000Y-60480000D03*
X72750000Y-63020000D03*
X70210000Y-63020000D03*
X72750000Y-65560000D03*
X70210000Y-65560000D03*
X72750000Y-68100000D03*
X70210000Y-68100000D03*
X72750000Y-70640000D03*
X75290000Y-68100000D03*
X75290000Y-70640000D03*
D11*
X99060000Y-96520000D03*
D12*
X96520000Y-96520000D03*
X99060000Y-93980000D03*
X96520000Y-93980000D03*
X99060000Y-91440000D03*
X96520000Y-91440000D03*
X99060000Y-88900000D03*
X96520000Y-88900000D03*
X99060000Y-86360000D03*
X96520000Y-86360000D03*
X99060000Y-83820000D03*
X96520000Y-83820000D03*
X99060000Y-81280000D03*
X96520000Y-81280000D03*
X99060000Y-78740000D03*
X96520000Y-78740000D03*
X99060000Y-76200000D03*
X96520000Y-76200000D03*
X99060000Y-73660000D03*
X96520000Y-73660000D03*
X99060000Y-71120000D03*
X96520000Y-71120000D03*
X99060000Y-68580000D03*
X96520000Y-68580000D03*
X99060000Y-66040000D03*
X96520000Y-66040000D03*
X99060000Y-63500000D03*
X96520000Y-63500000D03*
X99060000Y-60960000D03*
X96520000Y-60960000D03*
X99060000Y-58420000D03*
X96520000Y-58420000D03*
X99060000Y-55880000D03*
X96520000Y-55880000D03*
X99060000Y-53340000D03*
X96520000Y-53340000D03*
X99060000Y-50800000D03*
X96520000Y-50800000D03*
X99060000Y-48260000D03*
X96520000Y-48260000D03*
D14*
X58970000Y-95280000D03*
D15*
X61470000Y-95280000D03*
X63970000Y-95280000D03*
X58970000Y-92880000D03*
X61470000Y-92880000D03*
X63970000Y-92880000D03*
D16*
X56170000Y-94080000D03*
X66770000Y-94080000D03*
D17*
X50950000Y-94900000D03*
D13*
X47450000Y-94900000D03*
D18*
X82610000Y-94535000D03*
X88390000Y-94535000D03*
D19*
X81180000Y-94035000D03*
D20*
X81180000Y-98215000D03*
D19*
X89820000Y-94035000D03*
D20*
X89820000Y-98215000D03*
D11*
X33020000Y-48260000D03*
D12*
X35560000Y-48260000D03*
X33020000Y-50800000D03*
X35560000Y-50800000D03*
X33020000Y-53340000D03*
X35560000Y-53340000D03*
X33020000Y-55880000D03*
X35560000Y-55880000D03*
X33020000Y-58420000D03*
X35560000Y-58420000D03*
X33020000Y-60960000D03*
X35560000Y-60960000D03*
X33020000Y-63500000D03*
X35560000Y-63500000D03*
X33020000Y-66040000D03*
X35560000Y-66040000D03*
X33020000Y-68580000D03*
X35560000Y-68580000D03*
X33020000Y-71120000D03*
X35560000Y-71120000D03*
X33020000Y-73660000D03*
X35560000Y-73660000D03*
X33020000Y-76200000D03*
X35560000Y-76200000D03*
X33020000Y-78740000D03*
X35560000Y-78740000D03*
X33020000Y-81280000D03*
X35560000Y-81280000D03*
X33020000Y-83820000D03*
X35560000Y-83820000D03*
X33020000Y-86360000D03*
X35560000Y-86360000D03*
X33020000Y-88900000D03*
X35560000Y-88900000D03*
X33020000Y-91440000D03*
X35560000Y-91440000D03*
X33020000Y-93980000D03*
X35560000Y-93980000D03*
X33020000Y-96520000D03*
X35560000Y-96520000D03*
M02*
