%TF.GenerationSoftware,KiCad,Pcbnew,8.0.8*%
%TF.CreationDate,2026-01-21T18:01:51+00:00*%
%TF.ProjectId,TestBench,54657374-4265-46e6-9368-2e6b69636164,rev?*%
%TF.SameCoordinates,Original*%
%TF.FileFunction,Drillmap*%
%TF.FilePolarity,Positive*%
%FSLAX45Y45*%
G04 Gerber Fmt 4.5, Leading zero omitted, Abs format (unit mm)*
G04 Created by KiCad (PCBNEW 8.0.8) date 2026-01-21 18:01:51*
%MOMM*%
%LPD*%
G01*
G04 APERTURE LIST*
%ADD10C,0.050000*%
%ADD11C,0.200000*%
%ADD12C,0.100000*%
%ADD13C,0.320000*%
G04 APERTURE END LIST*
D10*
X3000000Y-9700000D02*
X3000000Y-4400000D01*
X3300000Y-4100000D02*
X9900000Y-4100000D01*
X10200000Y-4400000D02*
X10200000Y-9700000D01*
X3300000Y-10000000D02*
X9900000Y-10000000D01*
X9900000Y-4100000D02*
G75*
G02*
X10200000Y-4400000I0J-300000D01*
G01*
X3300000Y-10000000D02*
G75*
G02*
X3000000Y-9700000I0J300000D01*
G01*
X10200000Y-9700000D02*
G75*
G02*
X9900000Y-10000000I-300000J0D01*
G01*
X3000000Y-4400000D02*
G75*
G02*
X3300000Y-4100000I300000J0D01*
G01*
D11*
D12*
X8228500Y-9421000D02*
X8293500Y-9486000D01*
X8293500Y-9421000D02*
X8228500Y-9486000D01*
X8806500Y-9421000D02*
X8871500Y-9486000D01*
X8871500Y-9421000D02*
X8806500Y-9486000D01*
D13*
X9235000Y-7685000D02*
G75*
G02*
X8915000Y-7685000I-160000J0D01*
G01*
X8915000Y-7685000D02*
G75*
G02*
X9235000Y-7685000I160000J0D01*
G01*
D11*
X3258277Y-10313984D02*
X3258277Y-10113984D01*
X3258277Y-10113984D02*
X3305896Y-10113984D01*
X3305896Y-10113984D02*
X3334467Y-10123508D01*
X3334467Y-10123508D02*
X3353515Y-10142555D01*
X3353515Y-10142555D02*
X3363039Y-10161603D01*
X3363039Y-10161603D02*
X3372562Y-10199698D01*
X3372562Y-10199698D02*
X3372562Y-10228270D01*
X3372562Y-10228270D02*
X3363039Y-10266365D01*
X3363039Y-10266365D02*
X3353515Y-10285412D01*
X3353515Y-10285412D02*
X3334467Y-10304460D01*
X3334467Y-10304460D02*
X3305896Y-10313984D01*
X3305896Y-10313984D02*
X3258277Y-10313984D01*
X3458277Y-10313984D02*
X3458277Y-10180650D01*
X3458277Y-10218746D02*
X3467801Y-10199698D01*
X3467801Y-10199698D02*
X3477324Y-10190174D01*
X3477324Y-10190174D02*
X3496372Y-10180650D01*
X3496372Y-10180650D02*
X3515420Y-10180650D01*
X3582086Y-10313984D02*
X3582086Y-10180650D01*
X3582086Y-10113984D02*
X3572562Y-10123508D01*
X3572562Y-10123508D02*
X3582086Y-10133031D01*
X3582086Y-10133031D02*
X3591610Y-10123508D01*
X3591610Y-10123508D02*
X3582086Y-10113984D01*
X3582086Y-10113984D02*
X3582086Y-10133031D01*
X3705896Y-10313984D02*
X3686848Y-10304460D01*
X3686848Y-10304460D02*
X3677324Y-10285412D01*
X3677324Y-10285412D02*
X3677324Y-10113984D01*
X3810658Y-10313984D02*
X3791610Y-10304460D01*
X3791610Y-10304460D02*
X3782086Y-10285412D01*
X3782086Y-10285412D02*
X3782086Y-10113984D01*
X4039229Y-10313984D02*
X4039229Y-10113984D01*
X4039229Y-10113984D02*
X4105896Y-10256841D01*
X4105896Y-10256841D02*
X4172562Y-10113984D01*
X4172562Y-10113984D02*
X4172562Y-10313984D01*
X4353515Y-10313984D02*
X4353515Y-10209222D01*
X4353515Y-10209222D02*
X4343991Y-10190174D01*
X4343991Y-10190174D02*
X4324944Y-10180650D01*
X4324944Y-10180650D02*
X4286848Y-10180650D01*
X4286848Y-10180650D02*
X4267801Y-10190174D01*
X4353515Y-10304460D02*
X4334467Y-10313984D01*
X4334467Y-10313984D02*
X4286848Y-10313984D01*
X4286848Y-10313984D02*
X4267801Y-10304460D01*
X4267801Y-10304460D02*
X4258277Y-10285412D01*
X4258277Y-10285412D02*
X4258277Y-10266365D01*
X4258277Y-10266365D02*
X4267801Y-10247317D01*
X4267801Y-10247317D02*
X4286848Y-10237793D01*
X4286848Y-10237793D02*
X4334467Y-10237793D01*
X4334467Y-10237793D02*
X4353515Y-10228270D01*
X4448753Y-10180650D02*
X4448753Y-10380650D01*
X4448753Y-10190174D02*
X4467801Y-10180650D01*
X4467801Y-10180650D02*
X4505896Y-10180650D01*
X4505896Y-10180650D02*
X4524944Y-10190174D01*
X4524944Y-10190174D02*
X4534467Y-10199698D01*
X4534467Y-10199698D02*
X4543991Y-10218746D01*
X4543991Y-10218746D02*
X4543991Y-10275889D01*
X4543991Y-10275889D02*
X4534467Y-10294936D01*
X4534467Y-10294936D02*
X4524944Y-10304460D01*
X4524944Y-10304460D02*
X4505896Y-10313984D01*
X4505896Y-10313984D02*
X4467801Y-10313984D01*
X4467801Y-10313984D02*
X4448753Y-10304460D01*
X4629705Y-10294936D02*
X4639229Y-10304460D01*
X4639229Y-10304460D02*
X4629705Y-10313984D01*
X4629705Y-10313984D02*
X4620182Y-10304460D01*
X4620182Y-10304460D02*
X4629705Y-10294936D01*
X4629705Y-10294936D02*
X4629705Y-10313984D01*
X4629705Y-10190174D02*
X4639229Y-10199698D01*
X4639229Y-10199698D02*
X4629705Y-10209222D01*
X4629705Y-10209222D02*
X4620182Y-10199698D01*
X4620182Y-10199698D02*
X4629705Y-10190174D01*
X4629705Y-10190174D02*
X4629705Y-10209222D01*
D12*
X2932500Y-10610000D02*
X2997500Y-10675000D01*
X2997500Y-10610000D02*
X2932500Y-10675000D01*
D11*
X3296372Y-10533984D02*
X3315420Y-10533984D01*
X3315420Y-10533984D02*
X3334467Y-10543508D01*
X3334467Y-10543508D02*
X3343991Y-10553031D01*
X3343991Y-10553031D02*
X3353515Y-10572079D01*
X3353515Y-10572079D02*
X3363039Y-10610174D01*
X3363039Y-10610174D02*
X3363039Y-10657793D01*
X3363039Y-10657793D02*
X3353515Y-10695889D01*
X3353515Y-10695889D02*
X3343991Y-10714936D01*
X3343991Y-10714936D02*
X3334467Y-10724460D01*
X3334467Y-10724460D02*
X3315420Y-10733984D01*
X3315420Y-10733984D02*
X3296372Y-10733984D01*
X3296372Y-10733984D02*
X3277324Y-10724460D01*
X3277324Y-10724460D02*
X3267801Y-10714936D01*
X3267801Y-10714936D02*
X3258277Y-10695889D01*
X3258277Y-10695889D02*
X3248753Y-10657793D01*
X3248753Y-10657793D02*
X3248753Y-10610174D01*
X3248753Y-10610174D02*
X3258277Y-10572079D01*
X3258277Y-10572079D02*
X3267801Y-10553031D01*
X3267801Y-10553031D02*
X3277324Y-10543508D01*
X3277324Y-10543508D02*
X3296372Y-10533984D01*
X3448753Y-10714936D02*
X3458277Y-10724460D01*
X3458277Y-10724460D02*
X3448753Y-10733984D01*
X3448753Y-10733984D02*
X3439229Y-10724460D01*
X3439229Y-10724460D02*
X3448753Y-10714936D01*
X3448753Y-10714936D02*
X3448753Y-10733984D01*
X3629705Y-10533984D02*
X3591610Y-10533984D01*
X3591610Y-10533984D02*
X3572562Y-10543508D01*
X3572562Y-10543508D02*
X3563039Y-10553031D01*
X3563039Y-10553031D02*
X3543991Y-10581603D01*
X3543991Y-10581603D02*
X3534467Y-10619698D01*
X3534467Y-10619698D02*
X3534467Y-10695889D01*
X3534467Y-10695889D02*
X3543991Y-10714936D01*
X3543991Y-10714936D02*
X3553515Y-10724460D01*
X3553515Y-10724460D02*
X3572562Y-10733984D01*
X3572562Y-10733984D02*
X3610658Y-10733984D01*
X3610658Y-10733984D02*
X3629705Y-10724460D01*
X3629705Y-10724460D02*
X3639229Y-10714936D01*
X3639229Y-10714936D02*
X3648753Y-10695889D01*
X3648753Y-10695889D02*
X3648753Y-10648270D01*
X3648753Y-10648270D02*
X3639229Y-10629222D01*
X3639229Y-10629222D02*
X3629705Y-10619698D01*
X3629705Y-10619698D02*
X3610658Y-10610174D01*
X3610658Y-10610174D02*
X3572562Y-10610174D01*
X3572562Y-10610174D02*
X3553515Y-10619698D01*
X3553515Y-10619698D02*
X3543991Y-10629222D01*
X3543991Y-10629222D02*
X3534467Y-10648270D01*
X3829705Y-10533984D02*
X3734467Y-10533984D01*
X3734467Y-10533984D02*
X3724943Y-10629222D01*
X3724943Y-10629222D02*
X3734467Y-10619698D01*
X3734467Y-10619698D02*
X3753515Y-10610174D01*
X3753515Y-10610174D02*
X3801134Y-10610174D01*
X3801134Y-10610174D02*
X3820182Y-10619698D01*
X3820182Y-10619698D02*
X3829705Y-10629222D01*
X3829705Y-10629222D02*
X3839229Y-10648270D01*
X3839229Y-10648270D02*
X3839229Y-10695889D01*
X3839229Y-10695889D02*
X3829705Y-10714936D01*
X3829705Y-10714936D02*
X3820182Y-10724460D01*
X3820182Y-10724460D02*
X3801134Y-10733984D01*
X3801134Y-10733984D02*
X3753515Y-10733984D01*
X3753515Y-10733984D02*
X3734467Y-10724460D01*
X3734467Y-10724460D02*
X3724943Y-10714936D01*
X3963039Y-10533984D02*
X3982086Y-10533984D01*
X3982086Y-10533984D02*
X4001134Y-10543508D01*
X4001134Y-10543508D02*
X4010658Y-10553031D01*
X4010658Y-10553031D02*
X4020182Y-10572079D01*
X4020182Y-10572079D02*
X4029705Y-10610174D01*
X4029705Y-10610174D02*
X4029705Y-10657793D01*
X4029705Y-10657793D02*
X4020182Y-10695889D01*
X4020182Y-10695889D02*
X4010658Y-10714936D01*
X4010658Y-10714936D02*
X4001134Y-10724460D01*
X4001134Y-10724460D02*
X3982086Y-10733984D01*
X3982086Y-10733984D02*
X3963039Y-10733984D01*
X3963039Y-10733984D02*
X3943991Y-10724460D01*
X3943991Y-10724460D02*
X3934467Y-10714936D01*
X3934467Y-10714936D02*
X3924943Y-10695889D01*
X3924943Y-10695889D02*
X3915420Y-10657793D01*
X3915420Y-10657793D02*
X3915420Y-10610174D01*
X3915420Y-10610174D02*
X3924943Y-10572079D01*
X3924943Y-10572079D02*
X3934467Y-10553031D01*
X3934467Y-10553031D02*
X3943991Y-10543508D01*
X3943991Y-10543508D02*
X3963039Y-10533984D01*
X4115420Y-10733984D02*
X4115420Y-10600650D01*
X4115420Y-10619698D02*
X4124943Y-10610174D01*
X4124943Y-10610174D02*
X4143991Y-10600650D01*
X4143991Y-10600650D02*
X4172563Y-10600650D01*
X4172563Y-10600650D02*
X4191610Y-10610174D01*
X4191610Y-10610174D02*
X4201134Y-10629222D01*
X4201134Y-10629222D02*
X4201134Y-10733984D01*
X4201134Y-10629222D02*
X4210658Y-10610174D01*
X4210658Y-10610174D02*
X4229705Y-10600650D01*
X4229705Y-10600650D02*
X4258277Y-10600650D01*
X4258277Y-10600650D02*
X4277325Y-10610174D01*
X4277325Y-10610174D02*
X4286848Y-10629222D01*
X4286848Y-10629222D02*
X4286848Y-10733984D01*
X4382086Y-10733984D02*
X4382086Y-10600650D01*
X4382086Y-10619698D02*
X4391610Y-10610174D01*
X4391610Y-10610174D02*
X4410658Y-10600650D01*
X4410658Y-10600650D02*
X4439229Y-10600650D01*
X4439229Y-10600650D02*
X4458277Y-10610174D01*
X4458277Y-10610174D02*
X4467801Y-10629222D01*
X4467801Y-10629222D02*
X4467801Y-10733984D01*
X4467801Y-10629222D02*
X4477325Y-10610174D01*
X4477325Y-10610174D02*
X4496372Y-10600650D01*
X4496372Y-10600650D02*
X4524944Y-10600650D01*
X4524944Y-10600650D02*
X4543991Y-10610174D01*
X4543991Y-10610174D02*
X4553515Y-10629222D01*
X4553515Y-10629222D02*
X4553515Y-10733984D01*
X4943991Y-10524460D02*
X4772563Y-10781603D01*
X5201134Y-10533984D02*
X5220182Y-10533984D01*
X5220182Y-10533984D02*
X5239229Y-10543508D01*
X5239229Y-10543508D02*
X5248753Y-10553031D01*
X5248753Y-10553031D02*
X5258277Y-10572079D01*
X5258277Y-10572079D02*
X5267801Y-10610174D01*
X5267801Y-10610174D02*
X5267801Y-10657793D01*
X5267801Y-10657793D02*
X5258277Y-10695889D01*
X5258277Y-10695889D02*
X5248753Y-10714936D01*
X5248753Y-10714936D02*
X5239229Y-10724460D01*
X5239229Y-10724460D02*
X5220182Y-10733984D01*
X5220182Y-10733984D02*
X5201134Y-10733984D01*
X5201134Y-10733984D02*
X5182087Y-10724460D01*
X5182087Y-10724460D02*
X5172563Y-10714936D01*
X5172563Y-10714936D02*
X5163039Y-10695889D01*
X5163039Y-10695889D02*
X5153515Y-10657793D01*
X5153515Y-10657793D02*
X5153515Y-10610174D01*
X5153515Y-10610174D02*
X5163039Y-10572079D01*
X5163039Y-10572079D02*
X5172563Y-10553031D01*
X5172563Y-10553031D02*
X5182087Y-10543508D01*
X5182087Y-10543508D02*
X5201134Y-10533984D01*
X5353515Y-10714936D02*
X5363039Y-10724460D01*
X5363039Y-10724460D02*
X5353515Y-10733984D01*
X5353515Y-10733984D02*
X5343991Y-10724460D01*
X5343991Y-10724460D02*
X5353515Y-10714936D01*
X5353515Y-10714936D02*
X5353515Y-10733984D01*
X5486848Y-10533984D02*
X5505896Y-10533984D01*
X5505896Y-10533984D02*
X5524944Y-10543508D01*
X5524944Y-10543508D02*
X5534468Y-10553031D01*
X5534468Y-10553031D02*
X5543991Y-10572079D01*
X5543991Y-10572079D02*
X5553515Y-10610174D01*
X5553515Y-10610174D02*
X5553515Y-10657793D01*
X5553515Y-10657793D02*
X5543991Y-10695889D01*
X5543991Y-10695889D02*
X5534468Y-10714936D01*
X5534468Y-10714936D02*
X5524944Y-10724460D01*
X5524944Y-10724460D02*
X5505896Y-10733984D01*
X5505896Y-10733984D02*
X5486848Y-10733984D01*
X5486848Y-10733984D02*
X5467801Y-10724460D01*
X5467801Y-10724460D02*
X5458277Y-10714936D01*
X5458277Y-10714936D02*
X5448753Y-10695889D01*
X5448753Y-10695889D02*
X5439229Y-10657793D01*
X5439229Y-10657793D02*
X5439229Y-10610174D01*
X5439229Y-10610174D02*
X5448753Y-10572079D01*
X5448753Y-10572079D02*
X5458277Y-10553031D01*
X5458277Y-10553031D02*
X5467801Y-10543508D01*
X5467801Y-10543508D02*
X5486848Y-10533984D01*
X5629706Y-10553031D02*
X5639229Y-10543508D01*
X5639229Y-10543508D02*
X5658277Y-10533984D01*
X5658277Y-10533984D02*
X5705896Y-10533984D01*
X5705896Y-10533984D02*
X5724944Y-10543508D01*
X5724944Y-10543508D02*
X5734467Y-10553031D01*
X5734467Y-10553031D02*
X5743991Y-10572079D01*
X5743991Y-10572079D02*
X5743991Y-10591127D01*
X5743991Y-10591127D02*
X5734467Y-10619698D01*
X5734467Y-10619698D02*
X5620182Y-10733984D01*
X5620182Y-10733984D02*
X5743991Y-10733984D01*
X5924944Y-10533984D02*
X5829706Y-10533984D01*
X5829706Y-10533984D02*
X5820182Y-10629222D01*
X5820182Y-10629222D02*
X5829706Y-10619698D01*
X5829706Y-10619698D02*
X5848753Y-10610174D01*
X5848753Y-10610174D02*
X5896372Y-10610174D01*
X5896372Y-10610174D02*
X5915420Y-10619698D01*
X5915420Y-10619698D02*
X5924944Y-10629222D01*
X5924944Y-10629222D02*
X5934467Y-10648270D01*
X5934467Y-10648270D02*
X5934467Y-10695889D01*
X5934467Y-10695889D02*
X5924944Y-10714936D01*
X5924944Y-10714936D02*
X5915420Y-10724460D01*
X5915420Y-10724460D02*
X5896372Y-10733984D01*
X5896372Y-10733984D02*
X5848753Y-10733984D01*
X5848753Y-10733984D02*
X5829706Y-10724460D01*
X5829706Y-10724460D02*
X5820182Y-10714936D01*
X6105896Y-10533984D02*
X6067801Y-10533984D01*
X6067801Y-10533984D02*
X6048753Y-10543508D01*
X6048753Y-10543508D02*
X6039229Y-10553031D01*
X6039229Y-10553031D02*
X6020182Y-10581603D01*
X6020182Y-10581603D02*
X6010658Y-10619698D01*
X6010658Y-10619698D02*
X6010658Y-10695889D01*
X6010658Y-10695889D02*
X6020182Y-10714936D01*
X6020182Y-10714936D02*
X6029706Y-10724460D01*
X6029706Y-10724460D02*
X6048753Y-10733984D01*
X6048753Y-10733984D02*
X6086848Y-10733984D01*
X6086848Y-10733984D02*
X6105896Y-10724460D01*
X6105896Y-10724460D02*
X6115420Y-10714936D01*
X6115420Y-10714936D02*
X6124944Y-10695889D01*
X6124944Y-10695889D02*
X6124944Y-10648270D01*
X6124944Y-10648270D02*
X6115420Y-10629222D01*
X6115420Y-10629222D02*
X6105896Y-10619698D01*
X6105896Y-10619698D02*
X6086848Y-10610174D01*
X6086848Y-10610174D02*
X6048753Y-10610174D01*
X6048753Y-10610174D02*
X6029706Y-10619698D01*
X6029706Y-10619698D02*
X6020182Y-10629222D01*
X6020182Y-10629222D02*
X6010658Y-10648270D01*
X6201134Y-10533984D02*
X6201134Y-10572079D01*
X6277325Y-10533984D02*
X6277325Y-10572079D01*
X6572563Y-10810174D02*
X6563039Y-10800650D01*
X6563039Y-10800650D02*
X6543991Y-10772079D01*
X6543991Y-10772079D02*
X6534468Y-10753031D01*
X6534468Y-10753031D02*
X6524944Y-10724460D01*
X6524944Y-10724460D02*
X6515420Y-10676841D01*
X6515420Y-10676841D02*
X6515420Y-10638746D01*
X6515420Y-10638746D02*
X6524944Y-10591127D01*
X6524944Y-10591127D02*
X6534468Y-10562555D01*
X6534468Y-10562555D02*
X6543991Y-10543508D01*
X6543991Y-10543508D02*
X6563039Y-10514936D01*
X6563039Y-10514936D02*
X6572563Y-10505412D01*
X6639229Y-10553031D02*
X6648753Y-10543508D01*
X6648753Y-10543508D02*
X6667801Y-10533984D01*
X6667801Y-10533984D02*
X6715420Y-10533984D01*
X6715420Y-10533984D02*
X6734468Y-10543508D01*
X6734468Y-10543508D02*
X6743991Y-10553031D01*
X6743991Y-10553031D02*
X6753515Y-10572079D01*
X6753515Y-10572079D02*
X6753515Y-10591127D01*
X6753515Y-10591127D02*
X6743991Y-10619698D01*
X6743991Y-10619698D02*
X6629706Y-10733984D01*
X6629706Y-10733984D02*
X6753515Y-10733984D01*
X6991610Y-10733984D02*
X6991610Y-10533984D01*
X7077325Y-10733984D02*
X7077325Y-10629222D01*
X7077325Y-10629222D02*
X7067801Y-10610174D01*
X7067801Y-10610174D02*
X7048753Y-10600650D01*
X7048753Y-10600650D02*
X7020182Y-10600650D01*
X7020182Y-10600650D02*
X7001134Y-10610174D01*
X7001134Y-10610174D02*
X6991610Y-10619698D01*
X7201134Y-10733984D02*
X7182087Y-10724460D01*
X7182087Y-10724460D02*
X7172563Y-10714936D01*
X7172563Y-10714936D02*
X7163039Y-10695889D01*
X7163039Y-10695889D02*
X7163039Y-10638746D01*
X7163039Y-10638746D02*
X7172563Y-10619698D01*
X7172563Y-10619698D02*
X7182087Y-10610174D01*
X7182087Y-10610174D02*
X7201134Y-10600650D01*
X7201134Y-10600650D02*
X7229706Y-10600650D01*
X7229706Y-10600650D02*
X7248753Y-10610174D01*
X7248753Y-10610174D02*
X7258277Y-10619698D01*
X7258277Y-10619698D02*
X7267801Y-10638746D01*
X7267801Y-10638746D02*
X7267801Y-10695889D01*
X7267801Y-10695889D02*
X7258277Y-10714936D01*
X7258277Y-10714936D02*
X7248753Y-10724460D01*
X7248753Y-10724460D02*
X7229706Y-10733984D01*
X7229706Y-10733984D02*
X7201134Y-10733984D01*
X7382087Y-10733984D02*
X7363039Y-10724460D01*
X7363039Y-10724460D02*
X7353515Y-10705412D01*
X7353515Y-10705412D02*
X7353515Y-10533984D01*
X7534468Y-10724460D02*
X7515420Y-10733984D01*
X7515420Y-10733984D02*
X7477325Y-10733984D01*
X7477325Y-10733984D02*
X7458277Y-10724460D01*
X7458277Y-10724460D02*
X7448753Y-10705412D01*
X7448753Y-10705412D02*
X7448753Y-10629222D01*
X7448753Y-10629222D02*
X7458277Y-10610174D01*
X7458277Y-10610174D02*
X7477325Y-10600650D01*
X7477325Y-10600650D02*
X7515420Y-10600650D01*
X7515420Y-10600650D02*
X7534468Y-10610174D01*
X7534468Y-10610174D02*
X7543991Y-10629222D01*
X7543991Y-10629222D02*
X7543991Y-10648270D01*
X7543991Y-10648270D02*
X7448753Y-10667317D01*
X7620182Y-10724460D02*
X7639230Y-10733984D01*
X7639230Y-10733984D02*
X7677325Y-10733984D01*
X7677325Y-10733984D02*
X7696372Y-10724460D01*
X7696372Y-10724460D02*
X7705896Y-10705412D01*
X7705896Y-10705412D02*
X7705896Y-10695889D01*
X7705896Y-10695889D02*
X7696372Y-10676841D01*
X7696372Y-10676841D02*
X7677325Y-10667317D01*
X7677325Y-10667317D02*
X7648753Y-10667317D01*
X7648753Y-10667317D02*
X7629706Y-10657793D01*
X7629706Y-10657793D02*
X7620182Y-10638746D01*
X7620182Y-10638746D02*
X7620182Y-10629222D01*
X7620182Y-10629222D02*
X7629706Y-10610174D01*
X7629706Y-10610174D02*
X7648753Y-10600650D01*
X7648753Y-10600650D02*
X7677325Y-10600650D01*
X7677325Y-10600650D02*
X7696372Y-10610174D01*
X7772563Y-10810174D02*
X7782087Y-10800650D01*
X7782087Y-10800650D02*
X7801134Y-10772079D01*
X7801134Y-10772079D02*
X7810658Y-10753031D01*
X7810658Y-10753031D02*
X7820182Y-10724460D01*
X7820182Y-10724460D02*
X7829706Y-10676841D01*
X7829706Y-10676841D02*
X7829706Y-10638746D01*
X7829706Y-10638746D02*
X7820182Y-10591127D01*
X7820182Y-10591127D02*
X7810658Y-10562555D01*
X7810658Y-10562555D02*
X7801134Y-10543508D01*
X7801134Y-10543508D02*
X7782087Y-10514936D01*
X7782087Y-10514936D02*
X7772563Y-10505412D01*
X8134468Y-10810174D02*
X8124944Y-10800650D01*
X8124944Y-10800650D02*
X8105896Y-10772079D01*
X8105896Y-10772079D02*
X8096372Y-10753031D01*
X8096372Y-10753031D02*
X8086849Y-10724460D01*
X8086849Y-10724460D02*
X8077325Y-10676841D01*
X8077325Y-10676841D02*
X8077325Y-10638746D01*
X8077325Y-10638746D02*
X8086849Y-10591127D01*
X8086849Y-10591127D02*
X8096372Y-10562555D01*
X8096372Y-10562555D02*
X8105896Y-10543508D01*
X8105896Y-10543508D02*
X8124944Y-10514936D01*
X8124944Y-10514936D02*
X8134468Y-10505412D01*
X8210658Y-10600650D02*
X8210658Y-10733984D01*
X8210658Y-10619698D02*
X8220182Y-10610174D01*
X8220182Y-10610174D02*
X8239230Y-10600650D01*
X8239230Y-10600650D02*
X8267801Y-10600650D01*
X8267801Y-10600650D02*
X8286849Y-10610174D01*
X8286849Y-10610174D02*
X8296372Y-10629222D01*
X8296372Y-10629222D02*
X8296372Y-10733984D01*
X8420182Y-10733984D02*
X8401134Y-10724460D01*
X8401134Y-10724460D02*
X8391611Y-10714936D01*
X8391611Y-10714936D02*
X8382087Y-10695889D01*
X8382087Y-10695889D02*
X8382087Y-10638746D01*
X8382087Y-10638746D02*
X8391611Y-10619698D01*
X8391611Y-10619698D02*
X8401134Y-10610174D01*
X8401134Y-10610174D02*
X8420182Y-10600650D01*
X8420182Y-10600650D02*
X8448754Y-10600650D01*
X8448754Y-10600650D02*
X8467801Y-10610174D01*
X8467801Y-10610174D02*
X8477325Y-10619698D01*
X8477325Y-10619698D02*
X8486849Y-10638746D01*
X8486849Y-10638746D02*
X8486849Y-10695889D01*
X8486849Y-10695889D02*
X8477325Y-10714936D01*
X8477325Y-10714936D02*
X8467801Y-10724460D01*
X8467801Y-10724460D02*
X8448754Y-10733984D01*
X8448754Y-10733984D02*
X8420182Y-10733984D01*
X8543992Y-10600650D02*
X8620182Y-10600650D01*
X8572563Y-10533984D02*
X8572563Y-10705412D01*
X8572563Y-10705412D02*
X8582087Y-10724460D01*
X8582087Y-10724460D02*
X8601134Y-10733984D01*
X8601134Y-10733984D02*
X8620182Y-10733984D01*
X8839230Y-10600650D02*
X8839230Y-10800650D01*
X8839230Y-10610174D02*
X8858277Y-10600650D01*
X8858277Y-10600650D02*
X8896373Y-10600650D01*
X8896373Y-10600650D02*
X8915420Y-10610174D01*
X8915420Y-10610174D02*
X8924944Y-10619698D01*
X8924944Y-10619698D02*
X8934468Y-10638746D01*
X8934468Y-10638746D02*
X8934468Y-10695889D01*
X8934468Y-10695889D02*
X8924944Y-10714936D01*
X8924944Y-10714936D02*
X8915420Y-10724460D01*
X8915420Y-10724460D02*
X8896373Y-10733984D01*
X8896373Y-10733984D02*
X8858277Y-10733984D01*
X8858277Y-10733984D02*
X8839230Y-10724460D01*
X9048754Y-10733984D02*
X9029706Y-10724460D01*
X9029706Y-10724460D02*
X9020182Y-10705412D01*
X9020182Y-10705412D02*
X9020182Y-10533984D01*
X9210658Y-10733984D02*
X9210658Y-10629222D01*
X9210658Y-10629222D02*
X9201135Y-10610174D01*
X9201135Y-10610174D02*
X9182087Y-10600650D01*
X9182087Y-10600650D02*
X9143992Y-10600650D01*
X9143992Y-10600650D02*
X9124944Y-10610174D01*
X9210658Y-10724460D02*
X9191611Y-10733984D01*
X9191611Y-10733984D02*
X9143992Y-10733984D01*
X9143992Y-10733984D02*
X9124944Y-10724460D01*
X9124944Y-10724460D02*
X9115420Y-10705412D01*
X9115420Y-10705412D02*
X9115420Y-10686365D01*
X9115420Y-10686365D02*
X9124944Y-10667317D01*
X9124944Y-10667317D02*
X9143992Y-10657793D01*
X9143992Y-10657793D02*
X9191611Y-10657793D01*
X9191611Y-10657793D02*
X9210658Y-10648270D01*
X9277325Y-10600650D02*
X9353515Y-10600650D01*
X9305896Y-10533984D02*
X9305896Y-10705412D01*
X9305896Y-10705412D02*
X9315420Y-10724460D01*
X9315420Y-10724460D02*
X9334468Y-10733984D01*
X9334468Y-10733984D02*
X9353515Y-10733984D01*
X9496373Y-10724460D02*
X9477325Y-10733984D01*
X9477325Y-10733984D02*
X9439230Y-10733984D01*
X9439230Y-10733984D02*
X9420182Y-10724460D01*
X9420182Y-10724460D02*
X9410658Y-10705412D01*
X9410658Y-10705412D02*
X9410658Y-10629222D01*
X9410658Y-10629222D02*
X9420182Y-10610174D01*
X9420182Y-10610174D02*
X9439230Y-10600650D01*
X9439230Y-10600650D02*
X9477325Y-10600650D01*
X9477325Y-10600650D02*
X9496373Y-10610174D01*
X9496373Y-10610174D02*
X9505896Y-10629222D01*
X9505896Y-10629222D02*
X9505896Y-10648270D01*
X9505896Y-10648270D02*
X9410658Y-10667317D01*
X9677325Y-10733984D02*
X9677325Y-10533984D01*
X9677325Y-10724460D02*
X9658277Y-10733984D01*
X9658277Y-10733984D02*
X9620182Y-10733984D01*
X9620182Y-10733984D02*
X9601135Y-10724460D01*
X9601135Y-10724460D02*
X9591611Y-10714936D01*
X9591611Y-10714936D02*
X9582087Y-10695889D01*
X9582087Y-10695889D02*
X9582087Y-10638746D01*
X9582087Y-10638746D02*
X9591611Y-10619698D01*
X9591611Y-10619698D02*
X9601135Y-10610174D01*
X9601135Y-10610174D02*
X9620182Y-10600650D01*
X9620182Y-10600650D02*
X9658277Y-10600650D01*
X9658277Y-10600650D02*
X9677325Y-10610174D01*
X9753516Y-10810174D02*
X9763039Y-10800650D01*
X9763039Y-10800650D02*
X9782087Y-10772079D01*
X9782087Y-10772079D02*
X9791611Y-10753031D01*
X9791611Y-10753031D02*
X9801135Y-10724460D01*
X9801135Y-10724460D02*
X9810658Y-10676841D01*
X9810658Y-10676841D02*
X9810658Y-10638746D01*
X9810658Y-10638746D02*
X9801135Y-10591127D01*
X9801135Y-10591127D02*
X9791611Y-10562555D01*
X9791611Y-10562555D02*
X9782087Y-10543508D01*
X9782087Y-10543508D02*
X9763039Y-10514936D01*
X9763039Y-10514936D02*
X9753516Y-10505412D01*
X2997500Y-10906500D02*
G75*
G02*
X2797500Y-10906500I-100000J0D01*
G01*
X2797500Y-10906500D02*
G75*
G02*
X2997500Y-10906500I100000J0D01*
G01*
X3239229Y-10797984D02*
X3363039Y-10797984D01*
X3363039Y-10797984D02*
X3296372Y-10874174D01*
X3296372Y-10874174D02*
X3324943Y-10874174D01*
X3324943Y-10874174D02*
X3343991Y-10883698D01*
X3343991Y-10883698D02*
X3353515Y-10893222D01*
X3353515Y-10893222D02*
X3363039Y-10912270D01*
X3363039Y-10912270D02*
X3363039Y-10959889D01*
X3363039Y-10959889D02*
X3353515Y-10978936D01*
X3353515Y-10978936D02*
X3343991Y-10988460D01*
X3343991Y-10988460D02*
X3324943Y-10997984D01*
X3324943Y-10997984D02*
X3267801Y-10997984D01*
X3267801Y-10997984D02*
X3248753Y-10988460D01*
X3248753Y-10988460D02*
X3239229Y-10978936D01*
X3448753Y-10978936D02*
X3458277Y-10988460D01*
X3458277Y-10988460D02*
X3448753Y-10997984D01*
X3448753Y-10997984D02*
X3439229Y-10988460D01*
X3439229Y-10988460D02*
X3448753Y-10978936D01*
X3448753Y-10978936D02*
X3448753Y-10997984D01*
X3534467Y-10817031D02*
X3543991Y-10807508D01*
X3543991Y-10807508D02*
X3563039Y-10797984D01*
X3563039Y-10797984D02*
X3610658Y-10797984D01*
X3610658Y-10797984D02*
X3629705Y-10807508D01*
X3629705Y-10807508D02*
X3639229Y-10817031D01*
X3639229Y-10817031D02*
X3648753Y-10836079D01*
X3648753Y-10836079D02*
X3648753Y-10855127D01*
X3648753Y-10855127D02*
X3639229Y-10883698D01*
X3639229Y-10883698D02*
X3524943Y-10997984D01*
X3524943Y-10997984D02*
X3648753Y-10997984D01*
X3772562Y-10797984D02*
X3791610Y-10797984D01*
X3791610Y-10797984D02*
X3810658Y-10807508D01*
X3810658Y-10807508D02*
X3820182Y-10817031D01*
X3820182Y-10817031D02*
X3829705Y-10836079D01*
X3829705Y-10836079D02*
X3839229Y-10874174D01*
X3839229Y-10874174D02*
X3839229Y-10921793D01*
X3839229Y-10921793D02*
X3829705Y-10959889D01*
X3829705Y-10959889D02*
X3820182Y-10978936D01*
X3820182Y-10978936D02*
X3810658Y-10988460D01*
X3810658Y-10988460D02*
X3791610Y-10997984D01*
X3791610Y-10997984D02*
X3772562Y-10997984D01*
X3772562Y-10997984D02*
X3753515Y-10988460D01*
X3753515Y-10988460D02*
X3743991Y-10978936D01*
X3743991Y-10978936D02*
X3734467Y-10959889D01*
X3734467Y-10959889D02*
X3724943Y-10921793D01*
X3724943Y-10921793D02*
X3724943Y-10874174D01*
X3724943Y-10874174D02*
X3734467Y-10836079D01*
X3734467Y-10836079D02*
X3743991Y-10817031D01*
X3743991Y-10817031D02*
X3753515Y-10807508D01*
X3753515Y-10807508D02*
X3772562Y-10797984D01*
X3963039Y-10797984D02*
X3982086Y-10797984D01*
X3982086Y-10797984D02*
X4001134Y-10807508D01*
X4001134Y-10807508D02*
X4010658Y-10817031D01*
X4010658Y-10817031D02*
X4020182Y-10836079D01*
X4020182Y-10836079D02*
X4029705Y-10874174D01*
X4029705Y-10874174D02*
X4029705Y-10921793D01*
X4029705Y-10921793D02*
X4020182Y-10959889D01*
X4020182Y-10959889D02*
X4010658Y-10978936D01*
X4010658Y-10978936D02*
X4001134Y-10988460D01*
X4001134Y-10988460D02*
X3982086Y-10997984D01*
X3982086Y-10997984D02*
X3963039Y-10997984D01*
X3963039Y-10997984D02*
X3943991Y-10988460D01*
X3943991Y-10988460D02*
X3934467Y-10978936D01*
X3934467Y-10978936D02*
X3924943Y-10959889D01*
X3924943Y-10959889D02*
X3915420Y-10921793D01*
X3915420Y-10921793D02*
X3915420Y-10874174D01*
X3915420Y-10874174D02*
X3924943Y-10836079D01*
X3924943Y-10836079D02*
X3934467Y-10817031D01*
X3934467Y-10817031D02*
X3943991Y-10807508D01*
X3943991Y-10807508D02*
X3963039Y-10797984D01*
X4115420Y-10997984D02*
X4115420Y-10864650D01*
X4115420Y-10883698D02*
X4124943Y-10874174D01*
X4124943Y-10874174D02*
X4143991Y-10864650D01*
X4143991Y-10864650D02*
X4172563Y-10864650D01*
X4172563Y-10864650D02*
X4191610Y-10874174D01*
X4191610Y-10874174D02*
X4201134Y-10893222D01*
X4201134Y-10893222D02*
X4201134Y-10997984D01*
X4201134Y-10893222D02*
X4210658Y-10874174D01*
X4210658Y-10874174D02*
X4229705Y-10864650D01*
X4229705Y-10864650D02*
X4258277Y-10864650D01*
X4258277Y-10864650D02*
X4277325Y-10874174D01*
X4277325Y-10874174D02*
X4286848Y-10893222D01*
X4286848Y-10893222D02*
X4286848Y-10997984D01*
X4382086Y-10997984D02*
X4382086Y-10864650D01*
X4382086Y-10883698D02*
X4391610Y-10874174D01*
X4391610Y-10874174D02*
X4410658Y-10864650D01*
X4410658Y-10864650D02*
X4439229Y-10864650D01*
X4439229Y-10864650D02*
X4458277Y-10874174D01*
X4458277Y-10874174D02*
X4467801Y-10893222D01*
X4467801Y-10893222D02*
X4467801Y-10997984D01*
X4467801Y-10893222D02*
X4477325Y-10874174D01*
X4477325Y-10874174D02*
X4496372Y-10864650D01*
X4496372Y-10864650D02*
X4524944Y-10864650D01*
X4524944Y-10864650D02*
X4543991Y-10874174D01*
X4543991Y-10874174D02*
X4553515Y-10893222D01*
X4553515Y-10893222D02*
X4553515Y-10997984D01*
X4943991Y-10788460D02*
X4772563Y-11045603D01*
X5201134Y-10797984D02*
X5220182Y-10797984D01*
X5220182Y-10797984D02*
X5239229Y-10807508D01*
X5239229Y-10807508D02*
X5248753Y-10817031D01*
X5248753Y-10817031D02*
X5258277Y-10836079D01*
X5258277Y-10836079D02*
X5267801Y-10874174D01*
X5267801Y-10874174D02*
X5267801Y-10921793D01*
X5267801Y-10921793D02*
X5258277Y-10959889D01*
X5258277Y-10959889D02*
X5248753Y-10978936D01*
X5248753Y-10978936D02*
X5239229Y-10988460D01*
X5239229Y-10988460D02*
X5220182Y-10997984D01*
X5220182Y-10997984D02*
X5201134Y-10997984D01*
X5201134Y-10997984D02*
X5182087Y-10988460D01*
X5182087Y-10988460D02*
X5172563Y-10978936D01*
X5172563Y-10978936D02*
X5163039Y-10959889D01*
X5163039Y-10959889D02*
X5153515Y-10921793D01*
X5153515Y-10921793D02*
X5153515Y-10874174D01*
X5153515Y-10874174D02*
X5163039Y-10836079D01*
X5163039Y-10836079D02*
X5172563Y-10817031D01*
X5172563Y-10817031D02*
X5182087Y-10807508D01*
X5182087Y-10807508D02*
X5201134Y-10797984D01*
X5353515Y-10978936D02*
X5363039Y-10988460D01*
X5363039Y-10988460D02*
X5353515Y-10997984D01*
X5353515Y-10997984D02*
X5343991Y-10988460D01*
X5343991Y-10988460D02*
X5353515Y-10978936D01*
X5353515Y-10978936D02*
X5353515Y-10997984D01*
X5553515Y-10997984D02*
X5439229Y-10997984D01*
X5496372Y-10997984D02*
X5496372Y-10797984D01*
X5496372Y-10797984D02*
X5477325Y-10826555D01*
X5477325Y-10826555D02*
X5458277Y-10845603D01*
X5458277Y-10845603D02*
X5439229Y-10855127D01*
X5629706Y-10817031D02*
X5639229Y-10807508D01*
X5639229Y-10807508D02*
X5658277Y-10797984D01*
X5658277Y-10797984D02*
X5705896Y-10797984D01*
X5705896Y-10797984D02*
X5724944Y-10807508D01*
X5724944Y-10807508D02*
X5734467Y-10817031D01*
X5734467Y-10817031D02*
X5743991Y-10836079D01*
X5743991Y-10836079D02*
X5743991Y-10855127D01*
X5743991Y-10855127D02*
X5734467Y-10883698D01*
X5734467Y-10883698D02*
X5620182Y-10997984D01*
X5620182Y-10997984D02*
X5743991Y-10997984D01*
X5915420Y-10797984D02*
X5877325Y-10797984D01*
X5877325Y-10797984D02*
X5858277Y-10807508D01*
X5858277Y-10807508D02*
X5848753Y-10817031D01*
X5848753Y-10817031D02*
X5829706Y-10845603D01*
X5829706Y-10845603D02*
X5820182Y-10883698D01*
X5820182Y-10883698D02*
X5820182Y-10959889D01*
X5820182Y-10959889D02*
X5829706Y-10978936D01*
X5829706Y-10978936D02*
X5839229Y-10988460D01*
X5839229Y-10988460D02*
X5858277Y-10997984D01*
X5858277Y-10997984D02*
X5896372Y-10997984D01*
X5896372Y-10997984D02*
X5915420Y-10988460D01*
X5915420Y-10988460D02*
X5924944Y-10978936D01*
X5924944Y-10978936D02*
X5934467Y-10959889D01*
X5934467Y-10959889D02*
X5934467Y-10912270D01*
X5934467Y-10912270D02*
X5924944Y-10893222D01*
X5924944Y-10893222D02*
X5915420Y-10883698D01*
X5915420Y-10883698D02*
X5896372Y-10874174D01*
X5896372Y-10874174D02*
X5858277Y-10874174D01*
X5858277Y-10874174D02*
X5839229Y-10883698D01*
X5839229Y-10883698D02*
X5829706Y-10893222D01*
X5829706Y-10893222D02*
X5820182Y-10912270D01*
X6058277Y-10797984D02*
X6077325Y-10797984D01*
X6077325Y-10797984D02*
X6096372Y-10807508D01*
X6096372Y-10807508D02*
X6105896Y-10817031D01*
X6105896Y-10817031D02*
X6115420Y-10836079D01*
X6115420Y-10836079D02*
X6124944Y-10874174D01*
X6124944Y-10874174D02*
X6124944Y-10921793D01*
X6124944Y-10921793D02*
X6115420Y-10959889D01*
X6115420Y-10959889D02*
X6105896Y-10978936D01*
X6105896Y-10978936D02*
X6096372Y-10988460D01*
X6096372Y-10988460D02*
X6077325Y-10997984D01*
X6077325Y-10997984D02*
X6058277Y-10997984D01*
X6058277Y-10997984D02*
X6039229Y-10988460D01*
X6039229Y-10988460D02*
X6029706Y-10978936D01*
X6029706Y-10978936D02*
X6020182Y-10959889D01*
X6020182Y-10959889D02*
X6010658Y-10921793D01*
X6010658Y-10921793D02*
X6010658Y-10874174D01*
X6010658Y-10874174D02*
X6020182Y-10836079D01*
X6020182Y-10836079D02*
X6029706Y-10817031D01*
X6029706Y-10817031D02*
X6039229Y-10807508D01*
X6039229Y-10807508D02*
X6058277Y-10797984D01*
X6201134Y-10797984D02*
X6201134Y-10836079D01*
X6277325Y-10797984D02*
X6277325Y-10836079D01*
X6572563Y-11074174D02*
X6563039Y-11064650D01*
X6563039Y-11064650D02*
X6543991Y-11036079D01*
X6543991Y-11036079D02*
X6534468Y-11017031D01*
X6534468Y-11017031D02*
X6524944Y-10988460D01*
X6524944Y-10988460D02*
X6515420Y-10940841D01*
X6515420Y-10940841D02*
X6515420Y-10902746D01*
X6515420Y-10902746D02*
X6524944Y-10855127D01*
X6524944Y-10855127D02*
X6534468Y-10826555D01*
X6534468Y-10826555D02*
X6543991Y-10807508D01*
X6543991Y-10807508D02*
X6563039Y-10778936D01*
X6563039Y-10778936D02*
X6572563Y-10769412D01*
X6753515Y-10997984D02*
X6639229Y-10997984D01*
X6696372Y-10997984D02*
X6696372Y-10797984D01*
X6696372Y-10797984D02*
X6677325Y-10826555D01*
X6677325Y-10826555D02*
X6658277Y-10845603D01*
X6658277Y-10845603D02*
X6639229Y-10855127D01*
X6991610Y-10997984D02*
X6991610Y-10797984D01*
X7077325Y-10997984D02*
X7077325Y-10893222D01*
X7077325Y-10893222D02*
X7067801Y-10874174D01*
X7067801Y-10874174D02*
X7048753Y-10864650D01*
X7048753Y-10864650D02*
X7020182Y-10864650D01*
X7020182Y-10864650D02*
X7001134Y-10874174D01*
X7001134Y-10874174D02*
X6991610Y-10883698D01*
X7201134Y-10997984D02*
X7182087Y-10988460D01*
X7182087Y-10988460D02*
X7172563Y-10978936D01*
X7172563Y-10978936D02*
X7163039Y-10959889D01*
X7163039Y-10959889D02*
X7163039Y-10902746D01*
X7163039Y-10902746D02*
X7172563Y-10883698D01*
X7172563Y-10883698D02*
X7182087Y-10874174D01*
X7182087Y-10874174D02*
X7201134Y-10864650D01*
X7201134Y-10864650D02*
X7229706Y-10864650D01*
X7229706Y-10864650D02*
X7248753Y-10874174D01*
X7248753Y-10874174D02*
X7258277Y-10883698D01*
X7258277Y-10883698D02*
X7267801Y-10902746D01*
X7267801Y-10902746D02*
X7267801Y-10959889D01*
X7267801Y-10959889D02*
X7258277Y-10978936D01*
X7258277Y-10978936D02*
X7248753Y-10988460D01*
X7248753Y-10988460D02*
X7229706Y-10997984D01*
X7229706Y-10997984D02*
X7201134Y-10997984D01*
X7382087Y-10997984D02*
X7363039Y-10988460D01*
X7363039Y-10988460D02*
X7353515Y-10969412D01*
X7353515Y-10969412D02*
X7353515Y-10797984D01*
X7534468Y-10988460D02*
X7515420Y-10997984D01*
X7515420Y-10997984D02*
X7477325Y-10997984D01*
X7477325Y-10997984D02*
X7458277Y-10988460D01*
X7458277Y-10988460D02*
X7448753Y-10969412D01*
X7448753Y-10969412D02*
X7448753Y-10893222D01*
X7448753Y-10893222D02*
X7458277Y-10874174D01*
X7458277Y-10874174D02*
X7477325Y-10864650D01*
X7477325Y-10864650D02*
X7515420Y-10864650D01*
X7515420Y-10864650D02*
X7534468Y-10874174D01*
X7534468Y-10874174D02*
X7543991Y-10893222D01*
X7543991Y-10893222D02*
X7543991Y-10912270D01*
X7543991Y-10912270D02*
X7448753Y-10931317D01*
X7610658Y-11074174D02*
X7620182Y-11064650D01*
X7620182Y-11064650D02*
X7639230Y-11036079D01*
X7639230Y-11036079D02*
X7648753Y-11017031D01*
X7648753Y-11017031D02*
X7658277Y-10988460D01*
X7658277Y-10988460D02*
X7667801Y-10940841D01*
X7667801Y-10940841D02*
X7667801Y-10902746D01*
X7667801Y-10902746D02*
X7658277Y-10855127D01*
X7658277Y-10855127D02*
X7648753Y-10826555D01*
X7648753Y-10826555D02*
X7639230Y-10807508D01*
X7639230Y-10807508D02*
X7620182Y-10778936D01*
X7620182Y-10778936D02*
X7610658Y-10769412D01*
X7972563Y-11074174D02*
X7963039Y-11064650D01*
X7963039Y-11064650D02*
X7943991Y-11036079D01*
X7943991Y-11036079D02*
X7934468Y-11017031D01*
X7934468Y-11017031D02*
X7924944Y-10988460D01*
X7924944Y-10988460D02*
X7915420Y-10940841D01*
X7915420Y-10940841D02*
X7915420Y-10902746D01*
X7915420Y-10902746D02*
X7924944Y-10855127D01*
X7924944Y-10855127D02*
X7934468Y-10826555D01*
X7934468Y-10826555D02*
X7943991Y-10807508D01*
X7943991Y-10807508D02*
X7963039Y-10778936D01*
X7963039Y-10778936D02*
X7972563Y-10769412D01*
X8048753Y-10864650D02*
X8048753Y-10997984D01*
X8048753Y-10883698D02*
X8058277Y-10874174D01*
X8058277Y-10874174D02*
X8077325Y-10864650D01*
X8077325Y-10864650D02*
X8105896Y-10864650D01*
X8105896Y-10864650D02*
X8124944Y-10874174D01*
X8124944Y-10874174D02*
X8134468Y-10893222D01*
X8134468Y-10893222D02*
X8134468Y-10997984D01*
X8258277Y-10997984D02*
X8239230Y-10988460D01*
X8239230Y-10988460D02*
X8229706Y-10978936D01*
X8229706Y-10978936D02*
X8220182Y-10959889D01*
X8220182Y-10959889D02*
X8220182Y-10902746D01*
X8220182Y-10902746D02*
X8229706Y-10883698D01*
X8229706Y-10883698D02*
X8239230Y-10874174D01*
X8239230Y-10874174D02*
X8258277Y-10864650D01*
X8258277Y-10864650D02*
X8286849Y-10864650D01*
X8286849Y-10864650D02*
X8305896Y-10874174D01*
X8305896Y-10874174D02*
X8315420Y-10883698D01*
X8315420Y-10883698D02*
X8324944Y-10902746D01*
X8324944Y-10902746D02*
X8324944Y-10959889D01*
X8324944Y-10959889D02*
X8315420Y-10978936D01*
X8315420Y-10978936D02*
X8305896Y-10988460D01*
X8305896Y-10988460D02*
X8286849Y-10997984D01*
X8286849Y-10997984D02*
X8258277Y-10997984D01*
X8382087Y-10864650D02*
X8458277Y-10864650D01*
X8410658Y-10797984D02*
X8410658Y-10969412D01*
X8410658Y-10969412D02*
X8420182Y-10988460D01*
X8420182Y-10988460D02*
X8439230Y-10997984D01*
X8439230Y-10997984D02*
X8458277Y-10997984D01*
X8677325Y-10864650D02*
X8677325Y-11064650D01*
X8677325Y-10874174D02*
X8696373Y-10864650D01*
X8696373Y-10864650D02*
X8734468Y-10864650D01*
X8734468Y-10864650D02*
X8753515Y-10874174D01*
X8753515Y-10874174D02*
X8763039Y-10883698D01*
X8763039Y-10883698D02*
X8772563Y-10902746D01*
X8772563Y-10902746D02*
X8772563Y-10959889D01*
X8772563Y-10959889D02*
X8763039Y-10978936D01*
X8763039Y-10978936D02*
X8753515Y-10988460D01*
X8753515Y-10988460D02*
X8734468Y-10997984D01*
X8734468Y-10997984D02*
X8696373Y-10997984D01*
X8696373Y-10997984D02*
X8677325Y-10988460D01*
X8886849Y-10997984D02*
X8867801Y-10988460D01*
X8867801Y-10988460D02*
X8858277Y-10969412D01*
X8858277Y-10969412D02*
X8858277Y-10797984D01*
X9048754Y-10997984D02*
X9048754Y-10893222D01*
X9048754Y-10893222D02*
X9039230Y-10874174D01*
X9039230Y-10874174D02*
X9020182Y-10864650D01*
X9020182Y-10864650D02*
X8982087Y-10864650D01*
X8982087Y-10864650D02*
X8963039Y-10874174D01*
X9048754Y-10988460D02*
X9029706Y-10997984D01*
X9029706Y-10997984D02*
X8982087Y-10997984D01*
X8982087Y-10997984D02*
X8963039Y-10988460D01*
X8963039Y-10988460D02*
X8953515Y-10969412D01*
X8953515Y-10969412D02*
X8953515Y-10950365D01*
X8953515Y-10950365D02*
X8963039Y-10931317D01*
X8963039Y-10931317D02*
X8982087Y-10921793D01*
X8982087Y-10921793D02*
X9029706Y-10921793D01*
X9029706Y-10921793D02*
X9048754Y-10912270D01*
X9115420Y-10864650D02*
X9191611Y-10864650D01*
X9143992Y-10797984D02*
X9143992Y-10969412D01*
X9143992Y-10969412D02*
X9153515Y-10988460D01*
X9153515Y-10988460D02*
X9172563Y-10997984D01*
X9172563Y-10997984D02*
X9191611Y-10997984D01*
X9334468Y-10988460D02*
X9315420Y-10997984D01*
X9315420Y-10997984D02*
X9277325Y-10997984D01*
X9277325Y-10997984D02*
X9258277Y-10988460D01*
X9258277Y-10988460D02*
X9248754Y-10969412D01*
X9248754Y-10969412D02*
X9248754Y-10893222D01*
X9248754Y-10893222D02*
X9258277Y-10874174D01*
X9258277Y-10874174D02*
X9277325Y-10864650D01*
X9277325Y-10864650D02*
X9315420Y-10864650D01*
X9315420Y-10864650D02*
X9334468Y-10874174D01*
X9334468Y-10874174D02*
X9343992Y-10893222D01*
X9343992Y-10893222D02*
X9343992Y-10912270D01*
X9343992Y-10912270D02*
X9248754Y-10931317D01*
X9515420Y-10997984D02*
X9515420Y-10797984D01*
X9515420Y-10988460D02*
X9496373Y-10997984D01*
X9496373Y-10997984D02*
X9458277Y-10997984D01*
X9458277Y-10997984D02*
X9439230Y-10988460D01*
X9439230Y-10988460D02*
X9429706Y-10978936D01*
X9429706Y-10978936D02*
X9420182Y-10959889D01*
X9420182Y-10959889D02*
X9420182Y-10902746D01*
X9420182Y-10902746D02*
X9429706Y-10883698D01*
X9429706Y-10883698D02*
X9439230Y-10874174D01*
X9439230Y-10874174D02*
X9458277Y-10864650D01*
X9458277Y-10864650D02*
X9496373Y-10864650D01*
X9496373Y-10864650D02*
X9515420Y-10874174D01*
X9591611Y-11074174D02*
X9601135Y-11064650D01*
X9601135Y-11064650D02*
X9620182Y-11036079D01*
X9620182Y-11036079D02*
X9629706Y-11017031D01*
X9629706Y-11017031D02*
X9639230Y-10988460D01*
X9639230Y-10988460D02*
X9648754Y-10940841D01*
X9648754Y-10940841D02*
X9648754Y-10902746D01*
X9648754Y-10902746D02*
X9639230Y-10855127D01*
X9639230Y-10855127D02*
X9629706Y-10826555D01*
X9629706Y-10826555D02*
X9620182Y-10807508D01*
X9620182Y-10807508D02*
X9601135Y-10778936D01*
X9601135Y-10778936D02*
X9591611Y-10769412D01*
M02*
